<svg xmlns="http://www.w3.org/2000/svg" id="a" viewBox="0 0 952.54 849.07"><defs><style>.b,.c{opacity:.3}.b,.d{fill:#17bef0}.e{fill:#0e86a9;opacity:.4}.c{fill:none;stroke-miterlimit:10}.f{stroke:#00bff3;stroke-width:40px}.f,.g{fill:none;stroke-miterlimit:10}.c,.g{stroke:#29290d;stroke-linecap:round;stroke-width:16px}.g{opacity:.5;stroke:#5a9298}.h{fill:#005068;opacity:.1}</style></defs><ellipse cx="476.27" cy="424.53" class="f" rx="456.27" ry="172.54" transform="translate(-129.52 624.73) rotate(-60)"/><ellipse cx="476.27" cy="424.53" class="f" rx="456.27" ry="172.54"/><ellipse cx="476.27" cy="424.53" class="f" rx="172.54" ry="456.27" transform="translate(-148.46 295.01) rotate(-30)"/><circle cx="476.27" cy="424.53" r="97.5" class="e"/><circle cx="476.27" cy="424.53" r="109" class="b"/><circle cx="476.27" cy="424.53" r="85.5" class="d"/><line x1="502.53" x2="538.53" y1="451.4" y2="451.4" class="g"/><line x1="484.53" x2="520.53" y1="387.4" y2="387.4" class="c"/><path d="M458.53,424.4c3.52-18.46,11.58-43.8,18-64,2.37-7.45,4.7-14.48,6.94-21.04-2.38-.2-4.78-.32-7.2-.32-47.22,0-85.5,38.28-85.5,85.5,0,41.02,28.9,75.28,67.44,83.57-7.86-38.35-.24-80.75,.32-83.71Z" class="h"/><path d="M437.53,442.4c-4.39,0-8-3.61-8-8s3.61-8,8-8v16Z" class="d"/><rect width="27" height="16" x="437.53" y="426.4" class="d"/></svg>