<svg xmlns="http://www.w3.org/2000/svg" xmlns:xlink="http://www.w3.org/1999/xlink" width="658pt" height="652pt" viewBox="0 0 657.5 652"><g id="graph0" class="graph" transform="scale(1 1) rotate(0) translate(4 648)"><title>public.channel_subscriptions</title><polygon fill="#fff" stroke="transparent" points="-4 4 -4 -648 653.5 -648 653.5 4 -4 4"/><g id="node1" class="node"><title>public.channel_subscriptions</title><polygon fill="#efefef" stroke="transparent" points="263 -562.5 263 -597.5 604 -597.5 604 -562.5 263 -562.5"/><polygon fill="none" stroke="#000" points="263 -562.5 263 -597.5 604 -597.5 604 -562.5 263 -562.5"/><text x="269.846" y="-575.3" fill="#000" font-family="Arial Bold" font-size="18" text-anchor="start">public.channel_subscriptions</text><text x="503.791" y="-575.3" fill="#666" font-family="Arial" font-size="14" text-anchor="start">[BASE TABLE]</text><polygon fill="none" stroke="#000" points="263 -532.5 263 -562.5 604 -562.5 604 -532.5 263 -532.5"/><text x="270" y="-543.9" fill="#000" font-family="Arial" font-size="14" text-anchor="start">subscriber_id</text><text x="357.121" y="-543.9" fill="#666" font-family="Arial" font-size="14" text-anchor="start">[uuid]</text><polygon fill="none" stroke="#000" points="263 -502.5 263 -532.5 604 -532.5 604 -502.5 263 -502.5"/><text x="270" y="-513.9" fill="#000" font-family="Arial" font-size="14" text-anchor="start">channel_id</text><text x="341.582" y="-513.9" fill="#666" font-family="Arial" font-size="14" text-anchor="start">[uuid]</text><polygon fill="none" stroke="#000" points="263 -472.5 263 -502.5 604 -502.5 604 -472.5 263 -472.5"/><text x="270" y="-483.9" fill="#000" font-family="Arial" font-size="14" text-anchor="start">created_at</text><text x="340.028" y="-483.9" fill="#666" font-family="Arial" font-size="14" text-anchor="start">[timestamp with time zone]</text><polygon fill="none" stroke="#000" stroke-width="3" points="261 -471.5 261 -599.5 605 -599.5 605 -471.5 261 -471.5"/></g><g id="node2" class="node"><title>public.users</title><polygon fill="#efefef" stroke="transparent" points="307 -312.5 307 -347.5 560 -347.5 560 -312.5 307 -312.5"/><polygon fill="none" stroke="#000" points="307 -312.5 307 -347.5 560 -347.5 560 -312.5 307 -312.5"/><text x="336.866" y="-325.3" fill="#000" font-family="Arial Bold" font-size="18" text-anchor="start">public.users</text><text x="436.771" y="-325.3" fill="#666" font-family="Arial" font-size="14" text-anchor="start">[BASE TABLE]</text><polygon fill="none" stroke="#000" points="307 -282.5 307 -312.5 560 -312.5 560 -282.5 307 -282.5"/><text x="314" y="-293.9" fill="#000" font-family="Arial" font-size="14" text-anchor="start">id</text><text x="328.78" y="-293.9" fill="#666" font-family="Arial" font-size="14" text-anchor="start">[uuid]</text><polygon fill="none" stroke="#000" points="307 -252.5 307 -282.5 560 -282.5 560 -252.5 307 -252.5"/><text x="314" y="-263.9" fill="#000" font-family="Arial" font-size="14" text-anchor="start">email</text><text x="351.33" y="-263.9" fill="#666" font-family="Arial" font-size="14" text-anchor="start">[citext]</text><polygon fill="none" stroke="#000" points="307 -222.5 307 -252.5 560 -252.5 560 -222.5 307 -222.5"/><text x="314" y="-233.9" fill="#000" font-family="Arial" font-size="14" text-anchor="start">phone</text><text x="356.804" y="-233.9" fill="#666" font-family="Arial" font-size="14" text-anchor="start">[varchar]</text><polygon fill="none" stroke="#000" points="307 -192.5 307 -222.5 560 -222.5 560 -192.5 307 -192.5"/><text x="314" y="-203.9" fill="#000" font-family="Arial" font-size="14" text-anchor="start">name</text><text x="352.899" y="-203.9" fill="#666" font-family="Arial" font-size="14" text-anchor="start">[varchar]</text><polygon fill="none" stroke="#000" points="307 -162.5 307 -192.5 560 -192.5 560 -162.5 307 -162.5"/><text x="314" y="-173.9" fill="#000" font-family="Arial" font-size="14" text-anchor="start">channel_name</text><text x="409.701" y="-173.9" fill="#666" font-family="Arial" font-size="14" text-anchor="start">[varchar]</text><polygon fill="none" stroke="#000" points="307 -132.5 307 -162.5 560 -162.5 560 -132.5 307 -132.5"/><text x="314" y="-143.9" fill="#000" font-family="Arial" font-size="14" text-anchor="start">description</text><text x="385.568" y="-143.9" fill="#666" font-family="Arial" font-size="14" text-anchor="start">[text]</text><polygon fill="none" stroke="#000" points="307 -102.5 307 -132.5 560 -132.5 560 -102.5 307 -102.5"/><text x="314" y="-113.9" fill="#000" font-family="Arial" font-size="14" text-anchor="start">subscriber_count</text><text x="424.47" y="-113.9" fill="#666" font-family="Arial" font-size="14" text-anchor="start">[integer]</text><polygon fill="none" stroke="#000" points="307 -72.5 307 -102.5 560 -102.5 560 -72.5 307 -72.5"/><text x="314" y="-83.9" fill="#000" font-family="Arial" font-size="14" text-anchor="start">created_at</text><text x="384.028" y="-83.9" fill="#666" font-family="Arial" font-size="14" text-anchor="start">[timestamp with time zone]</text><polygon fill="none" stroke="#000" points="307 -42.5 307 -72.5 560 -72.5 560 -42.5 307 -42.5"/><text x="313.692" y="-53.9" fill="#000" font-family="Arial" font-size="14" text-anchor="start">updated_at</text><text x="387.624" y="-53.9" fill="#666" font-family="Arial" font-size="14" text-anchor="start">[timestamp with time zone]</text></g><g id="edge1" class="edge"><title>public.channel_subscriptions:subscriber_id-&gt;public.users:id</title><path fill="none" stroke="#000" d="M252.88,-546.7828C152.9983,-532.1191 197.7067,-297.5 307,-297.5"/><polygon fill="#000" stroke="#000" points="253.025 -546.793 262.682 -551.989 258.012 -547.146 263 -547.5 263 -547.5 263 -547.5 258.012 -547.146 263.318 -543.011 253.025 -546.793 253.025 -546.793"/><text x="7.002" y="-557.5" fill="#000" font-family="Arial" font-size="10" text-anchor="start">FOREIGN KEY (subscriber_id) REFERENCES users(id)</text></g><g id="edge2" class="edge"><title>public.channel_subscriptions:channel_id-&gt;public.users:id</title><path fill="none" stroke="#000" d="M253.0123,-516.7034C166.4485,-502.3032 210.7914,-297.5 307,-297.5"/><polygon fill="#000" stroke="#000" points="253.032 -516.705 262.642 -521.986 258.016 -517.102 263 -517.5 263 -517.5 263 -517.5 258.016 -517.102 263.358 -513.014 253.032 -516.705 253.032 -516.705"/><text x="17.551" y="-527.5" fill="#000" font-family="Arial" font-size="10" text-anchor="start">FOREIGN KEY (channel_id) REFERENCES users(id)</text></g></g></svg>