<svg xmlns="http://www.w3.org/2000/svg" xmlns:xlink="http://www.w3.org/1999/xlink" width="1919pt" height="982pt" viewBox="0 0 1919 982"><g id="graph0" class="graph" transform="scale(1 1) rotate(0) translate(4 978)"><title>public.users</title><polygon fill="#fff" stroke="transparent" points="-4 4 -4 -978 1915 -978 1915 4 -4 4"/><g id="node1" class="node"><title>public.users</title><polygon fill="#efefef" stroke="transparent" points="984.5 -315.5 984.5 -350.5 1237.5 -350.5 1237.5 -315.5 984.5 -315.5"/><polygon fill="none" stroke="#000" points="984.5 -315.5 984.5 -350.5 1237.5 -350.5 1237.5 -315.5 984.5 -315.5"/><text x="1014.366" y="-328.3" fill="#000" font-family="Arial Bold" font-size="18" text-anchor="start">public.users</text><text x="1114.271" y="-328.3" fill="#666" font-family="Arial" font-size="14" text-anchor="start">[BASE TABLE]</text><polygon fill="none" stroke="#000" points="984.5 -285.5 984.5 -315.5 1237.5 -315.5 1237.5 -285.5 984.5 -285.5"/><text x="991.5" y="-296.9" fill="#000" font-family="Arial" font-size="14" text-anchor="start">id</text><text x="1006.28" y="-296.9" fill="#666" font-family="Arial" font-size="14" text-anchor="start">[uuid]</text><polygon fill="none" stroke="#000" points="984.5 -255.5 984.5 -285.5 1237.5 -285.5 1237.5 -255.5 984.5 -255.5"/><text x="991.5" y="-266.9" fill="#000" font-family="Arial" font-size="14" text-anchor="start">email</text><text x="1028.83" y="-266.9" fill="#666" font-family="Arial" font-size="14" text-anchor="start">[citext]</text><polygon fill="none" stroke="#000" points="984.5 -225.5 984.5 -255.5 1237.5 -255.5 1237.5 -225.5 984.5 -225.5"/><text x="991.5" y="-236.9" fill="#000" font-family="Arial" font-size="14" text-anchor="start">phone</text><text x="1034.304" y="-236.9" fill="#666" font-family="Arial" font-size="14" text-anchor="start">[varchar]</text><polygon fill="none" stroke="#000" points="984.5 -195.5 984.5 -225.5 1237.5 -225.5 1237.5 -195.5 984.5 -195.5"/><text x="991.5" y="-206.9" fill="#000" font-family="Arial" font-size="14" text-anchor="start">name</text><text x="1030.399" y="-206.9" fill="#666" font-family="Arial" font-size="14" text-anchor="start">[varchar]</text><polygon fill="none" stroke="#000" points="984.5 -165.5 984.5 -195.5 1237.5 -195.5 1237.5 -165.5 984.5 -165.5"/><text x="991.5" y="-176.9" fill="#000" font-family="Arial" font-size="14" text-anchor="start">channel_name</text><text x="1087.201" y="-176.9" fill="#666" font-family="Arial" font-size="14" text-anchor="start">[varchar]</text><polygon fill="none" stroke="#000" points="984.5 -135.5 984.5 -165.5 1237.5 -165.5 1237.5 -135.5 984.5 -135.5"/><text x="991.5" y="-146.9" fill="#000" font-family="Arial" font-size="14" text-anchor="start">description</text><text x="1063.068" y="-146.9" fill="#666" font-family="Arial" font-size="14" text-anchor="start">[text]</text><polygon fill="none" stroke="#000" points="984.5 -105.5 984.5 -135.5 1237.5 -135.5 1237.5 -105.5 984.5 -105.5"/><text x="991.5" y="-116.9" fill="#000" font-family="Arial" font-size="14" text-anchor="start">subscriber_count</text><text x="1101.97" y="-116.9" fill="#666" font-family="Arial" font-size="14" text-anchor="start">[integer]</text><polygon fill="none" stroke="#000" points="984.5 -75.5 984.5 -105.5 1237.5 -105.5 1237.5 -75.5 984.5 -75.5"/><text x="991.5" y="-86.9" fill="#000" font-family="Arial" font-size="14" text-anchor="start">created_at</text><text x="1061.528" y="-86.9" fill="#666" font-family="Arial" font-size="14" text-anchor="start">[timestamp with time zone]</text><polygon fill="none" stroke="#000" points="984.5 -45.5 984.5 -75.5 1237.5 -75.5 1237.5 -45.5 984.5 -45.5"/><text x="991.192" y="-56.9" fill="#000" font-family="Arial" font-size="14" text-anchor="start">updated_at</text><text x="1065.124" y="-56.9" fill="#666" font-family="Arial" font-size="14" text-anchor="start">[timestamp with time zone]</text><polygon fill="none" stroke="#000" stroke-width="3" points="982.5 -44.5 982.5 -352.5 1238.5 -352.5 1238.5 -44.5 982.5 -44.5"/></g><g id="node2" class="node"><title>public.videos</title><polygon fill="#efefef" stroke="transparent" points="43.5 -895.5 43.5 -930.5 296.5 -930.5 296.5 -895.5 43.5 -895.5"/><polygon fill="none" stroke="#000" points="43.5 -895.5 43.5 -930.5 296.5 -930.5 296.5 -895.5 43.5 -895.5"/><text x="69.362" y="-908.3" fill="#000" font-family="Arial Bold" font-size="18" text-anchor="start">public.videos</text><text x="177.275" y="-908.3" fill="#666" font-family="Arial" font-size="14" text-anchor="start">[BASE TABLE]</text><polygon fill="none" stroke="#000" points="43.5 -865.5 43.5 -895.5 296.5 -895.5 296.5 -865.5 43.5 -865.5"/><text x="50.5" y="-876.9" fill="#000" font-family="Arial" font-size="14" text-anchor="start">id</text><text x="65.28" y="-876.9" fill="#666" font-family="Arial" font-size="14" text-anchor="start">[uuid]</text><polygon fill="none" stroke="#000" points="43.5 -835.5 43.5 -865.5 296.5 -865.5 296.5 -835.5 43.5 -835.5"/><text x="50.5" y="-846.9" fill="#000" font-family="Arial" font-size="14" text-anchor="start">title</text><text x="76.168" y="-846.9" fill="#666" font-family="Arial" font-size="14" text-anchor="start">[varchar]</text><polygon fill="none" stroke="#000" points="43.5 -805.5 43.5 -835.5 296.5 -835.5 296.5 -805.5 43.5 -805.5"/><text x="50.5" y="-816.9" fill="#000" font-family="Arial" font-size="14" text-anchor="start">description</text><text x="122.068" y="-816.9" fill="#666" font-family="Arial" font-size="14" text-anchor="start">[text]</text><polygon fill="none" stroke="#000" points="43.5 -775.5 43.5 -805.5 296.5 -805.5 296.5 -775.5 43.5 -775.5"/><text x="50.5" y="-786.9" fill="#000" font-family="Arial" font-size="14" text-anchor="start">category</text><text x="108.072" y="-786.9" fill="#666" font-family="Arial" font-size="14" text-anchor="start">[category_types]</text><polygon fill="none" stroke="#000" points="43.5 -745.5 43.5 -775.5 296.5 -775.5 296.5 -745.5 43.5 -745.5"/><text x="50.5" y="-756.9" fill="#000" font-family="Arial" font-size="14" text-anchor="start">views_count</text><text x="131.407" y="-756.9" fill="#666" font-family="Arial" font-size="14" text-anchor="start">[integer]</text><polygon fill="none" stroke="#000" points="43.5 -715.5 43.5 -745.5 296.5 -745.5 296.5 -715.5 43.5 -715.5"/><text x="50.5" y="-726.9" fill="#000" font-family="Arial" font-size="14" text-anchor="start">likes_count</text><text x="124.407" y="-726.9" fill="#666" font-family="Arial" font-size="14" text-anchor="start">[integer]</text><polygon fill="none" stroke="#000" points="43.5 -685.5 43.5 -715.5 296.5 -715.5 296.5 -685.5 43.5 -685.5"/><text x="50.5" y="-696.9" fill="#000" font-family="Arial" font-size="14" text-anchor="start">dislikes_count</text><text x="142.297" y="-696.9" fill="#666" font-family="Arial" font-size="14" text-anchor="start">[integer]</text><polygon fill="none" stroke="#000" points="43.5 -655.5 43.5 -685.5 296.5 -685.5 296.5 -655.5 43.5 -655.5"/><text x="50.5" y="-666.9" fill="#000" font-family="Arial" font-size="14" text-anchor="start">thumbnail</text><text x="115.068" y="-666.9" fill="#666" font-family="Arial" font-size="14" text-anchor="start">[varchar]</text><polygon fill="none" stroke="#000" points="43.5 -625.5 43.5 -655.5 296.5 -655.5 296.5 -625.5 43.5 -625.5"/><text x="50.5" y="-636.9" fill="#000" font-family="Arial" font-size="14" text-anchor="start">stream_url</text><text x="120.5" y="-636.9" fill="#666" font-family="Arial" font-size="14" text-anchor="start">[varchar]</text><polygon fill="none" stroke="#000" points="43.5 -595.5 43.5 -625.5 296.5 -625.5 296.5 -595.5 43.5 -595.5"/><text x="50.5" y="-606.9" fill="#000" font-family="Arial" font-size="14" text-anchor="start">channel_id</text><text x="122.082" y="-606.9" fill="#666" font-family="Arial" font-size="14" text-anchor="start">[uuid]</text><polygon fill="none" stroke="#000" points="43.5 -565.5 43.5 -595.5 296.5 -595.5 296.5 -565.5 43.5 -565.5"/><text x="50.5" y="-576.9" fill="#000" font-family="Arial" font-size="14" text-anchor="start">duration</text><text x="104.961" y="-576.9" fill="#666" font-family="Arial" font-size="14" text-anchor="start">[double precision]</text><polygon fill="none" stroke="#000" points="43.5 -535.5 43.5 -565.5 296.5 -565.5 296.5 -535.5 43.5 -535.5"/><text x="50.5" y="-546.9" fill="#000" font-family="Arial" font-size="14" text-anchor="start">is_private</text><text x="114.285" y="-546.9" fill="#666" font-family="Arial" font-size="14" text-anchor="start">[boolean]</text><polygon fill="none" stroke="#000" points="43.5 -505.5 43.5 -535.5 296.5 -535.5 296.5 -505.5 43.5 -505.5"/><text x="50.5" y="-516.9" fill="#000" font-family="Arial" font-size="14" text-anchor="start">created_at</text><text x="120.528" y="-516.9" fill="#666" font-family="Arial" font-size="14" text-anchor="start">[timestamp with time zone]</text><polygon fill="none" stroke="#000" points="43.5 -475.5 43.5 -505.5 296.5 -505.5 296.5 -475.5 43.5 -475.5"/><text x="50.191" y="-486.9" fill="#000" font-family="Arial" font-size="14" text-anchor="start">updated_at</text><text x="124.124" y="-486.9" fill="#666" font-family="Arial" font-size="14" text-anchor="start">[timestamp with time zone]</text></g><g id="edge1" class="edge"><title>public.videos:channel_id-&gt;public.users:id</title><path fill="none" stroke="#000" d="M306.5418,-609.7804C370.6882,-599.7017 290.0361,-486.3238 347.5,-433 453.484,-334.6519 839.9146,-300.5 984.5,-300.5"/><polygon fill="#000" stroke="#000" points="306.474 -609.785 296.178 -606.011 301.487 -610.143 296.5 -610.5 296.5 -610.5 296.5 -610.5 301.487 -610.143 296.822 -614.989 306.474 -609.785 306.474 -609.785"/><text x="177.051" y="-594.5" fill="#000" font-family="Arial" font-size="10" text-anchor="start">FOREIGN KEY (channel_id) REFERENCES users(id)</text></g><g id="node3" class="node"><title>public.watch_history</title><polygon fill="#efefef" stroke="transparent" points="400.5 -745.5 400.5 -780.5 673.5 -780.5 673.5 -745.5 400.5 -745.5"/><polygon fill="none" stroke="#000" points="400.5 -745.5 400.5 -780.5 673.5 -780.5 673.5 -745.5 400.5 -745.5"/><text x="407.361" y="-758.3" fill="#000" font-family="Arial Bold" font-size="18" text-anchor="start">public.watch_history</text><text x="573.276" y="-758.3" fill="#666" font-family="Arial" font-size="14" text-anchor="start">[BASE TABLE]</text><polygon fill="none" stroke="#000" points="400.5 -715.5 400.5 -745.5 673.5 -745.5 673.5 -715.5 400.5 -715.5"/><text x="407.5" y="-726.9" fill="#000" font-family="Arial" font-size="14" text-anchor="start">video_id</text><text x="463.517" y="-726.9" fill="#666" font-family="Arial" font-size="14" text-anchor="start">[uuid]</text><polygon fill="none" stroke="#000" points="400.5 -685.5 400.5 -715.5 673.5 -715.5 673.5 -685.5 400.5 -685.5"/><text x="407.5" y="-696.9" fill="#000" font-family="Arial" font-size="14" text-anchor="start">user_id</text><text x="457.288" y="-696.9" fill="#666" font-family="Arial" font-size="14" text-anchor="start">[uuid]</text><polygon fill="none" stroke="#000" points="400.5 -655.5 400.5 -685.5 673.5 -685.5 673.5 -655.5 400.5 -655.5"/><text x="407.5" y="-666.9" fill="#000" font-family="Arial" font-size="14" text-anchor="start">last_watched_at</text><text x="516.427" y="-666.9" fill="#666" font-family="Arial" font-size="14" text-anchor="start">[time without time zone]</text><polygon fill="none" stroke="#000" points="400.5 -625.5 400.5 -655.5 673.5 -655.5 673.5 -625.5 400.5 -625.5"/><text x="407.5" y="-636.9" fill="#000" font-family="Arial" font-size="14" text-anchor="start">created_at</text><text x="477.528" y="-636.9" fill="#666" font-family="Arial" font-size="14" text-anchor="start">[timestamp with time zone]</text></g><g id="edge2" class="edge"><title>public.watch_history:user_id-&gt;public.users:id</title><path fill="none" stroke="#000" d="M683.7897,-700.0374C786.2181,-690.2315 654.8942,-526.8552 725.5,-433 803.2309,-329.6735 855.2001,-300.5 984.5,-300.5"/><polygon fill="#000" stroke="#000" points="683.49 -700.051 673.298 -696.005 678.495 -700.275 673.5 -700.5 673.5 -700.5 673.5 -700.5 678.495 -700.275 673.702 -704.995 683.49 -700.051 683.49 -700.051"/><text x="562.335" y="-684.5" fill="#000" font-family="Arial" font-size="10" text-anchor="start">FOREIGN KEY (user_id) REFERENCES users(id)</text></g><g id="node4" class="node"><title>public.play_list_names</title><polygon fill="#efefef" stroke="transparent" points="777.5 -760.5 777.5 -795.5 1069.5 -795.5 1069.5 -760.5 777.5 -760.5"/><polygon fill="none" stroke="#000" points="777.5 -760.5 777.5 -795.5 1069.5 -795.5 1069.5 -760.5 777.5 -760.5"/><text x="784.358" y="-773.3" fill="#000" font-family="Arial Bold" font-size="18" text-anchor="start">public.play_list_names</text><text x="969.279" y="-773.3" fill="#666" font-family="Arial" font-size="14" text-anchor="start">[BASE TABLE]</text><polygon fill="none" stroke="#000" points="777.5 -730.5 777.5 -760.5 1069.5 -760.5 1069.5 -730.5 777.5 -730.5"/><text x="784.5" y="-741.9" fill="#000" font-family="Arial" font-size="14" text-anchor="start">id</text><text x="799.28" y="-741.9" fill="#666" font-family="Arial" font-size="14" text-anchor="start">[bigint]</text><polygon fill="none" stroke="#000" points="777.5 -700.5 777.5 -730.5 1069.5 -730.5 1069.5 -700.5 777.5 -700.5"/><text x="784.5" y="-711.9" fill="#000" font-family="Arial" font-size="14" text-anchor="start">name</text><text x="823.399" y="-711.9" fill="#666" font-family="Arial" font-size="14" text-anchor="start">[varchar]</text><polygon fill="none" stroke="#000" points="777.5 -670.5 777.5 -700.5 1069.5 -700.5 1069.5 -670.5 777.5 -670.5"/><text x="784.5" y="-681.9" fill="#000" font-family="Arial" font-size="14" text-anchor="start">user_id</text><text x="834.288" y="-681.9" fill="#666" font-family="Arial" font-size="14" text-anchor="start">[uuid]</text><polygon fill="none" stroke="#000" points="777.5 -640.5 777.5 -670.5 1069.5 -670.5 1069.5 -640.5 777.5 -640.5"/><text x="784.5" y="-651.9" fill="#000" font-family="Arial" font-size="14" text-anchor="start">video_count</text><text x="863.866" y="-651.9" fill="#666" font-family="Arial" font-size="14" text-anchor="start">[bigint]</text><polygon fill="none" stroke="#000" points="777.5 -610.5 777.5 -640.5 1069.5 -640.5 1069.5 -610.5 777.5 -610.5"/><text x="784.5" y="-621.9" fill="#000" font-family="Arial" font-size="14" text-anchor="start">created_at</text><text x="854.528" y="-621.9" fill="#666" font-family="Arial" font-size="14" text-anchor="start">[timestamp with time zone]</text></g><g id="edge3" class="edge"><title>public.play_list_names:user_id-&gt;public.users:id</title><path fill="none" stroke="#000" d="M1079.5209,-685.0209C1227.1278,-669.8709 812.8619,-300.5 984.5,-300.5"/><polygon fill="#000" stroke="#000" points="1079.489 -685.022 1069.285 -681.005 1074.494 -685.261 1069.5 -685.5 1069.5 -685.5 1069.5 -685.5 1074.494 -685.261 1069.715 -689.995 1079.489 -685.022 1079.489 -685.022"/><text x="1076.834" y="-695.5" fill="#000" font-family="Arial" font-size="10" text-anchor="start">FOREIGN KEY (user_id) REFERENCES users(id)</text></g><g id="node5" class="node"><title>public.feelings</title><polygon fill="#efefef" stroke="transparent" points="1174.5 -745.5 1174.5 -780.5 1423.5 -780.5 1423.5 -745.5 1174.5 -745.5"/><polygon fill="none" stroke="#000" points="1174.5 -745.5 1174.5 -780.5 1423.5 -780.5 1423.5 -745.5 1174.5 -745.5"/><text x="1193.361" y="-758.3" fill="#000" font-family="Arial Bold" font-size="18" text-anchor="start">public.feelings</text><text x="1311.276" y="-758.3" fill="#666" font-family="Arial" font-size="14" text-anchor="start">[BASE TABLE]</text><polygon fill="none" stroke="#000" points="1174.5 -715.5 1174.5 -745.5 1423.5 -745.5 1423.5 -715.5 1174.5 -715.5"/><text x="1181.5" y="-726.9" fill="#000" font-family="Arial" font-size="14" text-anchor="start">user_id</text><text x="1231.288" y="-726.9" fill="#666" font-family="Arial" font-size="14" text-anchor="start">[uuid]</text><polygon fill="none" stroke="#000" points="1174.5 -685.5 1174.5 -715.5 1423.5 -715.5 1423.5 -685.5 1174.5 -685.5"/><text x="1181.5" y="-696.9" fill="#000" font-family="Arial" font-size="14" text-anchor="start">video_id</text><text x="1237.517" y="-696.9" fill="#666" font-family="Arial" font-size="14" text-anchor="start">[uuid]</text><polygon fill="none" stroke="#000" points="1174.5 -655.5 1174.5 -685.5 1423.5 -685.5 1423.5 -655.5 1174.5 -655.5"/><text x="1181.5" y="-666.9" fill="#000" font-family="Arial" font-size="14" text-anchor="start">reaction</text><text x="1235.179" y="-666.9" fill="#666" font-family="Arial" font-size="14" text-anchor="start">[reaction_types]</text><polygon fill="none" stroke="#000" points="1174.5 -625.5 1174.5 -655.5 1423.5 -655.5 1423.5 -625.5 1174.5 -625.5"/><text x="1181.144" y="-636.9" fill="#000" font-family="Arial" font-size="14" text-anchor="start">created_at</text><text x="1251.172" y="-636.9" fill="#666" font-family="Arial" font-size="14" text-anchor="start">[timestamp with time zone]</text></g><g id="edge4" class="edge"><title>public.feelings:user_id-&gt;public.users:id</title><path fill="none" stroke="#000" d="M1164.4037,-730.0614C997.8008,-714.691 1427.0675,-300.5 1237.5,-300.5"/><polygon fill="#000" stroke="#000" points="1164.509 -730.066 1174.305 -734.996 1169.505 -730.283 1174.5 -730.5 1174.5 -730.5 1174.5 -730.5 1169.505 -730.283 1174.695 -726.004 1164.509 -730.066 1164.509 -730.066"/><text x="1181.834" y="-740.5" fill="#000" font-family="Arial" font-size="10" text-anchor="start">FOREIGN KEY (user_id) REFERENCES users(id)</text></g><g id="node6" class="node"><title>public.channel_subscriptions</title><polygon fill="#efefef" stroke="transparent" points="1527.5 -730.5 1527.5 -765.5 1868.5 -765.5 1868.5 -730.5 1527.5 -730.5"/><polygon fill="none" stroke="#000" points="1527.5 -730.5 1527.5 -765.5 1868.5 -765.5 1868.5 -730.5 1527.5 -730.5"/><text x="1534.346" y="-743.3" fill="#000" font-family="Arial Bold" font-size="18" text-anchor="start">public.channel_subscriptions</text><text x="1768.291" y="-743.3" fill="#666" font-family="Arial" font-size="14" text-anchor="start">[BASE TABLE]</text><polygon fill="none" stroke="#000" points="1527.5 -700.5 1527.5 -730.5 1868.5 -730.5 1868.5 -700.5 1527.5 -700.5"/><text x="1534.5" y="-711.9" fill="#000" font-family="Arial" font-size="14" text-anchor="start">subscriber_id</text><text x="1621.621" y="-711.9" fill="#666" font-family="Arial" font-size="14" text-anchor="start">[uuid]</text><polygon fill="none" stroke="#000" points="1527.5 -670.5 1527.5 -700.5 1868.5 -700.5 1868.5 -670.5 1527.5 -670.5"/><text x="1534.5" y="-681.9" fill="#000" font-family="Arial" font-size="14" text-anchor="start">channel_id</text><text x="1606.082" y="-681.9" fill="#666" font-family="Arial" font-size="14" text-anchor="start">[uuid]</text><polygon fill="none" stroke="#000" points="1527.5 -640.5 1527.5 -670.5 1868.5 -670.5 1868.5 -640.5 1527.5 -640.5"/><text x="1534.5" y="-651.9" fill="#000" font-family="Arial" font-size="14" text-anchor="start">created_at</text><text x="1604.528" y="-651.9" fill="#666" font-family="Arial" font-size="14" text-anchor="start">[timestamp with time zone]</text></g><g id="edge5" class="edge"><title>public.channel_subscriptions:channel_id-&gt;public.users:id</title><path fill="none" stroke="#000" d="M1517.4624,-685.0379C1420.8763,-675.5588 1541.1578,-522.4949 1475.5,-433 1403.8863,-335.3869 1358.5654,-300.5 1237.5,-300.5"/><polygon fill="#000" stroke="#000" points="1517.511 -685.04 1527.293 -689.995 1522.505 -685.27 1527.5 -685.5 1527.5 -685.5 1527.5 -685.5 1522.505 -685.27 1527.707 -681.005 1517.511 -685.04 1517.511 -685.04"/><text x="1345.051" y="-669.5" fill="#000" font-family="Arial" font-size="10" text-anchor="start">FOREIGN KEY (channel_id) REFERENCES users(id)</text></g><g id="edge6" class="edge"><title>public.channel_subscriptions:subscriber_id-&gt;public.users:id</title><path fill="none" stroke="#000" d="M1517.7037,-713.3546C1468.9469,-689.9466 1510.6066,-481.9245 1475.5,-433 1404.9185,-334.638 1358.5654,-300.5 1237.5,-300.5"/><polygon fill="#000" stroke="#000" points="1517.732 -713.361 1526.537 -719.896 1522.616 -714.43 1527.5 -715.5 1527.5 -715.5 1527.5 -715.5 1522.616 -714.43 1528.463 -711.104 1517.732 -713.361 1517.732 -713.361"/><text x="1337.252" y="-699.5" fill="#000" font-family="Arial" font-size="10" text-anchor="start">FOREIGN KEY (subscriber_id) REFERENCES users(id)</text></g></g></svg>