<?xml version="1.0" encoding="UTF-8" standalone="no"?>
<!DOCTYPE svg PUBLIC "-//W3C//DTD SVG 1.1//EN"
 "http://www.w3.org/Graphics/SVG/1.1/DTD/svg11.dtd">
<!-- Generated by graphviz version 2.40.1 (20161225.0304)
 -->
<!-- Title: public.play_lists Pages: 1 -->
<svg width="950pt" height="832pt"
 viewBox="0.00 0.00 950.00 832.00" xmlns="http://www.w3.org/2000/svg" xmlns:xlink="http://www.w3.org/1999/xlink">
<g id="graph0" class="graph" transform="scale(1 1) rotate(0) translate(4 828)">
<title>public.play_lists</title>
<polygon fill="#ffffff" stroke="transparent" points="-4,4 -4,-828 946,-828 946,4 -4,4"/>
<!-- public.play_lists -->
<g id="node1" class="node">
<title>public.play_lists</title>
<polygon fill="#efefef" stroke="transparent" points="447,-742.5 447,-777.5 696,-777.5 696,-742.5 447,-742.5"/>
<polygon fill="none" stroke="#000000" points="447,-742.5 447,-777.5 696,-777.5 696,-742.5 447,-742.5"/>
<text text-anchor="start" x="459.8668" y="-755.3" font-family="Arial Bold" font-size="18.00" fill="#000000">public.play_lists</text>
<text text-anchor="start" x="585.8794" y="-755.3" font-family="Arial" font-size="14.00" fill="#000000"> </text>
<text text-anchor="start" x="589.77" y="-755.3" font-family="Arial" font-size="14.00" fill="#666666">[BASE TABLE]</text>
<polygon fill="none" stroke="#000000" points="447,-712.5 447,-742.5 696,-742.5 696,-712.5 447,-712.5"/>
<text text-anchor="start" x="454" y="-723.9" font-family="Arial" font-size="14.00" fill="#000000">id </text>
<text text-anchor="start" x="468.7798" y="-723.9" font-family="Arial" font-size="14.00" fill="#666666">[uuid]</text>
<polygon fill="none" stroke="#000000" points="447,-682.5 447,-712.5 696,-712.5 696,-682.5 447,-682.5"/>
<text text-anchor="start" x="454" y="-693.9" font-family="Arial" font-size="14.00" fill="#000000">play_list_names_id </text>
<text text-anchor="start" x="576.9116" y="-693.9" font-family="Arial" font-size="14.00" fill="#666666">[bigint]</text>
<polygon fill="none" stroke="#000000" points="447,-652.5 447,-682.5 696,-682.5 696,-652.5 447,-652.5"/>
<text text-anchor="start" x="454" y="-663.9" font-family="Arial" font-size="14.00" fill="#000000">video_id </text>
<text text-anchor="start" x="510.0168" y="-663.9" font-family="Arial" font-size="14.00" fill="#666666">[uuid]</text>
<polygon fill="none" stroke="#000000" points="447,-622.5 447,-652.5 696,-652.5 696,-622.5 447,-622.5"/>
<text text-anchor="start" x="453.6438" y="-633.9" font-family="Arial" font-size="14.00" fill="#000000">created_at </text>
<text text-anchor="start" x="523.6718" y="-633.9" font-family="Arial" font-size="14.00" fill="#666666">[timestamp with time zone]</text>
<polygon fill="none" stroke="#000000" stroke-width="3" points="445,-621.5 445,-779.5 697,-779.5 697,-621.5 445,-621.5"/>
</g>
<!-- public.play_list_names -->
<g id="node2" class="node">
<title>public.play_list_names</title>
<polygon fill="#efefef" stroke="transparent" points="237,-327.5 237,-362.5 529,-362.5 529,-327.5 237,-327.5"/>
<polygon fill="none" stroke="#000000" points="237,-327.5 237,-362.5 529,-362.5 529,-327.5 237,-327.5"/>
<text text-anchor="start" x="243.8583" y="-340.3" font-family="Arial Bold" font-size="18.00" fill="#000000">public.play_list_names</text>
<text text-anchor="start" x="424.8879" y="-340.3" font-family="Arial" font-size="14.00" fill="#000000"> </text>
<text text-anchor="start" x="428.7785" y="-340.3" font-family="Arial" font-size="14.00" fill="#666666">[BASE TABLE]</text>
<polygon fill="none" stroke="#000000" points="237,-297.5 237,-327.5 529,-327.5 529,-297.5 237,-297.5"/>
<text text-anchor="start" x="244" y="-308.9" font-family="Arial" font-size="14.00" fill="#000000">id </text>
<text text-anchor="start" x="258.7798" y="-308.9" font-family="Arial" font-size="14.00" fill="#666666">[bigint]</text>
<polygon fill="none" stroke="#000000" points="237,-267.5 237,-297.5 529,-297.5 529,-267.5 237,-267.5"/>
<text text-anchor="start" x="244" y="-278.9" font-family="Arial" font-size="14.00" fill="#000000">name </text>
<text text-anchor="start" x="282.899" y="-278.9" font-family="Arial" font-size="14.00" fill="#666666">[varchar]</text>
<polygon fill="none" stroke="#000000" points="237,-237.5 237,-267.5 529,-267.5 529,-237.5 237,-237.5"/>
<text text-anchor="start" x="244" y="-248.9" font-family="Arial" font-size="14.00" fill="#000000">user_id </text>
<text text-anchor="start" x="293.7882" y="-248.9" font-family="Arial" font-size="14.00" fill="#666666">[uuid]</text>
<polygon fill="none" stroke="#000000" points="237,-207.5 237,-237.5 529,-237.5 529,-207.5 237,-207.5"/>
<text text-anchor="start" x="244" y="-218.9" font-family="Arial" font-size="14.00" fill="#000000">video_count </text>
<text text-anchor="start" x="323.366" y="-218.9" font-family="Arial" font-size="14.00" fill="#666666">[bigint]</text>
<polygon fill="none" stroke="#000000" points="237,-177.5 237,-207.5 529,-207.5 529,-177.5 237,-177.5"/>
<text text-anchor="start" x="244" y="-188.9" font-family="Arial" font-size="14.00" fill="#000000">created_at </text>
<text text-anchor="start" x="314.028" y="-188.9" font-family="Arial" font-size="14.00" fill="#666666">[timestamp with time zone]</text>
</g>
<!-- public.play_lists&#45;&gt;public.play_list_names -->
<g id="edge1" class="edge">
<title>public.play_lists:play_list_names_id&#45;&gt;public.play_list_names:id</title>
<path fill="none" stroke="#000000" d="M436.9917,-697.0209C289.5102,-681.8709 700.3613,-312.5 529,-312.5"/>
<polygon fill="#000000" stroke="#000000" points="437.0114,-697.0217 446.7848,-701.9949 442.0057,-697.2609 447,-697.5 447,-697.5 447,-697.5 442.0057,-697.2609 447.2152,-693.0051 437.0114,-697.0217 437.0114,-697.0217"/>
<text text-anchor="start" x="7.3225" y="-707.5" font-family="Arial" font-size="10.00" fill="#000000">FOREIGN KEY (play_list_names_id) REFERENCES play_list_names(id) ON DELETE CASCADE</text>
</g>
<!-- public.videos -->
<g id="node3" class="node">
<title>public.videos</title>
<polygon fill="#efefef" stroke="transparent" points="634,-462.5 634,-497.5 887,-497.5 887,-462.5 634,-462.5"/>
<polygon fill="none" stroke="#000000" points="634,-462.5 634,-497.5 887,-497.5 887,-462.5 634,-462.5"/>
<text text-anchor="start" x="659.8621" y="-475.3" font-family="Arial Bold" font-size="18.00" fill="#000000">public.videos</text>
<text text-anchor="start" x="763.8841" y="-475.3" font-family="Arial" font-size="14.00" fill="#000000"> </text>
<text text-anchor="start" x="767.7747" y="-475.3" font-family="Arial" font-size="14.00" fill="#666666">[BASE TABLE]</text>
<polygon fill="none" stroke="#000000" points="634,-432.5 634,-462.5 887,-462.5 887,-432.5 634,-432.5"/>
<text text-anchor="start" x="641" y="-443.9" font-family="Arial" font-size="14.00" fill="#000000">id </text>
<text text-anchor="start" x="655.7798" y="-443.9" font-family="Arial" font-size="14.00" fill="#666666">[uuid]</text>
<polygon fill="none" stroke="#000000" points="634,-402.5 634,-432.5 887,-432.5 887,-402.5 634,-402.5"/>
<text text-anchor="start" x="641" y="-413.9" font-family="Arial" font-size="14.00" fill="#000000">title </text>
<text text-anchor="start" x="666.6676" y="-413.9" font-family="Arial" font-size="14.00" fill="#666666">[varchar]</text>
<polygon fill="none" stroke="#000000" points="634,-372.5 634,-402.5 887,-402.5 887,-372.5 634,-372.5"/>
<text text-anchor="start" x="641" y="-383.9" font-family="Arial" font-size="14.00" fill="#000000">description </text>
<text text-anchor="start" x="712.568" y="-383.9" font-family="Arial" font-size="14.00" fill="#666666">[text]</text>
<polygon fill="none" stroke="#000000" points="634,-342.5 634,-372.5 887,-372.5 887,-342.5 634,-342.5"/>
<text text-anchor="start" x="641" y="-353.9" font-family="Arial" font-size="14.00" fill="#000000">category </text>
<text text-anchor="start" x="698.5722" y="-353.9" font-family="Arial" font-size="14.00" fill="#666666">[category_types]</text>
<polygon fill="none" stroke="#000000" points="634,-312.5 634,-342.5 887,-342.5 887,-312.5 634,-312.5"/>
<text text-anchor="start" x="641" y="-323.9" font-family="Arial" font-size="14.00" fill="#000000">views_count </text>
<text text-anchor="start" x="721.9074" y="-323.9" font-family="Arial" font-size="14.00" fill="#666666">[integer]</text>
<polygon fill="none" stroke="#000000" points="634,-282.5 634,-312.5 887,-312.5 887,-282.5 634,-282.5"/>
<text text-anchor="start" x="641" y="-293.9" font-family="Arial" font-size="14.00" fill="#000000">likes_count </text>
<text text-anchor="start" x="714.9074" y="-293.9" font-family="Arial" font-size="14.00" fill="#666666">[integer]</text>
<polygon fill="none" stroke="#000000" points="634,-252.5 634,-282.5 887,-282.5 887,-252.5 634,-252.5"/>
<text text-anchor="start" x="641" y="-263.9" font-family="Arial" font-size="14.00" fill="#000000">dislikes_count </text>
<text text-anchor="start" x="732.7966" y="-263.9" font-family="Arial" font-size="14.00" fill="#666666">[integer]</text>
<polygon fill="none" stroke="#000000" points="634,-222.5 634,-252.5 887,-252.5 887,-222.5 634,-222.5"/>
<text text-anchor="start" x="641" y="-233.9" font-family="Arial" font-size="14.00" fill="#000000">thumbnail </text>
<text text-anchor="start" x="705.568" y="-233.9" font-family="Arial" font-size="14.00" fill="#666666">[varchar]</text>
<polygon fill="none" stroke="#000000" points="634,-192.5 634,-222.5 887,-222.5 887,-192.5 634,-192.5"/>
<text text-anchor="start" x="641" y="-203.9" font-family="Arial" font-size="14.00" fill="#000000">stream_url </text>
<text text-anchor="start" x="711" y="-203.9" font-family="Arial" font-size="14.00" fill="#666666">[varchar]</text>
<polygon fill="none" stroke="#000000" points="634,-162.5 634,-192.5 887,-192.5 887,-162.5 634,-162.5"/>
<text text-anchor="start" x="641" y="-173.9" font-family="Arial" font-size="14.00" fill="#000000">channel_id </text>
<text text-anchor="start" x="712.582" y="-173.9" font-family="Arial" font-size="14.00" fill="#666666">[uuid]</text>
<polygon fill="none" stroke="#000000" points="634,-132.5 634,-162.5 887,-162.5 887,-132.5 634,-132.5"/>
<text text-anchor="start" x="641" y="-143.9" font-family="Arial" font-size="14.00" fill="#000000">duration </text>
<text text-anchor="start" x="695.4614" y="-143.9" font-family="Arial" font-size="14.00" fill="#666666">[double precision]</text>
<polygon fill="none" stroke="#000000" points="634,-102.5 634,-132.5 887,-132.5 887,-102.5 634,-102.5"/>
<text text-anchor="start" x="641" y="-113.9" font-family="Arial" font-size="14.00" fill="#000000">is_private </text>
<text text-anchor="start" x="704.7854" y="-113.9" font-family="Arial" font-size="14.00" fill="#666666">[boolean]</text>
<polygon fill="none" stroke="#000000" points="634,-72.5 634,-102.5 887,-102.5 887,-72.5 634,-72.5"/>
<text text-anchor="start" x="641" y="-83.9" font-family="Arial" font-size="14.00" fill="#000000">created_at </text>
<text text-anchor="start" x="711.028" y="-83.9" font-family="Arial" font-size="14.00" fill="#666666">[timestamp with time zone]</text>
<polygon fill="none" stroke="#000000" points="634,-42.5 634,-72.5 887,-72.5 887,-42.5 634,-42.5"/>
<text text-anchor="start" x="640.6915" y="-53.9" font-family="Arial" font-size="14.00" fill="#000000">updated_at </text>
<text text-anchor="start" x="714.6241" y="-53.9" font-family="Arial" font-size="14.00" fill="#666666">[timestamp with time zone]</text>
</g>
<!-- public.play_lists&#45;&gt;public.videos -->
<g id="edge2" class="edge">
<title>public.play_lists:video_id&#45;&gt;public.videos:id</title>
<path fill="none" stroke="#000000" d="M706.1128,-665.9793C732.2867,-656.8307 714.1083,-608.4541 696,-577 680.1021,-549.3854 649.8979,-568.6146 634,-541 613.2666,-504.9862 592.4444,-447.5 634,-447.5"/>
<polygon fill="#000000" stroke="#000000" points="705.8888,-666.0129 695.3308,-663.05 700.9444,-666.7564 696,-667.5 696,-667.5 696,-667.5 700.9444,-666.7564 696.6692,-671.95 705.8888,-666.0129 705.8888,-666.0129"/>
<text text-anchor="start" x="702.8855" y="-677.5" font-family="Arial" font-size="10.00" fill="#000000">FOREIGN KEY (video_id) REFERENCES videos(id)</text>
</g>
</g>
</svg>
