<?xml version="1.0" encoding="UTF-8" standalone="no"?>
<!DOCTYPE svg PUBLIC "-//W3C//DTD SVG 1.1//EN"
 "http://www.w3.org/Graphics/SVG/1.1/DTD/svg11.dtd">
<!-- Generated by graphviz version 2.40.1 (20161225.0304)
 -->
<!-- Title: public.videos Pages: 1 -->
<svg width="1073pt" height="1259pt"
 viewBox="0.00 0.00 1073.00 1259.00" xmlns="http://www.w3.org/2000/svg" xmlns:xlink="http://www.w3.org/1999/xlink">
<g id="graph0" class="graph" transform="scale(1 1) rotate(0) translate(4 1255)">
<title>public.videos</title>
<polygon fill="#ffffff" stroke="transparent" points="-4,4 -4,-1255 1069,-1255 1069,4 -4,4"/>
<!-- public.videos -->
<g id="node1" class="node">
<title>public.videos</title>
<polygon fill="#efefef" stroke="transparent" points="418.5,-892.5 418.5,-927.5 671.5,-927.5 671.5,-892.5 418.5,-892.5"/>
<polygon fill="none" stroke="#000000" points="418.5,-892.5 418.5,-927.5 671.5,-927.5 671.5,-892.5 418.5,-892.5"/>
<text text-anchor="start" x="444.3621" y="-905.3" font-family="Arial Bold" font-size="18.00" fill="#000000">public.videos</text>
<text text-anchor="start" x="548.3841" y="-905.3" font-family="Arial" font-size="14.00" fill="#000000"> </text>
<text text-anchor="start" x="552.2747" y="-905.3" font-family="Arial" font-size="14.00" fill="#666666">[BASE TABLE]</text>
<polygon fill="none" stroke="#000000" points="418.5,-862.5 418.5,-892.5 671.5,-892.5 671.5,-862.5 418.5,-862.5"/>
<text text-anchor="start" x="425.5" y="-873.9" font-family="Arial" font-size="14.00" fill="#000000">id </text>
<text text-anchor="start" x="440.2798" y="-873.9" font-family="Arial" font-size="14.00" fill="#666666">[uuid]</text>
<polygon fill="none" stroke="#000000" points="418.5,-832.5 418.5,-862.5 671.5,-862.5 671.5,-832.5 418.5,-832.5"/>
<text text-anchor="start" x="425.5" y="-843.9" font-family="Arial" font-size="14.00" fill="#000000">title </text>
<text text-anchor="start" x="451.1676" y="-843.9" font-family="Arial" font-size="14.00" fill="#666666">[varchar]</text>
<polygon fill="none" stroke="#000000" points="418.5,-802.5 418.5,-832.5 671.5,-832.5 671.5,-802.5 418.5,-802.5"/>
<text text-anchor="start" x="425.5" y="-813.9" font-family="Arial" font-size="14.00" fill="#000000">description </text>
<text text-anchor="start" x="497.068" y="-813.9" font-family="Arial" font-size="14.00" fill="#666666">[text]</text>
<polygon fill="none" stroke="#000000" points="418.5,-772.5 418.5,-802.5 671.5,-802.5 671.5,-772.5 418.5,-772.5"/>
<text text-anchor="start" x="425.5" y="-783.9" font-family="Arial" font-size="14.00" fill="#000000">category </text>
<text text-anchor="start" x="483.0722" y="-783.9" font-family="Arial" font-size="14.00" fill="#666666">[category_types]</text>
<polygon fill="none" stroke="#000000" points="418.5,-742.5 418.5,-772.5 671.5,-772.5 671.5,-742.5 418.5,-742.5"/>
<text text-anchor="start" x="425.5" y="-753.9" font-family="Arial" font-size="14.00" fill="#000000">views_count </text>
<text text-anchor="start" x="506.4074" y="-753.9" font-family="Arial" font-size="14.00" fill="#666666">[integer]</text>
<polygon fill="none" stroke="#000000" points="418.5,-712.5 418.5,-742.5 671.5,-742.5 671.5,-712.5 418.5,-712.5"/>
<text text-anchor="start" x="425.5" y="-723.9" font-family="Arial" font-size="14.00" fill="#000000">likes_count </text>
<text text-anchor="start" x="499.4074" y="-723.9" font-family="Arial" font-size="14.00" fill="#666666">[integer]</text>
<polygon fill="none" stroke="#000000" points="418.5,-682.5 418.5,-712.5 671.5,-712.5 671.5,-682.5 418.5,-682.5"/>
<text text-anchor="start" x="425.5" y="-693.9" font-family="Arial" font-size="14.00" fill="#000000">dislikes_count </text>
<text text-anchor="start" x="517.2966" y="-693.9" font-family="Arial" font-size="14.00" fill="#666666">[integer]</text>
<polygon fill="none" stroke="#000000" points="418.5,-652.5 418.5,-682.5 671.5,-682.5 671.5,-652.5 418.5,-652.5"/>
<text text-anchor="start" x="425.5" y="-663.9" font-family="Arial" font-size="14.00" fill="#000000">thumbnail </text>
<text text-anchor="start" x="490.068" y="-663.9" font-family="Arial" font-size="14.00" fill="#666666">[varchar]</text>
<polygon fill="none" stroke="#000000" points="418.5,-622.5 418.5,-652.5 671.5,-652.5 671.5,-622.5 418.5,-622.5"/>
<text text-anchor="start" x="425.5" y="-633.9" font-family="Arial" font-size="14.00" fill="#000000">stream_url </text>
<text text-anchor="start" x="495.5" y="-633.9" font-family="Arial" font-size="14.00" fill="#666666">[varchar]</text>
<polygon fill="none" stroke="#000000" points="418.5,-592.5 418.5,-622.5 671.5,-622.5 671.5,-592.5 418.5,-592.5"/>
<text text-anchor="start" x="425.5" y="-603.9" font-family="Arial" font-size="14.00" fill="#000000">channel_id </text>
<text text-anchor="start" x="497.082" y="-603.9" font-family="Arial" font-size="14.00" fill="#666666">[uuid]</text>
<polygon fill="none" stroke="#000000" points="418.5,-562.5 418.5,-592.5 671.5,-592.5 671.5,-562.5 418.5,-562.5"/>
<text text-anchor="start" x="425.5" y="-573.9" font-family="Arial" font-size="14.00" fill="#000000">duration </text>
<text text-anchor="start" x="479.9614" y="-573.9" font-family="Arial" font-size="14.00" fill="#666666">[double precision]</text>
<polygon fill="none" stroke="#000000" points="418.5,-532.5 418.5,-562.5 671.5,-562.5 671.5,-532.5 418.5,-532.5"/>
<text text-anchor="start" x="425.5" y="-543.9" font-family="Arial" font-size="14.00" fill="#000000">is_private </text>
<text text-anchor="start" x="489.2854" y="-543.9" font-family="Arial" font-size="14.00" fill="#666666">[boolean]</text>
<polygon fill="none" stroke="#000000" points="418.5,-502.5 418.5,-532.5 671.5,-532.5 671.5,-502.5 418.5,-502.5"/>
<text text-anchor="start" x="425.5" y="-513.9" font-family="Arial" font-size="14.00" fill="#000000">created_at </text>
<text text-anchor="start" x="495.528" y="-513.9" font-family="Arial" font-size="14.00" fill="#666666">[timestamp with time zone]</text>
<polygon fill="none" stroke="#000000" points="418.5,-472.5 418.5,-502.5 671.5,-502.5 671.5,-472.5 418.5,-472.5"/>
<text text-anchor="start" x="425.1915" y="-483.9" font-family="Arial" font-size="14.00" fill="#000000">updated_at </text>
<text text-anchor="start" x="499.1241" y="-483.9" font-family="Arial" font-size="14.00" fill="#666666">[timestamp with time zone]</text>
<polygon fill="none" stroke="#000000" stroke-width="3" points="416.5,-471.5 416.5,-929.5 672.5,-929.5 672.5,-471.5 416.5,-471.5"/>
</g>
<!-- public.users -->
<g id="node5" class="node">
<title>public.users</title>
<polygon fill="#efefef" stroke="transparent" points="418.5,-312.5 418.5,-347.5 671.5,-347.5 671.5,-312.5 418.5,-312.5"/>
<polygon fill="none" stroke="#000000" points="418.5,-312.5 418.5,-347.5 671.5,-347.5 671.5,-312.5 418.5,-312.5"/>
<text text-anchor="start" x="448.3662" y="-325.3" font-family="Arial Bold" font-size="18.00" fill="#000000">public.users</text>
<text text-anchor="start" x="544.38" y="-325.3" font-family="Arial" font-size="14.00" fill="#000000"> </text>
<text text-anchor="start" x="548.2706" y="-325.3" font-family="Arial" font-size="14.00" fill="#666666">[BASE TABLE]</text>
<polygon fill="none" stroke="#000000" points="418.5,-282.5 418.5,-312.5 671.5,-312.5 671.5,-282.5 418.5,-282.5"/>
<text text-anchor="start" x="425.5" y="-293.9" font-family="Arial" font-size="14.00" fill="#000000">id </text>
<text text-anchor="start" x="440.2798" y="-293.9" font-family="Arial" font-size="14.00" fill="#666666">[uuid]</text>
<polygon fill="none" stroke="#000000" points="418.5,-252.5 418.5,-282.5 671.5,-282.5 671.5,-252.5 418.5,-252.5"/>
<text text-anchor="start" x="425.5" y="-263.9" font-family="Arial" font-size="14.00" fill="#000000">email </text>
<text text-anchor="start" x="462.8296" y="-263.9" font-family="Arial" font-size="14.00" fill="#666666">[citext]</text>
<polygon fill="none" stroke="#000000" points="418.5,-222.5 418.5,-252.5 671.5,-252.5 671.5,-222.5 418.5,-222.5"/>
<text text-anchor="start" x="425.5" y="-233.9" font-family="Arial" font-size="14.00" fill="#000000">phone </text>
<text text-anchor="start" x="468.3036" y="-233.9" font-family="Arial" font-size="14.00" fill="#666666">[varchar]</text>
<polygon fill="none" stroke="#000000" points="418.5,-192.5 418.5,-222.5 671.5,-222.5 671.5,-192.5 418.5,-192.5"/>
<text text-anchor="start" x="425.5" y="-203.9" font-family="Arial" font-size="14.00" fill="#000000">name </text>
<text text-anchor="start" x="464.399" y="-203.9" font-family="Arial" font-size="14.00" fill="#666666">[varchar]</text>
<polygon fill="none" stroke="#000000" points="418.5,-162.5 418.5,-192.5 671.5,-192.5 671.5,-162.5 418.5,-162.5"/>
<text text-anchor="start" x="425.5" y="-173.9" font-family="Arial" font-size="14.00" fill="#000000">channel_name </text>
<text text-anchor="start" x="521.2012" y="-173.9" font-family="Arial" font-size="14.00" fill="#666666">[varchar]</text>
<polygon fill="none" stroke="#000000" points="418.5,-132.5 418.5,-162.5 671.5,-162.5 671.5,-132.5 418.5,-132.5"/>
<text text-anchor="start" x="425.5" y="-143.9" font-family="Arial" font-size="14.00" fill="#000000">description </text>
<text text-anchor="start" x="497.068" y="-143.9" font-family="Arial" font-size="14.00" fill="#666666">[text]</text>
<polygon fill="none" stroke="#000000" points="418.5,-102.5 418.5,-132.5 671.5,-132.5 671.5,-102.5 418.5,-102.5"/>
<text text-anchor="start" x="425.5" y="-113.9" font-family="Arial" font-size="14.00" fill="#000000">subscriber_count </text>
<text text-anchor="start" x="535.9698" y="-113.9" font-family="Arial" font-size="14.00" fill="#666666">[integer]</text>
<polygon fill="none" stroke="#000000" points="418.5,-72.5 418.5,-102.5 671.5,-102.5 671.5,-72.5 418.5,-72.5"/>
<text text-anchor="start" x="425.5" y="-83.9" font-family="Arial" font-size="14.00" fill="#000000">created_at </text>
<text text-anchor="start" x="495.528" y="-83.9" font-family="Arial" font-size="14.00" fill="#666666">[timestamp with time zone]</text>
<polygon fill="none" stroke="#000000" points="418.5,-42.5 418.5,-72.5 671.5,-72.5 671.5,-42.5 418.5,-42.5"/>
<text text-anchor="start" x="425.1915" y="-53.9" font-family="Arial" font-size="14.00" fill="#000000">updated_at </text>
<text text-anchor="start" x="499.1241" y="-53.9" font-family="Arial" font-size="14.00" fill="#666666">[timestamp with time zone]</text>
</g>
<!-- public.videos&#45;&gt;public.users -->
<g id="edge4" class="edge">
<title>public.videos:channel_id&#45;&gt;public.users:id</title>
<path fill="none" stroke="#000000" d="M408.2717,-606.9106C280.811,-591.9577 284.2205,-297.5 418.5,-297.5"/>
<polygon fill="#000000" stroke="#000000" points="408.5166,-606.9246 418.2411,-611.9925 413.5083,-607.2123 418.5,-607.5 418.5,-607.5 418.5,-607.5 413.5083,-607.2123 418.7589,-603.0075 408.5166,-606.9246 408.5166,-606.9246"/>
<text text-anchor="start" x="173.051" y="-617.5" font-family="Arial" font-size="10.00" fill="#000000">FOREIGN KEY (channel_id) REFERENCES users(id)</text>
</g>
<!-- public.watch_history -->
<g id="node2" class="node">
<title>public.watch_history</title>
<polygon fill="#efefef" stroke="transparent" points="43.5,-1172.5 43.5,-1207.5 316.5,-1207.5 316.5,-1172.5 43.5,-1172.5"/>
<polygon fill="none" stroke="#000000" points="43.5,-1172.5 43.5,-1207.5 316.5,-1207.5 316.5,-1172.5 43.5,-1172.5"/>
<text text-anchor="start" x="50.3605" y="-1185.3" font-family="Arial Bold" font-size="18.00" fill="#000000">public.watch_history</text>
<text text-anchor="start" x="212.3857" y="-1185.3" font-family="Arial" font-size="14.00" fill="#000000"> </text>
<text text-anchor="start" x="216.2763" y="-1185.3" font-family="Arial" font-size="14.00" fill="#666666">[BASE TABLE]</text>
<polygon fill="none" stroke="#000000" points="43.5,-1142.5 43.5,-1172.5 316.5,-1172.5 316.5,-1142.5 43.5,-1142.5"/>
<text text-anchor="start" x="50.5" y="-1153.9" font-family="Arial" font-size="14.00" fill="#000000">video_id </text>
<text text-anchor="start" x="106.5168" y="-1153.9" font-family="Arial" font-size="14.00" fill="#666666">[uuid]</text>
<polygon fill="none" stroke="#000000" points="43.5,-1112.5 43.5,-1142.5 316.5,-1142.5 316.5,-1112.5 43.5,-1112.5"/>
<text text-anchor="start" x="50.5" y="-1123.9" font-family="Arial" font-size="14.00" fill="#000000">user_id </text>
<text text-anchor="start" x="100.2882" y="-1123.9" font-family="Arial" font-size="14.00" fill="#666666">[uuid]</text>
<polygon fill="none" stroke="#000000" points="43.5,-1082.5 43.5,-1112.5 316.5,-1112.5 316.5,-1082.5 43.5,-1082.5"/>
<text text-anchor="start" x="50.5" y="-1093.9" font-family="Arial" font-size="14.00" fill="#000000">last_watchted_at </text>
<text text-anchor="start" x="159.427" y="-1093.9" font-family="Arial" font-size="14.00" fill="#666666">[time without time zone]</text>
<polygon fill="none" stroke="#000000" points="43.5,-1052.5 43.5,-1082.5 316.5,-1082.5 316.5,-1052.5 43.5,-1052.5"/>
<text text-anchor="start" x="50.5" y="-1063.9" font-family="Arial" font-size="14.00" fill="#000000">created_at </text>
<text text-anchor="start" x="120.528" y="-1063.9" font-family="Arial" font-size="14.00" fill="#666666">[timestamp with time zone]</text>
</g>
<!-- public.watch_history&#45;&gt;public.videos -->
<g id="edge1" class="edge">
<title>public.watch_history:video_id&#45;&gt;public.videos:id</title>
<path fill="none" stroke="#000000" d="M326.5692,-1156.8276C381.6006,-1148.8629 344.9597,-1071.7186 367.5,-1010 389.1466,-950.7285 355.3995,-877.5 418.5,-877.5"/>
<polygon fill="#000000" stroke="#000000" points="326.4778,-1156.8336 316.2001,-1153.01 321.4889,-1157.1668 316.5,-1157.5 316.5,-1157.5 316.5,-1157.5 321.4889,-1157.1668 316.7999,-1161.99 326.4778,-1156.8336 326.4778,-1156.8336"/>
<text text-anchor="start" x="323.3855" y="-1167.5" font-family="Arial" font-size="10.00" fill="#000000">FOREIGN KEY (video_id) REFERENCES videos(id)</text>
</g>
<!-- public.play_lists -->
<g id="node3" class="node">
<title>public.play_lists</title>
<polygon fill="#efefef" stroke="transparent" points="420.5,-1172.5 420.5,-1207.5 669.5,-1207.5 669.5,-1172.5 420.5,-1172.5"/>
<polygon fill="none" stroke="#000000" points="420.5,-1172.5 420.5,-1207.5 669.5,-1207.5 669.5,-1172.5 420.5,-1172.5"/>
<text text-anchor="start" x="433.3668" y="-1185.3" font-family="Arial Bold" font-size="18.00" fill="#000000">public.play_lists</text>
<text text-anchor="start" x="559.3794" y="-1185.3" font-family="Arial" font-size="14.00" fill="#000000"> </text>
<text text-anchor="start" x="563.27" y="-1185.3" font-family="Arial" font-size="14.00" fill="#666666">[BASE TABLE]</text>
<polygon fill="none" stroke="#000000" points="420.5,-1142.5 420.5,-1172.5 669.5,-1172.5 669.5,-1142.5 420.5,-1142.5"/>
<text text-anchor="start" x="427.5" y="-1153.9" font-family="Arial" font-size="14.00" fill="#000000">id </text>
<text text-anchor="start" x="442.2798" y="-1153.9" font-family="Arial" font-size="14.00" fill="#666666">[uuid]</text>
<polygon fill="none" stroke="#000000" points="420.5,-1112.5 420.5,-1142.5 669.5,-1142.5 669.5,-1112.5 420.5,-1112.5"/>
<text text-anchor="start" x="427.5" y="-1123.9" font-family="Arial" font-size="14.00" fill="#000000">play_list_names_id </text>
<text text-anchor="start" x="550.4116" y="-1123.9" font-family="Arial" font-size="14.00" fill="#666666">[bigint]</text>
<polygon fill="none" stroke="#000000" points="420.5,-1082.5 420.5,-1112.5 669.5,-1112.5 669.5,-1082.5 420.5,-1082.5"/>
<text text-anchor="start" x="427.5" y="-1093.9" font-family="Arial" font-size="14.00" fill="#000000">video_id </text>
<text text-anchor="start" x="483.5168" y="-1093.9" font-family="Arial" font-size="14.00" fill="#666666">[uuid]</text>
<polygon fill="none" stroke="#000000" points="420.5,-1052.5 420.5,-1082.5 669.5,-1082.5 669.5,-1052.5 420.5,-1052.5"/>
<text text-anchor="start" x="427.1438" y="-1063.9" font-family="Arial" font-size="14.00" fill="#000000">created_at </text>
<text text-anchor="start" x="497.1718" y="-1063.9" font-family="Arial" font-size="14.00" fill="#666666">[timestamp with time zone]</text>
</g>
<!-- public.play_lists&#45;&gt;public.videos -->
<g id="edge2" class="edge">
<title>public.play_lists:video_id&#45;&gt;public.videos:id</title>
<path fill="none" stroke="#000000" d="M410.8839,-1094.39C371.5794,-1067.6501 373.0467,-877.5 418.5,-877.5"/>
<polygon fill="#000000" stroke="#000000" points="410.9852,-1094.4227 419.1152,-1101.7816 415.7426,-1095.9614 420.5,-1097.5 420.5,-1097.5 420.5,-1097.5 415.7426,-1095.9614 421.8848,-1093.2184 410.9852,-1094.4227 410.9852,-1094.4227"/>
<text text-anchor="start" x="365.8855" y="-1081.5" font-family="Arial" font-size="10.00" fill="#000000">FOREIGN KEY (video_id) REFERENCES videos(id)</text>
</g>
<!-- public.feelings -->
<g id="node4" class="node">
<title>public.feelings</title>
<polygon fill="#efefef" stroke="transparent" points="773.5,-1172.5 773.5,-1207.5 1022.5,-1207.5 1022.5,-1172.5 773.5,-1172.5"/>
<polygon fill="none" stroke="#000000" points="773.5,-1172.5 773.5,-1207.5 1022.5,-1207.5 1022.5,-1172.5 773.5,-1172.5"/>
<text text-anchor="start" x="792.3608" y="-1185.3" font-family="Arial Bold" font-size="18.00" fill="#000000">public.feelings</text>
<text text-anchor="start" x="906.3854" y="-1185.3" font-family="Arial" font-size="14.00" fill="#000000"> </text>
<text text-anchor="start" x="910.276" y="-1185.3" font-family="Arial" font-size="14.00" fill="#666666">[BASE TABLE]</text>
<polygon fill="none" stroke="#000000" points="773.5,-1142.5 773.5,-1172.5 1022.5,-1172.5 1022.5,-1142.5 773.5,-1142.5"/>
<text text-anchor="start" x="780.5" y="-1153.9" font-family="Arial" font-size="14.00" fill="#000000">user_id </text>
<text text-anchor="start" x="830.2882" y="-1153.9" font-family="Arial" font-size="14.00" fill="#666666">[uuid]</text>
<polygon fill="none" stroke="#000000" points="773.5,-1112.5 773.5,-1142.5 1022.5,-1142.5 1022.5,-1112.5 773.5,-1112.5"/>
<text text-anchor="start" x="780.5" y="-1123.9" font-family="Arial" font-size="14.00" fill="#000000">video_id </text>
<text text-anchor="start" x="836.5168" y="-1123.9" font-family="Arial" font-size="14.00" fill="#666666">[uuid]</text>
<polygon fill="none" stroke="#000000" points="773.5,-1082.5 773.5,-1112.5 1022.5,-1112.5 1022.5,-1082.5 773.5,-1082.5"/>
<text text-anchor="start" x="780.5" y="-1093.9" font-family="Arial" font-size="14.00" fill="#000000">reaction </text>
<text text-anchor="start" x="834.1788" y="-1093.9" font-family="Arial" font-size="14.00" fill="#666666">[reaction_types]</text>
<polygon fill="none" stroke="#000000" points="773.5,-1052.5 773.5,-1082.5 1022.5,-1082.5 1022.5,-1052.5 773.5,-1052.5"/>
<text text-anchor="start" x="780.1438" y="-1063.9" font-family="Arial" font-size="14.00" fill="#000000">created_at </text>
<text text-anchor="start" x="850.1718" y="-1063.9" font-family="Arial" font-size="14.00" fill="#666666">[timestamp with time zone]</text>
</g>
<!-- public.feelings&#45;&gt;public.videos -->
<g id="edge3" class="edge">
<title>public.feelings:video_id&#45;&gt;public.videos:id</title>
<path fill="none" stroke="#000000" d="M763.7249,-1125.0257C715.3403,-1099.0614 727.9859,-877.5 671.5,-877.5"/>
<polygon fill="#000000" stroke="#000000" points="763.8057,-1125.0461 772.3957,-1131.8624 768.6529,-1126.273 773.5,-1127.5 773.5,-1127.5 773.5,-1127.5 768.6529,-1126.273 774.6043,-1123.1376 763.8057,-1125.0461 763.8057,-1125.0461"/>
<text text-anchor="start" x="534.3855" y="-1137.5" font-family="Arial" font-size="10.00" fill="#000000">FOREIGN KEY (video_id) REFERENCES videos(id)</text>
</g>
</g>
</svg>
