<?xml version="1.0" encoding="UTF-8" standalone="no"?>
<!DOCTYPE svg PUBLIC "-//W3C//DTD SVG 1.1//EN"
 "http://www.w3.org/Graphics/SVG/1.1/DTD/svg11.dtd">
<!-- Generated by graphviz version 2.40.1 (20161225.0304)
 -->
<!-- Title: public.channels Pages: 1 -->
<svg width="792pt" height="1139pt"
 viewBox="0.00 0.00 792.00 1139.00" xmlns="http://www.w3.org/2000/svg" xmlns:xlink="http://www.w3.org/1999/xlink">
<g id="graph0" class="graph" transform="scale(1 1) rotate(0) translate(4 1135)">
<title>public.channels</title>
<polygon fill="#ffffff" stroke="transparent" points="-4,4 -4,-1135 788,-1135 788,4 -4,4"/>
<!-- public.channels -->
<g id="node1" class="node">
<title>public.channels</title>
<polygon fill="#efefef" stroke="transparent" points="245.5,-562.5 245.5,-597.5 494.5,-597.5 494.5,-562.5 245.5,-562.5"/>
<polygon fill="none" stroke="#000000" points="245.5,-562.5 245.5,-597.5 494.5,-597.5 494.5,-562.5 245.5,-562.5"/>
<text text-anchor="start" x="259.3559" y="-575.3" font-family="Arial Bold" font-size="18.00" fill="#000000">public.channels</text>
<text text-anchor="start" x="383.3903" y="-575.3" font-family="Arial" font-size="14.00" fill="#000000"> </text>
<text text-anchor="start" x="387.2809" y="-575.3" font-family="Arial" font-size="14.00" fill="#666666">[BASE TABLE]</text>
<polygon fill="none" stroke="#000000" points="245.5,-532.5 245.5,-562.5 494.5,-562.5 494.5,-532.5 245.5,-532.5"/>
<text text-anchor="start" x="252.5" y="-543.9" font-family="Arial" font-size="14.00" fill="#000000">id </text>
<text text-anchor="start" x="267.2798" y="-543.9" font-family="Arial" font-size="14.00" fill="#666666">[uuid]</text>
<polygon fill="none" stroke="#000000" points="245.5,-502.5 245.5,-532.5 494.5,-532.5 494.5,-502.5 245.5,-502.5"/>
<text text-anchor="start" x="252.5" y="-513.9" font-family="Arial" font-size="14.00" fill="#000000">name </text>
<text text-anchor="start" x="291.399" y="-513.9" font-family="Arial" font-size="14.00" fill="#666666">[varchar]</text>
<polygon fill="none" stroke="#000000" points="245.5,-472.5 245.5,-502.5 494.5,-502.5 494.5,-472.5 245.5,-472.5"/>
<text text-anchor="start" x="252.5" y="-483.9" font-family="Arial" font-size="14.00" fill="#000000">description </text>
<text text-anchor="start" x="324.068" y="-483.9" font-family="Arial" font-size="14.00" fill="#666666">[text]</text>
<polygon fill="none" stroke="#000000" points="245.5,-442.5 245.5,-472.5 494.5,-472.5 494.5,-442.5 245.5,-442.5"/>
<text text-anchor="start" x="252.5" y="-453.9" font-family="Arial" font-size="14.00" fill="#000000">user_id </text>
<text text-anchor="start" x="302.2882" y="-453.9" font-family="Arial" font-size="14.00" fill="#666666">[uuid]</text>
<polygon fill="none" stroke="#000000" points="245.5,-412.5 245.5,-442.5 494.5,-442.5 494.5,-412.5 245.5,-412.5"/>
<text text-anchor="start" x="252.1438" y="-423.9" font-family="Arial" font-size="14.00" fill="#000000">created_at </text>
<text text-anchor="start" x="322.1718" y="-423.9" font-family="Arial" font-size="14.00" fill="#666666">[timestamp with time zone]</text>
<polygon fill="none" stroke="#000000" stroke-width="3" points="243.5,-411.5 243.5,-599.5 495.5,-599.5 495.5,-411.5 243.5,-411.5"/>
</g>
<!-- public.users -->
<g id="node4" class="node">
<title>public.users</title>
<polygon fill="#efefef" stroke="transparent" points="243.5,-252.5 243.5,-287.5 496.5,-287.5 496.5,-252.5 243.5,-252.5"/>
<polygon fill="none" stroke="#000000" points="243.5,-252.5 243.5,-287.5 496.5,-287.5 496.5,-252.5 243.5,-252.5"/>
<text text-anchor="start" x="273.3662" y="-265.3" font-family="Arial Bold" font-size="18.00" fill="#000000">public.users</text>
<text text-anchor="start" x="369.38" y="-265.3" font-family="Arial" font-size="14.00" fill="#000000"> </text>
<text text-anchor="start" x="373.2706" y="-265.3" font-family="Arial" font-size="14.00" fill="#666666">[BASE TABLE]</text>
<polygon fill="none" stroke="#000000" points="243.5,-222.5 243.5,-252.5 496.5,-252.5 496.5,-222.5 243.5,-222.5"/>
<text text-anchor="start" x="250.5" y="-233.9" font-family="Arial" font-size="14.00" fill="#000000">id </text>
<text text-anchor="start" x="265.2798" y="-233.9" font-family="Arial" font-size="14.00" fill="#666666">[uuid]</text>
<polygon fill="none" stroke="#000000" points="243.5,-192.5 243.5,-222.5 496.5,-222.5 496.5,-192.5 243.5,-192.5"/>
<text text-anchor="start" x="250.5" y="-203.9" font-family="Arial" font-size="14.00" fill="#000000">email </text>
<text text-anchor="start" x="287.8296" y="-203.9" font-family="Arial" font-size="14.00" fill="#666666">[citext]</text>
<polygon fill="none" stroke="#000000" points="243.5,-162.5 243.5,-192.5 496.5,-192.5 496.5,-162.5 243.5,-162.5"/>
<text text-anchor="start" x="250.5" y="-173.9" font-family="Arial" font-size="14.00" fill="#000000">phone </text>
<text text-anchor="start" x="293.3036" y="-173.9" font-family="Arial" font-size="14.00" fill="#666666">[varchar]</text>
<polygon fill="none" stroke="#000000" points="243.5,-132.5 243.5,-162.5 496.5,-162.5 496.5,-132.5 243.5,-132.5"/>
<text text-anchor="start" x="250.5" y="-143.9" font-family="Arial" font-size="14.00" fill="#000000">name </text>
<text text-anchor="start" x="289.399" y="-143.9" font-family="Arial" font-size="14.00" fill="#666666">[varchar]</text>
<polygon fill="none" stroke="#000000" points="243.5,-102.5 243.5,-132.5 496.5,-132.5 496.5,-102.5 243.5,-102.5"/>
<text text-anchor="start" x="250.5" y="-113.9" font-family="Arial" font-size="14.00" fill="#000000">channel_name </text>
<text text-anchor="start" x="346.2012" y="-113.9" font-family="Arial" font-size="14.00" fill="#666666">[varchar]</text>
<polygon fill="none" stroke="#000000" points="243.5,-72.5 243.5,-102.5 496.5,-102.5 496.5,-72.5 243.5,-72.5"/>
<text text-anchor="start" x="250.5" y="-83.9" font-family="Arial" font-size="14.00" fill="#000000">created_at </text>
<text text-anchor="start" x="320.528" y="-83.9" font-family="Arial" font-size="14.00" fill="#666666">[timestamp with time zone]</text>
<polygon fill="none" stroke="#000000" points="243.5,-42.5 243.5,-72.5 496.5,-72.5 496.5,-42.5 243.5,-42.5"/>
<text text-anchor="start" x="250.1915" y="-53.9" font-family="Arial" font-size="14.00" fill="#000000">updated_at </text>
<text text-anchor="start" x="324.1241" y="-53.9" font-family="Arial" font-size="14.00" fill="#666666">[timestamp with time zone]</text>
</g>
<!-- public.channels&#45;&gt;public.users -->
<g id="edge3" class="edge">
<title>public.channels:user_id&#45;&gt;public.users:id</title>
<path fill="none" stroke="#000000" d="M235.2759,-456.6591C147.7039,-441.8888 149.2513,-237.5 243.5,-237.5"/>
<polygon fill="#000000" stroke="#000000" points="235.5337,-456.6802 245.1311,-461.9849 240.5168,-457.0901 245.5,-457.5 245.5,-457.5 245.5,-457.5 240.5168,-457.0901 245.8689,-453.0151 235.5337,-456.6802 235.5337,-456.6802"/>
<text text-anchor="start" x="15.8345" y="-467.5" font-family="Arial" font-size="10.00" fill="#000000">FOREIGN KEY (user_id) REFERENCES users(id)</text>
</g>
<!-- public.videos -->
<g id="node2" class="node">
<title>public.videos</title>
<polygon fill="#efefef" stroke="transparent" points="43.5,-1052.5 43.5,-1087.5 296.5,-1087.5 296.5,-1052.5 43.5,-1052.5"/>
<polygon fill="none" stroke="#000000" points="43.5,-1052.5 43.5,-1087.5 296.5,-1087.5 296.5,-1052.5 43.5,-1052.5"/>
<text text-anchor="start" x="69.3621" y="-1065.3" font-family="Arial Bold" font-size="18.00" fill="#000000">public.videos</text>
<text text-anchor="start" x="173.3841" y="-1065.3" font-family="Arial" font-size="14.00" fill="#000000"> </text>
<text text-anchor="start" x="177.2747" y="-1065.3" font-family="Arial" font-size="14.00" fill="#666666">[BASE TABLE]</text>
<polygon fill="none" stroke="#000000" points="43.5,-1022.5 43.5,-1052.5 296.5,-1052.5 296.5,-1022.5 43.5,-1022.5"/>
<text text-anchor="start" x="50.5" y="-1033.9" font-family="Arial" font-size="14.00" fill="#000000">id </text>
<text text-anchor="start" x="65.2798" y="-1033.9" font-family="Arial" font-size="14.00" fill="#666666">[uuid]</text>
<polygon fill="none" stroke="#000000" points="43.5,-992.5 43.5,-1022.5 296.5,-1022.5 296.5,-992.5 43.5,-992.5"/>
<text text-anchor="start" x="50.5" y="-1003.9" font-family="Arial" font-size="14.00" fill="#000000">title </text>
<text text-anchor="start" x="76.1676" y="-1003.9" font-family="Arial" font-size="14.00" fill="#666666">[varchar]</text>
<polygon fill="none" stroke="#000000" points="43.5,-962.5 43.5,-992.5 296.5,-992.5 296.5,-962.5 43.5,-962.5"/>
<text text-anchor="start" x="50.5" y="-973.9" font-family="Arial" font-size="14.00" fill="#000000">description </text>
<text text-anchor="start" x="122.068" y="-973.9" font-family="Arial" font-size="14.00" fill="#666666">[text]</text>
<polygon fill="none" stroke="#000000" points="43.5,-932.5 43.5,-962.5 296.5,-962.5 296.5,-932.5 43.5,-932.5"/>
<text text-anchor="start" x="50.5" y="-943.9" font-family="Arial" font-size="14.00" fill="#000000">category </text>
<text text-anchor="start" x="108.0722" y="-943.9" font-family="Arial" font-size="14.00" fill="#666666">[category_types]</text>
<polygon fill="none" stroke="#000000" points="43.5,-902.5 43.5,-932.5 296.5,-932.5 296.5,-902.5 43.5,-902.5"/>
<text text-anchor="start" x="50.5" y="-913.9" font-family="Arial" font-size="14.00" fill="#000000">views </text>
<text text-anchor="start" x="89.3864" y="-913.9" font-family="Arial" font-size="14.00" fill="#666666">[integer]</text>
<polygon fill="none" stroke="#000000" points="43.5,-872.5 43.5,-902.5 296.5,-902.5 296.5,-872.5 43.5,-872.5"/>
<text text-anchor="start" x="50.5" y="-883.9" font-family="Arial" font-size="14.00" fill="#000000">thumbnail </text>
<text text-anchor="start" x="115.068" y="-883.9" font-family="Arial" font-size="14.00" fill="#666666">[varchar]</text>
<polygon fill="none" stroke="#000000" points="43.5,-842.5 43.5,-872.5 296.5,-872.5 296.5,-842.5 43.5,-842.5"/>
<text text-anchor="start" x="50.5" y="-853.9" font-family="Arial" font-size="14.00" fill="#000000">stream_url </text>
<text text-anchor="start" x="120.5" y="-853.9" font-family="Arial" font-size="14.00" fill="#666666">[varchar]</text>
<polygon fill="none" stroke="#000000" points="43.5,-812.5 43.5,-842.5 296.5,-842.5 296.5,-812.5 43.5,-812.5"/>
<text text-anchor="start" x="50.5" y="-823.9" font-family="Arial" font-size="14.00" fill="#000000">user_id </text>
<text text-anchor="start" x="100.2882" y="-823.9" font-family="Arial" font-size="14.00" fill="#666666">[uuid]</text>
<polygon fill="none" stroke="#000000" points="43.5,-782.5 43.5,-812.5 296.5,-812.5 296.5,-782.5 43.5,-782.5"/>
<text text-anchor="start" x="50.5" y="-793.9" font-family="Arial" font-size="14.00" fill="#000000">channel_id </text>
<text text-anchor="start" x="122.082" y="-793.9" font-family="Arial" font-size="14.00" fill="#666666">[uuid]</text>
<polygon fill="none" stroke="#000000" points="43.5,-752.5 43.5,-782.5 296.5,-782.5 296.5,-752.5 43.5,-752.5"/>
<text text-anchor="start" x="50.5" y="-763.9" font-family="Arial" font-size="14.00" fill="#000000">created_at </text>
<text text-anchor="start" x="120.528" y="-763.9" font-family="Arial" font-size="14.00" fill="#666666">[timestamp with time zone]</text>
<polygon fill="none" stroke="#000000" points="43.5,-722.5 43.5,-752.5 296.5,-752.5 296.5,-722.5 43.5,-722.5"/>
<text text-anchor="start" x="50.1915" y="-733.9" font-family="Arial" font-size="14.00" fill="#000000">updated_at </text>
<text text-anchor="start" x="124.1241" y="-733.9" font-family="Arial" font-size="14.00" fill="#666666">[timestamp with time zone]</text>
</g>
<!-- public.videos&#45;&gt;public.channels -->
<g id="edge1" class="edge">
<title>public.videos:channel_id&#45;&gt;public.channels:id</title>
<path fill="none" stroke="#000000" d="M306.8332,-796.3637C344.5598,-787.0777 318.7424,-722.9261 296.5,-680 283.7356,-655.3657 258.2644,-668.6343 245.5,-644 225.7684,-605.9196 202.6111,-547.5 245.5,-547.5"/>
<polygon fill="#000000" stroke="#000000" points="306.4401,-796.4069 296.0081,-793.027 301.47,-796.9534 296.5,-797.5 296.5,-797.5 296.5,-797.5 301.47,-796.9534 296.9919,-801.973 306.4401,-796.4069 306.4401,-796.4069"/>
<text text-anchor="start" x="303.2675" y="-781.5" font-family="Arial" font-size="10.00" fill="#000000">FOREIGN KEY (channel_id) REFERENCES channels(id)</text>
</g>
<!-- public.channel_subscriptions -->
<g id="node3" class="node">
<title>public.channel_subscriptions</title>
<polygon fill="#efefef" stroke="transparent" points="400.5,-932.5 400.5,-967.5 741.5,-967.5 741.5,-932.5 400.5,-932.5"/>
<polygon fill="none" stroke="#000000" points="400.5,-932.5 400.5,-967.5 741.5,-967.5 741.5,-932.5 400.5,-932.5"/>
<text text-anchor="start" x="407.3459" y="-945.3" font-family="Arial Bold" font-size="18.00" fill="#000000">public.channel_subscriptions</text>
<text text-anchor="start" x="637.4003" y="-945.3" font-family="Arial" font-size="14.00" fill="#000000"> </text>
<text text-anchor="start" x="641.2909" y="-945.3" font-family="Arial" font-size="14.00" fill="#666666">[BASE TABLE]</text>
<polygon fill="none" stroke="#000000" points="400.5,-902.5 400.5,-932.5 741.5,-932.5 741.5,-902.5 400.5,-902.5"/>
<text text-anchor="start" x="407.5" y="-913.9" font-family="Arial" font-size="14.00" fill="#000000">subscriber_id </text>
<text text-anchor="start" x="494.6206" y="-913.9" font-family="Arial" font-size="14.00" fill="#666666">[uuid]</text>
<polygon fill="none" stroke="#000000" points="400.5,-872.5 400.5,-902.5 741.5,-902.5 741.5,-872.5 400.5,-872.5"/>
<text text-anchor="start" x="407.5" y="-883.9" font-family="Arial" font-size="14.00" fill="#000000">channel_id </text>
<text text-anchor="start" x="479.082" y="-883.9" font-family="Arial" font-size="14.00" fill="#666666">[uuid]</text>
<polygon fill="none" stroke="#000000" points="400.5,-842.5 400.5,-872.5 741.5,-872.5 741.5,-842.5 400.5,-842.5"/>
<text text-anchor="start" x="407.5" y="-853.9" font-family="Arial" font-size="14.00" fill="#000000">created_at </text>
<text text-anchor="start" x="477.528" y="-853.9" font-family="Arial" font-size="14.00" fill="#666666">[timestamp with time zone]</text>
</g>
<!-- public.channel_subscriptions&#45;&gt;public.channels -->
<g id="edge2" class="edge">
<title>public.channel_subscriptions:channel_id&#45;&gt;public.channels:id</title>
<path fill="none" stroke="#000000" d="M390.3919,-886.9485C262.5144,-871.7493 647.6054,-547.5 494.5,-547.5"/>
<polygon fill="#000000" stroke="#000000" points="390.5149,-886.9551 400.2548,-891.9933 395.5074,-887.2275 400.5,-887.5 400.5,-887.5 400.5,-887.5 395.5074,-887.2275 400.7452,-883.0067 390.5149,-886.9551 390.5149,-886.9551"/>
<text text-anchor="start" x="407.2675" y="-897.5" font-family="Arial" font-size="10.00" fill="#000000">FOREIGN KEY (channel_id) REFERENCES channels(id)</text>
</g>
</g>
</svg>
