<?xml version="1.0" encoding="UTF-8" standalone="no"?>
<!DOCTYPE svg PUBLIC "-//W3C//DTD SVG 1.1//EN"
 "http://www.w3.org/Graphics/SVG/1.1/DTD/svg11.dtd">
<!-- Generated by graphviz version 2.40.1 (20161225.0304)
 -->
<!-- Title: public.play_lists Pages: 1 -->
<svg width="839pt" height="832pt"
 viewBox="0.00 0.00 839.00 832.00" xmlns="http://www.w3.org/2000/svg" xmlns:xlink="http://www.w3.org/1999/xlink">
<g id="graph0" class="graph" transform="scale(1 1) rotate(0) translate(4 828)">
<title>public.play_lists</title>
<polygon fill="#ffffff" stroke="transparent" points="-4,4 -4,-828 835,-828 835,4 -4,4"/>
<!-- public.play_lists -->
<g id="node1" class="node">
<title>public.play_lists</title>
<polygon fill="#efefef" stroke="transparent" points="336,-742.5 336,-777.5 585,-777.5 585,-742.5 336,-742.5"/>
<polygon fill="none" stroke="#000000" points="336,-742.5 336,-777.5 585,-777.5 585,-742.5 336,-742.5"/>
<text text-anchor="start" x="348.8668" y="-755.3" font-family="Arial Bold" font-size="18.00" fill="#000000">public.play_lists</text>
<text text-anchor="start" x="474.8794" y="-755.3" font-family="Arial" font-size="14.00" fill="#000000"> </text>
<text text-anchor="start" x="478.77" y="-755.3" font-family="Arial" font-size="14.00" fill="#666666">[BASE TABLE]</text>
<polygon fill="none" stroke="#000000" points="336,-712.5 336,-742.5 585,-742.5 585,-712.5 336,-712.5"/>
<text text-anchor="start" x="343" y="-723.9" font-family="Arial" font-size="14.00" fill="#000000">id </text>
<text text-anchor="start" x="357.7798" y="-723.9" font-family="Arial" font-size="14.00" fill="#666666">[uuid]</text>
<polygon fill="none" stroke="#000000" points="336,-682.5 336,-712.5 585,-712.5 585,-682.5 336,-682.5"/>
<text text-anchor="start" x="343" y="-693.9" font-family="Arial" font-size="14.00" fill="#000000">play_list_names_id </text>
<text text-anchor="start" x="465.9116" y="-693.9" font-family="Arial" font-size="14.00" fill="#666666">[bigint]</text>
<polygon fill="none" stroke="#000000" points="336,-652.5 336,-682.5 585,-682.5 585,-652.5 336,-652.5"/>
<text text-anchor="start" x="343" y="-663.9" font-family="Arial" font-size="14.00" fill="#000000">video_id </text>
<text text-anchor="start" x="399.0168" y="-663.9" font-family="Arial" font-size="14.00" fill="#666666">[uuid]</text>
<polygon fill="none" stroke="#000000" points="336,-622.5 336,-652.5 585,-652.5 585,-622.5 336,-622.5"/>
<text text-anchor="start" x="342.6438" y="-633.9" font-family="Arial" font-size="14.00" fill="#000000">created_at </text>
<text text-anchor="start" x="412.6718" y="-633.9" font-family="Arial" font-size="14.00" fill="#666666">[timestamp with time zone]</text>
<polygon fill="none" stroke="#000000" stroke-width="3" points="334,-621.5 334,-779.5 586,-779.5 586,-621.5 334,-621.5"/>
</g>
<!-- public.play_list_names -->
<g id="node2" class="node">
<title>public.play_list_names</title>
<polygon fill="#efefef" stroke="transparent" points="126,-327.5 126,-362.5 418,-362.5 418,-327.5 126,-327.5"/>
<polygon fill="none" stroke="#000000" points="126,-327.5 126,-362.5 418,-362.5 418,-327.5 126,-327.5"/>
<text text-anchor="start" x="132.8583" y="-340.3" font-family="Arial Bold" font-size="18.00" fill="#000000">public.play_list_names</text>
<text text-anchor="start" x="313.8879" y="-340.3" font-family="Arial" font-size="14.00" fill="#000000"> </text>
<text text-anchor="start" x="317.7785" y="-340.3" font-family="Arial" font-size="14.00" fill="#666666">[BASE TABLE]</text>
<polygon fill="none" stroke="#000000" points="126,-297.5 126,-327.5 418,-327.5 418,-297.5 126,-297.5"/>
<text text-anchor="start" x="133" y="-308.9" font-family="Arial" font-size="14.00" fill="#000000">id </text>
<text text-anchor="start" x="147.7798" y="-308.9" font-family="Arial" font-size="14.00" fill="#666666">[bigint]</text>
<polygon fill="none" stroke="#000000" points="126,-267.5 126,-297.5 418,-297.5 418,-267.5 126,-267.5"/>
<text text-anchor="start" x="133" y="-278.9" font-family="Arial" font-size="14.00" fill="#000000">name </text>
<text text-anchor="start" x="171.899" y="-278.9" font-family="Arial" font-size="14.00" fill="#666666">[varchar]</text>
<polygon fill="none" stroke="#000000" points="126,-237.5 126,-267.5 418,-267.5 418,-237.5 126,-237.5"/>
<text text-anchor="start" x="133" y="-248.9" font-family="Arial" font-size="14.00" fill="#000000">user_id </text>
<text text-anchor="start" x="182.7882" y="-248.9" font-family="Arial" font-size="14.00" fill="#666666">[uuid]</text>
<polygon fill="none" stroke="#000000" points="126,-207.5 126,-237.5 418,-237.5 418,-207.5 126,-207.5"/>
<text text-anchor="start" x="133" y="-218.9" font-family="Arial" font-size="14.00" fill="#000000">video_count </text>
<text text-anchor="start" x="212.366" y="-218.9" font-family="Arial" font-size="14.00" fill="#666666">[bigint]</text>
<polygon fill="none" stroke="#000000" points="126,-177.5 126,-207.5 418,-207.5 418,-177.5 126,-177.5"/>
<text text-anchor="start" x="133" y="-188.9" font-family="Arial" font-size="14.00" fill="#000000">created_at </text>
<text text-anchor="start" x="203.028" y="-188.9" font-family="Arial" font-size="14.00" fill="#666666">[timestamp with time zone]</text>
</g>
<!-- public.play_lists&#45;&gt;public.play_list_names -->
<g id="edge1" class="edge">
<title>public.play_lists:play_list_names_id&#45;&gt;public.play_list_names:id</title>
<path fill="none" stroke="#000000" d="M325.9917,-697.0209C178.5102,-681.8709 589.3613,-312.5 418,-312.5"/>
<polygon fill="#000000" stroke="#000000" points="326.0114,-697.0217 335.7848,-701.9949 331.0057,-697.2609 336,-697.5 336,-697.5 336,-697.5 331.0057,-697.2609 336.2152,-693.0051 326.0114,-697.0217 326.0114,-697.0217"/>
<text text-anchor="start" x="6.6035" y="-707.5" font-family="Arial" font-size="10.00" fill="#000000">FOREIGN KEY (play_list_names_id) REFERENCES play_list_names(id)</text>
</g>
<!-- public.videos -->
<g id="node3" class="node">
<title>public.videos</title>
<polygon fill="#efefef" stroke="transparent" points="523,-462.5 523,-497.5 776,-497.5 776,-462.5 523,-462.5"/>
<polygon fill="none" stroke="#000000" points="523,-462.5 523,-497.5 776,-497.5 776,-462.5 523,-462.5"/>
<text text-anchor="start" x="548.8621" y="-475.3" font-family="Arial Bold" font-size="18.00" fill="#000000">public.videos</text>
<text text-anchor="start" x="652.8841" y="-475.3" font-family="Arial" font-size="14.00" fill="#000000"> </text>
<text text-anchor="start" x="656.7747" y="-475.3" font-family="Arial" font-size="14.00" fill="#666666">[BASE TABLE]</text>
<polygon fill="none" stroke="#000000" points="523,-432.5 523,-462.5 776,-462.5 776,-432.5 523,-432.5"/>
<text text-anchor="start" x="530" y="-443.9" font-family="Arial" font-size="14.00" fill="#000000">id </text>
<text text-anchor="start" x="544.7798" y="-443.9" font-family="Arial" font-size="14.00" fill="#666666">[uuid]</text>
<polygon fill="none" stroke="#000000" points="523,-402.5 523,-432.5 776,-432.5 776,-402.5 523,-402.5"/>
<text text-anchor="start" x="530" y="-413.9" font-family="Arial" font-size="14.00" fill="#000000">title </text>
<text text-anchor="start" x="555.6676" y="-413.9" font-family="Arial" font-size="14.00" fill="#666666">[varchar]</text>
<polygon fill="none" stroke="#000000" points="523,-372.5 523,-402.5 776,-402.5 776,-372.5 523,-372.5"/>
<text text-anchor="start" x="530" y="-383.9" font-family="Arial" font-size="14.00" fill="#000000">description </text>
<text text-anchor="start" x="601.568" y="-383.9" font-family="Arial" font-size="14.00" fill="#666666">[text]</text>
<polygon fill="none" stroke="#000000" points="523,-342.5 523,-372.5 776,-372.5 776,-342.5 523,-342.5"/>
<text text-anchor="start" x="530" y="-353.9" font-family="Arial" font-size="14.00" fill="#000000">category </text>
<text text-anchor="start" x="587.5722" y="-353.9" font-family="Arial" font-size="14.00" fill="#666666">[category_types]</text>
<polygon fill="none" stroke="#000000" points="523,-312.5 523,-342.5 776,-342.5 776,-312.5 523,-312.5"/>
<text text-anchor="start" x="530" y="-323.9" font-family="Arial" font-size="14.00" fill="#000000">views_count </text>
<text text-anchor="start" x="610.9074" y="-323.9" font-family="Arial" font-size="14.00" fill="#666666">[integer]</text>
<polygon fill="none" stroke="#000000" points="523,-282.5 523,-312.5 776,-312.5 776,-282.5 523,-282.5"/>
<text text-anchor="start" x="530" y="-293.9" font-family="Arial" font-size="14.00" fill="#000000">likes_count </text>
<text text-anchor="start" x="603.9074" y="-293.9" font-family="Arial" font-size="14.00" fill="#666666">[integer]</text>
<polygon fill="none" stroke="#000000" points="523,-252.5 523,-282.5 776,-282.5 776,-252.5 523,-252.5"/>
<text text-anchor="start" x="530" y="-263.9" font-family="Arial" font-size="14.00" fill="#000000">dislikes_count </text>
<text text-anchor="start" x="621.7966" y="-263.9" font-family="Arial" font-size="14.00" fill="#666666">[integer]</text>
<polygon fill="none" stroke="#000000" points="523,-222.5 523,-252.5 776,-252.5 776,-222.5 523,-222.5"/>
<text text-anchor="start" x="530" y="-233.9" font-family="Arial" font-size="14.00" fill="#000000">thumbnail </text>
<text text-anchor="start" x="594.568" y="-233.9" font-family="Arial" font-size="14.00" fill="#666666">[varchar]</text>
<polygon fill="none" stroke="#000000" points="523,-192.5 523,-222.5 776,-222.5 776,-192.5 523,-192.5"/>
<text text-anchor="start" x="530" y="-203.9" font-family="Arial" font-size="14.00" fill="#000000">stream_url </text>
<text text-anchor="start" x="600" y="-203.9" font-family="Arial" font-size="14.00" fill="#666666">[varchar]</text>
<polygon fill="none" stroke="#000000" points="523,-162.5 523,-192.5 776,-192.5 776,-162.5 523,-162.5"/>
<text text-anchor="start" x="530" y="-173.9" font-family="Arial" font-size="14.00" fill="#000000">channel_id </text>
<text text-anchor="start" x="601.582" y="-173.9" font-family="Arial" font-size="14.00" fill="#666666">[uuid]</text>
<polygon fill="none" stroke="#000000" points="523,-132.5 523,-162.5 776,-162.5 776,-132.5 523,-132.5"/>
<text text-anchor="start" x="530" y="-143.9" font-family="Arial" font-size="14.00" fill="#000000">duration </text>
<text text-anchor="start" x="584.4614" y="-143.9" font-family="Arial" font-size="14.00" fill="#666666">[double precision]</text>
<polygon fill="none" stroke="#000000" points="523,-102.5 523,-132.5 776,-132.5 776,-102.5 523,-102.5"/>
<text text-anchor="start" x="530" y="-113.9" font-family="Arial" font-size="14.00" fill="#000000">is_private </text>
<text text-anchor="start" x="593.7854" y="-113.9" font-family="Arial" font-size="14.00" fill="#666666">[boolean]</text>
<polygon fill="none" stroke="#000000" points="523,-72.5 523,-102.5 776,-102.5 776,-72.5 523,-72.5"/>
<text text-anchor="start" x="530" y="-83.9" font-family="Arial" font-size="14.00" fill="#000000">created_at </text>
<text text-anchor="start" x="600.028" y="-83.9" font-family="Arial" font-size="14.00" fill="#666666">[timestamp with time zone]</text>
<polygon fill="none" stroke="#000000" points="523,-42.5 523,-72.5 776,-72.5 776,-42.5 523,-42.5"/>
<text text-anchor="start" x="529.6915" y="-53.9" font-family="Arial" font-size="14.00" fill="#000000">updated_at </text>
<text text-anchor="start" x="603.6241" y="-53.9" font-family="Arial" font-size="14.00" fill="#666666">[timestamp with time zone]</text>
</g>
<!-- public.play_lists&#45;&gt;public.videos -->
<g id="edge2" class="edge">
<title>public.play_lists:video_id&#45;&gt;public.videos:id</title>
<path fill="none" stroke="#000000" d="M595.1128,-665.9793C621.2867,-656.8307 603.1083,-608.4541 585,-577 569.1021,-549.3854 538.8979,-568.6146 523,-541 502.2666,-504.9862 481.4444,-447.5 523,-447.5"/>
<polygon fill="#000000" stroke="#000000" points="594.8888,-666.0129 584.3308,-663.05 589.9444,-666.7564 585,-667.5 585,-667.5 585,-667.5 589.9444,-666.7564 585.6692,-671.95 594.8888,-666.0129 594.8888,-666.0129"/>
<text text-anchor="start" x="591.8855" y="-677.5" font-family="Arial" font-size="10.00" fill="#000000">FOREIGN KEY (video_id) REFERENCES videos(id)</text>
</g>
</g>
</svg>
