<svg xmlns="http://www.w3.org/2000/svg" xmlns:xlink="http://www.w3.org/1999/xlink" width="950pt" height="832pt" viewBox="0 0 950 832"><g id="graph0" class="graph" transform="scale(1 1) rotate(0) translate(4 828)"><title>public.play_lists</title><polygon fill="#fff" stroke="transparent" points="-4 4 -4 -828 946 -828 946 4 -4 4"/><g id="node1" class="node"><title>public.play_lists</title><polygon fill="#efefef" stroke="transparent" points="447 -742.5 447 -777.5 696 -777.5 696 -742.5 447 -742.5"/><polygon fill="none" stroke="#000" points="447 -742.5 447 -777.5 696 -777.5 696 -742.5 447 -742.5"/><text x="459.867" y="-755.3" fill="#000" font-family="Arial Bold" font-size="18" text-anchor="start">public.play_lists</text><text x="589.77" y="-755.3" fill="#666" font-family="Arial" font-size="14" text-anchor="start">[BASE TABLE]</text><polygon fill="none" stroke="#000" points="447 -712.5 447 -742.5 696 -742.5 696 -712.5 447 -712.5"/><text x="454" y="-723.9" fill="#000" font-family="Arial" font-size="14" text-anchor="start">id</text><text x="468.78" y="-723.9" fill="#666" font-family="Arial" font-size="14" text-anchor="start">[uuid]</text><polygon fill="none" stroke="#000" points="447 -682.5 447 -712.5 696 -712.5 696 -682.5 447 -682.5"/><text x="454" y="-693.9" fill="#000" font-family="Arial" font-size="14" text-anchor="start">play_list_names_id</text><text x="576.912" y="-693.9" fill="#666" font-family="Arial" font-size="14" text-anchor="start">[bigint]</text><polygon fill="none" stroke="#000" points="447 -652.5 447 -682.5 696 -682.5 696 -652.5 447 -652.5"/><text x="454" y="-663.9" fill="#000" font-family="Arial" font-size="14" text-anchor="start">video_id</text><text x="510.017" y="-663.9" fill="#666" font-family="Arial" font-size="14" text-anchor="start">[uuid]</text><polygon fill="none" stroke="#000" points="447 -622.5 447 -652.5 696 -652.5 696 -622.5 447 -622.5"/><text x="453.644" y="-633.9" fill="#000" font-family="Arial" font-size="14" text-anchor="start">created_at</text><text x="523.672" y="-633.9" fill="#666" font-family="Arial" font-size="14" text-anchor="start">[timestamp with time zone]</text><polygon fill="none" stroke="#000" stroke-width="3" points="445 -621.5 445 -779.5 697 -779.5 697 -621.5 445 -621.5"/></g><g id="node2" class="node"><title>public.play_list_names</title><polygon fill="#efefef" stroke="transparent" points="237 -327.5 237 -362.5 529 -362.5 529 -327.5 237 -327.5"/><polygon fill="none" stroke="#000" points="237 -327.5 237 -362.5 529 -362.5 529 -327.5 237 -327.5"/><text x="243.858" y="-340.3" fill="#000" font-family="Arial Bold" font-size="18" text-anchor="start">public.play_list_names</text><text x="428.779" y="-340.3" fill="#666" font-family="Arial" font-size="14" text-anchor="start">[BASE TABLE]</text><polygon fill="none" stroke="#000" points="237 -297.5 237 -327.5 529 -327.5 529 -297.5 237 -297.5"/><text x="244" y="-308.9" fill="#000" font-family="Arial" font-size="14" text-anchor="start">id</text><text x="258.78" y="-308.9" fill="#666" font-family="Arial" font-size="14" text-anchor="start">[bigint]</text><polygon fill="none" stroke="#000" points="237 -267.5 237 -297.5 529 -297.5 529 -267.5 237 -267.5"/><text x="244" y="-278.9" fill="#000" font-family="Arial" font-size="14" text-anchor="start">name</text><text x="282.899" y="-278.9" fill="#666" font-family="Arial" font-size="14" text-anchor="start">[varchar]</text><polygon fill="none" stroke="#000" points="237 -237.5 237 -267.5 529 -267.5 529 -237.5 237 -237.5"/><text x="244" y="-248.9" fill="#000" font-family="Arial" font-size="14" text-anchor="start">user_id</text><text x="293.788" y="-248.9" fill="#666" font-family="Arial" font-size="14" text-anchor="start">[uuid]</text><polygon fill="none" stroke="#000" points="237 -207.5 237 -237.5 529 -237.5 529 -207.5 237 -207.5"/><text x="244" y="-218.9" fill="#000" font-family="Arial" font-size="14" text-anchor="start">video_count</text><text x="323.366" y="-218.9" fill="#666" font-family="Arial" font-size="14" text-anchor="start">[bigint]</text><polygon fill="none" stroke="#000" points="237 -177.5 237 -207.5 529 -207.5 529 -177.5 237 -177.5"/><text x="244" y="-188.9" fill="#000" font-family="Arial" font-size="14" text-anchor="start">created_at</text><text x="314.028" y="-188.9" fill="#666" font-family="Arial" font-size="14" text-anchor="start">[timestamp with time zone]</text></g><g id="edge1" class="edge"><title>public.play_lists:play_list_names_id-&gt;public.play_list_names:id</title><path fill="none" stroke="#000" d="M436.9917,-697.0209C289.5102,-681.8709 700.3613,-312.5 529,-312.5"/><polygon fill="#000" stroke="#000" points="437.011 -697.022 446.785 -701.995 442.006 -697.261 447 -697.5 447 -697.5 447 -697.5 442.006 -697.261 447.215 -693.005 437.011 -697.022 437.011 -697.022"/><text x="7.322" y="-707.5" fill="#000" font-family="Arial" font-size="10" text-anchor="start">FOREIGN KEY (play_list_names_id) REFERENCES play_list_names(id) ON DELETE CASCADE</text></g><g id="node3" class="node"><title>public.videos</title><polygon fill="#efefef" stroke="transparent" points="634 -462.5 634 -497.5 887 -497.5 887 -462.5 634 -462.5"/><polygon fill="none" stroke="#000" points="634 -462.5 634 -497.5 887 -497.5 887 -462.5 634 -462.5"/><text x="659.862" y="-475.3" fill="#000" font-family="Arial Bold" font-size="18" text-anchor="start">public.videos</text><text x="767.775" y="-475.3" fill="#666" font-family="Arial" font-size="14" text-anchor="start">[BASE TABLE]</text><polygon fill="none" stroke="#000" points="634 -432.5 634 -462.5 887 -462.5 887 -432.5 634 -432.5"/><text x="641" y="-443.9" fill="#000" font-family="Arial" font-size="14" text-anchor="start">id</text><text x="655.78" y="-443.9" fill="#666" font-family="Arial" font-size="14" text-anchor="start">[uuid]</text><polygon fill="none" stroke="#000" points="634 -402.5 634 -432.5 887 -432.5 887 -402.5 634 -402.5"/><text x="641" y="-413.9" fill="#000" font-family="Arial" font-size="14" text-anchor="start">title</text><text x="666.668" y="-413.9" fill="#666" font-family="Arial" font-size="14" text-anchor="start">[varchar]</text><polygon fill="none" stroke="#000" points="634 -372.5 634 -402.5 887 -402.5 887 -372.5 634 -372.5"/><text x="641" y="-383.9" fill="#000" font-family="Arial" font-size="14" text-anchor="start">description</text><text x="712.568" y="-383.9" fill="#666" font-family="Arial" font-size="14" text-anchor="start">[text]</text><polygon fill="none" stroke="#000" points="634 -342.5 634 -372.5 887 -372.5 887 -342.5 634 -342.5"/><text x="641" y="-353.9" fill="#000" font-family="Arial" font-size="14" text-anchor="start">category</text><text x="698.572" y="-353.9" fill="#666" font-family="Arial" font-size="14" text-anchor="start">[category_types]</text><polygon fill="none" stroke="#000" points="634 -312.5 634 -342.5 887 -342.5 887 -312.5 634 -312.5"/><text x="641" y="-323.9" fill="#000" font-family="Arial" font-size="14" text-anchor="start">views_count</text><text x="721.907" y="-323.9" fill="#666" font-family="Arial" font-size="14" text-anchor="start">[integer]</text><polygon fill="none" stroke="#000" points="634 -282.5 634 -312.5 887 -312.5 887 -282.5 634 -282.5"/><text x="641" y="-293.9" fill="#000" font-family="Arial" font-size="14" text-anchor="start">likes_count</text><text x="714.907" y="-293.9" fill="#666" font-family="Arial" font-size="14" text-anchor="start">[integer]</text><polygon fill="none" stroke="#000" points="634 -252.5 634 -282.5 887 -282.5 887 -252.5 634 -252.5"/><text x="641" y="-263.9" fill="#000" font-family="Arial" font-size="14" text-anchor="start">dislikes_count</text><text x="732.797" y="-263.9" fill="#666" font-family="Arial" font-size="14" text-anchor="start">[integer]</text><polygon fill="none" stroke="#000" points="634 -222.5 634 -252.5 887 -252.5 887 -222.5 634 -222.5"/><text x="641" y="-233.9" fill="#000" font-family="Arial" font-size="14" text-anchor="start">thumbnail</text><text x="705.568" y="-233.9" fill="#666" font-family="Arial" font-size="14" text-anchor="start">[varchar]</text><polygon fill="none" stroke="#000" points="634 -192.5 634 -222.5 887 -222.5 887 -192.5 634 -192.5"/><text x="641" y="-203.9" fill="#000" font-family="Arial" font-size="14" text-anchor="start">stream_url</text><text x="711" y="-203.9" fill="#666" font-family="Arial" font-size="14" text-anchor="start">[varchar]</text><polygon fill="none" stroke="#000" points="634 -162.5 634 -192.5 887 -192.5 887 -162.5 634 -162.5"/><text x="641" y="-173.9" fill="#000" font-family="Arial" font-size="14" text-anchor="start">channel_id</text><text x="712.582" y="-173.9" fill="#666" font-family="Arial" font-size="14" text-anchor="start">[uuid]</text><polygon fill="none" stroke="#000" points="634 -132.5 634 -162.5 887 -162.5 887 -132.5 634 -132.5"/><text x="641" y="-143.9" fill="#000" font-family="Arial" font-size="14" text-anchor="start">duration</text><text x="695.461" y="-143.9" fill="#666" font-family="Arial" font-size="14" text-anchor="start">[double precision]</text><polygon fill="none" stroke="#000" points="634 -102.5 634 -132.5 887 -132.5 887 -102.5 634 -102.5"/><text x="641" y="-113.9" fill="#000" font-family="Arial" font-size="14" text-anchor="start">is_private</text><text x="704.785" y="-113.9" fill="#666" font-family="Arial" font-size="14" text-anchor="start">[boolean]</text><polygon fill="none" stroke="#000" points="634 -72.5 634 -102.5 887 -102.5 887 -72.5 634 -72.5"/><text x="641" y="-83.9" fill="#000" font-family="Arial" font-size="14" text-anchor="start">created_at</text><text x="711.028" y="-83.9" fill="#666" font-family="Arial" font-size="14" text-anchor="start">[timestamp with time zone]</text><polygon fill="none" stroke="#000" points="634 -42.5 634 -72.5 887 -72.5 887 -42.5 634 -42.5"/><text x="640.692" y="-53.9" fill="#000" font-family="Arial" font-size="14" text-anchor="start">updated_at</text><text x="714.624" y="-53.9" fill="#666" font-family="Arial" font-size="14" text-anchor="start">[timestamp with time zone]</text></g><g id="edge2" class="edge"><title>public.play_lists:video_id-&gt;public.videos:id</title><path fill="none" stroke="#000" d="M706.1128,-665.9793C732.2867,-656.8307 714.1083,-608.4541 696,-577 680.1021,-549.3854 649.8979,-568.6146 634,-541 613.2666,-504.9862 592.4444,-447.5 634,-447.5"/><polygon fill="#000" stroke="#000" points="705.889 -666.013 695.331 -663.05 700.944 -666.756 696 -667.5 696 -667.5 696 -667.5 700.944 -666.756 696.669 -671.95 705.889 -666.013 705.889 -666.013"/><text x="702.885" y="-677.5" fill="#000" font-family="Arial" font-size="10" text-anchor="start">FOREIGN KEY (video_id) REFERENCES videos(id)</text></g></g></svg>