<?xml version="1.0" encoding="UTF-8" standalone="no"?>
<!DOCTYPE svg PUBLIC "-//W3C//DTD SVG 1.1//EN"
 "http://www.w3.org/Graphics/SVG/1.1/DTD/svg11.dtd">
<!-- Generated by graphviz version 2.40.1 (20161225.0304)
 -->
<!-- Title: public.users Pages: 1 -->
<svg width="1919pt" height="982pt"
 viewBox="0.00 0.00 1919.00 982.00" xmlns="http://www.w3.org/2000/svg" xmlns:xlink="http://www.w3.org/1999/xlink">
<g id="graph0" class="graph" transform="scale(1 1) rotate(0) translate(4 978)">
<title>public.users</title>
<polygon fill="#ffffff" stroke="transparent" points="-4,4 -4,-978 1915,-978 1915,4 -4,4"/>
<!-- public.users -->
<g id="node1" class="node">
<title>public.users</title>
<polygon fill="#efefef" stroke="transparent" points="984.5,-315.5 984.5,-350.5 1237.5,-350.5 1237.5,-315.5 984.5,-315.5"/>
<polygon fill="none" stroke="#000000" points="984.5,-315.5 984.5,-350.5 1237.5,-350.5 1237.5,-315.5 984.5,-315.5"/>
<text text-anchor="start" x="1014.3662" y="-328.3" font-family="Arial Bold" font-size="18.00" fill="#000000">public.users</text>
<text text-anchor="start" x="1110.38" y="-328.3" font-family="Arial" font-size="14.00" fill="#000000"> </text>
<text text-anchor="start" x="1114.2706" y="-328.3" font-family="Arial" font-size="14.00" fill="#666666">[BASE TABLE]</text>
<polygon fill="none" stroke="#000000" points="984.5,-285.5 984.5,-315.5 1237.5,-315.5 1237.5,-285.5 984.5,-285.5"/>
<text text-anchor="start" x="991.5" y="-296.9" font-family="Arial" font-size="14.00" fill="#000000">id </text>
<text text-anchor="start" x="1006.2798" y="-296.9" font-family="Arial" font-size="14.00" fill="#666666">[uuid]</text>
<polygon fill="none" stroke="#000000" points="984.5,-255.5 984.5,-285.5 1237.5,-285.5 1237.5,-255.5 984.5,-255.5"/>
<text text-anchor="start" x="991.5" y="-266.9" font-family="Arial" font-size="14.00" fill="#000000">email </text>
<text text-anchor="start" x="1028.8296" y="-266.9" font-family="Arial" font-size="14.00" fill="#666666">[citext]</text>
<polygon fill="none" stroke="#000000" points="984.5,-225.5 984.5,-255.5 1237.5,-255.5 1237.5,-225.5 984.5,-225.5"/>
<text text-anchor="start" x="991.5" y="-236.9" font-family="Arial" font-size="14.00" fill="#000000">phone </text>
<text text-anchor="start" x="1034.3036" y="-236.9" font-family="Arial" font-size="14.00" fill="#666666">[varchar]</text>
<polygon fill="none" stroke="#000000" points="984.5,-195.5 984.5,-225.5 1237.5,-225.5 1237.5,-195.5 984.5,-195.5"/>
<text text-anchor="start" x="991.5" y="-206.9" font-family="Arial" font-size="14.00" fill="#000000">name </text>
<text text-anchor="start" x="1030.399" y="-206.9" font-family="Arial" font-size="14.00" fill="#666666">[varchar]</text>
<polygon fill="none" stroke="#000000" points="984.5,-165.5 984.5,-195.5 1237.5,-195.5 1237.5,-165.5 984.5,-165.5"/>
<text text-anchor="start" x="991.5" y="-176.9" font-family="Arial" font-size="14.00" fill="#000000">channel_name </text>
<text text-anchor="start" x="1087.2012" y="-176.9" font-family="Arial" font-size="14.00" fill="#666666">[varchar]</text>
<polygon fill="none" stroke="#000000" points="984.5,-135.5 984.5,-165.5 1237.5,-165.5 1237.5,-135.5 984.5,-135.5"/>
<text text-anchor="start" x="991.5" y="-146.9" font-family="Arial" font-size="14.00" fill="#000000">description </text>
<text text-anchor="start" x="1063.068" y="-146.9" font-family="Arial" font-size="14.00" fill="#666666">[text]</text>
<polygon fill="none" stroke="#000000" points="984.5,-105.5 984.5,-135.5 1237.5,-135.5 1237.5,-105.5 984.5,-105.5"/>
<text text-anchor="start" x="991.5" y="-116.9" font-family="Arial" font-size="14.00" fill="#000000">subscriber_count </text>
<text text-anchor="start" x="1101.9698" y="-116.9" font-family="Arial" font-size="14.00" fill="#666666">[integer]</text>
<polygon fill="none" stroke="#000000" points="984.5,-75.5 984.5,-105.5 1237.5,-105.5 1237.5,-75.5 984.5,-75.5"/>
<text text-anchor="start" x="991.5" y="-86.9" font-family="Arial" font-size="14.00" fill="#000000">created_at </text>
<text text-anchor="start" x="1061.528" y="-86.9" font-family="Arial" font-size="14.00" fill="#666666">[timestamp with time zone]</text>
<polygon fill="none" stroke="#000000" points="984.5,-45.5 984.5,-75.5 1237.5,-75.5 1237.5,-45.5 984.5,-45.5"/>
<text text-anchor="start" x="991.1915" y="-56.9" font-family="Arial" font-size="14.00" fill="#000000">updated_at </text>
<text text-anchor="start" x="1065.1241" y="-56.9" font-family="Arial" font-size="14.00" fill="#666666">[timestamp with time zone]</text>
<polygon fill="none" stroke="#000000" stroke-width="3" points="982.5,-44.5 982.5,-352.5 1238.5,-352.5 1238.5,-44.5 982.5,-44.5"/>
</g>
<!-- public.videos -->
<g id="node2" class="node">
<title>public.videos</title>
<polygon fill="#efefef" stroke="transparent" points="43.5,-895.5 43.5,-930.5 296.5,-930.5 296.5,-895.5 43.5,-895.5"/>
<polygon fill="none" stroke="#000000" points="43.5,-895.5 43.5,-930.5 296.5,-930.5 296.5,-895.5 43.5,-895.5"/>
<text text-anchor="start" x="69.3621" y="-908.3" font-family="Arial Bold" font-size="18.00" fill="#000000">public.videos</text>
<text text-anchor="start" x="173.3841" y="-908.3" font-family="Arial" font-size="14.00" fill="#000000"> </text>
<text text-anchor="start" x="177.2747" y="-908.3" font-family="Arial" font-size="14.00" fill="#666666">[BASE TABLE]</text>
<polygon fill="none" stroke="#000000" points="43.5,-865.5 43.5,-895.5 296.5,-895.5 296.5,-865.5 43.5,-865.5"/>
<text text-anchor="start" x="50.5" y="-876.9" font-family="Arial" font-size="14.00" fill="#000000">id </text>
<text text-anchor="start" x="65.2798" y="-876.9" font-family="Arial" font-size="14.00" fill="#666666">[uuid]</text>
<polygon fill="none" stroke="#000000" points="43.5,-835.5 43.5,-865.5 296.5,-865.5 296.5,-835.5 43.5,-835.5"/>
<text text-anchor="start" x="50.5" y="-846.9" font-family="Arial" font-size="14.00" fill="#000000">title </text>
<text text-anchor="start" x="76.1676" y="-846.9" font-family="Arial" font-size="14.00" fill="#666666">[varchar]</text>
<polygon fill="none" stroke="#000000" points="43.5,-805.5 43.5,-835.5 296.5,-835.5 296.5,-805.5 43.5,-805.5"/>
<text text-anchor="start" x="50.5" y="-816.9" font-family="Arial" font-size="14.00" fill="#000000">description </text>
<text text-anchor="start" x="122.068" y="-816.9" font-family="Arial" font-size="14.00" fill="#666666">[text]</text>
<polygon fill="none" stroke="#000000" points="43.5,-775.5 43.5,-805.5 296.5,-805.5 296.5,-775.5 43.5,-775.5"/>
<text text-anchor="start" x="50.5" y="-786.9" font-family="Arial" font-size="14.00" fill="#000000">category </text>
<text text-anchor="start" x="108.0722" y="-786.9" font-family="Arial" font-size="14.00" fill="#666666">[category_types]</text>
<polygon fill="none" stroke="#000000" points="43.5,-745.5 43.5,-775.5 296.5,-775.5 296.5,-745.5 43.5,-745.5"/>
<text text-anchor="start" x="50.5" y="-756.9" font-family="Arial" font-size="14.00" fill="#000000">views_count </text>
<text text-anchor="start" x="131.4074" y="-756.9" font-family="Arial" font-size="14.00" fill="#666666">[integer]</text>
<polygon fill="none" stroke="#000000" points="43.5,-715.5 43.5,-745.5 296.5,-745.5 296.5,-715.5 43.5,-715.5"/>
<text text-anchor="start" x="50.5" y="-726.9" font-family="Arial" font-size="14.00" fill="#000000">likes_count </text>
<text text-anchor="start" x="124.4074" y="-726.9" font-family="Arial" font-size="14.00" fill="#666666">[integer]</text>
<polygon fill="none" stroke="#000000" points="43.5,-685.5 43.5,-715.5 296.5,-715.5 296.5,-685.5 43.5,-685.5"/>
<text text-anchor="start" x="50.5" y="-696.9" font-family="Arial" font-size="14.00" fill="#000000">dislikes_count </text>
<text text-anchor="start" x="142.2966" y="-696.9" font-family="Arial" font-size="14.00" fill="#666666">[integer]</text>
<polygon fill="none" stroke="#000000" points="43.5,-655.5 43.5,-685.5 296.5,-685.5 296.5,-655.5 43.5,-655.5"/>
<text text-anchor="start" x="50.5" y="-666.9" font-family="Arial" font-size="14.00" fill="#000000">thumbnail </text>
<text text-anchor="start" x="115.068" y="-666.9" font-family="Arial" font-size="14.00" fill="#666666">[varchar]</text>
<polygon fill="none" stroke="#000000" points="43.5,-625.5 43.5,-655.5 296.5,-655.5 296.5,-625.5 43.5,-625.5"/>
<text text-anchor="start" x="50.5" y="-636.9" font-family="Arial" font-size="14.00" fill="#000000">stream_url </text>
<text text-anchor="start" x="120.5" y="-636.9" font-family="Arial" font-size="14.00" fill="#666666">[varchar]</text>
<polygon fill="none" stroke="#000000" points="43.5,-595.5 43.5,-625.5 296.5,-625.5 296.5,-595.5 43.5,-595.5"/>
<text text-anchor="start" x="50.5" y="-606.9" font-family="Arial" font-size="14.00" fill="#000000">channel_id </text>
<text text-anchor="start" x="122.082" y="-606.9" font-family="Arial" font-size="14.00" fill="#666666">[uuid]</text>
<polygon fill="none" stroke="#000000" points="43.5,-565.5 43.5,-595.5 296.5,-595.5 296.5,-565.5 43.5,-565.5"/>
<text text-anchor="start" x="50.5" y="-576.9" font-family="Arial" font-size="14.00" fill="#000000">duration </text>
<text text-anchor="start" x="104.9614" y="-576.9" font-family="Arial" font-size="14.00" fill="#666666">[double precision]</text>
<polygon fill="none" stroke="#000000" points="43.5,-535.5 43.5,-565.5 296.5,-565.5 296.5,-535.5 43.5,-535.5"/>
<text text-anchor="start" x="50.5" y="-546.9" font-family="Arial" font-size="14.00" fill="#000000">is_private </text>
<text text-anchor="start" x="114.2854" y="-546.9" font-family="Arial" font-size="14.00" fill="#666666">[boolean]</text>
<polygon fill="none" stroke="#000000" points="43.5,-505.5 43.5,-535.5 296.5,-535.5 296.5,-505.5 43.5,-505.5"/>
<text text-anchor="start" x="50.5" y="-516.9" font-family="Arial" font-size="14.00" fill="#000000">created_at </text>
<text text-anchor="start" x="120.528" y="-516.9" font-family="Arial" font-size="14.00" fill="#666666">[timestamp with time zone]</text>
<polygon fill="none" stroke="#000000" points="43.5,-475.5 43.5,-505.5 296.5,-505.5 296.5,-475.5 43.5,-475.5"/>
<text text-anchor="start" x="50.1915" y="-486.9" font-family="Arial" font-size="14.00" fill="#000000">updated_at </text>
<text text-anchor="start" x="124.1241" y="-486.9" font-family="Arial" font-size="14.00" fill="#666666">[timestamp with time zone]</text>
</g>
<!-- public.videos&#45;&gt;public.users -->
<g id="edge1" class="edge">
<title>public.videos:channel_id&#45;&gt;public.users:id</title>
<path fill="none" stroke="#000000" d="M306.5418,-609.7804C370.6882,-599.7017 290.0361,-486.3238 347.5,-433 453.484,-334.6519 839.9146,-300.5 984.5,-300.5"/>
<polygon fill="#000000" stroke="#000000" points="306.4744,-609.7852 296.1783,-606.0115 301.4872,-610.1426 296.5,-610.5 296.5,-610.5 296.5,-610.5 301.4872,-610.1426 296.8217,-614.9885 306.4744,-609.7852 306.4744,-609.7852"/>
<text text-anchor="start" x="177.051" y="-594.5" font-family="Arial" font-size="10.00" fill="#000000">FOREIGN KEY (channel_id) REFERENCES users(id)</text>
</g>
<!-- public.watch_history -->
<g id="node3" class="node">
<title>public.watch_history</title>
<polygon fill="#efefef" stroke="transparent" points="400.5,-745.5 400.5,-780.5 673.5,-780.5 673.5,-745.5 400.5,-745.5"/>
<polygon fill="none" stroke="#000000" points="400.5,-745.5 400.5,-780.5 673.5,-780.5 673.5,-745.5 400.5,-745.5"/>
<text text-anchor="start" x="407.3605" y="-758.3" font-family="Arial Bold" font-size="18.00" fill="#000000">public.watch_history</text>
<text text-anchor="start" x="569.3857" y="-758.3" font-family="Arial" font-size="14.00" fill="#000000"> </text>
<text text-anchor="start" x="573.2763" y="-758.3" font-family="Arial" font-size="14.00" fill="#666666">[BASE TABLE]</text>
<polygon fill="none" stroke="#000000" points="400.5,-715.5 400.5,-745.5 673.5,-745.5 673.5,-715.5 400.5,-715.5"/>
<text text-anchor="start" x="407.5" y="-726.9" font-family="Arial" font-size="14.00" fill="#000000">video_id </text>
<text text-anchor="start" x="463.5168" y="-726.9" font-family="Arial" font-size="14.00" fill="#666666">[uuid]</text>
<polygon fill="none" stroke="#000000" points="400.5,-685.5 400.5,-715.5 673.5,-715.5 673.5,-685.5 400.5,-685.5"/>
<text text-anchor="start" x="407.5" y="-696.9" font-family="Arial" font-size="14.00" fill="#000000">user_id </text>
<text text-anchor="start" x="457.2882" y="-696.9" font-family="Arial" font-size="14.00" fill="#666666">[uuid]</text>
<polygon fill="none" stroke="#000000" points="400.5,-655.5 400.5,-685.5 673.5,-685.5 673.5,-655.5 400.5,-655.5"/>
<text text-anchor="start" x="407.5" y="-666.9" font-family="Arial" font-size="14.00" fill="#000000">last_watchted_at </text>
<text text-anchor="start" x="516.427" y="-666.9" font-family="Arial" font-size="14.00" fill="#666666">[time without time zone]</text>
<polygon fill="none" stroke="#000000" points="400.5,-625.5 400.5,-655.5 673.5,-655.5 673.5,-625.5 400.5,-625.5"/>
<text text-anchor="start" x="407.5" y="-636.9" font-family="Arial" font-size="14.00" fill="#000000">created_at </text>
<text text-anchor="start" x="477.528" y="-636.9" font-family="Arial" font-size="14.00" fill="#666666">[timestamp with time zone]</text>
</g>
<!-- public.watch_history&#45;&gt;public.users -->
<g id="edge2" class="edge">
<title>public.watch_history:user_id&#45;&gt;public.users:id</title>
<path fill="none" stroke="#000000" d="M683.7897,-700.0374C786.2181,-690.2315 654.8942,-526.8552 725.5,-433 803.2309,-329.6735 855.2001,-300.5 984.5,-300.5"/>
<polygon fill="#000000" stroke="#000000" points="683.4899,-700.0508 673.2979,-696.0045 678.495,-700.2754 673.5,-700.5 673.5,-700.5 673.5,-700.5 678.495,-700.2754 673.7021,-704.9955 683.4899,-700.0508 683.4899,-700.0508"/>
<text text-anchor="start" x="562.3345" y="-684.5" font-family="Arial" font-size="10.00" fill="#000000">FOREIGN KEY (user_id) REFERENCES users(id)</text>
</g>
<!-- public.play_list_names -->
<g id="node4" class="node">
<title>public.play_list_names</title>
<polygon fill="#efefef" stroke="transparent" points="777.5,-760.5 777.5,-795.5 1069.5,-795.5 1069.5,-760.5 777.5,-760.5"/>
<polygon fill="none" stroke="#000000" points="777.5,-760.5 777.5,-795.5 1069.5,-795.5 1069.5,-760.5 777.5,-760.5"/>
<text text-anchor="start" x="784.3583" y="-773.3" font-family="Arial Bold" font-size="18.00" fill="#000000">public.play_list_names</text>
<text text-anchor="start" x="965.3879" y="-773.3" font-family="Arial" font-size="14.00" fill="#000000"> </text>
<text text-anchor="start" x="969.2785" y="-773.3" font-family="Arial" font-size="14.00" fill="#666666">[BASE TABLE]</text>
<polygon fill="none" stroke="#000000" points="777.5,-730.5 777.5,-760.5 1069.5,-760.5 1069.5,-730.5 777.5,-730.5"/>
<text text-anchor="start" x="784.5" y="-741.9" font-family="Arial" font-size="14.00" fill="#000000">id </text>
<text text-anchor="start" x="799.2798" y="-741.9" font-family="Arial" font-size="14.00" fill="#666666">[bigint]</text>
<polygon fill="none" stroke="#000000" points="777.5,-700.5 777.5,-730.5 1069.5,-730.5 1069.5,-700.5 777.5,-700.5"/>
<text text-anchor="start" x="784.5" y="-711.9" font-family="Arial" font-size="14.00" fill="#000000">name </text>
<text text-anchor="start" x="823.399" y="-711.9" font-family="Arial" font-size="14.00" fill="#666666">[varchar]</text>
<polygon fill="none" stroke="#000000" points="777.5,-670.5 777.5,-700.5 1069.5,-700.5 1069.5,-670.5 777.5,-670.5"/>
<text text-anchor="start" x="784.5" y="-681.9" font-family="Arial" font-size="14.00" fill="#000000">user_id </text>
<text text-anchor="start" x="834.2882" y="-681.9" font-family="Arial" font-size="14.00" fill="#666666">[uuid]</text>
<polygon fill="none" stroke="#000000" points="777.5,-640.5 777.5,-670.5 1069.5,-670.5 1069.5,-640.5 777.5,-640.5"/>
<text text-anchor="start" x="784.5" y="-651.9" font-family="Arial" font-size="14.00" fill="#000000">video_count </text>
<text text-anchor="start" x="863.866" y="-651.9" font-family="Arial" font-size="14.00" fill="#666666">[bigint]</text>
<polygon fill="none" stroke="#000000" points="777.5,-610.5 777.5,-640.5 1069.5,-640.5 1069.5,-610.5 777.5,-610.5"/>
<text text-anchor="start" x="784.5" y="-621.9" font-family="Arial" font-size="14.00" fill="#000000">created_at </text>
<text text-anchor="start" x="854.528" y="-621.9" font-family="Arial" font-size="14.00" fill="#666666">[timestamp with time zone]</text>
</g>
<!-- public.play_list_names&#45;&gt;public.users -->
<g id="edge3" class="edge">
<title>public.play_list_names:user_id&#45;&gt;public.users:id</title>
<path fill="none" stroke="#000000" d="M1079.5209,-685.0209C1227.1278,-669.8709 812.8619,-300.5 984.5,-300.5"/>
<polygon fill="#000000" stroke="#000000" points="1079.4886,-685.0223 1069.285,-681.0051 1074.4943,-685.2612 1069.5,-685.5 1069.5,-685.5 1069.5,-685.5 1074.4943,-685.2612 1069.715,-689.9949 1079.4886,-685.0223 1079.4886,-685.0223"/>
<text text-anchor="start" x="1076.8345" y="-695.5" font-family="Arial" font-size="10.00" fill="#000000">FOREIGN KEY (user_id) REFERENCES users(id)</text>
</g>
<!-- public.feelings -->
<g id="node5" class="node">
<title>public.feelings</title>
<polygon fill="#efefef" stroke="transparent" points="1174.5,-745.5 1174.5,-780.5 1423.5,-780.5 1423.5,-745.5 1174.5,-745.5"/>
<polygon fill="none" stroke="#000000" points="1174.5,-745.5 1174.5,-780.5 1423.5,-780.5 1423.5,-745.5 1174.5,-745.5"/>
<text text-anchor="start" x="1193.3608" y="-758.3" font-family="Arial Bold" font-size="18.00" fill="#000000">public.feelings</text>
<text text-anchor="start" x="1307.3854" y="-758.3" font-family="Arial" font-size="14.00" fill="#000000"> </text>
<text text-anchor="start" x="1311.276" y="-758.3" font-family="Arial" font-size="14.00" fill="#666666">[BASE TABLE]</text>
<polygon fill="none" stroke="#000000" points="1174.5,-715.5 1174.5,-745.5 1423.5,-745.5 1423.5,-715.5 1174.5,-715.5"/>
<text text-anchor="start" x="1181.5" y="-726.9" font-family="Arial" font-size="14.00" fill="#000000">user_id </text>
<text text-anchor="start" x="1231.2882" y="-726.9" font-family="Arial" font-size="14.00" fill="#666666">[uuid]</text>
<polygon fill="none" stroke="#000000" points="1174.5,-685.5 1174.5,-715.5 1423.5,-715.5 1423.5,-685.5 1174.5,-685.5"/>
<text text-anchor="start" x="1181.5" y="-696.9" font-family="Arial" font-size="14.00" fill="#000000">video_id </text>
<text text-anchor="start" x="1237.5168" y="-696.9" font-family="Arial" font-size="14.00" fill="#666666">[uuid]</text>
<polygon fill="none" stroke="#000000" points="1174.5,-655.5 1174.5,-685.5 1423.5,-685.5 1423.5,-655.5 1174.5,-655.5"/>
<text text-anchor="start" x="1181.5" y="-666.9" font-family="Arial" font-size="14.00" fill="#000000">reaction </text>
<text text-anchor="start" x="1235.1788" y="-666.9" font-family="Arial" font-size="14.00" fill="#666666">[reaction_types]</text>
<polygon fill="none" stroke="#000000" points="1174.5,-625.5 1174.5,-655.5 1423.5,-655.5 1423.5,-625.5 1174.5,-625.5"/>
<text text-anchor="start" x="1181.1438" y="-636.9" font-family="Arial" font-size="14.00" fill="#000000">created_at </text>
<text text-anchor="start" x="1251.1718" y="-636.9" font-family="Arial" font-size="14.00" fill="#666666">[timestamp with time zone]</text>
</g>
<!-- public.feelings&#45;&gt;public.users -->
<g id="edge4" class="edge">
<title>public.feelings:user_id&#45;&gt;public.users:id</title>
<path fill="none" stroke="#000000" d="M1164.4037,-730.0614C997.8008,-714.691 1427.0675,-300.5 1237.5,-300.5"/>
<polygon fill="#000000" stroke="#000000" points="1164.5094,-730.0659 1174.3046,-734.9958 1169.5047,-730.2829 1174.5,-730.5 1174.5,-730.5 1174.5,-730.5 1169.5047,-730.2829 1174.6954,-726.0042 1164.5094,-730.0659 1164.5094,-730.0659"/>
<text text-anchor="start" x="1181.8345" y="-740.5" font-family="Arial" font-size="10.00" fill="#000000">FOREIGN KEY (user_id) REFERENCES users(id)</text>
</g>
<!-- public.channel_subscriptions -->
<g id="node6" class="node">
<title>public.channel_subscriptions</title>
<polygon fill="#efefef" stroke="transparent" points="1527.5,-730.5 1527.5,-765.5 1868.5,-765.5 1868.5,-730.5 1527.5,-730.5"/>
<polygon fill="none" stroke="#000000" points="1527.5,-730.5 1527.5,-765.5 1868.5,-765.5 1868.5,-730.5 1527.5,-730.5"/>
<text text-anchor="start" x="1534.3459" y="-743.3" font-family="Arial Bold" font-size="18.00" fill="#000000">public.channel_subscriptions</text>
<text text-anchor="start" x="1764.4003" y="-743.3" font-family="Arial" font-size="14.00" fill="#000000"> </text>
<text text-anchor="start" x="1768.2909" y="-743.3" font-family="Arial" font-size="14.00" fill="#666666">[BASE TABLE]</text>
<polygon fill="none" stroke="#000000" points="1527.5,-700.5 1527.5,-730.5 1868.5,-730.5 1868.5,-700.5 1527.5,-700.5"/>
<text text-anchor="start" x="1534.5" y="-711.9" font-family="Arial" font-size="14.00" fill="#000000">subscriber_id </text>
<text text-anchor="start" x="1621.6206" y="-711.9" font-family="Arial" font-size="14.00" fill="#666666">[uuid]</text>
<polygon fill="none" stroke="#000000" points="1527.5,-670.5 1527.5,-700.5 1868.5,-700.5 1868.5,-670.5 1527.5,-670.5"/>
<text text-anchor="start" x="1534.5" y="-681.9" font-family="Arial" font-size="14.00" fill="#000000">channel_id </text>
<text text-anchor="start" x="1606.082" y="-681.9" font-family="Arial" font-size="14.00" fill="#666666">[uuid]</text>
<polygon fill="none" stroke="#000000" points="1527.5,-640.5 1527.5,-670.5 1868.5,-670.5 1868.5,-640.5 1527.5,-640.5"/>
<text text-anchor="start" x="1534.5" y="-651.9" font-family="Arial" font-size="14.00" fill="#000000">created_at </text>
<text text-anchor="start" x="1604.528" y="-651.9" font-family="Arial" font-size="14.00" fill="#666666">[timestamp with time zone]</text>
</g>
<!-- public.channel_subscriptions&#45;&gt;public.users -->
<g id="edge5" class="edge">
<title>public.channel_subscriptions:channel_id&#45;&gt;public.users:id</title>
<path fill="none" stroke="#000000" d="M1517.4624,-685.0379C1420.8763,-675.5588 1541.1578,-522.4949 1475.5,-433 1403.8863,-335.3869 1358.5654,-300.5 1237.5,-300.5"/>
<polygon fill="#000000" stroke="#000000" points="1517.5106,-685.04 1527.293,-689.9952 1522.5053,-685.27 1527.5,-685.5 1527.5,-685.5 1527.5,-685.5 1522.5053,-685.27 1527.707,-681.0048 1517.5106,-685.04 1517.5106,-685.04"/>
<text text-anchor="start" x="1345.051" y="-669.5" font-family="Arial" font-size="10.00" fill="#000000">FOREIGN KEY (channel_id) REFERENCES users(id)</text>
</g>
<!-- public.channel_subscriptions&#45;&gt;public.users -->
<g id="edge6" class="edge">
<title>public.channel_subscriptions:subscriber_id&#45;&gt;public.users:id</title>
<path fill="none" stroke="#000000" d="M1517.7037,-713.3546C1468.9469,-689.9466 1510.6066,-481.9245 1475.5,-433 1404.9185,-334.638 1358.5654,-300.5 1237.5,-300.5"/>
<polygon fill="#000000" stroke="#000000" points="1517.7315,-713.3606 1526.5373,-719.8958 1522.6158,-714.4303 1527.5,-715.5 1527.5,-715.5 1527.5,-715.5 1522.6158,-714.4303 1528.4627,-711.1042 1517.7315,-713.3606 1517.7315,-713.3606"/>
<text text-anchor="start" x="1337.2515" y="-699.5" font-family="Arial" font-size="10.00" fill="#000000">FOREIGN KEY (subscriber_id) REFERENCES users(id)</text>
</g>
</g>
</svg>
