<?xml version="1.0" encoding="UTF-8" standalone="no"?>
<!DOCTYPE svg PUBLIC "-//W3C//DTD SVG 1.1//EN"
 "http://www.w3.org/Graphics/SVG/1.1/DTD/svg11.dtd">
<!-- Generated by graphviz version 2.40.1 (20161225.0304)
 -->
<!-- Title: public.feelings Pages: 1 -->
<svg width="740pt" height="832pt"
 viewBox="0.00 0.00 740.00 832.00" xmlns="http://www.w3.org/2000/svg" xmlns:xlink="http://www.w3.org/1999/xlink">
<g id="graph0" class="graph" transform="scale(1 1) rotate(0) translate(4 828)">
<title>public.feelings</title>
<polygon fill="#ffffff" stroke="transparent" points="-4,4 -4,-828 736,-828 736,4 -4,4"/>
<!-- public.feelings -->
<g id="node1" class="node">
<title>public.feelings</title>
<polygon fill="#efefef" stroke="transparent" points="237,-742.5 237,-777.5 486,-777.5 486,-742.5 237,-742.5"/>
<polygon fill="none" stroke="#000000" points="237,-742.5 237,-777.5 486,-777.5 486,-742.5 237,-742.5"/>
<text text-anchor="start" x="255.8608" y="-755.3" font-family="Arial Bold" font-size="18.00" fill="#000000">public.feelings</text>
<text text-anchor="start" x="369.8854" y="-755.3" font-family="Arial" font-size="14.00" fill="#000000"> </text>
<text text-anchor="start" x="373.776" y="-755.3" font-family="Arial" font-size="14.00" fill="#666666">[BASE TABLE]</text>
<polygon fill="none" stroke="#000000" points="237,-712.5 237,-742.5 486,-742.5 486,-712.5 237,-712.5"/>
<text text-anchor="start" x="244" y="-723.9" font-family="Arial" font-size="14.00" fill="#000000">user_id </text>
<text text-anchor="start" x="293.7882" y="-723.9" font-family="Arial" font-size="14.00" fill="#666666">[uuid]</text>
<polygon fill="none" stroke="#000000" points="237,-682.5 237,-712.5 486,-712.5 486,-682.5 237,-682.5"/>
<text text-anchor="start" x="244" y="-693.9" font-family="Arial" font-size="14.00" fill="#000000">video_id </text>
<text text-anchor="start" x="300.0168" y="-693.9" font-family="Arial" font-size="14.00" fill="#666666">[uuid]</text>
<polygon fill="none" stroke="#000000" points="237,-652.5 237,-682.5 486,-682.5 486,-652.5 237,-652.5"/>
<text text-anchor="start" x="244" y="-663.9" font-family="Arial" font-size="14.00" fill="#000000">reaction </text>
<text text-anchor="start" x="297.6788" y="-663.9" font-family="Arial" font-size="14.00" fill="#666666">[reaction_types]</text>
<polygon fill="none" stroke="#000000" points="237,-622.5 237,-652.5 486,-652.5 486,-622.5 237,-622.5"/>
<text text-anchor="start" x="243.6438" y="-633.9" font-family="Arial" font-size="14.00" fill="#000000">created_at </text>
<text text-anchor="start" x="313.6718" y="-633.9" font-family="Arial" font-size="14.00" fill="#666666">[timestamp with time zone]</text>
<polygon fill="none" stroke="#000000" stroke-width="3" points="235,-621.5 235,-779.5 487,-779.5 487,-621.5 235,-621.5"/>
</g>
<!-- public.users -->
<g id="node2" class="node">
<title>public.users</title>
<polygon fill="#efefef" stroke="transparent" points="57,-387.5 57,-422.5 310,-422.5 310,-387.5 57,-387.5"/>
<polygon fill="none" stroke="#000000" points="57,-387.5 57,-422.5 310,-422.5 310,-387.5 57,-387.5"/>
<text text-anchor="start" x="86.8662" y="-400.3" font-family="Arial Bold" font-size="18.00" fill="#000000">public.users</text>
<text text-anchor="start" x="182.88" y="-400.3" font-family="Arial" font-size="14.00" fill="#000000"> </text>
<text text-anchor="start" x="186.7706" y="-400.3" font-family="Arial" font-size="14.00" fill="#666666">[BASE TABLE]</text>
<polygon fill="none" stroke="#000000" points="57,-357.5 57,-387.5 310,-387.5 310,-357.5 57,-357.5"/>
<text text-anchor="start" x="64" y="-368.9" font-family="Arial" font-size="14.00" fill="#000000">id </text>
<text text-anchor="start" x="78.7798" y="-368.9" font-family="Arial" font-size="14.00" fill="#666666">[uuid]</text>
<polygon fill="none" stroke="#000000" points="57,-327.5 57,-357.5 310,-357.5 310,-327.5 57,-327.5"/>
<text text-anchor="start" x="64" y="-338.9" font-family="Arial" font-size="14.00" fill="#000000">email </text>
<text text-anchor="start" x="101.3296" y="-338.9" font-family="Arial" font-size="14.00" fill="#666666">[citext]</text>
<polygon fill="none" stroke="#000000" points="57,-297.5 57,-327.5 310,-327.5 310,-297.5 57,-297.5"/>
<text text-anchor="start" x="64" y="-308.9" font-family="Arial" font-size="14.00" fill="#000000">phone </text>
<text text-anchor="start" x="106.8036" y="-308.9" font-family="Arial" font-size="14.00" fill="#666666">[varchar]</text>
<polygon fill="none" stroke="#000000" points="57,-267.5 57,-297.5 310,-297.5 310,-267.5 57,-267.5"/>
<text text-anchor="start" x="64" y="-278.9" font-family="Arial" font-size="14.00" fill="#000000">name </text>
<text text-anchor="start" x="102.899" y="-278.9" font-family="Arial" font-size="14.00" fill="#666666">[varchar]</text>
<polygon fill="none" stroke="#000000" points="57,-237.5 57,-267.5 310,-267.5 310,-237.5 57,-237.5"/>
<text text-anchor="start" x="64" y="-248.9" font-family="Arial" font-size="14.00" fill="#000000">channel_name </text>
<text text-anchor="start" x="159.7012" y="-248.9" font-family="Arial" font-size="14.00" fill="#666666">[varchar]</text>
<polygon fill="none" stroke="#000000" points="57,-207.5 57,-237.5 310,-237.5 310,-207.5 57,-207.5"/>
<text text-anchor="start" x="64" y="-218.9" font-family="Arial" font-size="14.00" fill="#000000">description </text>
<text text-anchor="start" x="135.568" y="-218.9" font-family="Arial" font-size="14.00" fill="#666666">[text]</text>
<polygon fill="none" stroke="#000000" points="57,-177.5 57,-207.5 310,-207.5 310,-177.5 57,-177.5"/>
<text text-anchor="start" x="64" y="-188.9" font-family="Arial" font-size="14.00" fill="#000000">subscriber_count </text>
<text text-anchor="start" x="174.4698" y="-188.9" font-family="Arial" font-size="14.00" fill="#666666">[integer]</text>
<polygon fill="none" stroke="#000000" points="57,-147.5 57,-177.5 310,-177.5 310,-147.5 57,-147.5"/>
<text text-anchor="start" x="64" y="-158.9" font-family="Arial" font-size="14.00" fill="#000000">created_at </text>
<text text-anchor="start" x="134.028" y="-158.9" font-family="Arial" font-size="14.00" fill="#666666">[timestamp with time zone]</text>
<polygon fill="none" stroke="#000000" points="57,-117.5 57,-147.5 310,-147.5 310,-117.5 57,-117.5"/>
<text text-anchor="start" x="63.6915" y="-128.9" font-family="Arial" font-size="14.00" fill="#000000">updated_at </text>
<text text-anchor="start" x="137.6241" y="-128.9" font-family="Arial" font-size="14.00" fill="#666666">[timestamp with time zone]</text>
</g>
<!-- public.feelings&#45;&gt;public.users -->
<g id="edge1" class="edge">
<title>public.feelings:user_id&#45;&gt;public.users:id</title>
<path fill="none" stroke="#000000" d="M226.7628,-727.1477C86.5351,-716.9991 302.5746,-490.8042 310,-466 321.9175,-426.19 351.5556,-372.5 310,-372.5"/>
<polygon fill="#000000" stroke="#000000" points="227.0059,-727.156 236.8452,-731.9973 232.003,-727.328 237,-727.5 237,-727.5 237,-727.5 232.003,-727.328 237.1548,-723.0027 227.0059,-727.156 227.0059,-727.156"/>
<text text-anchor="start" x="7.3345" y="-737.5" font-family="Arial" font-size="10.00" fill="#000000">FOREIGN KEY (user_id) REFERENCES users(id)</text>
</g>
<!-- public.videos -->
<g id="node3" class="node">
<title>public.videos</title>
<polygon fill="#efefef" stroke="transparent" points="414,-462.5 414,-497.5 667,-497.5 667,-462.5 414,-462.5"/>
<polygon fill="none" stroke="#000000" points="414,-462.5 414,-497.5 667,-497.5 667,-462.5 414,-462.5"/>
<text text-anchor="start" x="439.8621" y="-475.3" font-family="Arial Bold" font-size="18.00" fill="#000000">public.videos</text>
<text text-anchor="start" x="543.8841" y="-475.3" font-family="Arial" font-size="14.00" fill="#000000"> </text>
<text text-anchor="start" x="547.7747" y="-475.3" font-family="Arial" font-size="14.00" fill="#666666">[BASE TABLE]</text>
<polygon fill="none" stroke="#000000" points="414,-432.5 414,-462.5 667,-462.5 667,-432.5 414,-432.5"/>
<text text-anchor="start" x="421" y="-443.9" font-family="Arial" font-size="14.00" fill="#000000">id </text>
<text text-anchor="start" x="435.7798" y="-443.9" font-family="Arial" font-size="14.00" fill="#666666">[uuid]</text>
<polygon fill="none" stroke="#000000" points="414,-402.5 414,-432.5 667,-432.5 667,-402.5 414,-402.5"/>
<text text-anchor="start" x="421" y="-413.9" font-family="Arial" font-size="14.00" fill="#000000">title </text>
<text text-anchor="start" x="446.6676" y="-413.9" font-family="Arial" font-size="14.00" fill="#666666">[varchar]</text>
<polygon fill="none" stroke="#000000" points="414,-372.5 414,-402.5 667,-402.5 667,-372.5 414,-372.5"/>
<text text-anchor="start" x="421" y="-383.9" font-family="Arial" font-size="14.00" fill="#000000">description </text>
<text text-anchor="start" x="492.568" y="-383.9" font-family="Arial" font-size="14.00" fill="#666666">[text]</text>
<polygon fill="none" stroke="#000000" points="414,-342.5 414,-372.5 667,-372.5 667,-342.5 414,-342.5"/>
<text text-anchor="start" x="421" y="-353.9" font-family="Arial" font-size="14.00" fill="#000000">category </text>
<text text-anchor="start" x="478.5722" y="-353.9" font-family="Arial" font-size="14.00" fill="#666666">[category_types]</text>
<polygon fill="none" stroke="#000000" points="414,-312.5 414,-342.5 667,-342.5 667,-312.5 414,-312.5"/>
<text text-anchor="start" x="421" y="-323.9" font-family="Arial" font-size="14.00" fill="#000000">views_count </text>
<text text-anchor="start" x="501.9074" y="-323.9" font-family="Arial" font-size="14.00" fill="#666666">[integer]</text>
<polygon fill="none" stroke="#000000" points="414,-282.5 414,-312.5 667,-312.5 667,-282.5 414,-282.5"/>
<text text-anchor="start" x="421" y="-293.9" font-family="Arial" font-size="14.00" fill="#000000">likes_count </text>
<text text-anchor="start" x="494.9074" y="-293.9" font-family="Arial" font-size="14.00" fill="#666666">[integer]</text>
<polygon fill="none" stroke="#000000" points="414,-252.5 414,-282.5 667,-282.5 667,-252.5 414,-252.5"/>
<text text-anchor="start" x="421" y="-263.9" font-family="Arial" font-size="14.00" fill="#000000">dislikes_count </text>
<text text-anchor="start" x="512.7966" y="-263.9" font-family="Arial" font-size="14.00" fill="#666666">[integer]</text>
<polygon fill="none" stroke="#000000" points="414,-222.5 414,-252.5 667,-252.5 667,-222.5 414,-222.5"/>
<text text-anchor="start" x="421" y="-233.9" font-family="Arial" font-size="14.00" fill="#000000">thumbnail </text>
<text text-anchor="start" x="485.568" y="-233.9" font-family="Arial" font-size="14.00" fill="#666666">[varchar]</text>
<polygon fill="none" stroke="#000000" points="414,-192.5 414,-222.5 667,-222.5 667,-192.5 414,-192.5"/>
<text text-anchor="start" x="421" y="-203.9" font-family="Arial" font-size="14.00" fill="#000000">stream_url </text>
<text text-anchor="start" x="491" y="-203.9" font-family="Arial" font-size="14.00" fill="#666666">[varchar]</text>
<polygon fill="none" stroke="#000000" points="414,-162.5 414,-192.5 667,-192.5 667,-162.5 414,-162.5"/>
<text text-anchor="start" x="421" y="-173.9" font-family="Arial" font-size="14.00" fill="#000000">channel_id </text>
<text text-anchor="start" x="492.582" y="-173.9" font-family="Arial" font-size="14.00" fill="#666666">[uuid]</text>
<polygon fill="none" stroke="#000000" points="414,-132.5 414,-162.5 667,-162.5 667,-132.5 414,-132.5"/>
<text text-anchor="start" x="421" y="-143.9" font-family="Arial" font-size="14.00" fill="#000000">duration </text>
<text text-anchor="start" x="475.4614" y="-143.9" font-family="Arial" font-size="14.00" fill="#666666">[double precision]</text>
<polygon fill="none" stroke="#000000" points="414,-102.5 414,-132.5 667,-132.5 667,-102.5 414,-102.5"/>
<text text-anchor="start" x="421" y="-113.9" font-family="Arial" font-size="14.00" fill="#000000">is_private </text>
<text text-anchor="start" x="484.7854" y="-113.9" font-family="Arial" font-size="14.00" fill="#666666">[boolean]</text>
<polygon fill="none" stroke="#000000" points="414,-72.5 414,-102.5 667,-102.5 667,-72.5 414,-72.5"/>
<text text-anchor="start" x="421" y="-83.9" font-family="Arial" font-size="14.00" fill="#000000">created_at </text>
<text text-anchor="start" x="491.028" y="-83.9" font-family="Arial" font-size="14.00" fill="#666666">[timestamp with time zone]</text>
<polygon fill="none" stroke="#000000" points="414,-42.5 414,-72.5 667,-72.5 667,-42.5 414,-42.5"/>
<text text-anchor="start" x="420.6915" y="-53.9" font-family="Arial" font-size="14.00" fill="#000000">updated_at </text>
<text text-anchor="start" x="494.6241" y="-53.9" font-family="Arial" font-size="14.00" fill="#666666">[timestamp with time zone]</text>
</g>
<!-- public.feelings&#45;&gt;public.videos -->
<g id="edge2" class="edge">
<title>public.feelings:video_id&#45;&gt;public.videos:id</title>
<path fill="none" stroke="#000000" d="M496.1523,-696.4247C535.9701,-687.1064 512.1761,-619.3538 486,-577 467.1909,-546.5662 432.8091,-571.4338 414,-541 392.153,-505.6507 372.4444,-447.5 414,-447.5"/>
<polygon fill="#000000" stroke="#000000" points="495.9444,-696.4467 485.526,-693.025 490.9722,-696.9733 486,-697.5 486,-697.5 486,-697.5 490.9722,-696.9733 486.474,-701.975 495.9444,-696.4467 495.9444,-696.4467"/>
<text text-anchor="start" x="492.8855" y="-707.5" font-family="Arial" font-size="10.00" fill="#000000">FOREIGN KEY (video_id) REFERENCES videos(id)</text>
</g>
</g>
</svg>
