<svg xmlns="http://www.w3.org/2000/svg" xmlns:xlink="http://www.w3.org/1999/xlink" width="740pt" height="832pt" viewBox="0 0 740 832"><g id="graph0" class="graph" transform="scale(1 1) rotate(0) translate(4 828)"><title>public.feelings</title><polygon fill="#fff" stroke="transparent" points="-4 4 -4 -828 736 -828 736 4 -4 4"/><g id="node1" class="node"><title>public.feelings</title><polygon fill="#efefef" stroke="transparent" points="237 -742.5 237 -777.5 486 -777.5 486 -742.5 237 -742.5"/><polygon fill="none" stroke="#000" points="237 -742.5 237 -777.5 486 -777.5 486 -742.5 237 -742.5"/><text x="255.861" y="-755.3" fill="#000" font-family="Arial Bold" font-size="18" text-anchor="start">public.feelings</text><text x="373.776" y="-755.3" fill="#666" font-family="Arial" font-size="14" text-anchor="start">[BASE TABLE]</text><polygon fill="none" stroke="#000" points="237 -712.5 237 -742.5 486 -742.5 486 -712.5 237 -712.5"/><text x="244" y="-723.9" fill="#000" font-family="Arial" font-size="14" text-anchor="start">user_id</text><text x="293.788" y="-723.9" fill="#666" font-family="Arial" font-size="14" text-anchor="start">[uuid]</text><polygon fill="none" stroke="#000" points="237 -682.5 237 -712.5 486 -712.5 486 -682.5 237 -682.5"/><text x="244" y="-693.9" fill="#000" font-family="Arial" font-size="14" text-anchor="start">video_id</text><text x="300.017" y="-693.9" fill="#666" font-family="Arial" font-size="14" text-anchor="start">[uuid]</text><polygon fill="none" stroke="#000" points="237 -652.5 237 -682.5 486 -682.5 486 -652.5 237 -652.5"/><text x="244" y="-663.9" fill="#000" font-family="Arial" font-size="14" text-anchor="start">reaction</text><text x="297.679" y="-663.9" fill="#666" font-family="Arial" font-size="14" text-anchor="start">[reaction_types]</text><polygon fill="none" stroke="#000" points="237 -622.5 237 -652.5 486 -652.5 486 -622.5 237 -622.5"/><text x="243.644" y="-633.9" fill="#000" font-family="Arial" font-size="14" text-anchor="start">created_at</text><text x="313.672" y="-633.9" fill="#666" font-family="Arial" font-size="14" text-anchor="start">[timestamp with time zone]</text><polygon fill="none" stroke="#000" stroke-width="3" points="235 -621.5 235 -779.5 487 -779.5 487 -621.5 235 -621.5"/></g><g id="node2" class="node"><title>public.users</title><polygon fill="#efefef" stroke="transparent" points="57 -387.5 57 -422.5 310 -422.5 310 -387.5 57 -387.5"/><polygon fill="none" stroke="#000" points="57 -387.5 57 -422.5 310 -422.5 310 -387.5 57 -387.5"/><text x="86.866" y="-400.3" fill="#000" font-family="Arial Bold" font-size="18" text-anchor="start">public.users</text><text x="186.771" y="-400.3" fill="#666" font-family="Arial" font-size="14" text-anchor="start">[BASE TABLE]</text><polygon fill="none" stroke="#000" points="57 -357.5 57 -387.5 310 -387.5 310 -357.5 57 -357.5"/><text x="64" y="-368.9" fill="#000" font-family="Arial" font-size="14" text-anchor="start">id</text><text x="78.78" y="-368.9" fill="#666" font-family="Arial" font-size="14" text-anchor="start">[uuid]</text><polygon fill="none" stroke="#000" points="57 -327.5 57 -357.5 310 -357.5 310 -327.5 57 -327.5"/><text x="64" y="-338.9" fill="#000" font-family="Arial" font-size="14" text-anchor="start">email</text><text x="101.33" y="-338.9" fill="#666" font-family="Arial" font-size="14" text-anchor="start">[citext]</text><polygon fill="none" stroke="#000" points="57 -297.5 57 -327.5 310 -327.5 310 -297.5 57 -297.5"/><text x="64" y="-308.9" fill="#000" font-family="Arial" font-size="14" text-anchor="start">phone</text><text x="106.804" y="-308.9" fill="#666" font-family="Arial" font-size="14" text-anchor="start">[varchar]</text><polygon fill="none" stroke="#000" points="57 -267.5 57 -297.5 310 -297.5 310 -267.5 57 -267.5"/><text x="64" y="-278.9" fill="#000" font-family="Arial" font-size="14" text-anchor="start">name</text><text x="102.899" y="-278.9" fill="#666" font-family="Arial" font-size="14" text-anchor="start">[varchar]</text><polygon fill="none" stroke="#000" points="57 -237.5 57 -267.5 310 -267.5 310 -237.5 57 -237.5"/><text x="64" y="-248.9" fill="#000" font-family="Arial" font-size="14" text-anchor="start">channel_name</text><text x="159.701" y="-248.9" fill="#666" font-family="Arial" font-size="14" text-anchor="start">[varchar]</text><polygon fill="none" stroke="#000" points="57 -207.5 57 -237.5 310 -237.5 310 -207.5 57 -207.5"/><text x="64" y="-218.9" fill="#000" font-family="Arial" font-size="14" text-anchor="start">description</text><text x="135.568" y="-218.9" fill="#666" font-family="Arial" font-size="14" text-anchor="start">[text]</text><polygon fill="none" stroke="#000" points="57 -177.5 57 -207.5 310 -207.5 310 -177.5 57 -177.5"/><text x="64" y="-188.9" fill="#000" font-family="Arial" font-size="14" text-anchor="start">subscriber_count</text><text x="174.47" y="-188.9" fill="#666" font-family="Arial" font-size="14" text-anchor="start">[integer]</text><polygon fill="none" stroke="#000" points="57 -147.5 57 -177.5 310 -177.5 310 -147.5 57 -147.5"/><text x="64" y="-158.9" fill="#000" font-family="Arial" font-size="14" text-anchor="start">created_at</text><text x="134.028" y="-158.9" fill="#666" font-family="Arial" font-size="14" text-anchor="start">[timestamp with time zone]</text><polygon fill="none" stroke="#000" points="57 -117.5 57 -147.5 310 -147.5 310 -117.5 57 -117.5"/><text x="63.691" y="-128.9" fill="#000" font-family="Arial" font-size="14" text-anchor="start">updated_at</text><text x="137.624" y="-128.9" fill="#666" font-family="Arial" font-size="14" text-anchor="start">[timestamp with time zone]</text></g><g id="edge1" class="edge"><title>public.feelings:user_id-&gt;public.users:id</title><path fill="none" stroke="#000" d="M226.7628,-727.1477C86.5351,-716.9991 302.5746,-490.8042 310,-466 321.9175,-426.19 351.5556,-372.5 310,-372.5"/><polygon fill="#000" stroke="#000" points="227.006 -727.156 236.845 -731.997 232.003 -727.328 237 -727.5 237 -727.5 237 -727.5 232.003 -727.328 237.155 -723.003 227.006 -727.156 227.006 -727.156"/><text x="7.335" y="-737.5" fill="#000" font-family="Arial" font-size="10" text-anchor="start">FOREIGN KEY (user_id) REFERENCES users(id)</text></g><g id="node3" class="node"><title>public.videos</title><polygon fill="#efefef" stroke="transparent" points="414 -462.5 414 -497.5 667 -497.5 667 -462.5 414 -462.5"/><polygon fill="none" stroke="#000" points="414 -462.5 414 -497.5 667 -497.5 667 -462.5 414 -462.5"/><text x="439.862" y="-475.3" fill="#000" font-family="Arial Bold" font-size="18" text-anchor="start">public.videos</text><text x="547.775" y="-475.3" fill="#666" font-family="Arial" font-size="14" text-anchor="start">[BASE TABLE]</text><polygon fill="none" stroke="#000" points="414 -432.5 414 -462.5 667 -462.5 667 -432.5 414 -432.5"/><text x="421" y="-443.9" fill="#000" font-family="Arial" font-size="14" text-anchor="start">id</text><text x="435.78" y="-443.9" fill="#666" font-family="Arial" font-size="14" text-anchor="start">[uuid]</text><polygon fill="none" stroke="#000" points="414 -402.5 414 -432.5 667 -432.5 667 -402.5 414 -402.5"/><text x="421" y="-413.9" fill="#000" font-family="Arial" font-size="14" text-anchor="start">title</text><text x="446.668" y="-413.9" fill="#666" font-family="Arial" font-size="14" text-anchor="start">[varchar]</text><polygon fill="none" stroke="#000" points="414 -372.5 414 -402.5 667 -402.5 667 -372.5 414 -372.5"/><text x="421" y="-383.9" fill="#000" font-family="Arial" font-size="14" text-anchor="start">description</text><text x="492.568" y="-383.9" fill="#666" font-family="Arial" font-size="14" text-anchor="start">[text]</text><polygon fill="none" stroke="#000" points="414 -342.5 414 -372.5 667 -372.5 667 -342.5 414 -342.5"/><text x="421" y="-353.9" fill="#000" font-family="Arial" font-size="14" text-anchor="start">category</text><text x="478.572" y="-353.9" fill="#666" font-family="Arial" font-size="14" text-anchor="start">[category_types]</text><polygon fill="none" stroke="#000" points="414 -312.5 414 -342.5 667 -342.5 667 -312.5 414 -312.5"/><text x="421" y="-323.9" fill="#000" font-family="Arial" font-size="14" text-anchor="start">views_count</text><text x="501.907" y="-323.9" fill="#666" font-family="Arial" font-size="14" text-anchor="start">[integer]</text><polygon fill="none" stroke="#000" points="414 -282.5 414 -312.5 667 -312.5 667 -282.5 414 -282.5"/><text x="421" y="-293.9" fill="#000" font-family="Arial" font-size="14" text-anchor="start">likes_count</text><text x="494.907" y="-293.9" fill="#666" font-family="Arial" font-size="14" text-anchor="start">[integer]</text><polygon fill="none" stroke="#000" points="414 -252.5 414 -282.5 667 -282.5 667 -252.5 414 -252.5"/><text x="421" y="-263.9" fill="#000" font-family="Arial" font-size="14" text-anchor="start">dislikes_count</text><text x="512.797" y="-263.9" fill="#666" font-family="Arial" font-size="14" text-anchor="start">[integer]</text><polygon fill="none" stroke="#000" points="414 -222.5 414 -252.5 667 -252.5 667 -222.5 414 -222.5"/><text x="421" y="-233.9" fill="#000" font-family="Arial" font-size="14" text-anchor="start">thumbnail</text><text x="485.568" y="-233.9" fill="#666" font-family="Arial" font-size="14" text-anchor="start">[varchar]</text><polygon fill="none" stroke="#000" points="414 -192.5 414 -222.5 667 -222.5 667 -192.5 414 -192.5"/><text x="421" y="-203.9" fill="#000" font-family="Arial" font-size="14" text-anchor="start">stream_url</text><text x="491" y="-203.9" fill="#666" font-family="Arial" font-size="14" text-anchor="start">[varchar]</text><polygon fill="none" stroke="#000" points="414 -162.5 414 -192.5 667 -192.5 667 -162.5 414 -162.5"/><text x="421" y="-173.9" fill="#000" font-family="Arial" font-size="14" text-anchor="start">channel_id</text><text x="492.582" y="-173.9" fill="#666" font-family="Arial" font-size="14" text-anchor="start">[uuid]</text><polygon fill="none" stroke="#000" points="414 -132.5 414 -162.5 667 -162.5 667 -132.5 414 -132.5"/><text x="421" y="-143.9" fill="#000" font-family="Arial" font-size="14" text-anchor="start">duration</text><text x="475.461" y="-143.9" fill="#666" font-family="Arial" font-size="14" text-anchor="start">[double precision]</text><polygon fill="none" stroke="#000" points="414 -102.5 414 -132.5 667 -132.5 667 -102.5 414 -102.5"/><text x="421" y="-113.9" fill="#000" font-family="Arial" font-size="14" text-anchor="start">is_private</text><text x="484.785" y="-113.9" fill="#666" font-family="Arial" font-size="14" text-anchor="start">[boolean]</text><polygon fill="none" stroke="#000" points="414 -72.5 414 -102.5 667 -102.5 667 -72.5 414 -72.5"/><text x="421" y="-83.9" fill="#000" font-family="Arial" font-size="14" text-anchor="start">created_at</text><text x="491.028" y="-83.9" fill="#666" font-family="Arial" font-size="14" text-anchor="start">[timestamp with time zone]</text><polygon fill="none" stroke="#000" points="414 -42.5 414 -72.5 667 -72.5 667 -42.5 414 -42.5"/><text x="420.692" y="-53.9" fill="#000" font-family="Arial" font-size="14" text-anchor="start">updated_at</text><text x="494.624" y="-53.9" fill="#666" font-family="Arial" font-size="14" text-anchor="start">[timestamp with time zone]</text></g><g id="edge2" class="edge"><title>public.feelings:video_id-&gt;public.videos:id</title><path fill="none" stroke="#000" d="M496.1523,-696.4247C535.9701,-687.1064 512.1761,-619.3538 486,-577 467.1909,-546.5662 432.8091,-571.4338 414,-541 392.153,-505.6507 372.4444,-447.5 414,-447.5"/><polygon fill="#000" stroke="#000" points="495.944 -696.447 485.526 -693.025 490.972 -696.973 486 -697.5 486 -697.5 486 -697.5 490.972 -696.973 486.474 -701.975 495.944 -696.447 495.944 -696.447"/><text x="492.885" y="-707.5" fill="#000" font-family="Arial" font-size="10" text-anchor="start">FOREIGN KEY (video_id) REFERENCES videos(id)</text></g></g></svg>