<?xml version="1.0" encoding="UTF-8" standalone="no"?>
<!DOCTYPE svg PUBLIC "-//W3C//DTD SVG 1.1//EN"
 "http://www.w3.org/Graphics/SVG/1.1/DTD/svg11.dtd">
<!-- Generated by graphviz version 2.40.1 (20161225.0304)
 -->
<!-- Title: public.feelings Pages: 1 -->
<svg width="740pt" height="742pt"
 viewBox="0.00 0.00 740.00 742.00" xmlns="http://www.w3.org/2000/svg" xmlns:xlink="http://www.w3.org/1999/xlink">
<g id="graph0" class="graph" transform="scale(1 1) rotate(0) translate(4 738)">
<title>public.feelings</title>
<polygon fill="#ffffff" stroke="transparent" points="-4,4 -4,-738 736,-738 736,4 -4,4"/>
<!-- public.feelings -->
<g id="node1" class="node">
<title>public.feelings</title>
<polygon fill="#efefef" stroke="transparent" points="237,-652.5 237,-687.5 486,-687.5 486,-652.5 237,-652.5"/>
<polygon fill="none" stroke="#000000" points="237,-652.5 237,-687.5 486,-687.5 486,-652.5 237,-652.5"/>
<text text-anchor="start" x="255.8608" y="-665.3" font-family="Arial Bold" font-size="18.00" fill="#000000">public.feelings</text>
<text text-anchor="start" x="369.8854" y="-665.3" font-family="Arial" font-size="14.00" fill="#000000"> </text>
<text text-anchor="start" x="373.776" y="-665.3" font-family="Arial" font-size="14.00" fill="#666666">[BASE TABLE]</text>
<polygon fill="none" stroke="#000000" points="237,-622.5 237,-652.5 486,-652.5 486,-622.5 237,-622.5"/>
<text text-anchor="start" x="244" y="-633.9" font-family="Arial" font-size="14.00" fill="#000000">user_id </text>
<text text-anchor="start" x="293.7882" y="-633.9" font-family="Arial" font-size="14.00" fill="#666666">[uuid]</text>
<polygon fill="none" stroke="#000000" points="237,-592.5 237,-622.5 486,-622.5 486,-592.5 237,-592.5"/>
<text text-anchor="start" x="244" y="-603.9" font-family="Arial" font-size="14.00" fill="#000000">video_id </text>
<text text-anchor="start" x="300.0168" y="-603.9" font-family="Arial" font-size="14.00" fill="#666666">[uuid]</text>
<polygon fill="none" stroke="#000000" points="237,-562.5 237,-592.5 486,-592.5 486,-562.5 237,-562.5"/>
<text text-anchor="start" x="244" y="-573.9" font-family="Arial" font-size="14.00" fill="#000000">reaction </text>
<text text-anchor="start" x="297.6788" y="-573.9" font-family="Arial" font-size="14.00" fill="#666666">[reaction_types]</text>
<polygon fill="none" stroke="#000000" points="237,-532.5 237,-562.5 486,-562.5 486,-532.5 237,-532.5"/>
<text text-anchor="start" x="243.6438" y="-543.9" font-family="Arial" font-size="14.00" fill="#000000">created_at </text>
<text text-anchor="start" x="313.6718" y="-543.9" font-family="Arial" font-size="14.00" fill="#666666">[timestamp with time zone]</text>
<polygon fill="none" stroke="#000000" stroke-width="3" points="235,-531.5 235,-689.5 487,-689.5 487,-531.5 235,-531.5"/>
</g>
<!-- public.users -->
<g id="node2" class="node">
<title>public.users</title>
<polygon fill="#efefef" stroke="transparent" points="57,-312.5 57,-347.5 310,-347.5 310,-312.5 57,-312.5"/>
<polygon fill="none" stroke="#000000" points="57,-312.5 57,-347.5 310,-347.5 310,-312.5 57,-312.5"/>
<text text-anchor="start" x="86.8662" y="-325.3" font-family="Arial Bold" font-size="18.00" fill="#000000">public.users</text>
<text text-anchor="start" x="182.88" y="-325.3" font-family="Arial" font-size="14.00" fill="#000000"> </text>
<text text-anchor="start" x="186.7706" y="-325.3" font-family="Arial" font-size="14.00" fill="#666666">[BASE TABLE]</text>
<polygon fill="none" stroke="#000000" points="57,-282.5 57,-312.5 310,-312.5 310,-282.5 57,-282.5"/>
<text text-anchor="start" x="64" y="-293.9" font-family="Arial" font-size="14.00" fill="#000000">id </text>
<text text-anchor="start" x="78.7798" y="-293.9" font-family="Arial" font-size="14.00" fill="#666666">[uuid]</text>
<polygon fill="none" stroke="#000000" points="57,-252.5 57,-282.5 310,-282.5 310,-252.5 57,-252.5"/>
<text text-anchor="start" x="64" y="-263.9" font-family="Arial" font-size="14.00" fill="#000000">email </text>
<text text-anchor="start" x="101.3296" y="-263.9" font-family="Arial" font-size="14.00" fill="#666666">[citext]</text>
<polygon fill="none" stroke="#000000" points="57,-222.5 57,-252.5 310,-252.5 310,-222.5 57,-222.5"/>
<text text-anchor="start" x="64" y="-233.9" font-family="Arial" font-size="14.00" fill="#000000">phone </text>
<text text-anchor="start" x="106.8036" y="-233.9" font-family="Arial" font-size="14.00" fill="#666666">[varchar]</text>
<polygon fill="none" stroke="#000000" points="57,-192.5 57,-222.5 310,-222.5 310,-192.5 57,-192.5"/>
<text text-anchor="start" x="64" y="-203.9" font-family="Arial" font-size="14.00" fill="#000000">name </text>
<text text-anchor="start" x="102.899" y="-203.9" font-family="Arial" font-size="14.00" fill="#666666">[varchar]</text>
<polygon fill="none" stroke="#000000" points="57,-162.5 57,-192.5 310,-192.5 310,-162.5 57,-162.5"/>
<text text-anchor="start" x="64" y="-173.9" font-family="Arial" font-size="14.00" fill="#000000">channel_name </text>
<text text-anchor="start" x="159.7012" y="-173.9" font-family="Arial" font-size="14.00" fill="#666666">[varchar]</text>
<polygon fill="none" stroke="#000000" points="57,-132.5 57,-162.5 310,-162.5 310,-132.5 57,-132.5"/>
<text text-anchor="start" x="64" y="-143.9" font-family="Arial" font-size="14.00" fill="#000000">created_at </text>
<text text-anchor="start" x="134.028" y="-143.9" font-family="Arial" font-size="14.00" fill="#666666">[timestamp with time zone]</text>
<polygon fill="none" stroke="#000000" points="57,-102.5 57,-132.5 310,-132.5 310,-102.5 57,-102.5"/>
<text text-anchor="start" x="63.6915" y="-113.9" font-family="Arial" font-size="14.00" fill="#000000">updated_at </text>
<text text-anchor="start" x="137.6241" y="-113.9" font-family="Arial" font-size="14.00" fill="#666666">[timestamp with time zone]</text>
</g>
<!-- public.feelings&#45;&gt;public.users -->
<g id="edge1" class="edge">
<title>public.feelings:user_id&#45;&gt;public.users:id</title>
<path fill="none" stroke="#000000" d="M226.8531,-637.2468C65.0973,-628.8274 302.5608,-413.0732 310,-391 323.2717,-351.6207 351.5556,-297.5 310,-297.5"/>
<polygon fill="#000000" stroke="#000000" points="227.0031,-637.2505 236.8877,-641.9986 232.0016,-637.3752 237,-637.5 237,-637.5 237,-637.5 232.0016,-637.3752 237.1123,-633.0014 227.0031,-637.2505 227.0031,-637.2505"/>
<text text-anchor="start" x="7.3345" y="-647.5" font-family="Arial" font-size="10.00" fill="#000000">FOREIGN KEY (user_id) REFERENCES users(id)</text>
</g>
<!-- public.videos -->
<g id="node3" class="node">
<title>public.videos</title>
<polygon fill="#efefef" stroke="transparent" points="414,-372.5 414,-407.5 667,-407.5 667,-372.5 414,-372.5"/>
<polygon fill="none" stroke="#000000" points="414,-372.5 414,-407.5 667,-407.5 667,-372.5 414,-372.5"/>
<text text-anchor="start" x="439.8621" y="-385.3" font-family="Arial Bold" font-size="18.00" fill="#000000">public.videos</text>
<text text-anchor="start" x="543.8841" y="-385.3" font-family="Arial" font-size="14.00" fill="#000000"> </text>
<text text-anchor="start" x="547.7747" y="-385.3" font-family="Arial" font-size="14.00" fill="#666666">[BASE TABLE]</text>
<polygon fill="none" stroke="#000000" points="414,-342.5 414,-372.5 667,-372.5 667,-342.5 414,-342.5"/>
<text text-anchor="start" x="421" y="-353.9" font-family="Arial" font-size="14.00" fill="#000000">id </text>
<text text-anchor="start" x="435.7798" y="-353.9" font-family="Arial" font-size="14.00" fill="#666666">[uuid]</text>
<polygon fill="none" stroke="#000000" points="414,-312.5 414,-342.5 667,-342.5 667,-312.5 414,-312.5"/>
<text text-anchor="start" x="421" y="-323.9" font-family="Arial" font-size="14.00" fill="#000000">title </text>
<text text-anchor="start" x="446.6676" y="-323.9" font-family="Arial" font-size="14.00" fill="#666666">[varchar]</text>
<polygon fill="none" stroke="#000000" points="414,-282.5 414,-312.5 667,-312.5 667,-282.5 414,-282.5"/>
<text text-anchor="start" x="421" y="-293.9" font-family="Arial" font-size="14.00" fill="#000000">description </text>
<text text-anchor="start" x="492.568" y="-293.9" font-family="Arial" font-size="14.00" fill="#666666">[text]</text>
<polygon fill="none" stroke="#000000" points="414,-252.5 414,-282.5 667,-282.5 667,-252.5 414,-252.5"/>
<text text-anchor="start" x="421" y="-263.9" font-family="Arial" font-size="14.00" fill="#000000">category </text>
<text text-anchor="start" x="478.5722" y="-263.9" font-family="Arial" font-size="14.00" fill="#666666">[category_types]</text>
<polygon fill="none" stroke="#000000" points="414,-222.5 414,-252.5 667,-252.5 667,-222.5 414,-222.5"/>
<text text-anchor="start" x="421" y="-233.9" font-family="Arial" font-size="14.00" fill="#000000">views </text>
<text text-anchor="start" x="459.8864" y="-233.9" font-family="Arial" font-size="14.00" fill="#666666">[integer]</text>
<polygon fill="none" stroke="#000000" points="414,-192.5 414,-222.5 667,-222.5 667,-192.5 414,-192.5"/>
<text text-anchor="start" x="421" y="-203.9" font-family="Arial" font-size="14.00" fill="#000000">thumbnail </text>
<text text-anchor="start" x="485.568" y="-203.9" font-family="Arial" font-size="14.00" fill="#666666">[varchar]</text>
<polygon fill="none" stroke="#000000" points="414,-162.5 414,-192.5 667,-192.5 667,-162.5 414,-162.5"/>
<text text-anchor="start" x="421" y="-173.9" font-family="Arial" font-size="14.00" fill="#000000">stream_url </text>
<text text-anchor="start" x="491" y="-173.9" font-family="Arial" font-size="14.00" fill="#666666">[varchar]</text>
<polygon fill="none" stroke="#000000" points="414,-132.5 414,-162.5 667,-162.5 667,-132.5 414,-132.5"/>
<text text-anchor="start" x="421" y="-143.9" font-family="Arial" font-size="14.00" fill="#000000">user_id </text>
<text text-anchor="start" x="470.7882" y="-143.9" font-family="Arial" font-size="14.00" fill="#666666">[uuid]</text>
<polygon fill="none" stroke="#000000" points="414,-102.5 414,-132.5 667,-132.5 667,-102.5 414,-102.5"/>
<text text-anchor="start" x="421" y="-113.9" font-family="Arial" font-size="14.00" fill="#000000">channel_id </text>
<text text-anchor="start" x="492.582" y="-113.9" font-family="Arial" font-size="14.00" fill="#666666">[uuid]</text>
<polygon fill="none" stroke="#000000" points="414,-72.5 414,-102.5 667,-102.5 667,-72.5 414,-72.5"/>
<text text-anchor="start" x="421" y="-83.9" font-family="Arial" font-size="14.00" fill="#000000">created_at </text>
<text text-anchor="start" x="491.028" y="-83.9" font-family="Arial" font-size="14.00" fill="#666666">[timestamp with time zone]</text>
<polygon fill="none" stroke="#000000" points="414,-42.5 414,-72.5 667,-72.5 667,-42.5 414,-42.5"/>
<text text-anchor="start" x="420.6915" y="-53.9" font-family="Arial" font-size="14.00" fill="#000000">updated_at </text>
<text text-anchor="start" x="494.6241" y="-53.9" font-family="Arial" font-size="14.00" fill="#666666">[timestamp with time zone]</text>
</g>
<!-- public.feelings&#45;&gt;public.videos -->
<g id="edge2" class="edge">
<title>public.feelings:video_id&#45;&gt;public.videos:id</title>
<path fill="none" stroke="#000000" d="M496.1523,-606.4247C535.9701,-597.1064 512.1761,-529.3538 486,-487 467.1909,-456.5662 432.8091,-481.4338 414,-451 392.153,-415.6507 372.4444,-357.5 414,-357.5"/>
<polygon fill="#000000" stroke="#000000" points="495.9444,-606.4467 485.526,-603.025 490.9722,-606.9733 486,-607.5 486,-607.5 486,-607.5 490.9722,-606.9733 486.474,-611.975 495.9444,-606.4467 495.9444,-606.4467"/>
<text text-anchor="start" x="492.8855" y="-617.5" font-family="Arial" font-size="10.00" fill="#000000">FOREIGN KEY (video_id) REFERENCES videos(id)</text>
</g>
</g>
</svg>
