<?xml version="1.0" encoding="UTF-8" standalone="no"?>
<!DOCTYPE svg PUBLIC "-//W3C//DTD SVG 1.1//EN"
 "http://www.w3.org/Graphics/SVG/1.1/DTD/svg11.dtd">
<!-- Generated by graphviz version 2.40.1 (20161225.0304)
 -->
<!-- Title: public.users Pages: 1 -->
<svg width="1895pt" height="832pt"
 viewBox="0.00 0.00 1895.00 832.00" xmlns="http://www.w3.org/2000/svg" xmlns:xlink="http://www.w3.org/1999/xlink">
<g id="graph0" class="graph" transform="scale(1 1) rotate(0) translate(4 828)">
<title>public.users</title>
<polygon fill="#ffffff" stroke="transparent" points="-4,4 -4,-828 1891,-828 1891,4 -4,4"/>
<!-- public.users -->
<g id="node1" class="node">
<title>public.users</title>
<polygon fill="#efefef" stroke="transparent" points="772.5,-255.5 772.5,-290.5 1025.5,-290.5 1025.5,-255.5 772.5,-255.5"/>
<polygon fill="none" stroke="#000000" points="772.5,-255.5 772.5,-290.5 1025.5,-290.5 1025.5,-255.5 772.5,-255.5"/>
<text text-anchor="start" x="802.3662" y="-268.3" font-family="Arial Bold" font-size="18.00" fill="#000000">public.users</text>
<text text-anchor="start" x="898.38" y="-268.3" font-family="Arial" font-size="14.00" fill="#000000"> </text>
<text text-anchor="start" x="902.2706" y="-268.3" font-family="Arial" font-size="14.00" fill="#666666">[BASE TABLE]</text>
<polygon fill="none" stroke="#000000" points="772.5,-225.5 772.5,-255.5 1025.5,-255.5 1025.5,-225.5 772.5,-225.5"/>
<text text-anchor="start" x="779.5" y="-236.9" font-family="Arial" font-size="14.00" fill="#000000">id </text>
<text text-anchor="start" x="794.2798" y="-236.9" font-family="Arial" font-size="14.00" fill="#666666">[uuid]</text>
<polygon fill="none" stroke="#000000" points="772.5,-195.5 772.5,-225.5 1025.5,-225.5 1025.5,-195.5 772.5,-195.5"/>
<text text-anchor="start" x="779.5" y="-206.9" font-family="Arial" font-size="14.00" fill="#000000">email </text>
<text text-anchor="start" x="816.8296" y="-206.9" font-family="Arial" font-size="14.00" fill="#666666">[citext]</text>
<polygon fill="none" stroke="#000000" points="772.5,-165.5 772.5,-195.5 1025.5,-195.5 1025.5,-165.5 772.5,-165.5"/>
<text text-anchor="start" x="779.5" y="-176.9" font-family="Arial" font-size="14.00" fill="#000000">phone </text>
<text text-anchor="start" x="822.3036" y="-176.9" font-family="Arial" font-size="14.00" fill="#666666">[varchar]</text>
<polygon fill="none" stroke="#000000" points="772.5,-135.5 772.5,-165.5 1025.5,-165.5 1025.5,-135.5 772.5,-135.5"/>
<text text-anchor="start" x="779.5" y="-146.9" font-family="Arial" font-size="14.00" fill="#000000">name </text>
<text text-anchor="start" x="818.399" y="-146.9" font-family="Arial" font-size="14.00" fill="#666666">[varchar]</text>
<polygon fill="none" stroke="#000000" points="772.5,-105.5 772.5,-135.5 1025.5,-135.5 1025.5,-105.5 772.5,-105.5"/>
<text text-anchor="start" x="779.5" y="-116.9" font-family="Arial" font-size="14.00" fill="#000000">channel_name </text>
<text text-anchor="start" x="875.2012" y="-116.9" font-family="Arial" font-size="14.00" fill="#666666">[varchar]</text>
<polygon fill="none" stroke="#000000" points="772.5,-75.5 772.5,-105.5 1025.5,-105.5 1025.5,-75.5 772.5,-75.5"/>
<text text-anchor="start" x="779.5" y="-86.9" font-family="Arial" font-size="14.00" fill="#000000">created_at </text>
<text text-anchor="start" x="849.528" y="-86.9" font-family="Arial" font-size="14.00" fill="#666666">[timestamp with time zone]</text>
<polygon fill="none" stroke="#000000" points="772.5,-45.5 772.5,-75.5 1025.5,-75.5 1025.5,-45.5 772.5,-45.5"/>
<text text-anchor="start" x="779.1915" y="-56.9" font-family="Arial" font-size="14.00" fill="#000000">updated_at </text>
<text text-anchor="start" x="853.1241" y="-56.9" font-family="Arial" font-size="14.00" fill="#666666">[timestamp with time zone]</text>
<polygon fill="none" stroke="#000000" stroke-width="3" points="770.5,-44.5 770.5,-292.5 1026.5,-292.5 1026.5,-44.5 770.5,-44.5"/>
</g>
<!-- public.channels -->
<g id="node2" class="node">
<title>public.channels</title>
<polygon fill="#efefef" stroke="transparent" points="43.5,-655.5 43.5,-690.5 292.5,-690.5 292.5,-655.5 43.5,-655.5"/>
<polygon fill="none" stroke="#000000" points="43.5,-655.5 43.5,-690.5 292.5,-690.5 292.5,-655.5 43.5,-655.5"/>
<text text-anchor="start" x="57.3559" y="-668.3" font-family="Arial Bold" font-size="18.00" fill="#000000">public.channels</text>
<text text-anchor="start" x="181.3903" y="-668.3" font-family="Arial" font-size="14.00" fill="#000000"> </text>
<text text-anchor="start" x="185.2809" y="-668.3" font-family="Arial" font-size="14.00" fill="#666666">[BASE TABLE]</text>
<polygon fill="none" stroke="#000000" points="43.5,-625.5 43.5,-655.5 292.5,-655.5 292.5,-625.5 43.5,-625.5"/>
<text text-anchor="start" x="50.5" y="-636.9" font-family="Arial" font-size="14.00" fill="#000000">id </text>
<text text-anchor="start" x="65.2798" y="-636.9" font-family="Arial" font-size="14.00" fill="#666666">[uuid]</text>
<polygon fill="none" stroke="#000000" points="43.5,-595.5 43.5,-625.5 292.5,-625.5 292.5,-595.5 43.5,-595.5"/>
<text text-anchor="start" x="50.5" y="-606.9" font-family="Arial" font-size="14.00" fill="#000000">name </text>
<text text-anchor="start" x="89.399" y="-606.9" font-family="Arial" font-size="14.00" fill="#666666">[varchar]</text>
<polygon fill="none" stroke="#000000" points="43.5,-565.5 43.5,-595.5 292.5,-595.5 292.5,-565.5 43.5,-565.5"/>
<text text-anchor="start" x="50.5" y="-576.9" font-family="Arial" font-size="14.00" fill="#000000">description </text>
<text text-anchor="start" x="122.068" y="-576.9" font-family="Arial" font-size="14.00" fill="#666666">[text]</text>
<polygon fill="none" stroke="#000000" points="43.5,-535.5 43.5,-565.5 292.5,-565.5 292.5,-535.5 43.5,-535.5"/>
<text text-anchor="start" x="50.5" y="-546.9" font-family="Arial" font-size="14.00" fill="#000000">user_id </text>
<text text-anchor="start" x="100.2882" y="-546.9" font-family="Arial" font-size="14.00" fill="#666666">[uuid]</text>
<polygon fill="none" stroke="#000000" points="43.5,-505.5 43.5,-535.5 292.5,-535.5 292.5,-505.5 43.5,-505.5"/>
<text text-anchor="start" x="50.1438" y="-516.9" font-family="Arial" font-size="14.00" fill="#000000">created_at </text>
<text text-anchor="start" x="120.1718" y="-516.9" font-family="Arial" font-size="14.00" fill="#666666">[timestamp with time zone]</text>
</g>
<!-- public.channels&#45;&gt;public.users -->
<g id="edge1" class="edge">
<title>public.channels:user_id&#45;&gt;public.users:id</title>
<path fill="none" stroke="#000000" d="M302.5574,-549.7965C366.9202,-539.9402 288.6183,-428.9779 343.5,-373 413.3518,-301.7529 672.7232,-240.5 772.5,-240.5"/>
<polygon fill="#000000" stroke="#000000" points="302.4756,-549.8021 292.186,-546.011 297.4878,-550.1511 292.5,-550.5 292.5,-550.5 292.5,-550.5 297.4878,-550.1511 292.814,-554.989 302.4756,-549.8021 302.4756,-549.8021"/>
<text text-anchor="start" x="181.3345" y="-534.5" font-family="Arial" font-size="10.00" fill="#000000">FOREIGN KEY (user_id) REFERENCES users(id)</text>
</g>
<!-- public.videos -->
<g id="node3" class="node">
<title>public.videos</title>
<polygon fill="#efefef" stroke="transparent" points="396.5,-745.5 396.5,-780.5 649.5,-780.5 649.5,-745.5 396.5,-745.5"/>
<polygon fill="none" stroke="#000000" points="396.5,-745.5 396.5,-780.5 649.5,-780.5 649.5,-745.5 396.5,-745.5"/>
<text text-anchor="start" x="422.3621" y="-758.3" font-family="Arial Bold" font-size="18.00" fill="#000000">public.videos</text>
<text text-anchor="start" x="526.3841" y="-758.3" font-family="Arial" font-size="14.00" fill="#000000"> </text>
<text text-anchor="start" x="530.2747" y="-758.3" font-family="Arial" font-size="14.00" fill="#666666">[BASE TABLE]</text>
<polygon fill="none" stroke="#000000" points="396.5,-715.5 396.5,-745.5 649.5,-745.5 649.5,-715.5 396.5,-715.5"/>
<text text-anchor="start" x="403.5" y="-726.9" font-family="Arial" font-size="14.00" fill="#000000">id </text>
<text text-anchor="start" x="418.2798" y="-726.9" font-family="Arial" font-size="14.00" fill="#666666">[uuid]</text>
<polygon fill="none" stroke="#000000" points="396.5,-685.5 396.5,-715.5 649.5,-715.5 649.5,-685.5 396.5,-685.5"/>
<text text-anchor="start" x="403.5" y="-696.9" font-family="Arial" font-size="14.00" fill="#000000">title </text>
<text text-anchor="start" x="429.1676" y="-696.9" font-family="Arial" font-size="14.00" fill="#666666">[varchar]</text>
<polygon fill="none" stroke="#000000" points="396.5,-655.5 396.5,-685.5 649.5,-685.5 649.5,-655.5 396.5,-655.5"/>
<text text-anchor="start" x="403.5" y="-666.9" font-family="Arial" font-size="14.00" fill="#000000">description </text>
<text text-anchor="start" x="475.068" y="-666.9" font-family="Arial" font-size="14.00" fill="#666666">[text]</text>
<polygon fill="none" stroke="#000000" points="396.5,-625.5 396.5,-655.5 649.5,-655.5 649.5,-625.5 396.5,-625.5"/>
<text text-anchor="start" x="403.5" y="-636.9" font-family="Arial" font-size="14.00" fill="#000000">category </text>
<text text-anchor="start" x="461.0722" y="-636.9" font-family="Arial" font-size="14.00" fill="#666666">[category_types]</text>
<polygon fill="none" stroke="#000000" points="396.5,-595.5 396.5,-625.5 649.5,-625.5 649.5,-595.5 396.5,-595.5"/>
<text text-anchor="start" x="403.5" y="-606.9" font-family="Arial" font-size="14.00" fill="#000000">views </text>
<text text-anchor="start" x="442.3864" y="-606.9" font-family="Arial" font-size="14.00" fill="#666666">[integer]</text>
<polygon fill="none" stroke="#000000" points="396.5,-565.5 396.5,-595.5 649.5,-595.5 649.5,-565.5 396.5,-565.5"/>
<text text-anchor="start" x="403.5" y="-576.9" font-family="Arial" font-size="14.00" fill="#000000">thumbnail </text>
<text text-anchor="start" x="468.068" y="-576.9" font-family="Arial" font-size="14.00" fill="#666666">[varchar]</text>
<polygon fill="none" stroke="#000000" points="396.5,-535.5 396.5,-565.5 649.5,-565.5 649.5,-535.5 396.5,-535.5"/>
<text text-anchor="start" x="403.5" y="-546.9" font-family="Arial" font-size="14.00" fill="#000000">stream_url </text>
<text text-anchor="start" x="473.5" y="-546.9" font-family="Arial" font-size="14.00" fill="#666666">[varchar]</text>
<polygon fill="none" stroke="#000000" points="396.5,-505.5 396.5,-535.5 649.5,-535.5 649.5,-505.5 396.5,-505.5"/>
<text text-anchor="start" x="403.5" y="-516.9" font-family="Arial" font-size="14.00" fill="#000000">user_id </text>
<text text-anchor="start" x="453.2882" y="-516.9" font-family="Arial" font-size="14.00" fill="#666666">[uuid]</text>
<polygon fill="none" stroke="#000000" points="396.5,-475.5 396.5,-505.5 649.5,-505.5 649.5,-475.5 396.5,-475.5"/>
<text text-anchor="start" x="403.5" y="-486.9" font-family="Arial" font-size="14.00" fill="#000000">channel_id </text>
<text text-anchor="start" x="475.082" y="-486.9" font-family="Arial" font-size="14.00" fill="#666666">[uuid]</text>
<polygon fill="none" stroke="#000000" points="396.5,-445.5 396.5,-475.5 649.5,-475.5 649.5,-445.5 396.5,-445.5"/>
<text text-anchor="start" x="403.5" y="-456.9" font-family="Arial" font-size="14.00" fill="#000000">created_at </text>
<text text-anchor="start" x="473.528" y="-456.9" font-family="Arial" font-size="14.00" fill="#666666">[timestamp with time zone]</text>
<polygon fill="none" stroke="#000000" points="396.5,-415.5 396.5,-445.5 649.5,-445.5 649.5,-415.5 396.5,-415.5"/>
<text text-anchor="start" x="403.1915" y="-426.9" font-family="Arial" font-size="14.00" fill="#000000">updated_at </text>
<text text-anchor="start" x="477.1241" y="-426.9" font-family="Arial" font-size="14.00" fill="#666666">[timestamp with time zone]</text>
</g>
<!-- public.videos&#45;&gt;public.users -->
<g id="edge2" class="edge">
<title>public.videos:user_id&#45;&gt;public.users:id</title>
<path fill="none" stroke="#000000" d="M659.5644,-519.8153C714.4094,-511.7074 674.9265,-433.2441 701.5,-373 728.4634,-311.872 705.6894,-240.5 772.5,-240.5"/>
<polygon fill="#000000" stroke="#000000" points="659.4769,-519.8212 649.1945,-516.0104 654.4885,-520.1606 649.5,-520.5 649.5,-520.5 649.5,-520.5 654.4885,-520.1606 649.8055,-524.9896 659.4769,-519.8212 659.4769,-519.8212"/>
<text text-anchor="start" x="656.8345" y="-530.5" font-family="Arial" font-size="10.00" fill="#000000">FOREIGN KEY (user_id) REFERENCES users(id)</text>
</g>
<!-- public.play_list_names -->
<g id="node4" class="node">
<title>public.play_list_names</title>
<polygon fill="#efefef" stroke="transparent" points="753.5,-655.5 753.5,-690.5 1045.5,-690.5 1045.5,-655.5 753.5,-655.5"/>
<polygon fill="none" stroke="#000000" points="753.5,-655.5 753.5,-690.5 1045.5,-690.5 1045.5,-655.5 753.5,-655.5"/>
<text text-anchor="start" x="760.3583" y="-668.3" font-family="Arial Bold" font-size="18.00" fill="#000000">public.play_list_names</text>
<text text-anchor="start" x="941.3879" y="-668.3" font-family="Arial" font-size="14.00" fill="#000000"> </text>
<text text-anchor="start" x="945.2785" y="-668.3" font-family="Arial" font-size="14.00" fill="#666666">[BASE TABLE]</text>
<polygon fill="none" stroke="#000000" points="753.5,-625.5 753.5,-655.5 1045.5,-655.5 1045.5,-625.5 753.5,-625.5"/>
<text text-anchor="start" x="760.5" y="-636.9" font-family="Arial" font-size="14.00" fill="#000000">id </text>
<text text-anchor="start" x="775.2798" y="-636.9" font-family="Arial" font-size="14.00" fill="#666666">[bigint]</text>
<polygon fill="none" stroke="#000000" points="753.5,-595.5 753.5,-625.5 1045.5,-625.5 1045.5,-595.5 753.5,-595.5"/>
<text text-anchor="start" x="760.5" y="-606.9" font-family="Arial" font-size="14.00" fill="#000000">name </text>
<text text-anchor="start" x="799.399" y="-606.9" font-family="Arial" font-size="14.00" fill="#666666">[varchar]</text>
<polygon fill="none" stroke="#000000" points="753.5,-565.5 753.5,-595.5 1045.5,-595.5 1045.5,-565.5 753.5,-565.5"/>
<text text-anchor="start" x="760.5" y="-576.9" font-family="Arial" font-size="14.00" fill="#000000">user_id </text>
<text text-anchor="start" x="810.2882" y="-576.9" font-family="Arial" font-size="14.00" fill="#666666">[uuid]</text>
<polygon fill="none" stroke="#000000" points="753.5,-535.5 753.5,-565.5 1045.5,-565.5 1045.5,-535.5 753.5,-535.5"/>
<text text-anchor="start" x="760.5" y="-546.9" font-family="Arial" font-size="14.00" fill="#000000">video_count </text>
<text text-anchor="start" x="839.866" y="-546.9" font-family="Arial" font-size="14.00" fill="#666666">[bigint]</text>
<polygon fill="none" stroke="#000000" points="753.5,-505.5 753.5,-535.5 1045.5,-535.5 1045.5,-505.5 753.5,-505.5"/>
<text text-anchor="start" x="760.5" y="-516.9" font-family="Arial" font-size="14.00" fill="#000000">created_at </text>
<text text-anchor="start" x="830.528" y="-516.9" font-family="Arial" font-size="14.00" fill="#666666">[timestamp with time zone]</text>
</g>
<!-- public.play_list_names&#45;&gt;public.users -->
<g id="edge3" class="edge">
<title>public.play_list_names:user_id&#45;&gt;public.users:id</title>
<path fill="none" stroke="#000000" d="M743.1042,-579.3276C704.8783,-569.7535 727.472,-503.7421 753.5,-463 825.2261,-350.7258 953.7739,-449.2742 1025.5,-337 1048.5899,-300.857 1068.3889,-240.5 1025.5,-240.5"/>
<polygon fill="#000000" stroke="#000000" points="743.563,-579.3793 752.9957,-584.9717 748.5315,-579.9396 753.5,-580.5 753.5,-580.5 753.5,-580.5 748.5315,-579.9396 754.0043,-576.0283 743.563,-579.3793 743.563,-579.3793"/>
<text text-anchor="start" x="701.5845" y="-564.5" font-family="Arial" font-size="10.00" fill="#000000">FOREIGN KEY (user_id) REFERENCES users(id)</text>
</g>
<!-- public.feelings -->
<g id="node5" class="node">
<title>public.feelings</title>
<polygon fill="#efefef" stroke="transparent" points="1150.5,-640.5 1150.5,-675.5 1399.5,-675.5 1399.5,-640.5 1150.5,-640.5"/>
<polygon fill="none" stroke="#000000" points="1150.5,-640.5 1150.5,-675.5 1399.5,-675.5 1399.5,-640.5 1150.5,-640.5"/>
<text text-anchor="start" x="1169.3608" y="-653.3" font-family="Arial Bold" font-size="18.00" fill="#000000">public.feelings</text>
<text text-anchor="start" x="1283.3854" y="-653.3" font-family="Arial" font-size="14.00" fill="#000000"> </text>
<text text-anchor="start" x="1287.276" y="-653.3" font-family="Arial" font-size="14.00" fill="#666666">[BASE TABLE]</text>
<polygon fill="none" stroke="#000000" points="1150.5,-610.5 1150.5,-640.5 1399.5,-640.5 1399.5,-610.5 1150.5,-610.5"/>
<text text-anchor="start" x="1157.5" y="-621.9" font-family="Arial" font-size="14.00" fill="#000000">user_id </text>
<text text-anchor="start" x="1207.2882" y="-621.9" font-family="Arial" font-size="14.00" fill="#666666">[uuid]</text>
<polygon fill="none" stroke="#000000" points="1150.5,-580.5 1150.5,-610.5 1399.5,-610.5 1399.5,-580.5 1150.5,-580.5"/>
<text text-anchor="start" x="1157.5" y="-591.9" font-family="Arial" font-size="14.00" fill="#000000">video_id </text>
<text text-anchor="start" x="1213.5168" y="-591.9" font-family="Arial" font-size="14.00" fill="#666666">[uuid]</text>
<polygon fill="none" stroke="#000000" points="1150.5,-550.5 1150.5,-580.5 1399.5,-580.5 1399.5,-550.5 1150.5,-550.5"/>
<text text-anchor="start" x="1157.5" y="-561.9" font-family="Arial" font-size="14.00" fill="#000000">reaction </text>
<text text-anchor="start" x="1211.1788" y="-561.9" font-family="Arial" font-size="14.00" fill="#666666">[reaction_types]</text>
<polygon fill="none" stroke="#000000" points="1150.5,-520.5 1150.5,-550.5 1399.5,-550.5 1399.5,-520.5 1150.5,-520.5"/>
<text text-anchor="start" x="1157.1438" y="-531.9" font-family="Arial" font-size="14.00" fill="#000000">created_at </text>
<text text-anchor="start" x="1227.1718" y="-531.9" font-family="Arial" font-size="14.00" fill="#666666">[timestamp with time zone]</text>
</g>
<!-- public.feelings&#45;&gt;public.users -->
<g id="edge4" class="edge">
<title>public.feelings:user_id&#45;&gt;public.users:id</title>
<path fill="none" stroke="#000000" d="M1140.6738,-623.2555C1096.0095,-601.2299 1116.0484,-423.4487 1097.5,-373 1074.3719,-310.0954 1092.5216,-240.5 1025.5,-240.5"/>
<polygon fill="#000000" stroke="#000000" points="1140.7511,-623.2731 1149.4979,-629.887 1145.6255,-624.3865 1150.5,-625.5 1150.5,-625.5 1150.5,-625.5 1145.6255,-624.3865 1151.5021,-621.113 1140.7511,-623.2731 1140.7511,-623.2731"/>
<text text-anchor="start" x="920.8345" y="-635.5" font-family="Arial" font-size="10.00" fill="#000000">FOREIGN KEY (user_id) REFERENCES users(id)</text>
</g>
<!-- public.channel_subscriptions -->
<g id="node6" class="node">
<title>public.channel_subscriptions</title>
<polygon fill="#efefef" stroke="transparent" points="1503.5,-625.5 1503.5,-660.5 1844.5,-660.5 1844.5,-625.5 1503.5,-625.5"/>
<polygon fill="none" stroke="#000000" points="1503.5,-625.5 1503.5,-660.5 1844.5,-660.5 1844.5,-625.5 1503.5,-625.5"/>
<text text-anchor="start" x="1510.3459" y="-638.3" font-family="Arial Bold" font-size="18.00" fill="#000000">public.channel_subscriptions</text>
<text text-anchor="start" x="1740.4003" y="-638.3" font-family="Arial" font-size="14.00" fill="#000000"> </text>
<text text-anchor="start" x="1744.2909" y="-638.3" font-family="Arial" font-size="14.00" fill="#666666">[BASE TABLE]</text>
<polygon fill="none" stroke="#000000" points="1503.5,-595.5 1503.5,-625.5 1844.5,-625.5 1844.5,-595.5 1503.5,-595.5"/>
<text text-anchor="start" x="1510.5" y="-606.9" font-family="Arial" font-size="14.00" fill="#000000">subscriber_id </text>
<text text-anchor="start" x="1597.6206" y="-606.9" font-family="Arial" font-size="14.00" fill="#666666">[uuid]</text>
<polygon fill="none" stroke="#000000" points="1503.5,-565.5 1503.5,-595.5 1844.5,-595.5 1844.5,-565.5 1503.5,-565.5"/>
<text text-anchor="start" x="1510.5" y="-576.9" font-family="Arial" font-size="14.00" fill="#000000">channel_id </text>
<text text-anchor="start" x="1582.082" y="-576.9" font-family="Arial" font-size="14.00" fill="#666666">[uuid]</text>
<polygon fill="none" stroke="#000000" points="1503.5,-535.5 1503.5,-565.5 1844.5,-565.5 1844.5,-535.5 1503.5,-535.5"/>
<text text-anchor="start" x="1510.5" y="-546.9" font-family="Arial" font-size="14.00" fill="#000000">created_at </text>
<text text-anchor="start" x="1580.528" y="-546.9" font-family="Arial" font-size="14.00" fill="#666666">[timestamp with time zone]</text>
</g>
<!-- public.channel_subscriptions&#45;&gt;public.users -->
<g id="edge5" class="edge">
<title>public.channel_subscriptions:subscriber_id&#45;&gt;public.users:id</title>
<path fill="none" stroke="#000000" d="M1493.5049,-609.9865C1403.7947,-600.1021 1522.1264,-449.9774 1451.5,-373 1384.4757,-299.9486 1124.6401,-240.5 1025.5,-240.5"/>
<polygon fill="#000000" stroke="#000000" points="1493.5132,-609.9868 1503.2691,-614.9941 1498.5066,-610.2434 1503.5,-610.5 1503.5,-610.5 1503.5,-610.5 1498.5066,-610.2434 1503.7309,-606.0059 1493.5132,-609.9868 1493.5132,-609.9868"/>
<text text-anchor="start" x="1247.5015" y="-620.5" font-family="Arial" font-size="10.00" fill="#000000">FOREIGN KEY (subscriber_id) REFERENCES users(id)</text>
</g>
</g>
</svg>
