<?xml version="1.0" encoding="UTF-8" standalone="no"?>
<!DOCTYPE svg PUBLIC "-//W3C//DTD SVG 1.1//EN"
 "http://www.w3.org/Graphics/SVG/1.1/DTD/svg11.dtd">
<!-- Generated by graphviz version 2.40.1 (20161225.0304)
 -->
<!-- Title: public.play_lists Pages: 1 -->
<svg width="839pt" height="742pt"
 viewBox="0.00 0.00 839.00 742.00" xmlns="http://www.w3.org/2000/svg" xmlns:xlink="http://www.w3.org/1999/xlink">
<g id="graph0" class="graph" transform="scale(1 1) rotate(0) translate(4 738)">
<title>public.play_lists</title>
<polygon fill="#ffffff" stroke="transparent" points="-4,4 -4,-738 835,-738 835,4 -4,4"/>
<!-- public.play_lists -->
<g id="node1" class="node">
<title>public.play_lists</title>
<polygon fill="#efefef" stroke="transparent" points="336,-652.5 336,-687.5 585,-687.5 585,-652.5 336,-652.5"/>
<polygon fill="none" stroke="#000000" points="336,-652.5 336,-687.5 585,-687.5 585,-652.5 336,-652.5"/>
<text text-anchor="start" x="348.8668" y="-665.3" font-family="Arial Bold" font-size="18.00" fill="#000000">public.play_lists</text>
<text text-anchor="start" x="474.8794" y="-665.3" font-family="Arial" font-size="14.00" fill="#000000"> </text>
<text text-anchor="start" x="478.77" y="-665.3" font-family="Arial" font-size="14.00" fill="#666666">[BASE TABLE]</text>
<polygon fill="none" stroke="#000000" points="336,-622.5 336,-652.5 585,-652.5 585,-622.5 336,-622.5"/>
<text text-anchor="start" x="343" y="-633.9" font-family="Arial" font-size="14.00" fill="#000000">id </text>
<text text-anchor="start" x="357.7798" y="-633.9" font-family="Arial" font-size="14.00" fill="#666666">[uuid]</text>
<polygon fill="none" stroke="#000000" points="336,-592.5 336,-622.5 585,-622.5 585,-592.5 336,-592.5"/>
<text text-anchor="start" x="343" y="-603.9" font-family="Arial" font-size="14.00" fill="#000000">play_list_names_id </text>
<text text-anchor="start" x="465.9116" y="-603.9" font-family="Arial" font-size="14.00" fill="#666666">[bigint]</text>
<polygon fill="none" stroke="#000000" points="336,-562.5 336,-592.5 585,-592.5 585,-562.5 336,-562.5"/>
<text text-anchor="start" x="343" y="-573.9" font-family="Arial" font-size="14.00" fill="#000000">video_id </text>
<text text-anchor="start" x="399.0168" y="-573.9" font-family="Arial" font-size="14.00" fill="#666666">[uuid]</text>
<polygon fill="none" stroke="#000000" points="336,-532.5 336,-562.5 585,-562.5 585,-532.5 336,-532.5"/>
<text text-anchor="start" x="342.6438" y="-543.9" font-family="Arial" font-size="14.00" fill="#000000">created_at </text>
<text text-anchor="start" x="412.6718" y="-543.9" font-family="Arial" font-size="14.00" fill="#666666">[timestamp with time zone]</text>
<polygon fill="none" stroke="#000000" stroke-width="3" points="334,-531.5 334,-689.5 586,-689.5 586,-531.5 334,-531.5"/>
</g>
<!-- public.play_list_names -->
<g id="node2" class="node">
<title>public.play_list_names</title>
<polygon fill="#efefef" stroke="transparent" points="126,-282.5 126,-317.5 418,-317.5 418,-282.5 126,-282.5"/>
<polygon fill="none" stroke="#000000" points="126,-282.5 126,-317.5 418,-317.5 418,-282.5 126,-282.5"/>
<text text-anchor="start" x="132.8583" y="-295.3" font-family="Arial Bold" font-size="18.00" fill="#000000">public.play_list_names</text>
<text text-anchor="start" x="313.8879" y="-295.3" font-family="Arial" font-size="14.00" fill="#000000"> </text>
<text text-anchor="start" x="317.7785" y="-295.3" font-family="Arial" font-size="14.00" fill="#666666">[BASE TABLE]</text>
<polygon fill="none" stroke="#000000" points="126,-252.5 126,-282.5 418,-282.5 418,-252.5 126,-252.5"/>
<text text-anchor="start" x="133" y="-263.9" font-family="Arial" font-size="14.00" fill="#000000">id </text>
<text text-anchor="start" x="147.7798" y="-263.9" font-family="Arial" font-size="14.00" fill="#666666">[bigint]</text>
<polygon fill="none" stroke="#000000" points="126,-222.5 126,-252.5 418,-252.5 418,-222.5 126,-222.5"/>
<text text-anchor="start" x="133" y="-233.9" font-family="Arial" font-size="14.00" fill="#000000">name </text>
<text text-anchor="start" x="171.899" y="-233.9" font-family="Arial" font-size="14.00" fill="#666666">[varchar]</text>
<polygon fill="none" stroke="#000000" points="126,-192.5 126,-222.5 418,-222.5 418,-192.5 126,-192.5"/>
<text text-anchor="start" x="133" y="-203.9" font-family="Arial" font-size="14.00" fill="#000000">user_id </text>
<text text-anchor="start" x="182.7882" y="-203.9" font-family="Arial" font-size="14.00" fill="#666666">[uuid]</text>
<polygon fill="none" stroke="#000000" points="126,-162.5 126,-192.5 418,-192.5 418,-162.5 126,-162.5"/>
<text text-anchor="start" x="133" y="-173.9" font-family="Arial" font-size="14.00" fill="#000000">video_count </text>
<text text-anchor="start" x="212.366" y="-173.9" font-family="Arial" font-size="14.00" fill="#666666">[bigint]</text>
<polygon fill="none" stroke="#000000" points="126,-132.5 126,-162.5 418,-162.5 418,-132.5 126,-132.5"/>
<text text-anchor="start" x="133" y="-143.9" font-family="Arial" font-size="14.00" fill="#000000">created_at </text>
<text text-anchor="start" x="203.028" y="-143.9" font-family="Arial" font-size="14.00" fill="#666666">[timestamp with time zone]</text>
</g>
<!-- public.play_lists&#45;&gt;public.play_list_names -->
<g id="edge1" class="edge">
<title>public.play_lists:play_list_names_id&#45;&gt;public.play_list_names:id</title>
<path fill="none" stroke="#000000" d="M326.0258,-606.5045C287.7191,-597.8628 321.8356,-534.7327 336,-487 355.0076,-422.946 398.9924,-425.054 418,-361 429.8218,-321.1615 459.5556,-267.5 418,-267.5"/>
<polygon fill="#000000" stroke="#000000" points="326.0494,-606.5068 335.5531,-611.9778 331.0247,-607.0034 336,-607.5 336,-607.5 336,-607.5 331.0247,-607.0034 336.4469,-603.0222 326.0494,-606.5068 326.0494,-606.5068"/>
<text text-anchor="start" x="6.6035" y="-617.5" font-family="Arial" font-size="10.00" fill="#000000">FOREIGN KEY (play_list_names_id) REFERENCES play_list_names(id)</text>
</g>
<!-- public.videos -->
<g id="node3" class="node">
<title>public.videos</title>
<polygon fill="#efefef" stroke="transparent" points="523,-372.5 523,-407.5 776,-407.5 776,-372.5 523,-372.5"/>
<polygon fill="none" stroke="#000000" points="523,-372.5 523,-407.5 776,-407.5 776,-372.5 523,-372.5"/>
<text text-anchor="start" x="548.8621" y="-385.3" font-family="Arial Bold" font-size="18.00" fill="#000000">public.videos</text>
<text text-anchor="start" x="652.8841" y="-385.3" font-family="Arial" font-size="14.00" fill="#000000"> </text>
<text text-anchor="start" x="656.7747" y="-385.3" font-family="Arial" font-size="14.00" fill="#666666">[BASE TABLE]</text>
<polygon fill="none" stroke="#000000" points="523,-342.5 523,-372.5 776,-372.5 776,-342.5 523,-342.5"/>
<text text-anchor="start" x="530" y="-353.9" font-family="Arial" font-size="14.00" fill="#000000">id </text>
<text text-anchor="start" x="544.7798" y="-353.9" font-family="Arial" font-size="14.00" fill="#666666">[uuid]</text>
<polygon fill="none" stroke="#000000" points="523,-312.5 523,-342.5 776,-342.5 776,-312.5 523,-312.5"/>
<text text-anchor="start" x="530" y="-323.9" font-family="Arial" font-size="14.00" fill="#000000">title </text>
<text text-anchor="start" x="555.6676" y="-323.9" font-family="Arial" font-size="14.00" fill="#666666">[varchar]</text>
<polygon fill="none" stroke="#000000" points="523,-282.5 523,-312.5 776,-312.5 776,-282.5 523,-282.5"/>
<text text-anchor="start" x="530" y="-293.9" font-family="Arial" font-size="14.00" fill="#000000">description </text>
<text text-anchor="start" x="601.568" y="-293.9" font-family="Arial" font-size="14.00" fill="#666666">[text]</text>
<polygon fill="none" stroke="#000000" points="523,-252.5 523,-282.5 776,-282.5 776,-252.5 523,-252.5"/>
<text text-anchor="start" x="530" y="-263.9" font-family="Arial" font-size="14.00" fill="#000000">category </text>
<text text-anchor="start" x="587.5722" y="-263.9" font-family="Arial" font-size="14.00" fill="#666666">[category_types]</text>
<polygon fill="none" stroke="#000000" points="523,-222.5 523,-252.5 776,-252.5 776,-222.5 523,-222.5"/>
<text text-anchor="start" x="530" y="-233.9" font-family="Arial" font-size="14.00" fill="#000000">views </text>
<text text-anchor="start" x="568.8864" y="-233.9" font-family="Arial" font-size="14.00" fill="#666666">[integer]</text>
<polygon fill="none" stroke="#000000" points="523,-192.5 523,-222.5 776,-222.5 776,-192.5 523,-192.5"/>
<text text-anchor="start" x="530" y="-203.9" font-family="Arial" font-size="14.00" fill="#000000">thumbnail </text>
<text text-anchor="start" x="594.568" y="-203.9" font-family="Arial" font-size="14.00" fill="#666666">[varchar]</text>
<polygon fill="none" stroke="#000000" points="523,-162.5 523,-192.5 776,-192.5 776,-162.5 523,-162.5"/>
<text text-anchor="start" x="530" y="-173.9" font-family="Arial" font-size="14.00" fill="#000000">stream_url </text>
<text text-anchor="start" x="600" y="-173.9" font-family="Arial" font-size="14.00" fill="#666666">[varchar]</text>
<polygon fill="none" stroke="#000000" points="523,-132.5 523,-162.5 776,-162.5 776,-132.5 523,-132.5"/>
<text text-anchor="start" x="530" y="-143.9" font-family="Arial" font-size="14.00" fill="#000000">user_id </text>
<text text-anchor="start" x="579.7882" y="-143.9" font-family="Arial" font-size="14.00" fill="#666666">[uuid]</text>
<polygon fill="none" stroke="#000000" points="523,-102.5 523,-132.5 776,-132.5 776,-102.5 523,-102.5"/>
<text text-anchor="start" x="530" y="-113.9" font-family="Arial" font-size="14.00" fill="#000000">channel_id </text>
<text text-anchor="start" x="601.582" y="-113.9" font-family="Arial" font-size="14.00" fill="#666666">[uuid]</text>
<polygon fill="none" stroke="#000000" points="523,-72.5 523,-102.5 776,-102.5 776,-72.5 523,-72.5"/>
<text text-anchor="start" x="530" y="-83.9" font-family="Arial" font-size="14.00" fill="#000000">created_at </text>
<text text-anchor="start" x="600.028" y="-83.9" font-family="Arial" font-size="14.00" fill="#666666">[timestamp with time zone]</text>
<polygon fill="none" stroke="#000000" points="523,-42.5 523,-72.5 776,-72.5 776,-42.5 523,-42.5"/>
<text text-anchor="start" x="529.6915" y="-53.9" font-family="Arial" font-size="14.00" fill="#000000">updated_at </text>
<text text-anchor="start" x="603.6241" y="-53.9" font-family="Arial" font-size="14.00" fill="#666666">[timestamp with time zone]</text>
</g>
<!-- public.play_lists&#45;&gt;public.videos -->
<g id="edge2" class="edge">
<title>public.play_lists:video_id&#45;&gt;public.videos:id</title>
<path fill="none" stroke="#000000" d="M595.1128,-575.9793C621.2867,-566.8307 603.1083,-518.4541 585,-487 569.1021,-459.3854 538.8979,-478.6146 523,-451 502.2666,-414.9862 481.4444,-357.5 523,-357.5"/>
<polygon fill="#000000" stroke="#000000" points="594.8888,-576.0129 584.3308,-573.05 589.9444,-576.7564 585,-577.5 585,-577.5 585,-577.5 589.9444,-576.7564 585.6692,-581.95 594.8888,-576.0129 594.8888,-576.0129"/>
<text text-anchor="start" x="591.8855" y="-587.5" font-family="Arial" font-size="10.00" fill="#000000">FOREIGN KEY (video_id) REFERENCES videos(id)</text>
</g>
</g>
</svg>
