<svg xmlns="http://www.w3.org/2000/svg" xmlns:xlink="http://www.w3.org/1999/xlink" width="764pt" height="832pt" viewBox="0 0 764 832"><g id="graph0" class="graph" transform="scale(1 1) rotate(0) translate(4 828)"><title>public.watch_history</title><polygon fill="#fff" stroke="transparent" points="-4 4 -4 -828 760 -828 760 4 -4 4"/><g id="node1" class="node"><title>public.watch_history</title><polygon fill="#efefef" stroke="transparent" points="246 -742.5 246 -777.5 519 -777.5 519 -742.5 246 -742.5"/><polygon fill="none" stroke="#000" points="246 -742.5 246 -777.5 519 -777.5 519 -742.5 246 -742.5"/><text x="252.861" y="-755.3" fill="#000" font-family="Arial Bold" font-size="18" text-anchor="start">public.watch_history</text><text x="418.776" y="-755.3" fill="#666" font-family="Arial" font-size="14" text-anchor="start">[BASE TABLE]</text><polygon fill="none" stroke="#000" points="246 -712.5 246 -742.5 519 -742.5 519 -712.5 246 -712.5"/><text x="253" y="-723.9" fill="#000" font-family="Arial" font-size="14" text-anchor="start">video_id</text><text x="309.017" y="-723.9" fill="#666" font-family="Arial" font-size="14" text-anchor="start">[uuid]</text><polygon fill="none" stroke="#000" points="246 -682.5 246 -712.5 519 -712.5 519 -682.5 246 -682.5"/><text x="253" y="-693.9" fill="#000" font-family="Arial" font-size="14" text-anchor="start">user_id</text><text x="302.788" y="-693.9" fill="#666" font-family="Arial" font-size="14" text-anchor="start">[uuid]</text><polygon fill="none" stroke="#000" points="246 -652.5 246 -682.5 519 -682.5 519 -652.5 246 -652.5"/><text x="253" y="-663.9" fill="#000" font-family="Arial" font-size="14" text-anchor="start">last_watched_at</text><text x="361.927" y="-663.9" fill="#666" font-family="Arial" font-size="14" text-anchor="start">[time without time zone]</text><polygon fill="none" stroke="#000" points="246 -622.5 246 -652.5 519 -652.5 519 -622.5 246 -622.5"/><text x="253" y="-633.9" fill="#000" font-family="Arial" font-size="14" text-anchor="start">created_at</text><text x="323.028" y="-633.9" fill="#666" font-family="Arial" font-size="14" text-anchor="start">[timestamp with time zone]</text><polygon fill="none" stroke="#000" stroke-width="3" points="244 -621.5 244 -779.5 520 -779.5 520 -621.5 244 -621.5"/></g><g id="node2" class="node"><title>public.videos</title><polygon fill="#efefef" stroke="transparent" points="78 -462.5 78 -497.5 331 -497.5 331 -462.5 78 -462.5"/><polygon fill="none" stroke="#000" points="78 -462.5 78 -497.5 331 -497.5 331 -462.5 78 -462.5"/><text x="103.862" y="-475.3" fill="#000" font-family="Arial Bold" font-size="18" text-anchor="start">public.videos</text><text x="211.775" y="-475.3" fill="#666" font-family="Arial" font-size="14" text-anchor="start">[BASE TABLE]</text><polygon fill="none" stroke="#000" points="78 -432.5 78 -462.5 331 -462.5 331 -432.5 78 -432.5"/><text x="85" y="-443.9" fill="#000" font-family="Arial" font-size="14" text-anchor="start">id</text><text x="99.78" y="-443.9" fill="#666" font-family="Arial" font-size="14" text-anchor="start">[uuid]</text><polygon fill="none" stroke="#000" points="78 -402.5 78 -432.5 331 -432.5 331 -402.5 78 -402.5"/><text x="85" y="-413.9" fill="#000" font-family="Arial" font-size="14" text-anchor="start">title</text><text x="110.668" y="-413.9" fill="#666" font-family="Arial" font-size="14" text-anchor="start">[varchar]</text><polygon fill="none" stroke="#000" points="78 -372.5 78 -402.5 331 -402.5 331 -372.5 78 -372.5"/><text x="85" y="-383.9" fill="#000" font-family="Arial" font-size="14" text-anchor="start">description</text><text x="156.568" y="-383.9" fill="#666" font-family="Arial" font-size="14" text-anchor="start">[text]</text><polygon fill="none" stroke="#000" points="78 -342.5 78 -372.5 331 -372.5 331 -342.5 78 -342.5"/><text x="85" y="-353.9" fill="#000" font-family="Arial" font-size="14" text-anchor="start">category</text><text x="142.572" y="-353.9" fill="#666" font-family="Arial" font-size="14" text-anchor="start">[category_types]</text><polygon fill="none" stroke="#000" points="78 -312.5 78 -342.5 331 -342.5 331 -312.5 78 -312.5"/><text x="85" y="-323.9" fill="#000" font-family="Arial" font-size="14" text-anchor="start">views_count</text><text x="165.907" y="-323.9" fill="#666" font-family="Arial" font-size="14" text-anchor="start">[integer]</text><polygon fill="none" stroke="#000" points="78 -282.5 78 -312.5 331 -312.5 331 -282.5 78 -282.5"/><text x="85" y="-293.9" fill="#000" font-family="Arial" font-size="14" text-anchor="start">likes_count</text><text x="158.907" y="-293.9" fill="#666" font-family="Arial" font-size="14" text-anchor="start">[integer]</text><polygon fill="none" stroke="#000" points="78 -252.5 78 -282.5 331 -282.5 331 -252.5 78 -252.5"/><text x="85" y="-263.9" fill="#000" font-family="Arial" font-size="14" text-anchor="start">dislikes_count</text><text x="176.797" y="-263.9" fill="#666" font-family="Arial" font-size="14" text-anchor="start">[integer]</text><polygon fill="none" stroke="#000" points="78 -222.5 78 -252.5 331 -252.5 331 -222.5 78 -222.5"/><text x="85" y="-233.9" fill="#000" font-family="Arial" font-size="14" text-anchor="start">thumbnail</text><text x="149.568" y="-233.9" fill="#666" font-family="Arial" font-size="14" text-anchor="start">[varchar]</text><polygon fill="none" stroke="#000" points="78 -192.5 78 -222.5 331 -222.5 331 -192.5 78 -192.5"/><text x="85" y="-203.9" fill="#000" font-family="Arial" font-size="14" text-anchor="start">stream_url</text><text x="155" y="-203.9" fill="#666" font-family="Arial" font-size="14" text-anchor="start">[varchar]</text><polygon fill="none" stroke="#000" points="78 -162.5 78 -192.5 331 -192.5 331 -162.5 78 -162.5"/><text x="85" y="-173.9" fill="#000" font-family="Arial" font-size="14" text-anchor="start">channel_id</text><text x="156.582" y="-173.9" fill="#666" font-family="Arial" font-size="14" text-anchor="start">[uuid]</text><polygon fill="none" stroke="#000" points="78 -132.5 78 -162.5 331 -162.5 331 -132.5 78 -132.5"/><text x="85" y="-143.9" fill="#000" font-family="Arial" font-size="14" text-anchor="start">duration</text><text x="139.461" y="-143.9" fill="#666" font-family="Arial" font-size="14" text-anchor="start">[double precision]</text><polygon fill="none" stroke="#000" points="78 -102.5 78 -132.5 331 -132.5 331 -102.5 78 -102.5"/><text x="85" y="-113.9" fill="#000" font-family="Arial" font-size="14" text-anchor="start">is_private</text><text x="148.785" y="-113.9" fill="#666" font-family="Arial" font-size="14" text-anchor="start">[boolean]</text><polygon fill="none" stroke="#000" points="78 -72.5 78 -102.5 331 -102.5 331 -72.5 78 -72.5"/><text x="85" y="-83.9" fill="#000" font-family="Arial" font-size="14" text-anchor="start">created_at</text><text x="155.028" y="-83.9" fill="#666" font-family="Arial" font-size="14" text-anchor="start">[timestamp with time zone]</text><polygon fill="none" stroke="#000" points="78 -42.5 78 -72.5 331 -72.5 331 -42.5 78 -42.5"/><text x="84.692" y="-53.9" fill="#000" font-family="Arial" font-size="14" text-anchor="start">updated_at</text><text x="158.624" y="-53.9" fill="#666" font-family="Arial" font-size="14" text-anchor="start">[timestamp with time zone]</text></g><g id="edge1" class="edge"><title>public.watch_history:video_id-&gt;public.videos:id</title><path fill="none" stroke="#000" d="M235.8802,-726.6719C182.4076,-717.2547 211.0794,-629.7134 246,-577 268.6577,-542.7978 308.3423,-575.2022 331,-541 353.9499,-506.3566 372.5556,-447.5 331,-447.5"/><polygon fill="#000" stroke="#000" points="236.033 -726.684 245.633 -731.985 241.017 -727.092 246 -727.5 246 -727.5 246 -727.5 241.017 -727.092 246.367 -723.015 236.033 -726.684 236.033 -726.684"/><text x="6.886" y="-737.5" fill="#000" font-family="Arial" font-size="10" text-anchor="start">FOREIGN KEY (video_id) REFERENCES videos(id)</text></g><g id="node3" class="node"><title>public.users</title><polygon fill="#efefef" stroke="transparent" points="435 -387.5 435 -422.5 688 -422.5 688 -387.5 435 -387.5"/><polygon fill="none" stroke="#000" points="435 -387.5 435 -422.5 688 -422.5 688 -387.5 435 -387.5"/><text x="464.866" y="-400.3" fill="#000" font-family="Arial Bold" font-size="18" text-anchor="start">public.users</text><text x="564.771" y="-400.3" fill="#666" font-family="Arial" font-size="14" text-anchor="start">[BASE TABLE]</text><polygon fill="none" stroke="#000" points="435 -357.5 435 -387.5 688 -387.5 688 -357.5 435 -357.5"/><text x="442" y="-368.9" fill="#000" font-family="Arial" font-size="14" text-anchor="start">id</text><text x="456.78" y="-368.9" fill="#666" font-family="Arial" font-size="14" text-anchor="start">[uuid]</text><polygon fill="none" stroke="#000" points="435 -327.5 435 -357.5 688 -357.5 688 -327.5 435 -327.5"/><text x="442" y="-338.9" fill="#000" font-family="Arial" font-size="14" text-anchor="start">email</text><text x="479.33" y="-338.9" fill="#666" font-family="Arial" font-size="14" text-anchor="start">[citext]</text><polygon fill="none" stroke="#000" points="435 -297.5 435 -327.5 688 -327.5 688 -297.5 435 -297.5"/><text x="442" y="-308.9" fill="#000" font-family="Arial" font-size="14" text-anchor="start">phone</text><text x="484.804" y="-308.9" fill="#666" font-family="Arial" font-size="14" text-anchor="start">[varchar]</text><polygon fill="none" stroke="#000" points="435 -267.5 435 -297.5 688 -297.5 688 -267.5 435 -267.5"/><text x="442" y="-278.9" fill="#000" font-family="Arial" font-size="14" text-anchor="start">name</text><text x="480.899" y="-278.9" fill="#666" font-family="Arial" font-size="14" text-anchor="start">[varchar]</text><polygon fill="none" stroke="#000" points="435 -237.5 435 -267.5 688 -267.5 688 -237.5 435 -237.5"/><text x="442" y="-248.9" fill="#000" font-family="Arial" font-size="14" text-anchor="start">channel_name</text><text x="537.701" y="-248.9" fill="#666" font-family="Arial" font-size="14" text-anchor="start">[varchar]</text><polygon fill="none" stroke="#000" points="435 -207.5 435 -237.5 688 -237.5 688 -207.5 435 -207.5"/><text x="442" y="-218.9" fill="#000" font-family="Arial" font-size="14" text-anchor="start">description</text><text x="513.568" y="-218.9" fill="#666" font-family="Arial" font-size="14" text-anchor="start">[text]</text><polygon fill="none" stroke="#000" points="435 -177.5 435 -207.5 688 -207.5 688 -177.5 435 -177.5"/><text x="442" y="-188.9" fill="#000" font-family="Arial" font-size="14" text-anchor="start">subscriber_count</text><text x="552.47" y="-188.9" fill="#666" font-family="Arial" font-size="14" text-anchor="start">[integer]</text><polygon fill="none" stroke="#000" points="435 -147.5 435 -177.5 688 -177.5 688 -147.5 435 -147.5"/><text x="442" y="-158.9" fill="#000" font-family="Arial" font-size="14" text-anchor="start">created_at</text><text x="512.028" y="-158.9" fill="#666" font-family="Arial" font-size="14" text-anchor="start">[timestamp with time zone]</text><polygon fill="none" stroke="#000" points="435 -117.5 435 -147.5 688 -147.5 688 -117.5 435 -117.5"/><text x="441.692" y="-128.9" fill="#000" font-family="Arial" font-size="14" text-anchor="start">updated_at</text><text x="515.624" y="-128.9" fill="#666" font-family="Arial" font-size="14" text-anchor="start">[timestamp with time zone]</text></g><g id="edge2" class="edge"><title>public.watch_history:user_id-&gt;public.users:id</title><path fill="none" stroke="#000" d="M528.9991,-696.4966C567.5175,-687.788 534.8467,-624.2008 519,-577 499.3094,-518.3499 454.6906,-524.6501 435,-466 421.774,-426.6054 393.4444,-372.5 435,-372.5"/><polygon fill="#000" stroke="#000" points="528.95 -696.501 518.551 -693.023 523.975 -697.001 519 -697.5 519 -697.5 519 -697.5 523.975 -697.001 519.449 -701.977 528.95 -696.501 528.95 -696.501"/><text x="526.335" y="-707.5" fill="#000" font-family="Arial" font-size="10" text-anchor="start">FOREIGN KEY (user_id) REFERENCES users(id)</text></g></g></svg>