<?xml version="1.0" encoding="UTF-8" standalone="no"?>
<!DOCTYPE svg PUBLIC "-//W3C//DTD SVG 1.1//EN"
 "http://www.w3.org/Graphics/SVG/1.1/DTD/svg11.dtd">
<!-- Generated by graphviz version 2.40.1 (20161225.0304)
 -->
<!-- Title: public.watch_history Pages: 1 -->
<svg width="764pt" height="832pt"
 viewBox="0.00 0.00 764.00 832.00" xmlns="http://www.w3.org/2000/svg" xmlns:xlink="http://www.w3.org/1999/xlink">
<g id="graph0" class="graph" transform="scale(1 1) rotate(0) translate(4 828)">
<title>public.watch_history</title>
<polygon fill="#ffffff" stroke="transparent" points="-4,4 -4,-828 760,-828 760,4 -4,4"/>
<!-- public.watch_history -->
<g id="node1" class="node">
<title>public.watch_history</title>
<polygon fill="#efefef" stroke="transparent" points="246,-742.5 246,-777.5 519,-777.5 519,-742.5 246,-742.5"/>
<polygon fill="none" stroke="#000000" points="246,-742.5 246,-777.5 519,-777.5 519,-742.5 246,-742.5"/>
<text text-anchor="start" x="252.8605" y="-755.3" font-family="Arial Bold" font-size="18.00" fill="#000000">public.watch_history</text>
<text text-anchor="start" x="414.8857" y="-755.3" font-family="Arial" font-size="14.00" fill="#000000"> </text>
<text text-anchor="start" x="418.7763" y="-755.3" font-family="Arial" font-size="14.00" fill="#666666">[BASE TABLE]</text>
<polygon fill="none" stroke="#000000" points="246,-712.5 246,-742.5 519,-742.5 519,-712.5 246,-712.5"/>
<text text-anchor="start" x="253" y="-723.9" font-family="Arial" font-size="14.00" fill="#000000">video_id </text>
<text text-anchor="start" x="309.0168" y="-723.9" font-family="Arial" font-size="14.00" fill="#666666">[uuid]</text>
<polygon fill="none" stroke="#000000" points="246,-682.5 246,-712.5 519,-712.5 519,-682.5 246,-682.5"/>
<text text-anchor="start" x="253" y="-693.9" font-family="Arial" font-size="14.00" fill="#000000">user_id </text>
<text text-anchor="start" x="302.7882" y="-693.9" font-family="Arial" font-size="14.00" fill="#666666">[uuid]</text>
<polygon fill="none" stroke="#000000" points="246,-652.5 246,-682.5 519,-682.5 519,-652.5 246,-652.5"/>
<text text-anchor="start" x="253" y="-663.9" font-family="Arial" font-size="14.00" fill="#000000">last_watchted_at </text>
<text text-anchor="start" x="361.927" y="-663.9" font-family="Arial" font-size="14.00" fill="#666666">[time without time zone]</text>
<polygon fill="none" stroke="#000000" points="246,-622.5 246,-652.5 519,-652.5 519,-622.5 246,-622.5"/>
<text text-anchor="start" x="253" y="-633.9" font-family="Arial" font-size="14.00" fill="#000000">created_at </text>
<text text-anchor="start" x="323.028" y="-633.9" font-family="Arial" font-size="14.00" fill="#666666">[timestamp with time zone]</text>
<polygon fill="none" stroke="#000000" stroke-width="3" points="244,-621.5 244,-779.5 520,-779.5 520,-621.5 244,-621.5"/>
</g>
<!-- public.videos -->
<g id="node2" class="node">
<title>public.videos</title>
<polygon fill="#efefef" stroke="transparent" points="78,-462.5 78,-497.5 331,-497.5 331,-462.5 78,-462.5"/>
<polygon fill="none" stroke="#000000" points="78,-462.5 78,-497.5 331,-497.5 331,-462.5 78,-462.5"/>
<text text-anchor="start" x="103.8621" y="-475.3" font-family="Arial Bold" font-size="18.00" fill="#000000">public.videos</text>
<text text-anchor="start" x="207.8841" y="-475.3" font-family="Arial" font-size="14.00" fill="#000000"> </text>
<text text-anchor="start" x="211.7747" y="-475.3" font-family="Arial" font-size="14.00" fill="#666666">[BASE TABLE]</text>
<polygon fill="none" stroke="#000000" points="78,-432.5 78,-462.5 331,-462.5 331,-432.5 78,-432.5"/>
<text text-anchor="start" x="85" y="-443.9" font-family="Arial" font-size="14.00" fill="#000000">id </text>
<text text-anchor="start" x="99.7798" y="-443.9" font-family="Arial" font-size="14.00" fill="#666666">[uuid]</text>
<polygon fill="none" stroke="#000000" points="78,-402.5 78,-432.5 331,-432.5 331,-402.5 78,-402.5"/>
<text text-anchor="start" x="85" y="-413.9" font-family="Arial" font-size="14.00" fill="#000000">title </text>
<text text-anchor="start" x="110.6676" y="-413.9" font-family="Arial" font-size="14.00" fill="#666666">[varchar]</text>
<polygon fill="none" stroke="#000000" points="78,-372.5 78,-402.5 331,-402.5 331,-372.5 78,-372.5"/>
<text text-anchor="start" x="85" y="-383.9" font-family="Arial" font-size="14.00" fill="#000000">description </text>
<text text-anchor="start" x="156.568" y="-383.9" font-family="Arial" font-size="14.00" fill="#666666">[text]</text>
<polygon fill="none" stroke="#000000" points="78,-342.5 78,-372.5 331,-372.5 331,-342.5 78,-342.5"/>
<text text-anchor="start" x="85" y="-353.9" font-family="Arial" font-size="14.00" fill="#000000">category </text>
<text text-anchor="start" x="142.5722" y="-353.9" font-family="Arial" font-size="14.00" fill="#666666">[category_types]</text>
<polygon fill="none" stroke="#000000" points="78,-312.5 78,-342.5 331,-342.5 331,-312.5 78,-312.5"/>
<text text-anchor="start" x="85" y="-323.9" font-family="Arial" font-size="14.00" fill="#000000">views_count </text>
<text text-anchor="start" x="165.9074" y="-323.9" font-family="Arial" font-size="14.00" fill="#666666">[integer]</text>
<polygon fill="none" stroke="#000000" points="78,-282.5 78,-312.5 331,-312.5 331,-282.5 78,-282.5"/>
<text text-anchor="start" x="85" y="-293.9" font-family="Arial" font-size="14.00" fill="#000000">likes_count </text>
<text text-anchor="start" x="158.9074" y="-293.9" font-family="Arial" font-size="14.00" fill="#666666">[integer]</text>
<polygon fill="none" stroke="#000000" points="78,-252.5 78,-282.5 331,-282.5 331,-252.5 78,-252.5"/>
<text text-anchor="start" x="85" y="-263.9" font-family="Arial" font-size="14.00" fill="#000000">dislikes_count </text>
<text text-anchor="start" x="176.7966" y="-263.9" font-family="Arial" font-size="14.00" fill="#666666">[integer]</text>
<polygon fill="none" stroke="#000000" points="78,-222.5 78,-252.5 331,-252.5 331,-222.5 78,-222.5"/>
<text text-anchor="start" x="85" y="-233.9" font-family="Arial" font-size="14.00" fill="#000000">thumbnail </text>
<text text-anchor="start" x="149.568" y="-233.9" font-family="Arial" font-size="14.00" fill="#666666">[varchar]</text>
<polygon fill="none" stroke="#000000" points="78,-192.5 78,-222.5 331,-222.5 331,-192.5 78,-192.5"/>
<text text-anchor="start" x="85" y="-203.9" font-family="Arial" font-size="14.00" fill="#000000">stream_url </text>
<text text-anchor="start" x="155" y="-203.9" font-family="Arial" font-size="14.00" fill="#666666">[varchar]</text>
<polygon fill="none" stroke="#000000" points="78,-162.5 78,-192.5 331,-192.5 331,-162.5 78,-162.5"/>
<text text-anchor="start" x="85" y="-173.9" font-family="Arial" font-size="14.00" fill="#000000">channel_id </text>
<text text-anchor="start" x="156.582" y="-173.9" font-family="Arial" font-size="14.00" fill="#666666">[uuid]</text>
<polygon fill="none" stroke="#000000" points="78,-132.5 78,-162.5 331,-162.5 331,-132.5 78,-132.5"/>
<text text-anchor="start" x="85" y="-143.9" font-family="Arial" font-size="14.00" fill="#000000">duration </text>
<text text-anchor="start" x="139.4614" y="-143.9" font-family="Arial" font-size="14.00" fill="#666666">[double precision]</text>
<polygon fill="none" stroke="#000000" points="78,-102.5 78,-132.5 331,-132.5 331,-102.5 78,-102.5"/>
<text text-anchor="start" x="85" y="-113.9" font-family="Arial" font-size="14.00" fill="#000000">is_private </text>
<text text-anchor="start" x="148.7854" y="-113.9" font-family="Arial" font-size="14.00" fill="#666666">[boolean]</text>
<polygon fill="none" stroke="#000000" points="78,-72.5 78,-102.5 331,-102.5 331,-72.5 78,-72.5"/>
<text text-anchor="start" x="85" y="-83.9" font-family="Arial" font-size="14.00" fill="#000000">created_at </text>
<text text-anchor="start" x="155.028" y="-83.9" font-family="Arial" font-size="14.00" fill="#666666">[timestamp with time zone]</text>
<polygon fill="none" stroke="#000000" points="78,-42.5 78,-72.5 331,-72.5 331,-42.5 78,-42.5"/>
<text text-anchor="start" x="84.6915" y="-53.9" font-family="Arial" font-size="14.00" fill="#000000">updated_at </text>
<text text-anchor="start" x="158.6241" y="-53.9" font-family="Arial" font-size="14.00" fill="#666666">[timestamp with time zone]</text>
</g>
<!-- public.watch_history&#45;&gt;public.videos -->
<g id="edge1" class="edge">
<title>public.watch_history:video_id&#45;&gt;public.videos:id</title>
<path fill="none" stroke="#000000" d="M235.8802,-726.6719C182.4076,-717.2547 211.0794,-629.7134 246,-577 268.6577,-542.7978 308.3423,-575.2022 331,-541 353.9499,-506.3566 372.5556,-447.5 331,-447.5"/>
<polygon fill="#000000" stroke="#000000" points="236.0333,-726.6843 245.6329,-731.985 241.0167,-727.0922 246,-727.5 246,-727.5 246,-727.5 241.0167,-727.0922 246.3671,-723.015 236.0333,-726.6843 236.0333,-726.6843"/>
<text text-anchor="start" x="6.8855" y="-737.5" font-family="Arial" font-size="10.00" fill="#000000">FOREIGN KEY (video_id) REFERENCES videos(id)</text>
</g>
<!-- public.users -->
<g id="node3" class="node">
<title>public.users</title>
<polygon fill="#efefef" stroke="transparent" points="435,-387.5 435,-422.5 688,-422.5 688,-387.5 435,-387.5"/>
<polygon fill="none" stroke="#000000" points="435,-387.5 435,-422.5 688,-422.5 688,-387.5 435,-387.5"/>
<text text-anchor="start" x="464.8662" y="-400.3" font-family="Arial Bold" font-size="18.00" fill="#000000">public.users</text>
<text text-anchor="start" x="560.88" y="-400.3" font-family="Arial" font-size="14.00" fill="#000000"> </text>
<text text-anchor="start" x="564.7706" y="-400.3" font-family="Arial" font-size="14.00" fill="#666666">[BASE TABLE]</text>
<polygon fill="none" stroke="#000000" points="435,-357.5 435,-387.5 688,-387.5 688,-357.5 435,-357.5"/>
<text text-anchor="start" x="442" y="-368.9" font-family="Arial" font-size="14.00" fill="#000000">id </text>
<text text-anchor="start" x="456.7798" y="-368.9" font-family="Arial" font-size="14.00" fill="#666666">[uuid]</text>
<polygon fill="none" stroke="#000000" points="435,-327.5 435,-357.5 688,-357.5 688,-327.5 435,-327.5"/>
<text text-anchor="start" x="442" y="-338.9" font-family="Arial" font-size="14.00" fill="#000000">email </text>
<text text-anchor="start" x="479.3296" y="-338.9" font-family="Arial" font-size="14.00" fill="#666666">[citext]</text>
<polygon fill="none" stroke="#000000" points="435,-297.5 435,-327.5 688,-327.5 688,-297.5 435,-297.5"/>
<text text-anchor="start" x="442" y="-308.9" font-family="Arial" font-size="14.00" fill="#000000">phone </text>
<text text-anchor="start" x="484.8036" y="-308.9" font-family="Arial" font-size="14.00" fill="#666666">[varchar]</text>
<polygon fill="none" stroke="#000000" points="435,-267.5 435,-297.5 688,-297.5 688,-267.5 435,-267.5"/>
<text text-anchor="start" x="442" y="-278.9" font-family="Arial" font-size="14.00" fill="#000000">name </text>
<text text-anchor="start" x="480.899" y="-278.9" font-family="Arial" font-size="14.00" fill="#666666">[varchar]</text>
<polygon fill="none" stroke="#000000" points="435,-237.5 435,-267.5 688,-267.5 688,-237.5 435,-237.5"/>
<text text-anchor="start" x="442" y="-248.9" font-family="Arial" font-size="14.00" fill="#000000">channel_name </text>
<text text-anchor="start" x="537.7012" y="-248.9" font-family="Arial" font-size="14.00" fill="#666666">[varchar]</text>
<polygon fill="none" stroke="#000000" points="435,-207.5 435,-237.5 688,-237.5 688,-207.5 435,-207.5"/>
<text text-anchor="start" x="442" y="-218.9" font-family="Arial" font-size="14.00" fill="#000000">description </text>
<text text-anchor="start" x="513.568" y="-218.9" font-family="Arial" font-size="14.00" fill="#666666">[text]</text>
<polygon fill="none" stroke="#000000" points="435,-177.5 435,-207.5 688,-207.5 688,-177.5 435,-177.5"/>
<text text-anchor="start" x="442" y="-188.9" font-family="Arial" font-size="14.00" fill="#000000">subscriber_count </text>
<text text-anchor="start" x="552.4698" y="-188.9" font-family="Arial" font-size="14.00" fill="#666666">[integer]</text>
<polygon fill="none" stroke="#000000" points="435,-147.5 435,-177.5 688,-177.5 688,-147.5 435,-147.5"/>
<text text-anchor="start" x="442" y="-158.9" font-family="Arial" font-size="14.00" fill="#000000">created_at </text>
<text text-anchor="start" x="512.028" y="-158.9" font-family="Arial" font-size="14.00" fill="#666666">[timestamp with time zone]</text>
<polygon fill="none" stroke="#000000" points="435,-117.5 435,-147.5 688,-147.5 688,-117.5 435,-117.5"/>
<text text-anchor="start" x="441.6915" y="-128.9" font-family="Arial" font-size="14.00" fill="#000000">updated_at </text>
<text text-anchor="start" x="515.6241" y="-128.9" font-family="Arial" font-size="14.00" fill="#666666">[timestamp with time zone]</text>
</g>
<!-- public.watch_history&#45;&gt;public.users -->
<g id="edge2" class="edge">
<title>public.watch_history:user_id&#45;&gt;public.users:id</title>
<path fill="none" stroke="#000000" d="M528.9991,-696.4966C567.5175,-687.788 534.8467,-624.2008 519,-577 499.3094,-518.3499 454.6906,-524.6501 435,-466 421.774,-426.6054 393.4444,-372.5 435,-372.5"/>
<polygon fill="#000000" stroke="#000000" points="528.95,-696.5015 518.5507,-693.0225 523.975,-697.0007 519,-697.5 519,-697.5 519,-697.5 523.975,-697.0007 519.4493,-701.9775 528.95,-696.5015 528.95,-696.5015"/>
<text text-anchor="start" x="526.3345" y="-707.5" font-family="Arial" font-size="10.00" fill="#000000">FOREIGN KEY (user_id) REFERENCES users(id)</text>
</g>
</g>
</svg>
