<?xml version="1.0" encoding="UTF-8" standalone="no"?>
<!DOCTYPE svg PUBLIC "-//W3C//DTD SVG 1.1//EN"
 "http://www.w3.org/Graphics/SVG/1.1/DTD/svg11.dtd">
<!-- Generated by graphviz version 2.40.1 (20161225.0304)
 -->
<!-- Title: public.videos Pages: 1 -->
<svg width="766pt" height="1109pt"
 viewBox="0.00 0.00 766.00 1109.00" xmlns="http://www.w3.org/2000/svg" xmlns:xlink="http://www.w3.org/1999/xlink">
<g id="graph0" class="graph" transform="scale(1 1) rotate(0) translate(4 1105)">
<title>public.videos</title>
<polygon fill="#ffffff" stroke="transparent" points="-4,4 -4,-1105 762,-1105 762,4 -4,4"/>
<!-- public.videos -->
<g id="node1" class="node">
<title>public.videos</title>
<polygon fill="#efefef" stroke="transparent" points="237,-742.5 237,-777.5 490,-777.5 490,-742.5 237,-742.5"/>
<polygon fill="none" stroke="#000000" points="237,-742.5 237,-777.5 490,-777.5 490,-742.5 237,-742.5"/>
<text text-anchor="start" x="262.8621" y="-755.3" font-family="Arial Bold" font-size="18.00" fill="#000000">public.videos</text>
<text text-anchor="start" x="366.8841" y="-755.3" font-family="Arial" font-size="14.00" fill="#000000"> </text>
<text text-anchor="start" x="370.7747" y="-755.3" font-family="Arial" font-size="14.00" fill="#666666">[BASE TABLE]</text>
<polygon fill="none" stroke="#000000" points="237,-712.5 237,-742.5 490,-742.5 490,-712.5 237,-712.5"/>
<text text-anchor="start" x="244" y="-723.9" font-family="Arial" font-size="14.00" fill="#000000">id </text>
<text text-anchor="start" x="258.7798" y="-723.9" font-family="Arial" font-size="14.00" fill="#666666">[uuid]</text>
<polygon fill="none" stroke="#000000" points="237,-682.5 237,-712.5 490,-712.5 490,-682.5 237,-682.5"/>
<text text-anchor="start" x="244" y="-693.9" font-family="Arial" font-size="14.00" fill="#000000">title </text>
<text text-anchor="start" x="269.6676" y="-693.9" font-family="Arial" font-size="14.00" fill="#666666">[varchar]</text>
<polygon fill="none" stroke="#000000" points="237,-652.5 237,-682.5 490,-682.5 490,-652.5 237,-652.5"/>
<text text-anchor="start" x="244" y="-663.9" font-family="Arial" font-size="14.00" fill="#000000">description </text>
<text text-anchor="start" x="315.568" y="-663.9" font-family="Arial" font-size="14.00" fill="#666666">[text]</text>
<polygon fill="none" stroke="#000000" points="237,-622.5 237,-652.5 490,-652.5 490,-622.5 237,-622.5"/>
<text text-anchor="start" x="244" y="-633.9" font-family="Arial" font-size="14.00" fill="#000000">category </text>
<text text-anchor="start" x="301.5722" y="-633.9" font-family="Arial" font-size="14.00" fill="#666666">[category_types]</text>
<polygon fill="none" stroke="#000000" points="237,-592.5 237,-622.5 490,-622.5 490,-592.5 237,-592.5"/>
<text text-anchor="start" x="244" y="-603.9" font-family="Arial" font-size="14.00" fill="#000000">views </text>
<text text-anchor="start" x="282.8864" y="-603.9" font-family="Arial" font-size="14.00" fill="#666666">[integer]</text>
<polygon fill="none" stroke="#000000" points="237,-562.5 237,-592.5 490,-592.5 490,-562.5 237,-562.5"/>
<text text-anchor="start" x="244" y="-573.9" font-family="Arial" font-size="14.00" fill="#000000">thumbnail </text>
<text text-anchor="start" x="308.568" y="-573.9" font-family="Arial" font-size="14.00" fill="#666666">[varchar]</text>
<polygon fill="none" stroke="#000000" points="237,-532.5 237,-562.5 490,-562.5 490,-532.5 237,-532.5"/>
<text text-anchor="start" x="244" y="-543.9" font-family="Arial" font-size="14.00" fill="#000000">stream_url </text>
<text text-anchor="start" x="314" y="-543.9" font-family="Arial" font-size="14.00" fill="#666666">[varchar]</text>
<polygon fill="none" stroke="#000000" points="237,-502.5 237,-532.5 490,-532.5 490,-502.5 237,-502.5"/>
<text text-anchor="start" x="244" y="-513.9" font-family="Arial" font-size="14.00" fill="#000000">user_id </text>
<text text-anchor="start" x="293.7882" y="-513.9" font-family="Arial" font-size="14.00" fill="#666666">[uuid]</text>
<polygon fill="none" stroke="#000000" points="237,-472.5 237,-502.5 490,-502.5 490,-472.5 237,-472.5"/>
<text text-anchor="start" x="244" y="-483.9" font-family="Arial" font-size="14.00" fill="#000000">channel_id </text>
<text text-anchor="start" x="315.582" y="-483.9" font-family="Arial" font-size="14.00" fill="#666666">[uuid]</text>
<polygon fill="none" stroke="#000000" points="237,-442.5 237,-472.5 490,-472.5 490,-442.5 237,-442.5"/>
<text text-anchor="start" x="244" y="-453.9" font-family="Arial" font-size="14.00" fill="#000000">created_at </text>
<text text-anchor="start" x="314.028" y="-453.9" font-family="Arial" font-size="14.00" fill="#666666">[timestamp with time zone]</text>
<polygon fill="none" stroke="#000000" points="237,-412.5 237,-442.5 490,-442.5 490,-412.5 237,-412.5"/>
<text text-anchor="start" x="243.6915" y="-423.9" font-family="Arial" font-size="14.00" fill="#000000">updated_at </text>
<text text-anchor="start" x="317.6241" y="-423.9" font-family="Arial" font-size="14.00" fill="#666666">[timestamp with time zone]</text>
<polygon fill="none" stroke="#000000" stroke-width="3" points="235,-411.5 235,-779.5 491,-779.5 491,-411.5 235,-411.5"/>
</g>
<!-- public.users -->
<g id="node4" class="node">
<title>public.users</title>
<polygon fill="#efefef" stroke="transparent" points="60,-252.5 60,-287.5 313,-287.5 313,-252.5 60,-252.5"/>
<polygon fill="none" stroke="#000000" points="60,-252.5 60,-287.5 313,-287.5 313,-252.5 60,-252.5"/>
<text text-anchor="start" x="89.8662" y="-265.3" font-family="Arial Bold" font-size="18.00" fill="#000000">public.users</text>
<text text-anchor="start" x="185.88" y="-265.3" font-family="Arial" font-size="14.00" fill="#000000"> </text>
<text text-anchor="start" x="189.7706" y="-265.3" font-family="Arial" font-size="14.00" fill="#666666">[BASE TABLE]</text>
<polygon fill="none" stroke="#000000" points="60,-222.5 60,-252.5 313,-252.5 313,-222.5 60,-222.5"/>
<text text-anchor="start" x="67" y="-233.9" font-family="Arial" font-size="14.00" fill="#000000">id </text>
<text text-anchor="start" x="81.7798" y="-233.9" font-family="Arial" font-size="14.00" fill="#666666">[uuid]</text>
<polygon fill="none" stroke="#000000" points="60,-192.5 60,-222.5 313,-222.5 313,-192.5 60,-192.5"/>
<text text-anchor="start" x="67" y="-203.9" font-family="Arial" font-size="14.00" fill="#000000">email </text>
<text text-anchor="start" x="104.3296" y="-203.9" font-family="Arial" font-size="14.00" fill="#666666">[citext]</text>
<polygon fill="none" stroke="#000000" points="60,-162.5 60,-192.5 313,-192.5 313,-162.5 60,-162.5"/>
<text text-anchor="start" x="67" y="-173.9" font-family="Arial" font-size="14.00" fill="#000000">phone </text>
<text text-anchor="start" x="109.8036" y="-173.9" font-family="Arial" font-size="14.00" fill="#666666">[varchar]</text>
<polygon fill="none" stroke="#000000" points="60,-132.5 60,-162.5 313,-162.5 313,-132.5 60,-132.5"/>
<text text-anchor="start" x="67" y="-143.9" font-family="Arial" font-size="14.00" fill="#000000">name </text>
<text text-anchor="start" x="105.899" y="-143.9" font-family="Arial" font-size="14.00" fill="#666666">[varchar]</text>
<polygon fill="none" stroke="#000000" points="60,-102.5 60,-132.5 313,-132.5 313,-102.5 60,-102.5"/>
<text text-anchor="start" x="67" y="-113.9" font-family="Arial" font-size="14.00" fill="#000000">channel_name </text>
<text text-anchor="start" x="162.7012" y="-113.9" font-family="Arial" font-size="14.00" fill="#666666">[varchar]</text>
<polygon fill="none" stroke="#000000" points="60,-72.5 60,-102.5 313,-102.5 313,-72.5 60,-72.5"/>
<text text-anchor="start" x="67" y="-83.9" font-family="Arial" font-size="14.00" fill="#000000">created_at </text>
<text text-anchor="start" x="137.028" y="-83.9" font-family="Arial" font-size="14.00" fill="#666666">[timestamp with time zone]</text>
<polygon fill="none" stroke="#000000" points="60,-42.5 60,-72.5 313,-72.5 313,-42.5 60,-42.5"/>
<text text-anchor="start" x="66.6915" y="-53.9" font-family="Arial" font-size="14.00" fill="#000000">updated_at </text>
<text text-anchor="start" x="140.6241" y="-53.9" font-family="Arial" font-size="14.00" fill="#666666">[timestamp with time zone]</text>
</g>
<!-- public.videos&#45;&gt;public.users -->
<g id="edge3" class="edge">
<title>public.videos:user_id&#45;&gt;public.users:id</title>
<path fill="none" stroke="#000000" d="M226.8901,-516.6783C173.5288,-507.3332 203.1873,-420.4308 237,-367 256.9866,-335.4172 293.0134,-362.5828 313,-331 335.2218,-295.8851 354.5556,-237.5 313,-237.5"/>
<polygon fill="#000000" stroke="#000000" points="227.0329,-516.6898 236.6354,-521.9852 232.0164,-517.0949 237,-517.5 237,-517.5 237,-517.5 232.0164,-517.0949 237.3646,-513.0148 227.0329,-516.6898 227.0329,-516.6898"/>
<text text-anchor="start" x="7.3345" y="-527.5" font-family="Arial" font-size="10.00" fill="#000000">FOREIGN KEY (user_id) REFERENCES users(id)</text>
</g>
<!-- public.channels -->
<g id="node5" class="node">
<title>public.channels</title>
<polygon fill="#efefef" stroke="transparent" points="417,-222.5 417,-257.5 666,-257.5 666,-222.5 417,-222.5"/>
<polygon fill="none" stroke="#000000" points="417,-222.5 417,-257.5 666,-257.5 666,-222.5 417,-222.5"/>
<text text-anchor="start" x="430.8559" y="-235.3" font-family="Arial Bold" font-size="18.00" fill="#000000">public.channels</text>
<text text-anchor="start" x="554.8903" y="-235.3" font-family="Arial" font-size="14.00" fill="#000000"> </text>
<text text-anchor="start" x="558.7809" y="-235.3" font-family="Arial" font-size="14.00" fill="#666666">[BASE TABLE]</text>
<polygon fill="none" stroke="#000000" points="417,-192.5 417,-222.5 666,-222.5 666,-192.5 417,-192.5"/>
<text text-anchor="start" x="424" y="-203.9" font-family="Arial" font-size="14.00" fill="#000000">id </text>
<text text-anchor="start" x="438.7798" y="-203.9" font-family="Arial" font-size="14.00" fill="#666666">[uuid]</text>
<polygon fill="none" stroke="#000000" points="417,-162.5 417,-192.5 666,-192.5 666,-162.5 417,-162.5"/>
<text text-anchor="start" x="424" y="-173.9" font-family="Arial" font-size="14.00" fill="#000000">name </text>
<text text-anchor="start" x="462.899" y="-173.9" font-family="Arial" font-size="14.00" fill="#666666">[varchar]</text>
<polygon fill="none" stroke="#000000" points="417,-132.5 417,-162.5 666,-162.5 666,-132.5 417,-132.5"/>
<text text-anchor="start" x="424" y="-143.9" font-family="Arial" font-size="14.00" fill="#000000">description </text>
<text text-anchor="start" x="495.568" y="-143.9" font-family="Arial" font-size="14.00" fill="#666666">[text]</text>
<polygon fill="none" stroke="#000000" points="417,-102.5 417,-132.5 666,-132.5 666,-102.5 417,-102.5"/>
<text text-anchor="start" x="424" y="-113.9" font-family="Arial" font-size="14.00" fill="#000000">user_id </text>
<text text-anchor="start" x="473.7882" y="-113.9" font-family="Arial" font-size="14.00" fill="#666666">[uuid]</text>
<polygon fill="none" stroke="#000000" points="417,-72.5 417,-102.5 666,-102.5 666,-72.5 417,-72.5"/>
<text text-anchor="start" x="423.6438" y="-83.9" font-family="Arial" font-size="14.00" fill="#000000">created_at </text>
<text text-anchor="start" x="493.6718" y="-83.9" font-family="Arial" font-size="14.00" fill="#666666">[timestamp with time zone]</text>
</g>
<!-- public.videos&#45;&gt;public.channels -->
<g id="edge4" class="edge">
<title>public.videos:channel_id&#45;&gt;public.channels:id</title>
<path fill="none" stroke="#000000" d="M500.0638,-486.4715C539.1304,-477.5497 510.2049,-412.506 490,-367 472.2506,-327.0244 434.7494,-340.9756 417,-301 400.1366,-263.0199 375.4444,-207.5 417,-207.5"/>
<polygon fill="#000000" stroke="#000000" points="499.9482,-486.4832 489.5425,-483.0233 494.9741,-486.9916 490,-487.5 490,-487.5 490,-487.5 494.9741,-486.9916 490.4575,-491.9767 499.9482,-486.4832 499.9482,-486.4832"/>
<text text-anchor="start" x="496.7675" y="-497.5" font-family="Arial" font-size="10.00" fill="#000000">FOREIGN KEY (channel_id) REFERENCES channels(id)</text>
</g>
<!-- public.play_lists -->
<g id="node2" class="node">
<title>public.play_lists</title>
<polygon fill="#efefef" stroke="transparent" points="63,-1022.5 63,-1057.5 312,-1057.5 312,-1022.5 63,-1022.5"/>
<polygon fill="none" stroke="#000000" points="63,-1022.5 63,-1057.5 312,-1057.5 312,-1022.5 63,-1022.5"/>
<text text-anchor="start" x="75.8668" y="-1035.3" font-family="Arial Bold" font-size="18.00" fill="#000000">public.play_lists</text>
<text text-anchor="start" x="201.8794" y="-1035.3" font-family="Arial" font-size="14.00" fill="#000000"> </text>
<text text-anchor="start" x="205.77" y="-1035.3" font-family="Arial" font-size="14.00" fill="#666666">[BASE TABLE]</text>
<polygon fill="none" stroke="#000000" points="63,-992.5 63,-1022.5 312,-1022.5 312,-992.5 63,-992.5"/>
<text text-anchor="start" x="70" y="-1003.9" font-family="Arial" font-size="14.00" fill="#000000">id </text>
<text text-anchor="start" x="84.7798" y="-1003.9" font-family="Arial" font-size="14.00" fill="#666666">[uuid]</text>
<polygon fill="none" stroke="#000000" points="63,-962.5 63,-992.5 312,-992.5 312,-962.5 63,-962.5"/>
<text text-anchor="start" x="70" y="-973.9" font-family="Arial" font-size="14.00" fill="#000000">play_list_names_id </text>
<text text-anchor="start" x="192.9116" y="-973.9" font-family="Arial" font-size="14.00" fill="#666666">[bigint]</text>
<polygon fill="none" stroke="#000000" points="63,-932.5 63,-962.5 312,-962.5 312,-932.5 63,-932.5"/>
<text text-anchor="start" x="70" y="-943.9" font-family="Arial" font-size="14.00" fill="#000000">video_id </text>
<text text-anchor="start" x="126.0168" y="-943.9" font-family="Arial" font-size="14.00" fill="#666666">[uuid]</text>
<polygon fill="none" stroke="#000000" points="63,-902.5 63,-932.5 312,-932.5 312,-902.5 63,-902.5"/>
<text text-anchor="start" x="69.6438" y="-913.9" font-family="Arial" font-size="14.00" fill="#000000">created_at </text>
<text text-anchor="start" x="139.6718" y="-913.9" font-family="Arial" font-size="14.00" fill="#666666">[timestamp with time zone]</text>
</g>
<!-- public.play_lists&#45;&gt;public.videos -->
<g id="edge1" class="edge">
<title>public.play_lists:video_id&#45;&gt;public.videos:id</title>
<path fill="none" stroke="#000000" d="M322.1402,-945.8908C347.1704,-936.6359 330.6077,-889.572 312,-860 292.3084,-828.7054 256.6916,-855.2946 237,-824 214.1585,-787.6995 194.1111,-727.5 237,-727.5"/>
<polygon fill="#000000" stroke="#000000" points="321.8764,-945.9325 311.2946,-943.0556 316.9382,-946.7163 312,-947.5 312,-947.5 312,-947.5 316.9382,-946.7163 312.7054,-951.9444 321.8764,-945.9325 321.8764,-945.9325"/>
<text text-anchor="start" x="318.8855" y="-957.5" font-family="Arial" font-size="10.00" fill="#000000">FOREIGN KEY (video_id) REFERENCES videos(id)</text>
</g>
<!-- public.feelings -->
<g id="node3" class="node">
<title>public.feelings</title>
<polygon fill="#efefef" stroke="transparent" points="416,-1022.5 416,-1057.5 665,-1057.5 665,-1022.5 416,-1022.5"/>
<polygon fill="none" stroke="#000000" points="416,-1022.5 416,-1057.5 665,-1057.5 665,-1022.5 416,-1022.5"/>
<text text-anchor="start" x="434.8608" y="-1035.3" font-family="Arial Bold" font-size="18.00" fill="#000000">public.feelings</text>
<text text-anchor="start" x="548.8854" y="-1035.3" font-family="Arial" font-size="14.00" fill="#000000"> </text>
<text text-anchor="start" x="552.776" y="-1035.3" font-family="Arial" font-size="14.00" fill="#666666">[BASE TABLE]</text>
<polygon fill="none" stroke="#000000" points="416,-992.5 416,-1022.5 665,-1022.5 665,-992.5 416,-992.5"/>
<text text-anchor="start" x="423" y="-1003.9" font-family="Arial" font-size="14.00" fill="#000000">user_id </text>
<text text-anchor="start" x="472.7882" y="-1003.9" font-family="Arial" font-size="14.00" fill="#666666">[uuid]</text>
<polygon fill="none" stroke="#000000" points="416,-962.5 416,-992.5 665,-992.5 665,-962.5 416,-962.5"/>
<text text-anchor="start" x="423" y="-973.9" font-family="Arial" font-size="14.00" fill="#000000">video_id </text>
<text text-anchor="start" x="479.0168" y="-973.9" font-family="Arial" font-size="14.00" fill="#666666">[uuid]</text>
<polygon fill="none" stroke="#000000" points="416,-932.5 416,-962.5 665,-962.5 665,-932.5 416,-932.5"/>
<text text-anchor="start" x="423" y="-943.9" font-family="Arial" font-size="14.00" fill="#000000">reaction </text>
<text text-anchor="start" x="476.6788" y="-943.9" font-family="Arial" font-size="14.00" fill="#666666">[reaction_types]</text>
<polygon fill="none" stroke="#000000" points="416,-902.5 416,-932.5 665,-932.5 665,-902.5 416,-902.5"/>
<text text-anchor="start" x="422.6438" y="-913.9" font-family="Arial" font-size="14.00" fill="#000000">created_at </text>
<text text-anchor="start" x="492.6718" y="-913.9" font-family="Arial" font-size="14.00" fill="#666666">[timestamp with time zone]</text>
</g>
<!-- public.feelings&#45;&gt;public.videos -->
<g id="edge2" class="edge">
<title>public.feelings:video_id&#45;&gt;public.videos:id</title>
<path fill="none" stroke="#000000" d="M405.6106,-976.3317C367.4359,-966.7899 390.3597,-900.9871 416,-860 435.397,-828.993 470.603,-855.007 490,-824 512.746,-787.6396 532.8889,-727.5 490,-727.5"/>
<polygon fill="#000000" stroke="#000000" points="406.0626,-976.3824 415.4971,-981.9718 411.0313,-976.9412 416,-977.5 416,-977.5 416,-977.5 411.0313,-976.9412 416.5029,-973.0282 406.0626,-976.3824 406.0626,-976.3824"/>
<text text-anchor="start" x="422.8855" y="-987.5" font-family="Arial" font-size="10.00" fill="#000000">FOREIGN KEY (video_id) REFERENCES videos(id)</text>
</g>
</g>
</svg>
