<?xml version="1.0" encoding="UTF-8" standalone="no"?>
<!DOCTYPE svg PUBLIC "-//W3C//DTD SVG 1.1//EN"
 "http://www.w3.org/Graphics/SVG/1.1/DTD/svg11.dtd">
<!-- Generated by graphviz version 2.40.1 (20161225.0304)
 -->
<!-- Title: public.channel_subscriptions Pages: 1 -->
<svg width="880pt" height="592pt"
 viewBox="0.00 0.00 880.00 592.00" xmlns="http://www.w3.org/2000/svg" xmlns:xlink="http://www.w3.org/1999/xlink">
<g id="graph0" class="graph" transform="scale(1 1) rotate(0) translate(4 588)">
<title>public.channel_subscriptions</title>
<polygon fill="#ffffff" stroke="transparent" points="-4,4 -4,-588 876,-588 876,4 -4,4"/>
<!-- public.channel_subscriptions -->
<g id="node1" class="node">
<title>public.channel_subscriptions</title>
<polygon fill="#efefef" stroke="transparent" points="263,-502.5 263,-537.5 604,-537.5 604,-502.5 263,-502.5"/>
<polygon fill="none" stroke="#000000" points="263,-502.5 263,-537.5 604,-537.5 604,-502.5 263,-502.5"/>
<text text-anchor="start" x="269.8459" y="-515.3" font-family="Arial Bold" font-size="18.00" fill="#000000">public.channel_subscriptions</text>
<text text-anchor="start" x="499.9003" y="-515.3" font-family="Arial" font-size="14.00" fill="#000000"> </text>
<text text-anchor="start" x="503.7909" y="-515.3" font-family="Arial" font-size="14.00" fill="#666666">[BASE TABLE]</text>
<polygon fill="none" stroke="#000000" points="263,-472.5 263,-502.5 604,-502.5 604,-472.5 263,-472.5"/>
<text text-anchor="start" x="270" y="-483.9" font-family="Arial" font-size="14.00" fill="#000000">subscriber_id </text>
<text text-anchor="start" x="357.1206" y="-483.9" font-family="Arial" font-size="14.00" fill="#666666">[uuid]</text>
<polygon fill="none" stroke="#000000" points="263,-442.5 263,-472.5 604,-472.5 604,-442.5 263,-442.5"/>
<text text-anchor="start" x="270" y="-453.9" font-family="Arial" font-size="14.00" fill="#000000">channel_id </text>
<text text-anchor="start" x="341.582" y="-453.9" font-family="Arial" font-size="14.00" fill="#666666">[uuid]</text>
<polygon fill="none" stroke="#000000" points="263,-412.5 263,-442.5 604,-442.5 604,-412.5 263,-412.5"/>
<text text-anchor="start" x="270" y="-423.9" font-family="Arial" font-size="14.00" fill="#000000">created_at </text>
<text text-anchor="start" x="340.028" y="-423.9" font-family="Arial" font-size="14.00" fill="#666666">[timestamp with time zone]</text>
<polygon fill="none" stroke="#000000" stroke-width="3" points="261,-411.5 261,-539.5 605,-539.5 605,-411.5 261,-411.5"/>
</g>
<!-- public.users -->
<g id="node2" class="node">
<title>public.users</title>
<polygon fill="#efefef" stroke="transparent" points="130,-252.5 130,-287.5 383,-287.5 383,-252.5 130,-252.5"/>
<polygon fill="none" stroke="#000000" points="130,-252.5 130,-287.5 383,-287.5 383,-252.5 130,-252.5"/>
<text text-anchor="start" x="159.8662" y="-265.3" font-family="Arial Bold" font-size="18.00" fill="#000000">public.users</text>
<text text-anchor="start" x="255.88" y="-265.3" font-family="Arial" font-size="14.00" fill="#000000"> </text>
<text text-anchor="start" x="259.7706" y="-265.3" font-family="Arial" font-size="14.00" fill="#666666">[BASE TABLE]</text>
<polygon fill="none" stroke="#000000" points="130,-222.5 130,-252.5 383,-252.5 383,-222.5 130,-222.5"/>
<text text-anchor="start" x="137" y="-233.9" font-family="Arial" font-size="14.00" fill="#000000">id </text>
<text text-anchor="start" x="151.7798" y="-233.9" font-family="Arial" font-size="14.00" fill="#666666">[uuid]</text>
<polygon fill="none" stroke="#000000" points="130,-192.5 130,-222.5 383,-222.5 383,-192.5 130,-192.5"/>
<text text-anchor="start" x="137" y="-203.9" font-family="Arial" font-size="14.00" fill="#000000">email </text>
<text text-anchor="start" x="174.3296" y="-203.9" font-family="Arial" font-size="14.00" fill="#666666">[citext]</text>
<polygon fill="none" stroke="#000000" points="130,-162.5 130,-192.5 383,-192.5 383,-162.5 130,-162.5"/>
<text text-anchor="start" x="137" y="-173.9" font-family="Arial" font-size="14.00" fill="#000000">phone </text>
<text text-anchor="start" x="179.8036" y="-173.9" font-family="Arial" font-size="14.00" fill="#666666">[varchar]</text>
<polygon fill="none" stroke="#000000" points="130,-132.5 130,-162.5 383,-162.5 383,-132.5 130,-132.5"/>
<text text-anchor="start" x="137" y="-143.9" font-family="Arial" font-size="14.00" fill="#000000">name </text>
<text text-anchor="start" x="175.899" y="-143.9" font-family="Arial" font-size="14.00" fill="#666666">[varchar]</text>
<polygon fill="none" stroke="#000000" points="130,-102.5 130,-132.5 383,-132.5 383,-102.5 130,-102.5"/>
<text text-anchor="start" x="137" y="-113.9" font-family="Arial" font-size="14.00" fill="#000000">channel_name </text>
<text text-anchor="start" x="232.7012" y="-113.9" font-family="Arial" font-size="14.00" fill="#666666">[varchar]</text>
<polygon fill="none" stroke="#000000" points="130,-72.5 130,-102.5 383,-102.5 383,-72.5 130,-72.5"/>
<text text-anchor="start" x="137" y="-83.9" font-family="Arial" font-size="14.00" fill="#000000">created_at </text>
<text text-anchor="start" x="207.028" y="-83.9" font-family="Arial" font-size="14.00" fill="#666666">[timestamp with time zone]</text>
<polygon fill="none" stroke="#000000" points="130,-42.5 130,-72.5 383,-72.5 383,-42.5 130,-42.5"/>
<text text-anchor="start" x="136.6915" y="-53.9" font-family="Arial" font-size="14.00" fill="#000000">updated_at </text>
<text text-anchor="start" x="210.6241" y="-53.9" font-family="Arial" font-size="14.00" fill="#666666">[timestamp with time zone]</text>
</g>
<!-- public.channel_subscriptions&#45;&gt;public.users -->
<g id="edge1" class="edge">
<title>public.channel_subscriptions:subscriber_id&#45;&gt;public.users:id</title>
<path fill="none" stroke="#000000" d="M253.0497,-486.4489C212.4443,-477.0613 233.2164,-407.03 263,-367 296.2381,-322.327 349.7619,-375.673 383,-331 407.8058,-297.6603 424.5556,-237.5 383,-237.5"/>
<polygon fill="#000000" stroke="#000000" points="253.0553,-486.4494 262.5272,-491.9751 258.0277,-486.9747 263,-487.5 263,-487.5 263,-487.5 258.0277,-486.9747 263.4728,-483.0249 253.0553,-486.4494 253.0553,-486.4494"/>
<text text-anchor="start" x="7.0015" y="-497.5" font-family="Arial" font-size="10.00" fill="#000000">FOREIGN KEY (subscriber_id) REFERENCES users(id)</text>
</g>
<!-- public.channels -->
<g id="node3" class="node">
<title>public.channels</title>
<polygon fill="#efefef" stroke="transparent" points="487,-222.5 487,-257.5 736,-257.5 736,-222.5 487,-222.5"/>
<polygon fill="none" stroke="#000000" points="487,-222.5 487,-257.5 736,-257.5 736,-222.5 487,-222.5"/>
<text text-anchor="start" x="500.8559" y="-235.3" font-family="Arial Bold" font-size="18.00" fill="#000000">public.channels</text>
<text text-anchor="start" x="624.8903" y="-235.3" font-family="Arial" font-size="14.00" fill="#000000"> </text>
<text text-anchor="start" x="628.7809" y="-235.3" font-family="Arial" font-size="14.00" fill="#666666">[BASE TABLE]</text>
<polygon fill="none" stroke="#000000" points="487,-192.5 487,-222.5 736,-222.5 736,-192.5 487,-192.5"/>
<text text-anchor="start" x="494" y="-203.9" font-family="Arial" font-size="14.00" fill="#000000">id </text>
<text text-anchor="start" x="508.7798" y="-203.9" font-family="Arial" font-size="14.00" fill="#666666">[uuid]</text>
<polygon fill="none" stroke="#000000" points="487,-162.5 487,-192.5 736,-192.5 736,-162.5 487,-162.5"/>
<text text-anchor="start" x="494" y="-173.9" font-family="Arial" font-size="14.00" fill="#000000">name </text>
<text text-anchor="start" x="532.899" y="-173.9" font-family="Arial" font-size="14.00" fill="#666666">[varchar]</text>
<polygon fill="none" stroke="#000000" points="487,-132.5 487,-162.5 736,-162.5 736,-132.5 487,-132.5"/>
<text text-anchor="start" x="494" y="-143.9" font-family="Arial" font-size="14.00" fill="#000000">description </text>
<text text-anchor="start" x="565.568" y="-143.9" font-family="Arial" font-size="14.00" fill="#666666">[text]</text>
<polygon fill="none" stroke="#000000" points="487,-102.5 487,-132.5 736,-132.5 736,-102.5 487,-102.5"/>
<text text-anchor="start" x="494" y="-113.9" font-family="Arial" font-size="14.00" fill="#000000">user_id </text>
<text text-anchor="start" x="543.7882" y="-113.9" font-family="Arial" font-size="14.00" fill="#666666">[uuid]</text>
<polygon fill="none" stroke="#000000" points="487,-72.5 487,-102.5 736,-102.5 736,-72.5 487,-72.5"/>
<text text-anchor="start" x="493.6438" y="-83.9" font-family="Arial" font-size="14.00" fill="#000000">created_at </text>
<text text-anchor="start" x="563.6718" y="-83.9" font-family="Arial" font-size="14.00" fill="#666666">[timestamp with time zone]</text>
</g>
<!-- public.channel_subscriptions&#45;&gt;public.channels -->
<g id="edge2" class="edge">
<title>public.channel_subscriptions:channel_id&#45;&gt;public.channels:id</title>
<path fill="none" stroke="#000000" d="M614.1184,-455.976C640.3249,-446.8085 622.304,-398.3407 604,-367 573.8906,-315.4455 517.1094,-352.5545 487,-301 466.0427,-265.1161 445.4444,-207.5 487,-207.5"/>
<polygon fill="#000000" stroke="#000000" points="613.8885,-456.0106 603.3297,-453.0502 608.9442,-456.7553 604,-457.5 604,-457.5 604,-457.5 608.9442,-456.7553 604.6703,-461.9498 613.8885,-456.0106 613.8885,-456.0106"/>
<text text-anchor="start" x="610.7675" y="-467.5" font-family="Arial" font-size="10.00" fill="#000000">FOREIGN KEY (channel_id) REFERENCES channels(id)</text>
</g>
</g>
</svg>
