<?xml version="1.0" encoding="UTF-8" standalone="no"?>
<!DOCTYPE svg PUBLIC "-//W3C//DTD SVG 1.1//EN"
 "http://www.w3.org/Graphics/SVG/1.1/DTD/svg11.dtd">
<!-- Generated by graphviz version 2.40.1 (20161225.0304)
 -->
<!-- Title: public.play_list_names Pages: 1 -->
<svg width="851pt" height="989pt"
 viewBox="0.00 0.00 851.00 989.00" xmlns="http://www.w3.org/2000/svg" xmlns:xlink="http://www.w3.org/1999/xlink">
<g id="graph0" class="graph" transform="scale(1 1) rotate(0) translate(4 985)">
<title>public.play_list_names</title>
<polygon fill="#ffffff" stroke="transparent" points="-4,4 -4,-985 847,-985 847,4 -4,4"/>
<!-- public.play_list_names -->
<g id="node1" class="node">
<title>public.play_list_names</title>
<polygon fill="#efefef" stroke="transparent" points="237,-622.5 237,-657.5 529,-657.5 529,-622.5 237,-622.5"/>
<polygon fill="none" stroke="#000000" points="237,-622.5 237,-657.5 529,-657.5 529,-622.5 237,-622.5"/>
<text text-anchor="start" x="243.8583" y="-635.3" font-family="Arial Bold" font-size="18.00" fill="#000000">public.play_list_names</text>
<text text-anchor="start" x="424.8879" y="-635.3" font-family="Arial" font-size="14.00" fill="#000000"> </text>
<text text-anchor="start" x="428.7785" y="-635.3" font-family="Arial" font-size="14.00" fill="#666666">[BASE TABLE]</text>
<polygon fill="none" stroke="#000000" points="237,-592.5 237,-622.5 529,-622.5 529,-592.5 237,-592.5"/>
<text text-anchor="start" x="244" y="-603.9" font-family="Arial" font-size="14.00" fill="#000000">id </text>
<text text-anchor="start" x="258.7798" y="-603.9" font-family="Arial" font-size="14.00" fill="#666666">[bigint]</text>
<polygon fill="none" stroke="#000000" points="237,-562.5 237,-592.5 529,-592.5 529,-562.5 237,-562.5"/>
<text text-anchor="start" x="244" y="-573.9" font-family="Arial" font-size="14.00" fill="#000000">name </text>
<text text-anchor="start" x="282.899" y="-573.9" font-family="Arial" font-size="14.00" fill="#666666">[varchar]</text>
<polygon fill="none" stroke="#000000" points="237,-532.5 237,-562.5 529,-562.5 529,-532.5 237,-532.5"/>
<text text-anchor="start" x="244" y="-543.9" font-family="Arial" font-size="14.00" fill="#000000">user_id </text>
<text text-anchor="start" x="293.7882" y="-543.9" font-family="Arial" font-size="14.00" fill="#666666">[uuid]</text>
<polygon fill="none" stroke="#000000" points="237,-502.5 237,-532.5 529,-532.5 529,-502.5 237,-502.5"/>
<text text-anchor="start" x="244" y="-513.9" font-family="Arial" font-size="14.00" fill="#000000">video_count </text>
<text text-anchor="start" x="323.366" y="-513.9" font-family="Arial" font-size="14.00" fill="#666666">[bigint]</text>
<polygon fill="none" stroke="#000000" points="237,-472.5 237,-502.5 529,-502.5 529,-472.5 237,-472.5"/>
<text text-anchor="start" x="244" y="-483.9" font-family="Arial" font-size="14.00" fill="#000000">created_at </text>
<text text-anchor="start" x="314.028" y="-483.9" font-family="Arial" font-size="14.00" fill="#666666">[timestamp with time zone]</text>
<polygon fill="none" stroke="#000000" stroke-width="3" points="235.5,-471.5 235.5,-659.5 530.5,-659.5 530.5,-471.5 235.5,-471.5"/>
</g>
<!-- public.users -->
<g id="node3" class="node">
<title>public.users</title>
<polygon fill="#efefef" stroke="transparent" points="256,-312.5 256,-347.5 509,-347.5 509,-312.5 256,-312.5"/>
<polygon fill="none" stroke="#000000" points="256,-312.5 256,-347.5 509,-347.5 509,-312.5 256,-312.5"/>
<text text-anchor="start" x="285.8662" y="-325.3" font-family="Arial Bold" font-size="18.00" fill="#000000">public.users</text>
<text text-anchor="start" x="381.88" y="-325.3" font-family="Arial" font-size="14.00" fill="#000000"> </text>
<text text-anchor="start" x="385.7706" y="-325.3" font-family="Arial" font-size="14.00" fill="#666666">[BASE TABLE]</text>
<polygon fill="none" stroke="#000000" points="256,-282.5 256,-312.5 509,-312.5 509,-282.5 256,-282.5"/>
<text text-anchor="start" x="263" y="-293.9" font-family="Arial" font-size="14.00" fill="#000000">id </text>
<text text-anchor="start" x="277.7798" y="-293.9" font-family="Arial" font-size="14.00" fill="#666666">[uuid]</text>
<polygon fill="none" stroke="#000000" points="256,-252.5 256,-282.5 509,-282.5 509,-252.5 256,-252.5"/>
<text text-anchor="start" x="263" y="-263.9" font-family="Arial" font-size="14.00" fill="#000000">email </text>
<text text-anchor="start" x="300.3296" y="-263.9" font-family="Arial" font-size="14.00" fill="#666666">[citext]</text>
<polygon fill="none" stroke="#000000" points="256,-222.5 256,-252.5 509,-252.5 509,-222.5 256,-222.5"/>
<text text-anchor="start" x="263" y="-233.9" font-family="Arial" font-size="14.00" fill="#000000">phone </text>
<text text-anchor="start" x="305.8036" y="-233.9" font-family="Arial" font-size="14.00" fill="#666666">[varchar]</text>
<polygon fill="none" stroke="#000000" points="256,-192.5 256,-222.5 509,-222.5 509,-192.5 256,-192.5"/>
<text text-anchor="start" x="263" y="-203.9" font-family="Arial" font-size="14.00" fill="#000000">name </text>
<text text-anchor="start" x="301.899" y="-203.9" font-family="Arial" font-size="14.00" fill="#666666">[varchar]</text>
<polygon fill="none" stroke="#000000" points="256,-162.5 256,-192.5 509,-192.5 509,-162.5 256,-162.5"/>
<text text-anchor="start" x="263" y="-173.9" font-family="Arial" font-size="14.00" fill="#000000">channel_name </text>
<text text-anchor="start" x="358.7012" y="-173.9" font-family="Arial" font-size="14.00" fill="#666666">[varchar]</text>
<polygon fill="none" stroke="#000000" points="256,-132.5 256,-162.5 509,-162.5 509,-132.5 256,-132.5"/>
<text text-anchor="start" x="263" y="-143.9" font-family="Arial" font-size="14.00" fill="#000000">description </text>
<text text-anchor="start" x="334.568" y="-143.9" font-family="Arial" font-size="14.00" fill="#666666">[text]</text>
<polygon fill="none" stroke="#000000" points="256,-102.5 256,-132.5 509,-132.5 509,-102.5 256,-102.5"/>
<text text-anchor="start" x="263" y="-113.9" font-family="Arial" font-size="14.00" fill="#000000">subscriber_count </text>
<text text-anchor="start" x="373.4698" y="-113.9" font-family="Arial" font-size="14.00" fill="#666666">[integer]</text>
<polygon fill="none" stroke="#000000" points="256,-72.5 256,-102.5 509,-102.5 509,-72.5 256,-72.5"/>
<text text-anchor="start" x="263" y="-83.9" font-family="Arial" font-size="14.00" fill="#000000">created_at </text>
<text text-anchor="start" x="333.028" y="-83.9" font-family="Arial" font-size="14.00" fill="#666666">[timestamp with time zone]</text>
<polygon fill="none" stroke="#000000" points="256,-42.5 256,-72.5 509,-72.5 509,-42.5 256,-42.5"/>
<text text-anchor="start" x="262.6915" y="-53.9" font-family="Arial" font-size="14.00" fill="#000000">updated_at </text>
<text text-anchor="start" x="336.6241" y="-53.9" font-family="Arial" font-size="14.00" fill="#666666">[timestamp with time zone]</text>
</g>
<!-- public.play_list_names&#45;&gt;public.users -->
<g id="edge2" class="edge">
<title>public.play_list_names:user_id&#45;&gt;public.users:id</title>
<path fill="none" stroke="#000000" d="M227.0062,-546.4137C186.0203,-536.7187 204.1152,-464.524 237,-427 317.3711,-335.2906 428.6289,-482.7094 509,-391 536.3887,-359.7474 550.5556,-297.5 509,-297.5"/>
<polygon fill="#000000" stroke="#000000" points="227.0586,-546.4193 236.5137,-551.9737 232.0293,-546.9597 237,-547.5 237,-547.5 237,-547.5 232.0293,-546.9597 237.4863,-543.0263 227.0586,-546.4193 227.0586,-546.4193"/>
<text text-anchor="start" x="7.3345" y="-557.5" font-family="Arial" font-size="10.00" fill="#000000">FOREIGN KEY (user_id) REFERENCES users(id)</text>
</g>
<!-- public.play_lists -->
<g id="node2" class="node">
<title>public.play_lists</title>
<polygon fill="#efefef" stroke="transparent" points="258,-902.5 258,-937.5 507,-937.5 507,-902.5 258,-902.5"/>
<polygon fill="none" stroke="#000000" points="258,-902.5 258,-937.5 507,-937.5 507,-902.5 258,-902.5"/>
<text text-anchor="start" x="270.8668" y="-915.3" font-family="Arial Bold" font-size="18.00" fill="#000000">public.play_lists</text>
<text text-anchor="start" x="396.8794" y="-915.3" font-family="Arial" font-size="14.00" fill="#000000"> </text>
<text text-anchor="start" x="400.77" y="-915.3" font-family="Arial" font-size="14.00" fill="#666666">[BASE TABLE]</text>
<polygon fill="none" stroke="#000000" points="258,-872.5 258,-902.5 507,-902.5 507,-872.5 258,-872.5"/>
<text text-anchor="start" x="265" y="-883.9" font-family="Arial" font-size="14.00" fill="#000000">id </text>
<text text-anchor="start" x="279.7798" y="-883.9" font-family="Arial" font-size="14.00" fill="#666666">[uuid]</text>
<polygon fill="none" stroke="#000000" points="258,-842.5 258,-872.5 507,-872.5 507,-842.5 258,-842.5"/>
<text text-anchor="start" x="265" y="-853.9" font-family="Arial" font-size="14.00" fill="#000000">play_list_names_id </text>
<text text-anchor="start" x="387.9116" y="-853.9" font-family="Arial" font-size="14.00" fill="#666666">[bigint]</text>
<polygon fill="none" stroke="#000000" points="258,-812.5 258,-842.5 507,-842.5 507,-812.5 258,-812.5"/>
<text text-anchor="start" x="265" y="-823.9" font-family="Arial" font-size="14.00" fill="#000000">video_id </text>
<text text-anchor="start" x="321.0168" y="-823.9" font-family="Arial" font-size="14.00" fill="#666666">[uuid]</text>
<polygon fill="none" stroke="#000000" points="258,-782.5 258,-812.5 507,-812.5 507,-782.5 258,-782.5"/>
<text text-anchor="start" x="264.6438" y="-793.9" font-family="Arial" font-size="14.00" fill="#000000">created_at </text>
<text text-anchor="start" x="334.6718" y="-793.9" font-family="Arial" font-size="14.00" fill="#666666">[timestamp with time zone]</text>
</g>
<!-- public.play_lists&#45;&gt;public.play_list_names -->
<g id="edge1" class="edge">
<title>public.play_lists:play_list_names_id&#45;&gt;public.play_list_names:id</title>
<path fill="none" stroke="#000000" d="M516.9953,-856.3808C556.634,-846.6943 538.9813,-776.5285 507,-740 427.2535,-648.9149 316.7465,-795.0851 237,-704 208.748,-671.7311 194.1111,-607.5 237,-607.5"/>
<polygon fill="#000000" stroke="#000000" points="516.9379,-856.3871 506.4992,-853.0279 511.9689,-856.9436 507,-857.5 507,-857.5 507,-857.5 511.9689,-856.9436 507.5008,-861.9721 516.9379,-856.3871 516.9379,-856.3871"/>
<text text-anchor="start" x="513.6035" y="-867.5" font-family="Arial" font-size="10.00" fill="#000000">FOREIGN KEY (play_list_names_id) REFERENCES play_list_names(id)</text>
</g>
</g>
</svg>
