<?xml version="1.0" encoding="UTF-8" standalone="no"?>
<!DOCTYPE svg PUBLIC "-//W3C//DTD SVG 1.1//EN"
 "http://www.w3.org/Graphics/SVG/1.1/DTD/svg11.dtd">
<!-- Generated by graphviz version 2.40.1 (20161225.0304)
 -->
<!-- Title: public.channel_subscriptions Pages: 1 -->
<svg width="658pt" height="652pt"
 viewBox="0.00 0.00 657.50 652.00" xmlns="http://www.w3.org/2000/svg" xmlns:xlink="http://www.w3.org/1999/xlink">
<g id="graph0" class="graph" transform="scale(1 1) rotate(0) translate(4 648)">
<title>public.channel_subscriptions</title>
<polygon fill="#ffffff" stroke="transparent" points="-4,4 -4,-648 653.5,-648 653.5,4 -4,4"/>
<!-- public.channel_subscriptions -->
<g id="node1" class="node">
<title>public.channel_subscriptions</title>
<polygon fill="#efefef" stroke="transparent" points="263,-562.5 263,-597.5 604,-597.5 604,-562.5 263,-562.5"/>
<polygon fill="none" stroke="#000000" points="263,-562.5 263,-597.5 604,-597.5 604,-562.5 263,-562.5"/>
<text text-anchor="start" x="269.8459" y="-575.3" font-family="Arial Bold" font-size="18.00" fill="#000000">public.channel_subscriptions</text>
<text text-anchor="start" x="499.9003" y="-575.3" font-family="Arial" font-size="14.00" fill="#000000"> </text>
<text text-anchor="start" x="503.7909" y="-575.3" font-family="Arial" font-size="14.00" fill="#666666">[BASE TABLE]</text>
<polygon fill="none" stroke="#000000" points="263,-532.5 263,-562.5 604,-562.5 604,-532.5 263,-532.5"/>
<text text-anchor="start" x="270" y="-543.9" font-family="Arial" font-size="14.00" fill="#000000">subscriber_id </text>
<text text-anchor="start" x="357.1206" y="-543.9" font-family="Arial" font-size="14.00" fill="#666666">[uuid]</text>
<polygon fill="none" stroke="#000000" points="263,-502.5 263,-532.5 604,-532.5 604,-502.5 263,-502.5"/>
<text text-anchor="start" x="270" y="-513.9" font-family="Arial" font-size="14.00" fill="#000000">channel_id </text>
<text text-anchor="start" x="341.582" y="-513.9" font-family="Arial" font-size="14.00" fill="#666666">[uuid]</text>
<polygon fill="none" stroke="#000000" points="263,-472.5 263,-502.5 604,-502.5 604,-472.5 263,-472.5"/>
<text text-anchor="start" x="270" y="-483.9" font-family="Arial" font-size="14.00" fill="#000000">created_at </text>
<text text-anchor="start" x="340.028" y="-483.9" font-family="Arial" font-size="14.00" fill="#666666">[timestamp with time zone]</text>
<polygon fill="none" stroke="#000000" stroke-width="3" points="261,-471.5 261,-599.5 605,-599.5 605,-471.5 261,-471.5"/>
</g>
<!-- public.users -->
<g id="node2" class="node">
<title>public.users</title>
<polygon fill="#efefef" stroke="transparent" points="307,-312.5 307,-347.5 560,-347.5 560,-312.5 307,-312.5"/>
<polygon fill="none" stroke="#000000" points="307,-312.5 307,-347.5 560,-347.5 560,-312.5 307,-312.5"/>
<text text-anchor="start" x="336.8662" y="-325.3" font-family="Arial Bold" font-size="18.00" fill="#000000">public.users</text>
<text text-anchor="start" x="432.88" y="-325.3" font-family="Arial" font-size="14.00" fill="#000000"> </text>
<text text-anchor="start" x="436.7706" y="-325.3" font-family="Arial" font-size="14.00" fill="#666666">[BASE TABLE]</text>
<polygon fill="none" stroke="#000000" points="307,-282.5 307,-312.5 560,-312.5 560,-282.5 307,-282.5"/>
<text text-anchor="start" x="314" y="-293.9" font-family="Arial" font-size="14.00" fill="#000000">id </text>
<text text-anchor="start" x="328.7798" y="-293.9" font-family="Arial" font-size="14.00" fill="#666666">[uuid]</text>
<polygon fill="none" stroke="#000000" points="307,-252.5 307,-282.5 560,-282.5 560,-252.5 307,-252.5"/>
<text text-anchor="start" x="314" y="-263.9" font-family="Arial" font-size="14.00" fill="#000000">email </text>
<text text-anchor="start" x="351.3296" y="-263.9" font-family="Arial" font-size="14.00" fill="#666666">[citext]</text>
<polygon fill="none" stroke="#000000" points="307,-222.5 307,-252.5 560,-252.5 560,-222.5 307,-222.5"/>
<text text-anchor="start" x="314" y="-233.9" font-family="Arial" font-size="14.00" fill="#000000">phone </text>
<text text-anchor="start" x="356.8036" y="-233.9" font-family="Arial" font-size="14.00" fill="#666666">[varchar]</text>
<polygon fill="none" stroke="#000000" points="307,-192.5 307,-222.5 560,-222.5 560,-192.5 307,-192.5"/>
<text text-anchor="start" x="314" y="-203.9" font-family="Arial" font-size="14.00" fill="#000000">name </text>
<text text-anchor="start" x="352.899" y="-203.9" font-family="Arial" font-size="14.00" fill="#666666">[varchar]</text>
<polygon fill="none" stroke="#000000" points="307,-162.5 307,-192.5 560,-192.5 560,-162.5 307,-162.5"/>
<text text-anchor="start" x="314" y="-173.9" font-family="Arial" font-size="14.00" fill="#000000">channel_name </text>
<text text-anchor="start" x="409.7012" y="-173.9" font-family="Arial" font-size="14.00" fill="#666666">[varchar]</text>
<polygon fill="none" stroke="#000000" points="307,-132.5 307,-162.5 560,-162.5 560,-132.5 307,-132.5"/>
<text text-anchor="start" x="314" y="-143.9" font-family="Arial" font-size="14.00" fill="#000000">description </text>
<text text-anchor="start" x="385.568" y="-143.9" font-family="Arial" font-size="14.00" fill="#666666">[text]</text>
<polygon fill="none" stroke="#000000" points="307,-102.5 307,-132.5 560,-132.5 560,-102.5 307,-102.5"/>
<text text-anchor="start" x="314" y="-113.9" font-family="Arial" font-size="14.00" fill="#000000">subscriber_count </text>
<text text-anchor="start" x="424.4698" y="-113.9" font-family="Arial" font-size="14.00" fill="#666666">[integer]</text>
<polygon fill="none" stroke="#000000" points="307,-72.5 307,-102.5 560,-102.5 560,-72.5 307,-72.5"/>
<text text-anchor="start" x="314" y="-83.9" font-family="Arial" font-size="14.00" fill="#000000">created_at </text>
<text text-anchor="start" x="384.028" y="-83.9" font-family="Arial" font-size="14.00" fill="#666666">[timestamp with time zone]</text>
<polygon fill="none" stroke="#000000" points="307,-42.5 307,-72.5 560,-72.5 560,-42.5 307,-42.5"/>
<text text-anchor="start" x="313.6915" y="-53.9" font-family="Arial" font-size="14.00" fill="#000000">updated_at </text>
<text text-anchor="start" x="387.6241" y="-53.9" font-family="Arial" font-size="14.00" fill="#666666">[timestamp with time zone]</text>
</g>
<!-- public.channel_subscriptions&#45;&gt;public.users -->
<g id="edge1" class="edge">
<title>public.channel_subscriptions:subscriber_id&#45;&gt;public.users:id</title>
<path fill="none" stroke="#000000" d="M252.88,-546.7828C152.9983,-532.1191 197.7067,-297.5 307,-297.5"/>
<polygon fill="#000000" stroke="#000000" points="253.025,-546.793 262.6819,-551.9887 258.0125,-547.1465 263,-547.5 263,-547.5 263,-547.5 258.0125,-547.1465 263.3181,-543.0113 253.025,-546.793 253.025,-546.793"/>
<text text-anchor="start" x="7.0015" y="-557.5" font-family="Arial" font-size="10.00" fill="#000000">FOREIGN KEY (subscriber_id) REFERENCES users(id)</text>
</g>
<!-- public.channel_subscriptions&#45;&gt;public.users -->
<g id="edge2" class="edge">
<title>public.channel_subscriptions:channel_id&#45;&gt;public.users:id</title>
<path fill="none" stroke="#000000" d="M253.0123,-516.7034C166.4485,-502.3032 210.7914,-297.5 307,-297.5"/>
<polygon fill="#000000" stroke="#000000" points="253.0317,-516.7048 262.6422,-521.9858 258.0158,-517.1024 263,-517.5 263,-517.5 263,-517.5 258.0158,-517.1024 263.3578,-513.0142 253.0317,-516.7048 253.0317,-516.7048"/>
<text text-anchor="start" x="17.551" y="-527.5" font-family="Arial" font-size="10.00" fill="#000000">FOREIGN KEY (channel_id) REFERENCES users(id)</text>
</g>
</g>
</svg>
