<?xml version="1.0" encoding="UTF-8" standalone="no"?>
<!DOCTYPE svg PUBLIC "-//W3C//DTD SVG 1.1//EN"
 "http://www.w3.org/Graphics/SVG/1.1/DTD/svg11.dtd">
<!-- Generated by graphviz version 2.40.1 (20161225.0304)
 -->
<!-- Title: my_app_db Pages: 1 -->
<svg width="1560pt" height="1410pt"
 viewBox="0.00 0.00 1559.50 1410.00" xmlns="http://www.w3.org/2000/svg" xmlns:xlink="http://www.w3.org/1999/xlink">
<g id="graph0" class="graph" transform="scale(1 1) rotate(0) translate(4 1406)">
<title>my_app_db</title>
<polygon fill="#ffffff" stroke="transparent" points="-4,4 -4,-1406 1555.5,-1406 1555.5,4 -4,4"/>
<!-- public.schema_migrations -->
<g id="node1" class="node">
<title>public.schema_migrations</title>
<polygon fill="#efefef" stroke="transparent" points="43.5,-1278.5 43.5,-1313.5 362.5,-1313.5 362.5,-1278.5 43.5,-1278.5"/>
<polygon fill="none" stroke="#000000" points="43.5,-1278.5 43.5,-1313.5 362.5,-1313.5 362.5,-1278.5 43.5,-1278.5"/>
<text text-anchor="start" x="50.3601" y="-1291.3" font-family="Arial Bold" font-size="18.00" fill="#000000">public.schema_migrations</text>
<text text-anchor="start" x="258.3861" y="-1291.3" font-family="Arial" font-size="14.00" fill="#000000"> </text>
<text text-anchor="start" x="262.2767" y="-1291.3" font-family="Arial" font-size="14.00" fill="#666666">[BASE TABLE]</text>
<polygon fill="none" stroke="#000000" points="43.5,-1248.5 43.5,-1278.5 362.5,-1278.5 362.5,-1248.5 43.5,-1248.5"/>
<text text-anchor="start" x="50.5" y="-1259.9" font-family="Arial" font-size="14.00" fill="#000000">version </text>
<text text-anchor="start" x="99.5056" y="-1259.9" font-family="Arial" font-size="14.00" fill="#666666">[varchar(255)]</text>
</g>
<!-- public.users -->
<g id="node2" class="node">
<title>public.users</title>
<polygon fill="#efefef" stroke="transparent" points="775.5,-252.5 775.5,-287.5 1028.5,-287.5 1028.5,-252.5 775.5,-252.5"/>
<polygon fill="none" stroke="#000000" points="775.5,-252.5 775.5,-287.5 1028.5,-287.5 1028.5,-252.5 775.5,-252.5"/>
<text text-anchor="start" x="805.3662" y="-265.3" font-family="Arial Bold" font-size="18.00" fill="#000000">public.users</text>
<text text-anchor="start" x="901.38" y="-265.3" font-family="Arial" font-size="14.00" fill="#000000"> </text>
<text text-anchor="start" x="905.2706" y="-265.3" font-family="Arial" font-size="14.00" fill="#666666">[BASE TABLE]</text>
<polygon fill="none" stroke="#000000" points="775.5,-222.5 775.5,-252.5 1028.5,-252.5 1028.5,-222.5 775.5,-222.5"/>
<text text-anchor="start" x="782.5" y="-233.9" font-family="Arial" font-size="14.00" fill="#000000">id </text>
<text text-anchor="start" x="797.2798" y="-233.9" font-family="Arial" font-size="14.00" fill="#666666">[uuid]</text>
<polygon fill="none" stroke="#000000" points="775.5,-192.5 775.5,-222.5 1028.5,-222.5 1028.5,-192.5 775.5,-192.5"/>
<text text-anchor="start" x="782.5" y="-203.9" font-family="Arial" font-size="14.00" fill="#000000">email </text>
<text text-anchor="start" x="819.8296" y="-203.9" font-family="Arial" font-size="14.00" fill="#666666">[citext]</text>
<polygon fill="none" stroke="#000000" points="775.5,-162.5 775.5,-192.5 1028.5,-192.5 1028.5,-162.5 775.5,-162.5"/>
<text text-anchor="start" x="782.5" y="-173.9" font-family="Arial" font-size="14.00" fill="#000000">phone </text>
<text text-anchor="start" x="825.3036" y="-173.9" font-family="Arial" font-size="14.00" fill="#666666">[varchar]</text>
<polygon fill="none" stroke="#000000" points="775.5,-132.5 775.5,-162.5 1028.5,-162.5 1028.5,-132.5 775.5,-132.5"/>
<text text-anchor="start" x="782.5" y="-143.9" font-family="Arial" font-size="14.00" fill="#000000">name </text>
<text text-anchor="start" x="821.399" y="-143.9" font-family="Arial" font-size="14.00" fill="#666666">[varchar]</text>
<polygon fill="none" stroke="#000000" points="775.5,-102.5 775.5,-132.5 1028.5,-132.5 1028.5,-102.5 775.5,-102.5"/>
<text text-anchor="start" x="782.5" y="-113.9" font-family="Arial" font-size="14.00" fill="#000000">channel_name </text>
<text text-anchor="start" x="878.2012" y="-113.9" font-family="Arial" font-size="14.00" fill="#666666">[varchar]</text>
<polygon fill="none" stroke="#000000" points="775.5,-72.5 775.5,-102.5 1028.5,-102.5 1028.5,-72.5 775.5,-72.5"/>
<text text-anchor="start" x="782.5" y="-83.9" font-family="Arial" font-size="14.00" fill="#000000">created_at </text>
<text text-anchor="start" x="852.528" y="-83.9" font-family="Arial" font-size="14.00" fill="#666666">[timestamp with time zone]</text>
<polygon fill="none" stroke="#000000" points="775.5,-42.5 775.5,-72.5 1028.5,-72.5 1028.5,-42.5 775.5,-42.5"/>
<text text-anchor="start" x="782.1915" y="-53.9" font-family="Arial" font-size="14.00" fill="#000000">updated_at </text>
<text text-anchor="start" x="856.1241" y="-53.9" font-family="Arial" font-size="14.00" fill="#666666">[timestamp with time zone]</text>
</g>
<!-- public.channels -->
<g id="node3" class="node">
<title>public.channels</title>
<polygon fill="#efefef" stroke="transparent" points="777.5,-559.5 777.5,-594.5 1026.5,-594.5 1026.5,-559.5 777.5,-559.5"/>
<polygon fill="none" stroke="#000000" points="777.5,-559.5 777.5,-594.5 1026.5,-594.5 1026.5,-559.5 777.5,-559.5"/>
<text text-anchor="start" x="791.3559" y="-572.3" font-family="Arial Bold" font-size="18.00" fill="#000000">public.channels</text>
<text text-anchor="start" x="915.3903" y="-572.3" font-family="Arial" font-size="14.00" fill="#000000"> </text>
<text text-anchor="start" x="919.2809" y="-572.3" font-family="Arial" font-size="14.00" fill="#666666">[BASE TABLE]</text>
<polygon fill="none" stroke="#000000" points="777.5,-529.5 777.5,-559.5 1026.5,-559.5 1026.5,-529.5 777.5,-529.5"/>
<text text-anchor="start" x="784.5" y="-540.9" font-family="Arial" font-size="14.00" fill="#000000">id </text>
<text text-anchor="start" x="799.2798" y="-540.9" font-family="Arial" font-size="14.00" fill="#666666">[uuid]</text>
<polygon fill="none" stroke="#000000" points="777.5,-499.5 777.5,-529.5 1026.5,-529.5 1026.5,-499.5 777.5,-499.5"/>
<text text-anchor="start" x="784.5" y="-510.9" font-family="Arial" font-size="14.00" fill="#000000">name </text>
<text text-anchor="start" x="823.399" y="-510.9" font-family="Arial" font-size="14.00" fill="#666666">[varchar]</text>
<polygon fill="none" stroke="#000000" points="777.5,-469.5 777.5,-499.5 1026.5,-499.5 1026.5,-469.5 777.5,-469.5"/>
<text text-anchor="start" x="784.5" y="-480.9" font-family="Arial" font-size="14.00" fill="#000000">description </text>
<text text-anchor="start" x="856.068" y="-480.9" font-family="Arial" font-size="14.00" fill="#666666">[text]</text>
<polygon fill="none" stroke="#000000" points="777.5,-439.5 777.5,-469.5 1026.5,-469.5 1026.5,-439.5 777.5,-439.5"/>
<text text-anchor="start" x="784.5" y="-450.9" font-family="Arial" font-size="14.00" fill="#000000">user_id </text>
<text text-anchor="start" x="834.2882" y="-450.9" font-family="Arial" font-size="14.00" fill="#666666">[uuid]</text>
<polygon fill="none" stroke="#000000" points="777.5,-409.5 777.5,-439.5 1026.5,-439.5 1026.5,-409.5 777.5,-409.5"/>
<text text-anchor="start" x="784.1438" y="-420.9" font-family="Arial" font-size="14.00" fill="#000000">created_at </text>
<text text-anchor="start" x="854.1718" y="-420.9" font-family="Arial" font-size="14.00" fill="#666666">[timestamp with time zone]</text>
</g>
<!-- public.channels&#45;&gt;public.users -->
<g id="edge1" class="edge">
<title>public.channels:user_id&#45;&gt;public.users:id</title>
<path fill="none" stroke="#000000" d="M767.5281,-451.0914C729.2555,-423.4844 730.8549,-237.5 775.5,-237.5"/>
<polygon fill="#000000" stroke="#000000" points="768.0375,-451.2655 776.0445,-458.7581 772.7688,-452.8828 777.5,-454.5 777.5,-454.5 777.5,-454.5 772.7688,-452.8828 778.9555,-450.2419 768.0375,-451.2655 768.0375,-451.2655"/>
<text text-anchor="start" x="547.8345" y="-464.5" font-family="Arial" font-size="10.00" fill="#000000">FOREIGN KEY (user_id) REFERENCES users(id)</text>
</g>
<!-- public.videos -->
<g id="node4" class="node">
<title>public.videos</title>
<polygon fill="#efefef" stroke="transparent" points="566.5,-1046.5 566.5,-1081.5 819.5,-1081.5 819.5,-1046.5 566.5,-1046.5"/>
<polygon fill="none" stroke="#000000" points="566.5,-1046.5 566.5,-1081.5 819.5,-1081.5 819.5,-1046.5 566.5,-1046.5"/>
<text text-anchor="start" x="592.3621" y="-1059.3" font-family="Arial Bold" font-size="18.00" fill="#000000">public.videos</text>
<text text-anchor="start" x="696.3841" y="-1059.3" font-family="Arial" font-size="14.00" fill="#000000"> </text>
<text text-anchor="start" x="700.2747" y="-1059.3" font-family="Arial" font-size="14.00" fill="#666666">[BASE TABLE]</text>
<polygon fill="none" stroke="#000000" points="566.5,-1016.5 566.5,-1046.5 819.5,-1046.5 819.5,-1016.5 566.5,-1016.5"/>
<text text-anchor="start" x="573.5" y="-1027.9" font-family="Arial" font-size="14.00" fill="#000000">id </text>
<text text-anchor="start" x="588.2798" y="-1027.9" font-family="Arial" font-size="14.00" fill="#666666">[uuid]</text>
<polygon fill="none" stroke="#000000" points="566.5,-986.5 566.5,-1016.5 819.5,-1016.5 819.5,-986.5 566.5,-986.5"/>
<text text-anchor="start" x="573.5" y="-997.9" font-family="Arial" font-size="14.00" fill="#000000">title </text>
<text text-anchor="start" x="599.1676" y="-997.9" font-family="Arial" font-size="14.00" fill="#666666">[varchar]</text>
<polygon fill="none" stroke="#000000" points="566.5,-956.5 566.5,-986.5 819.5,-986.5 819.5,-956.5 566.5,-956.5"/>
<text text-anchor="start" x="573.5" y="-967.9" font-family="Arial" font-size="14.00" fill="#000000">description </text>
<text text-anchor="start" x="645.068" y="-967.9" font-family="Arial" font-size="14.00" fill="#666666">[text]</text>
<polygon fill="none" stroke="#000000" points="566.5,-926.5 566.5,-956.5 819.5,-956.5 819.5,-926.5 566.5,-926.5"/>
<text text-anchor="start" x="573.5" y="-937.9" font-family="Arial" font-size="14.00" fill="#000000">category </text>
<text text-anchor="start" x="631.0722" y="-937.9" font-family="Arial" font-size="14.00" fill="#666666">[category_types]</text>
<polygon fill="none" stroke="#000000" points="566.5,-896.5 566.5,-926.5 819.5,-926.5 819.5,-896.5 566.5,-896.5"/>
<text text-anchor="start" x="573.5" y="-907.9" font-family="Arial" font-size="14.00" fill="#000000">views </text>
<text text-anchor="start" x="612.3864" y="-907.9" font-family="Arial" font-size="14.00" fill="#666666">[integer]</text>
<polygon fill="none" stroke="#000000" points="566.5,-866.5 566.5,-896.5 819.5,-896.5 819.5,-866.5 566.5,-866.5"/>
<text text-anchor="start" x="573.5" y="-877.9" font-family="Arial" font-size="14.00" fill="#000000">thumbnail </text>
<text text-anchor="start" x="638.068" y="-877.9" font-family="Arial" font-size="14.00" fill="#666666">[varchar]</text>
<polygon fill="none" stroke="#000000" points="566.5,-836.5 566.5,-866.5 819.5,-866.5 819.5,-836.5 566.5,-836.5"/>
<text text-anchor="start" x="573.5" y="-847.9" font-family="Arial" font-size="14.00" fill="#000000">stream_url </text>
<text text-anchor="start" x="643.5" y="-847.9" font-family="Arial" font-size="14.00" fill="#666666">[varchar]</text>
<polygon fill="none" stroke="#000000" points="566.5,-806.5 566.5,-836.5 819.5,-836.5 819.5,-806.5 566.5,-806.5"/>
<text text-anchor="start" x="573.5" y="-817.9" font-family="Arial" font-size="14.00" fill="#000000">user_id </text>
<text text-anchor="start" x="623.2882" y="-817.9" font-family="Arial" font-size="14.00" fill="#666666">[uuid]</text>
<polygon fill="none" stroke="#000000" points="566.5,-776.5 566.5,-806.5 819.5,-806.5 819.5,-776.5 566.5,-776.5"/>
<text text-anchor="start" x="573.5" y="-787.9" font-family="Arial" font-size="14.00" fill="#000000">channel_id </text>
<text text-anchor="start" x="645.082" y="-787.9" font-family="Arial" font-size="14.00" fill="#666666">[uuid]</text>
<polygon fill="none" stroke="#000000" points="566.5,-746.5 566.5,-776.5 819.5,-776.5 819.5,-746.5 566.5,-746.5"/>
<text text-anchor="start" x="573.5" y="-757.9" font-family="Arial" font-size="14.00" fill="#000000">created_at </text>
<text text-anchor="start" x="643.528" y="-757.9" font-family="Arial" font-size="14.00" fill="#666666">[timestamp with time zone]</text>
<polygon fill="none" stroke="#000000" points="566.5,-716.5 566.5,-746.5 819.5,-746.5 819.5,-716.5 566.5,-716.5"/>
<text text-anchor="start" x="573.1915" y="-727.9" font-family="Arial" font-size="14.00" fill="#000000">updated_at </text>
<text text-anchor="start" x="647.1241" y="-727.9" font-family="Arial" font-size="14.00" fill="#666666">[timestamp with time zone]</text>
</g>
<!-- public.videos&#45;&gt;public.users -->
<g id="edge2" class="edge">
<title>public.videos:user_id&#45;&gt;public.users:id</title>
<path fill="none" stroke="#000000" d="M829.7514,-820.6238C881.82,-811.0292 854.6372,-724.8907 819.5,-674 793.8457,-636.8439 750.1543,-675.1561 724.5,-638 673.5242,-564.1697 685.7813,-237.5 775.5,-237.5"/>
<polygon fill="#000000" stroke="#000000" points="829.4637,-820.6483 819.1167,-817.0163 824.4818,-821.0741 819.5,-821.5 819.5,-821.5 819.5,-821.5 824.4818,-821.0741 819.8833,-825.9837 829.4637,-820.6483 829.4637,-820.6483"/>
<text text-anchor="start" x="826.8345" y="-831.5" font-family="Arial" font-size="10.00" fill="#000000">FOREIGN KEY (user_id) REFERENCES users(id)</text>
</g>
<!-- public.videos&#45;&gt;public.channels -->
<g id="edge3" class="edge">
<title>public.videos:channel_id&#45;&gt;public.channels:id</title>
<path fill="none" stroke="#000000" d="M829.7995,-790.3802C867.2569,-781.2257 839.7019,-717.9233 819.5,-674 809.2268,-651.6638 787.7732,-660.3362 777.5,-638 760.1357,-600.2462 735.9444,-544.5 777.5,-544.5"/>
<polygon fill="#000000" stroke="#000000" points="829.4414,-790.419 819.0136,-787.0264 824.4707,-790.9595 819.5,-791.5 819.5,-791.5 819.5,-791.5 824.4707,-790.9595 819.9864,-795.9736 829.4414,-790.419 829.4414,-790.419"/>
<text text-anchor="start" x="826.2675" y="-775.5" font-family="Arial" font-size="10.00" fill="#000000">FOREIGN KEY (channel_id) REFERENCES channels(id)</text>
</g>
<!-- public.play_list_names -->
<g id="node5" class="node">
<title>public.play_list_names</title>
<polygon fill="#efefef" stroke="transparent" points="342.5,-559.5 342.5,-594.5 634.5,-594.5 634.5,-559.5 342.5,-559.5"/>
<polygon fill="none" stroke="#000000" points="342.5,-559.5 342.5,-594.5 634.5,-594.5 634.5,-559.5 342.5,-559.5"/>
<text text-anchor="start" x="349.3583" y="-572.3" font-family="Arial Bold" font-size="18.00" fill="#000000">public.play_list_names</text>
<text text-anchor="start" x="530.3879" y="-572.3" font-family="Arial" font-size="14.00" fill="#000000"> </text>
<text text-anchor="start" x="534.2785" y="-572.3" font-family="Arial" font-size="14.00" fill="#666666">[BASE TABLE]</text>
<polygon fill="none" stroke="#000000" points="342.5,-529.5 342.5,-559.5 634.5,-559.5 634.5,-529.5 342.5,-529.5"/>
<text text-anchor="start" x="349.5" y="-540.9" font-family="Arial" font-size="14.00" fill="#000000">id </text>
<text text-anchor="start" x="364.2798" y="-540.9" font-family="Arial" font-size="14.00" fill="#666666">[bigint]</text>
<polygon fill="none" stroke="#000000" points="342.5,-499.5 342.5,-529.5 634.5,-529.5 634.5,-499.5 342.5,-499.5"/>
<text text-anchor="start" x="349.5" y="-510.9" font-family="Arial" font-size="14.00" fill="#000000">name </text>
<text text-anchor="start" x="388.399" y="-510.9" font-family="Arial" font-size="14.00" fill="#666666">[varchar]</text>
<polygon fill="none" stroke="#000000" points="342.5,-469.5 342.5,-499.5 634.5,-499.5 634.5,-469.5 342.5,-469.5"/>
<text text-anchor="start" x="349.5" y="-480.9" font-family="Arial" font-size="14.00" fill="#000000">user_id </text>
<text text-anchor="start" x="399.2882" y="-480.9" font-family="Arial" font-size="14.00" fill="#666666">[uuid]</text>
<polygon fill="none" stroke="#000000" points="342.5,-439.5 342.5,-469.5 634.5,-469.5 634.5,-439.5 342.5,-439.5"/>
<text text-anchor="start" x="349.5" y="-450.9" font-family="Arial" font-size="14.00" fill="#000000">video_count </text>
<text text-anchor="start" x="428.866" y="-450.9" font-family="Arial" font-size="14.00" fill="#666666">[bigint]</text>
<polygon fill="none" stroke="#000000" points="342.5,-409.5 342.5,-439.5 634.5,-439.5 634.5,-409.5 342.5,-409.5"/>
<text text-anchor="start" x="349.5" y="-420.9" font-family="Arial" font-size="14.00" fill="#000000">created_at </text>
<text text-anchor="start" x="419.528" y="-420.9" font-family="Arial" font-size="14.00" fill="#666666">[timestamp with time zone]</text>
</g>
<!-- public.play_list_names&#45;&gt;public.users -->
<g id="edge4" class="edge">
<title>public.play_list_names:user_id&#45;&gt;public.users:id</title>
<path fill="none" stroke="#000000" d="M644.6704,-483.688C688.9737,-475.9385 664.8235,-414.2971 691.5,-367 725.2025,-307.2458 706.8966,-237.5 775.5,-237.5"/>
<polygon fill="#000000" stroke="#000000" points="644.4683,-483.7041 634.1418,-480.0143 639.4841,-484.102 634.5,-484.5 634.5,-484.5 634.5,-484.5 639.4841,-484.102 634.8582,-488.9857 644.4683,-483.7041 644.4683,-483.7041"/>
<text text-anchor="start" x="404.8345" y="-494.5" font-family="Arial" font-size="10.00" fill="#000000">FOREIGN KEY (user_id) REFERENCES users(id)</text>
</g>
<!-- public.play_lists -->
<g id="node6" class="node">
<title>public.play_lists</title>
<polygon fill="#efefef" stroke="transparent" points="466.5,-1323.5 466.5,-1358.5 715.5,-1358.5 715.5,-1323.5 466.5,-1323.5"/>
<polygon fill="none" stroke="#000000" points="466.5,-1323.5 466.5,-1358.5 715.5,-1358.5 715.5,-1323.5 466.5,-1323.5"/>
<text text-anchor="start" x="479.3668" y="-1336.3" font-family="Arial Bold" font-size="18.00" fill="#000000">public.play_lists</text>
<text text-anchor="start" x="605.3794" y="-1336.3" font-family="Arial" font-size="14.00" fill="#000000"> </text>
<text text-anchor="start" x="609.27" y="-1336.3" font-family="Arial" font-size="14.00" fill="#666666">[BASE TABLE]</text>
<polygon fill="none" stroke="#000000" points="466.5,-1293.5 466.5,-1323.5 715.5,-1323.5 715.5,-1293.5 466.5,-1293.5"/>
<text text-anchor="start" x="473.5" y="-1304.9" font-family="Arial" font-size="14.00" fill="#000000">id </text>
<text text-anchor="start" x="488.2798" y="-1304.9" font-family="Arial" font-size="14.00" fill="#666666">[uuid]</text>
<polygon fill="none" stroke="#000000" points="466.5,-1263.5 466.5,-1293.5 715.5,-1293.5 715.5,-1263.5 466.5,-1263.5"/>
<text text-anchor="start" x="473.5" y="-1274.9" font-family="Arial" font-size="14.00" fill="#000000">play_list_names_id </text>
<text text-anchor="start" x="596.4116" y="-1274.9" font-family="Arial" font-size="14.00" fill="#666666">[bigint]</text>
<polygon fill="none" stroke="#000000" points="466.5,-1233.5 466.5,-1263.5 715.5,-1263.5 715.5,-1233.5 466.5,-1233.5"/>
<text text-anchor="start" x="473.5" y="-1244.9" font-family="Arial" font-size="14.00" fill="#000000">video_id </text>
<text text-anchor="start" x="529.5168" y="-1244.9" font-family="Arial" font-size="14.00" fill="#666666">[uuid]</text>
<polygon fill="none" stroke="#000000" points="466.5,-1203.5 466.5,-1233.5 715.5,-1233.5 715.5,-1203.5 466.5,-1203.5"/>
<text text-anchor="start" x="473.1438" y="-1214.9" font-family="Arial" font-size="14.00" fill="#000000">created_at </text>
<text text-anchor="start" x="543.1718" y="-1214.9" font-family="Arial" font-size="14.00" fill="#666666">[timestamp with time zone]</text>
</g>
<!-- public.play_lists&#45;&gt;public.videos -->
<g id="edge5" class="edge">
<title>public.play_lists:video_id&#45;&gt;public.videos:id</title>
<path fill="none" stroke="#000000" d="M725.3976,-1246.9485C751.4035,-1237.63 737.2048,-1188.5734 715.5,-1161 673.3613,-1107.4676 608.6387,-1178.5324 566.5,-1125 540.7968,-1092.3471 524.9444,-1031.5 566.5,-1031.5"/>
<polygon fill="#000000" stroke="#000000" points="725.3794,-1246.9512 714.8031,-1244.0543 720.4397,-1247.7256 715.5,-1248.5 715.5,-1248.5 715.5,-1248.5 720.4397,-1247.7256 716.1969,-1252.9457 725.3794,-1246.9512 725.3794,-1246.9512"/>
<text text-anchor="start" x="722.3855" y="-1258.5" font-family="Arial" font-size="10.00" fill="#000000">FOREIGN KEY (video_id) REFERENCES videos(id)</text>
</g>
<!-- public.play_lists&#45;&gt;public.play_list_names -->
<g id="edge6" class="edge">
<title>public.play_lists:play_list_names_id&#45;&gt;public.play_list_names:id</title>
<path fill="none" stroke="#000000" d="M457.4423,-1274.0636C410.7368,-1230.3912 348.1895,-874.7387 513.5,-674 549.1675,-630.6886 600.9565,-682.9765 634.5,-638 659.3437,-604.6885 676.0556,-544.5 634.5,-544.5"/>
<polygon fill="#000000" stroke="#000000" points="457.5194,-1274.1013 464.5206,-1282.5413 462.0097,-1276.3006 466.5,-1278.5 466.5,-1278.5 466.5,-1278.5 462.0097,-1276.3006 468.4794,-1274.4587 457.5194,-1274.1013 457.5194,-1274.1013"/>
<text text-anchor="start" x="473.1035" y="-1288.5" font-family="Arial" font-size="10.00" fill="#000000">FOREIGN KEY (play_list_names_id) REFERENCES play_list_names(id)</text>
</g>
<!-- public.feelings -->
<g id="node7" class="node">
<title>public.feelings</title>
<polygon fill="#efefef" stroke="transparent" points="1065.5,-1323.5 1065.5,-1358.5 1314.5,-1358.5 1314.5,-1323.5 1065.5,-1323.5"/>
<polygon fill="none" stroke="#000000" points="1065.5,-1323.5 1065.5,-1358.5 1314.5,-1358.5 1314.5,-1323.5 1065.5,-1323.5"/>
<text text-anchor="start" x="1084.3608" y="-1336.3" font-family="Arial Bold" font-size="18.00" fill="#000000">public.feelings</text>
<text text-anchor="start" x="1198.3854" y="-1336.3" font-family="Arial" font-size="14.00" fill="#000000"> </text>
<text text-anchor="start" x="1202.276" y="-1336.3" font-family="Arial" font-size="14.00" fill="#666666">[BASE TABLE]</text>
<polygon fill="none" stroke="#000000" points="1065.5,-1293.5 1065.5,-1323.5 1314.5,-1323.5 1314.5,-1293.5 1065.5,-1293.5"/>
<text text-anchor="start" x="1072.5" y="-1304.9" font-family="Arial" font-size="14.00" fill="#000000">user_id </text>
<text text-anchor="start" x="1122.2882" y="-1304.9" font-family="Arial" font-size="14.00" fill="#666666">[uuid]</text>
<polygon fill="none" stroke="#000000" points="1065.5,-1263.5 1065.5,-1293.5 1314.5,-1293.5 1314.5,-1263.5 1065.5,-1263.5"/>
<text text-anchor="start" x="1072.5" y="-1274.9" font-family="Arial" font-size="14.00" fill="#000000">video_id </text>
<text text-anchor="start" x="1128.5168" y="-1274.9" font-family="Arial" font-size="14.00" fill="#666666">[uuid]</text>
<polygon fill="none" stroke="#000000" points="1065.5,-1233.5 1065.5,-1263.5 1314.5,-1263.5 1314.5,-1233.5 1065.5,-1233.5"/>
<text text-anchor="start" x="1072.5" y="-1244.9" font-family="Arial" font-size="14.00" fill="#000000">reaction </text>
<text text-anchor="start" x="1126.1788" y="-1244.9" font-family="Arial" font-size="14.00" fill="#666666">[reaction_types]</text>
<polygon fill="none" stroke="#000000" points="1065.5,-1203.5 1065.5,-1233.5 1314.5,-1233.5 1314.5,-1203.5 1065.5,-1203.5"/>
<text text-anchor="start" x="1072.1438" y="-1214.9" font-family="Arial" font-size="14.00" fill="#000000">created_at </text>
<text text-anchor="start" x="1142.1718" y="-1214.9" font-family="Arial" font-size="14.00" fill="#666666">[timestamp with time zone]</text>
</g>
<!-- public.feelings&#45;&gt;public.users -->
<g id="edge7" class="edge">
<title>public.feelings:user_id&#45;&gt;public.users:id</title>
<path fill="none" stroke="#000000" d="M1324.6485,-1307.8678C1519.0849,-1283.027 1363.4242,-533.4979 1241.5,-367 1176.0437,-277.6138 1139.29,-237.5 1028.5,-237.5"/>
<polygon fill="#000000" stroke="#000000" points="1324.4807,-1307.8782 1314.2202,-1304.0087 1319.4903,-1308.1891 1314.5,-1308.5 1314.5,-1308.5 1314.5,-1308.5 1319.4903,-1308.1891 1314.7798,-1312.9913 1324.4807,-1307.8782 1324.4807,-1307.8782"/>
<text text-anchor="start" x="1321.8345" y="-1318.5" font-family="Arial" font-size="10.00" fill="#000000">FOREIGN KEY (user_id) REFERENCES users(id)</text>
</g>
<!-- public.feelings&#45;&gt;public.videos -->
<g id="edge8" class="edge">
<title>public.feelings:video_id&#45;&gt;public.videos:id</title>
<path fill="none" stroke="#000000" d="M1055.4385,-1278.2988C954.3025,-1274.1568 939.4681,-1206.6108 870.5,-1125 839.9466,-1088.8458 866.8354,-1031.5 819.5,-1031.5"/>
<polygon fill="#000000" stroke="#000000" points="1055.502,-1278.2999 1065.41,-1282.9991 1060.501,-1278.4 1065.5,-1278.5 1065.5,-1278.5 1065.5,-1278.5 1060.501,-1278.4 1065.59,-1274.0009 1055.502,-1278.2999 1055.502,-1278.2999"/>
<text text-anchor="start" x="826.3855" y="-1288.5" font-family="Arial" font-size="10.00" fill="#000000">FOREIGN KEY (video_id) REFERENCES videos(id)</text>
</g>
<!-- public.channel_subscriptions -->
<g id="node8" class="node">
<title>public.channel_subscriptions</title>
<polygon fill="#efefef" stroke="transparent" points="923.5,-926.5 923.5,-961.5 1264.5,-961.5 1264.5,-926.5 923.5,-926.5"/>
<polygon fill="none" stroke="#000000" points="923.5,-926.5 923.5,-961.5 1264.5,-961.5 1264.5,-926.5 923.5,-926.5"/>
<text text-anchor="start" x="930.3459" y="-939.3" font-family="Arial Bold" font-size="18.00" fill="#000000">public.channel_subscriptions</text>
<text text-anchor="start" x="1160.4003" y="-939.3" font-family="Arial" font-size="14.00" fill="#000000"> </text>
<text text-anchor="start" x="1164.2909" y="-939.3" font-family="Arial" font-size="14.00" fill="#666666">[BASE TABLE]</text>
<polygon fill="none" stroke="#000000" points="923.5,-896.5 923.5,-926.5 1264.5,-926.5 1264.5,-896.5 923.5,-896.5"/>
<text text-anchor="start" x="930.5" y="-907.9" font-family="Arial" font-size="14.00" fill="#000000">subscriber_id </text>
<text text-anchor="start" x="1017.6206" y="-907.9" font-family="Arial" font-size="14.00" fill="#666666">[uuid]</text>
<polygon fill="none" stroke="#000000" points="923.5,-866.5 923.5,-896.5 1264.5,-896.5 1264.5,-866.5 923.5,-866.5"/>
<text text-anchor="start" x="930.5" y="-877.9" font-family="Arial" font-size="14.00" fill="#000000">channel_id </text>
<text text-anchor="start" x="1002.082" y="-877.9" font-family="Arial" font-size="14.00" fill="#666666">[uuid]</text>
<polygon fill="none" stroke="#000000" points="923.5,-836.5 923.5,-866.5 1264.5,-866.5 1264.5,-836.5 923.5,-836.5"/>
<text text-anchor="start" x="930.5" y="-847.9" font-family="Arial" font-size="14.00" fill="#000000">created_at </text>
<text text-anchor="start" x="1000.528" y="-847.9" font-family="Arial" font-size="14.00" fill="#666666">[timestamp with time zone]</text>
</g>
<!-- public.channel_subscriptions&#45;&gt;public.users -->
<g id="edge9" class="edge">
<title>public.channel_subscriptions:subscriber_id&#45;&gt;public.users:id</title>
<path fill="none" stroke="#000000" d="M1274.6012,-910.4952C1412.6315,-881.5627 1183.6296,-237.5 1028.5,-237.5"/>
<polygon fill="#000000" stroke="#000000" points="1274.4509,-910.5101 1264.0545,-907.0221 1269.4754,-911.005 1264.5,-911.5 1264.5,-911.5 1264.5,-911.5 1269.4754,-911.005 1264.9455,-915.9779 1274.4509,-910.5101 1274.4509,-910.5101"/>
<text text-anchor="start" x="1271.5015" y="-921.5" font-family="Arial" font-size="10.00" fill="#000000">FOREIGN KEY (subscriber_id) REFERENCES users(id)</text>
</g>
<!-- public.channel_subscriptions&#45;&gt;public.channels -->
<g id="edge10" class="edge">
<title>public.channel_subscriptions:channel_id&#45;&gt;public.channels:id</title>
<path fill="none" stroke="#000000" d="M913.4171,-880.9533C786.079,-865.8882 1179.4466,-544.5 1026.5,-544.5"/>
<polygon fill="#000000" stroke="#000000" points="913.5147,-880.9585 923.2563,-885.9934 918.5073,-881.2293 923.5,-881.5 923.5,-881.5 923.5,-881.5 918.5073,-881.2293 923.7437,-877.0066 913.5147,-880.9585 913.5147,-880.9585"/>
<text text-anchor="start" x="930.2675" y="-891.5" font-family="Arial" font-size="10.00" fill="#000000">FOREIGN KEY (channel_id) REFERENCES channels(id)</text>
</g>
</g>
</svg>
