<?xml version="1.0" encoding="UTF-8" standalone="no"?>
<!DOCTYPE svg PUBLIC "-//W3C//DTD SVG 1.1//EN"
 "http://www.w3.org/Graphics/SVG/1.1/DTD/svg11.dtd">
<!-- Generated by graphviz version 2.40.1 (20161225.0304)
 -->
<!-- Title: my_app_db Pages: 1 -->
<svg width="1849pt" height="1253pt"
 viewBox="0.00 0.00 1849.00 1253.00" xmlns="http://www.w3.org/2000/svg" xmlns:xlink="http://www.w3.org/1999/xlink">
<g id="graph0" class="graph" transform="scale(1 1) rotate(0) translate(4 1249)">
<title>my_app_db</title>
<polygon fill="#ffffff" stroke="transparent" points="-4,4 -4,-1249 1845,-1249 1845,4 -4,4"/>
<!-- public.schema_migrations -->
<g id="node1" class="node">
<title>public.schema_migrations</title>
<polygon fill="#efefef" stroke="transparent" points="43.5,-1121.5 43.5,-1156.5 362.5,-1156.5 362.5,-1121.5 43.5,-1121.5"/>
<polygon fill="none" stroke="#000000" points="43.5,-1121.5 43.5,-1156.5 362.5,-1156.5 362.5,-1121.5 43.5,-1121.5"/>
<text text-anchor="start" x="50.3601" y="-1134.3" font-family="Arial Bold" font-size="18.00" fill="#000000">public.schema_migrations</text>
<text text-anchor="start" x="258.3861" y="-1134.3" font-family="Arial" font-size="14.00" fill="#000000"> </text>
<text text-anchor="start" x="262.2767" y="-1134.3" font-family="Arial" font-size="14.00" fill="#666666">[BASE TABLE]</text>
<polygon fill="none" stroke="#000000" points="43.5,-1091.5 43.5,-1121.5 362.5,-1121.5 362.5,-1091.5 43.5,-1091.5"/>
<text text-anchor="start" x="50.5" y="-1102.9" font-family="Arial" font-size="14.00" fill="#000000">version </text>
<text text-anchor="start" x="99.5056" y="-1102.9" font-family="Arial" font-size="14.00" fill="#666666">[varchar(255)]</text>
</g>
<!-- public.users -->
<g id="node2" class="node">
<title>public.users</title>
<polygon fill="#efefef" stroke="transparent" points="1149.5,-312.5 1149.5,-347.5 1402.5,-347.5 1402.5,-312.5 1149.5,-312.5"/>
<polygon fill="none" stroke="#000000" points="1149.5,-312.5 1149.5,-347.5 1402.5,-347.5 1402.5,-312.5 1149.5,-312.5"/>
<text text-anchor="start" x="1179.3662" y="-325.3" font-family="Arial Bold" font-size="18.00" fill="#000000">public.users</text>
<text text-anchor="start" x="1275.38" y="-325.3" font-family="Arial" font-size="14.00" fill="#000000"> </text>
<text text-anchor="start" x="1279.2706" y="-325.3" font-family="Arial" font-size="14.00" fill="#666666">[BASE TABLE]</text>
<polygon fill="none" stroke="#000000" points="1149.5,-282.5 1149.5,-312.5 1402.5,-312.5 1402.5,-282.5 1149.5,-282.5"/>
<text text-anchor="start" x="1156.5" y="-293.9" font-family="Arial" font-size="14.00" fill="#000000">id </text>
<text text-anchor="start" x="1171.2798" y="-293.9" font-family="Arial" font-size="14.00" fill="#666666">[uuid]</text>
<polygon fill="none" stroke="#000000" points="1149.5,-252.5 1149.5,-282.5 1402.5,-282.5 1402.5,-252.5 1149.5,-252.5"/>
<text text-anchor="start" x="1156.5" y="-263.9" font-family="Arial" font-size="14.00" fill="#000000">email </text>
<text text-anchor="start" x="1193.8296" y="-263.9" font-family="Arial" font-size="14.00" fill="#666666">[citext]</text>
<polygon fill="none" stroke="#000000" points="1149.5,-222.5 1149.5,-252.5 1402.5,-252.5 1402.5,-222.5 1149.5,-222.5"/>
<text text-anchor="start" x="1156.5" y="-233.9" font-family="Arial" font-size="14.00" fill="#000000">phone </text>
<text text-anchor="start" x="1199.3036" y="-233.9" font-family="Arial" font-size="14.00" fill="#666666">[varchar]</text>
<polygon fill="none" stroke="#000000" points="1149.5,-192.5 1149.5,-222.5 1402.5,-222.5 1402.5,-192.5 1149.5,-192.5"/>
<text text-anchor="start" x="1156.5" y="-203.9" font-family="Arial" font-size="14.00" fill="#000000">name </text>
<text text-anchor="start" x="1195.399" y="-203.9" font-family="Arial" font-size="14.00" fill="#666666">[varchar]</text>
<polygon fill="none" stroke="#000000" points="1149.5,-162.5 1149.5,-192.5 1402.5,-192.5 1402.5,-162.5 1149.5,-162.5"/>
<text text-anchor="start" x="1156.5" y="-173.9" font-family="Arial" font-size="14.00" fill="#000000">channel_name </text>
<text text-anchor="start" x="1252.2012" y="-173.9" font-family="Arial" font-size="14.00" fill="#666666">[varchar]</text>
<polygon fill="none" stroke="#000000" points="1149.5,-132.5 1149.5,-162.5 1402.5,-162.5 1402.5,-132.5 1149.5,-132.5"/>
<text text-anchor="start" x="1156.5" y="-143.9" font-family="Arial" font-size="14.00" fill="#000000">description </text>
<text text-anchor="start" x="1228.068" y="-143.9" font-family="Arial" font-size="14.00" fill="#666666">[text]</text>
<polygon fill="none" stroke="#000000" points="1149.5,-102.5 1149.5,-132.5 1402.5,-132.5 1402.5,-102.5 1149.5,-102.5"/>
<text text-anchor="start" x="1156.5" y="-113.9" font-family="Arial" font-size="14.00" fill="#000000">subscriber_count </text>
<text text-anchor="start" x="1266.9698" y="-113.9" font-family="Arial" font-size="14.00" fill="#666666">[integer]</text>
<polygon fill="none" stroke="#000000" points="1149.5,-72.5 1149.5,-102.5 1402.5,-102.5 1402.5,-72.5 1149.5,-72.5"/>
<text text-anchor="start" x="1156.5" y="-83.9" font-family="Arial" font-size="14.00" fill="#000000">created_at </text>
<text text-anchor="start" x="1226.528" y="-83.9" font-family="Arial" font-size="14.00" fill="#666666">[timestamp with time zone]</text>
<polygon fill="none" stroke="#000000" points="1149.5,-42.5 1149.5,-72.5 1402.5,-72.5 1402.5,-42.5 1149.5,-42.5"/>
<text text-anchor="start" x="1156.1915" y="-53.9" font-family="Arial" font-size="14.00" fill="#000000">updated_at </text>
<text text-anchor="start" x="1230.1241" y="-53.9" font-family="Arial" font-size="14.00" fill="#666666">[timestamp with time zone]</text>
</g>
<!-- public.videos -->
<g id="node3" class="node">
<title>public.videos</title>
<polygon fill="#efefef" stroke="transparent" points="665.5,-889.5 665.5,-924.5 918.5,-924.5 918.5,-889.5 665.5,-889.5"/>
<polygon fill="none" stroke="#000000" points="665.5,-889.5 665.5,-924.5 918.5,-924.5 918.5,-889.5 665.5,-889.5"/>
<text text-anchor="start" x="691.3621" y="-902.3" font-family="Arial Bold" font-size="18.00" fill="#000000">public.videos</text>
<text text-anchor="start" x="795.3841" y="-902.3" font-family="Arial" font-size="14.00" fill="#000000"> </text>
<text text-anchor="start" x="799.2747" y="-902.3" font-family="Arial" font-size="14.00" fill="#666666">[BASE TABLE]</text>
<polygon fill="none" stroke="#000000" points="665.5,-859.5 665.5,-889.5 918.5,-889.5 918.5,-859.5 665.5,-859.5"/>
<text text-anchor="start" x="672.5" y="-870.9" font-family="Arial" font-size="14.00" fill="#000000">id </text>
<text text-anchor="start" x="687.2798" y="-870.9" font-family="Arial" font-size="14.00" fill="#666666">[uuid]</text>
<polygon fill="none" stroke="#000000" points="665.5,-829.5 665.5,-859.5 918.5,-859.5 918.5,-829.5 665.5,-829.5"/>
<text text-anchor="start" x="672.5" y="-840.9" font-family="Arial" font-size="14.00" fill="#000000">title </text>
<text text-anchor="start" x="698.1676" y="-840.9" font-family="Arial" font-size="14.00" fill="#666666">[varchar]</text>
<polygon fill="none" stroke="#000000" points="665.5,-799.5 665.5,-829.5 918.5,-829.5 918.5,-799.5 665.5,-799.5"/>
<text text-anchor="start" x="672.5" y="-810.9" font-family="Arial" font-size="14.00" fill="#000000">description </text>
<text text-anchor="start" x="744.068" y="-810.9" font-family="Arial" font-size="14.00" fill="#666666">[text]</text>
<polygon fill="none" stroke="#000000" points="665.5,-769.5 665.5,-799.5 918.5,-799.5 918.5,-769.5 665.5,-769.5"/>
<text text-anchor="start" x="672.5" y="-780.9" font-family="Arial" font-size="14.00" fill="#000000">category </text>
<text text-anchor="start" x="730.0722" y="-780.9" font-family="Arial" font-size="14.00" fill="#666666">[category_types]</text>
<polygon fill="none" stroke="#000000" points="665.5,-739.5 665.5,-769.5 918.5,-769.5 918.5,-739.5 665.5,-739.5"/>
<text text-anchor="start" x="672.5" y="-750.9" font-family="Arial" font-size="14.00" fill="#000000">views_count </text>
<text text-anchor="start" x="753.4074" y="-750.9" font-family="Arial" font-size="14.00" fill="#666666">[integer]</text>
<polygon fill="none" stroke="#000000" points="665.5,-709.5 665.5,-739.5 918.5,-739.5 918.5,-709.5 665.5,-709.5"/>
<text text-anchor="start" x="672.5" y="-720.9" font-family="Arial" font-size="14.00" fill="#000000">likes_count </text>
<text text-anchor="start" x="746.4074" y="-720.9" font-family="Arial" font-size="14.00" fill="#666666">[integer]</text>
<polygon fill="none" stroke="#000000" points="665.5,-679.5 665.5,-709.5 918.5,-709.5 918.5,-679.5 665.5,-679.5"/>
<text text-anchor="start" x="672.5" y="-690.9" font-family="Arial" font-size="14.00" fill="#000000">dislikes_count </text>
<text text-anchor="start" x="764.2966" y="-690.9" font-family="Arial" font-size="14.00" fill="#666666">[integer]</text>
<polygon fill="none" stroke="#000000" points="665.5,-649.5 665.5,-679.5 918.5,-679.5 918.5,-649.5 665.5,-649.5"/>
<text text-anchor="start" x="672.5" y="-660.9" font-family="Arial" font-size="14.00" fill="#000000">thumbnail </text>
<text text-anchor="start" x="737.068" y="-660.9" font-family="Arial" font-size="14.00" fill="#666666">[varchar]</text>
<polygon fill="none" stroke="#000000" points="665.5,-619.5 665.5,-649.5 918.5,-649.5 918.5,-619.5 665.5,-619.5"/>
<text text-anchor="start" x="672.5" y="-630.9" font-family="Arial" font-size="14.00" fill="#000000">stream_url </text>
<text text-anchor="start" x="742.5" y="-630.9" font-family="Arial" font-size="14.00" fill="#666666">[varchar]</text>
<polygon fill="none" stroke="#000000" points="665.5,-589.5 665.5,-619.5 918.5,-619.5 918.5,-589.5 665.5,-589.5"/>
<text text-anchor="start" x="672.5" y="-600.9" font-family="Arial" font-size="14.00" fill="#000000">channel_id </text>
<text text-anchor="start" x="744.082" y="-600.9" font-family="Arial" font-size="14.00" fill="#666666">[uuid]</text>
<polygon fill="none" stroke="#000000" points="665.5,-559.5 665.5,-589.5 918.5,-589.5 918.5,-559.5 665.5,-559.5"/>
<text text-anchor="start" x="672.5" y="-570.9" font-family="Arial" font-size="14.00" fill="#000000">duration </text>
<text text-anchor="start" x="726.9614" y="-570.9" font-family="Arial" font-size="14.00" fill="#666666">[double precision]</text>
<polygon fill="none" stroke="#000000" points="665.5,-529.5 665.5,-559.5 918.5,-559.5 918.5,-529.5 665.5,-529.5"/>
<text text-anchor="start" x="672.5" y="-540.9" font-family="Arial" font-size="14.00" fill="#000000">is_private </text>
<text text-anchor="start" x="736.2854" y="-540.9" font-family="Arial" font-size="14.00" fill="#666666">[boolean]</text>
<polygon fill="none" stroke="#000000" points="665.5,-499.5 665.5,-529.5 918.5,-529.5 918.5,-499.5 665.5,-499.5"/>
<text text-anchor="start" x="672.5" y="-510.9" font-family="Arial" font-size="14.00" fill="#000000">created_at </text>
<text text-anchor="start" x="742.528" y="-510.9" font-family="Arial" font-size="14.00" fill="#666666">[timestamp with time zone]</text>
<polygon fill="none" stroke="#000000" points="665.5,-469.5 665.5,-499.5 918.5,-499.5 918.5,-469.5 665.5,-469.5"/>
<text text-anchor="start" x="672.1915" y="-480.9" font-family="Arial" font-size="14.00" fill="#000000">updated_at </text>
<text text-anchor="start" x="746.1241" y="-480.9" font-family="Arial" font-size="14.00" fill="#666666">[timestamp with time zone]</text>
</g>
<!-- public.videos&#45;&gt;public.users -->
<g id="edge1" class="edge">
<title>public.videos:channel_id&#45;&gt;public.users:id</title>
<path fill="none" stroke="#000000" d="M928.6366,-603.8459C993.9835,-594.6733 925.2187,-491.1381 970.5,-427 1027.132,-346.7844 1051.3077,-297.5 1149.5,-297.5"/>
<polygon fill="#000000" stroke="#000000" points="928.4792,-603.856 918.2102,-600.0093 923.4896,-604.178 918.5,-604.5 918.5,-604.5 918.5,-604.5 923.4896,-604.178 918.7898,-608.9907 928.4792,-603.856 928.4792,-603.856"/>
<text text-anchor="start" x="925.051" y="-614.5" font-family="Arial" font-size="10.00" fill="#000000">FOREIGN KEY (channel_id) REFERENCES users(id)</text>
</g>
<!-- public.watch_history -->
<g id="node4" class="node">
<title>public.watch_history</title>
<polygon fill="#efefef" stroke="transparent" points="466.5,-1166.5 466.5,-1201.5 739.5,-1201.5 739.5,-1166.5 466.5,-1166.5"/>
<polygon fill="none" stroke="#000000" points="466.5,-1166.5 466.5,-1201.5 739.5,-1201.5 739.5,-1166.5 466.5,-1166.5"/>
<text text-anchor="start" x="473.3605" y="-1179.3" font-family="Arial Bold" font-size="18.00" fill="#000000">public.watch_history</text>
<text text-anchor="start" x="635.3857" y="-1179.3" font-family="Arial" font-size="14.00" fill="#000000"> </text>
<text text-anchor="start" x="639.2763" y="-1179.3" font-family="Arial" font-size="14.00" fill="#666666">[BASE TABLE]</text>
<polygon fill="none" stroke="#000000" points="466.5,-1136.5 466.5,-1166.5 739.5,-1166.5 739.5,-1136.5 466.5,-1136.5"/>
<text text-anchor="start" x="473.5" y="-1147.9" font-family="Arial" font-size="14.00" fill="#000000">video_id </text>
<text text-anchor="start" x="529.5168" y="-1147.9" font-family="Arial" font-size="14.00" fill="#666666">[uuid]</text>
<polygon fill="none" stroke="#000000" points="466.5,-1106.5 466.5,-1136.5 739.5,-1136.5 739.5,-1106.5 466.5,-1106.5"/>
<text text-anchor="start" x="473.5" y="-1117.9" font-family="Arial" font-size="14.00" fill="#000000">user_id </text>
<text text-anchor="start" x="523.2882" y="-1117.9" font-family="Arial" font-size="14.00" fill="#666666">[uuid]</text>
<polygon fill="none" stroke="#000000" points="466.5,-1076.5 466.5,-1106.5 739.5,-1106.5 739.5,-1076.5 466.5,-1076.5"/>
<text text-anchor="start" x="473.5" y="-1087.9" font-family="Arial" font-size="14.00" fill="#000000">last_watchted_at </text>
<text text-anchor="start" x="582.427" y="-1087.9" font-family="Arial" font-size="14.00" fill="#666666">[time without time zone]</text>
<polygon fill="none" stroke="#000000" points="466.5,-1046.5 466.5,-1076.5 739.5,-1076.5 739.5,-1046.5 466.5,-1046.5"/>
<text text-anchor="start" x="473.5" y="-1057.9" font-family="Arial" font-size="14.00" fill="#000000">created_at </text>
<text text-anchor="start" x="543.528" y="-1057.9" font-family="Arial" font-size="14.00" fill="#666666">[timestamp with time zone]</text>
</g>
<!-- public.watch_history&#45;&gt;public.users -->
<g id="edge2" class="edge">
<title>public.watch_history:user_id&#45;&gt;public.users:id</title>
<path fill="none" stroke="#000000" d="M459.3646,-1113.9464C431.844,-1048.7357 458.1322,-579.6493 612.5,-427 699.7849,-340.6869 1026.7458,-297.5 1149.5,-297.5"/>
<polygon fill="#000000" stroke="#000000" points="459.633,-1114.2305 463.2287,-1124.5901 463.0665,-1117.8653 466.5,-1121.5 466.5,-1121.5 466.5,-1121.5 463.0665,-1117.8653 469.7713,-1118.4099 459.633,-1114.2305 459.633,-1114.2305"/>
<text text-anchor="start" x="236.8345" y="-1131.5" font-family="Arial" font-size="10.00" fill="#000000">FOREIGN KEY (user_id) REFERENCES users(id)</text>
</g>
<!-- public.watch_history&#45;&gt;public.videos -->
<g id="edge3" class="edge">
<title>public.watch_history:video_id&#45;&gt;public.videos:id</title>
<path fill="none" stroke="#000000" d="M749.7288,-1150.6386C801.555,-1141.2034 772.2979,-1056.4289 739.5,-1004 720.103,-972.993 684.897,-999.007 665.5,-968 643.4612,-932.77 623.9444,-874.5 665.5,-874.5"/>
<polygon fill="#000000" stroke="#000000" points="749.4647,-1150.6607 739.1223,-1147.0159 744.4824,-1151.0804 739.5,-1151.5 739.5,-1151.5 739.5,-1151.5 744.4824,-1151.0804 739.8777,-1155.9841 749.4647,-1150.6607 749.4647,-1150.6607"/>
<text text-anchor="start" x="684.8855" y="-1135.5" font-family="Arial" font-size="10.00" fill="#000000">FOREIGN KEY (video_id) REFERENCES videos(id)</text>
</g>
<!-- public.play_list_names -->
<g id="node5" class="node">
<title>public.play_list_names</title>
<polygon fill="#efefef" stroke="transparent" points="1022.5,-754.5 1022.5,-789.5 1314.5,-789.5 1314.5,-754.5 1022.5,-754.5"/>
<polygon fill="none" stroke="#000000" points="1022.5,-754.5 1022.5,-789.5 1314.5,-789.5 1314.5,-754.5 1022.5,-754.5"/>
<text text-anchor="start" x="1029.3583" y="-767.3" font-family="Arial Bold" font-size="18.00" fill="#000000">public.play_list_names</text>
<text text-anchor="start" x="1210.3879" y="-767.3" font-family="Arial" font-size="14.00" fill="#000000"> </text>
<text text-anchor="start" x="1214.2785" y="-767.3" font-family="Arial" font-size="14.00" fill="#666666">[BASE TABLE]</text>
<polygon fill="none" stroke="#000000" points="1022.5,-724.5 1022.5,-754.5 1314.5,-754.5 1314.5,-724.5 1022.5,-724.5"/>
<text text-anchor="start" x="1029.5" y="-735.9" font-family="Arial" font-size="14.00" fill="#000000">id </text>
<text text-anchor="start" x="1044.2798" y="-735.9" font-family="Arial" font-size="14.00" fill="#666666">[bigint]</text>
<polygon fill="none" stroke="#000000" points="1022.5,-694.5 1022.5,-724.5 1314.5,-724.5 1314.5,-694.5 1022.5,-694.5"/>
<text text-anchor="start" x="1029.5" y="-705.9" font-family="Arial" font-size="14.00" fill="#000000">name </text>
<text text-anchor="start" x="1068.399" y="-705.9" font-family="Arial" font-size="14.00" fill="#666666">[varchar]</text>
<polygon fill="none" stroke="#000000" points="1022.5,-664.5 1022.5,-694.5 1314.5,-694.5 1314.5,-664.5 1022.5,-664.5"/>
<text text-anchor="start" x="1029.5" y="-675.9" font-family="Arial" font-size="14.00" fill="#000000">user_id </text>
<text text-anchor="start" x="1079.2882" y="-675.9" font-family="Arial" font-size="14.00" fill="#666666">[uuid]</text>
<polygon fill="none" stroke="#000000" points="1022.5,-634.5 1022.5,-664.5 1314.5,-664.5 1314.5,-634.5 1022.5,-634.5"/>
<text text-anchor="start" x="1029.5" y="-645.9" font-family="Arial" font-size="14.00" fill="#000000">video_count </text>
<text text-anchor="start" x="1108.866" y="-645.9" font-family="Arial" font-size="14.00" fill="#666666">[bigint]</text>
<polygon fill="none" stroke="#000000" points="1022.5,-604.5 1022.5,-634.5 1314.5,-634.5 1314.5,-604.5 1022.5,-604.5"/>
<text text-anchor="start" x="1029.5" y="-615.9" font-family="Arial" font-size="14.00" fill="#000000">created_at </text>
<text text-anchor="start" x="1099.528" y="-615.9" font-family="Arial" font-size="14.00" fill="#666666">[timestamp with time zone]</text>
</g>
<!-- public.play_list_names&#45;&gt;public.users -->
<g id="edge4" class="edge">
<title>public.play_list_names:user_id&#45;&gt;public.users:id</title>
<path fill="none" stroke="#000000" d="M1324.7648,-678.3952C1361.9451,-669.3602 1332.6019,-606.8296 1314.5,-562 1274.9569,-464.0708 1189.0431,-488.9292 1149.5,-391 1133.9408,-352.4672 1107.9444,-297.5 1149.5,-297.5"/>
<polygon fill="#000000" stroke="#000000" points="1324.4426,-678.4298 1314.0184,-675.0258 1319.4713,-678.9649 1314.5,-679.5 1314.5,-679.5 1314.5,-679.5 1319.4713,-678.9649 1314.9816,-683.9742 1324.4426,-678.4298 1324.4426,-678.4298"/>
<text text-anchor="start" x="1321.8345" y="-689.5" font-family="Arial" font-size="10.00" fill="#000000">FOREIGN KEY (user_id) REFERENCES users(id)</text>
</g>
<!-- public.play_lists -->
<g id="node6" class="node">
<title>public.play_lists</title>
<polygon fill="#efefef" stroke="transparent" points="880.5,-1166.5 880.5,-1201.5 1129.5,-1201.5 1129.5,-1166.5 880.5,-1166.5"/>
<polygon fill="none" stroke="#000000" points="880.5,-1166.5 880.5,-1201.5 1129.5,-1201.5 1129.5,-1166.5 880.5,-1166.5"/>
<text text-anchor="start" x="893.3668" y="-1179.3" font-family="Arial Bold" font-size="18.00" fill="#000000">public.play_lists</text>
<text text-anchor="start" x="1019.3794" y="-1179.3" font-family="Arial" font-size="14.00" fill="#000000"> </text>
<text text-anchor="start" x="1023.27" y="-1179.3" font-family="Arial" font-size="14.00" fill="#666666">[BASE TABLE]</text>
<polygon fill="none" stroke="#000000" points="880.5,-1136.5 880.5,-1166.5 1129.5,-1166.5 1129.5,-1136.5 880.5,-1136.5"/>
<text text-anchor="start" x="887.5" y="-1147.9" font-family="Arial" font-size="14.00" fill="#000000">id </text>
<text text-anchor="start" x="902.2798" y="-1147.9" font-family="Arial" font-size="14.00" fill="#666666">[uuid]</text>
<polygon fill="none" stroke="#000000" points="880.5,-1106.5 880.5,-1136.5 1129.5,-1136.5 1129.5,-1106.5 880.5,-1106.5"/>
<text text-anchor="start" x="887.5" y="-1117.9" font-family="Arial" font-size="14.00" fill="#000000">play_list_names_id </text>
<text text-anchor="start" x="1010.4116" y="-1117.9" font-family="Arial" font-size="14.00" fill="#666666">[bigint]</text>
<polygon fill="none" stroke="#000000" points="880.5,-1076.5 880.5,-1106.5 1129.5,-1106.5 1129.5,-1076.5 880.5,-1076.5"/>
<text text-anchor="start" x="887.5" y="-1087.9" font-family="Arial" font-size="14.00" fill="#000000">video_id </text>
<text text-anchor="start" x="943.5168" y="-1087.9" font-family="Arial" font-size="14.00" fill="#666666">[uuid]</text>
<polygon fill="none" stroke="#000000" points="880.5,-1046.5 880.5,-1076.5 1129.5,-1076.5 1129.5,-1046.5 880.5,-1046.5"/>
<text text-anchor="start" x="887.1438" y="-1057.9" font-family="Arial" font-size="14.00" fill="#000000">created_at </text>
<text text-anchor="start" x="957.1718" y="-1057.9" font-family="Arial" font-size="14.00" fill="#666666">[timestamp with time zone]</text>
</g>
<!-- public.play_lists&#45;&gt;public.videos -->
<g id="edge5" class="edge">
<title>public.play_lists:video_id&#45;&gt;public.videos:id</title>
<path fill="none" stroke="#000000" d="M870.5084,-1089.9689C846.305,-1081.1486 866.6945,-1036.0961 880.5,-1004 889.6925,-982.6287 909.3075,-989.3713 918.5,-968 934.9198,-929.826 960.0556,-874.5 918.5,-874.5"/>
<polygon fill="#000000" stroke="#000000" points="870.6154,-1089.9852 879.8183,-1095.9481 875.5577,-1090.7426 880.5,-1091.5 880.5,-1091.5 880.5,-1091.5 875.5577,-1090.7426 881.1817,-1087.0519 870.6154,-1089.9852 870.6154,-1089.9852"/>
<text text-anchor="start" x="641.3855" y="-1101.5" font-family="Arial" font-size="10.00" fill="#000000">FOREIGN KEY (video_id) REFERENCES videos(id)</text>
</g>
<!-- public.play_lists&#45;&gt;public.play_list_names -->
<g id="edge6" class="edge">
<title>public.play_lists:play_list_names_id&#45;&gt;public.play_list_names:id</title>
<path fill="none" stroke="#000000" d="M1139.6861,-1120.4223C1176.2384,-1111.6036 1142.8405,-1050.4694 1129.5,-1004 1104.7618,-917.8284 1047.2382,-919.1716 1022.5,-833 1011.0334,-793.0578 980.9444,-739.5 1022.5,-739.5"/>
<polygon fill="#000000" stroke="#000000" points="1139.4445,-1120.4478 1129.0265,-1117.025 1134.4722,-1120.9739 1129.5,-1121.5 1129.5,-1121.5 1129.5,-1121.5 1134.4722,-1120.9739 1129.9735,-1125.975 1139.4445,-1120.4478 1139.4445,-1120.4478"/>
<text text-anchor="start" x="913.3225" y="-1105.5" font-family="Arial" font-size="10.00" fill="#000000">FOREIGN KEY (play_list_names_id) REFERENCES play_list_names(id) ON DELETE CASCADE</text>
</g>
<!-- public.feelings -->
<g id="node7" class="node">
<title>public.feelings</title>
<polygon fill="#efefef" stroke="transparent" points="1251.5,-1166.5 1251.5,-1201.5 1500.5,-1201.5 1500.5,-1166.5 1251.5,-1166.5"/>
<polygon fill="none" stroke="#000000" points="1251.5,-1166.5 1251.5,-1201.5 1500.5,-1201.5 1500.5,-1166.5 1251.5,-1166.5"/>
<text text-anchor="start" x="1270.3608" y="-1179.3" font-family="Arial Bold" font-size="18.00" fill="#000000">public.feelings</text>
<text text-anchor="start" x="1384.3854" y="-1179.3" font-family="Arial" font-size="14.00" fill="#000000"> </text>
<text text-anchor="start" x="1388.276" y="-1179.3" font-family="Arial" font-size="14.00" fill="#666666">[BASE TABLE]</text>
<polygon fill="none" stroke="#000000" points="1251.5,-1136.5 1251.5,-1166.5 1500.5,-1166.5 1500.5,-1136.5 1251.5,-1136.5"/>
<text text-anchor="start" x="1258.5" y="-1147.9" font-family="Arial" font-size="14.00" fill="#000000">user_id </text>
<text text-anchor="start" x="1308.2882" y="-1147.9" font-family="Arial" font-size="14.00" fill="#666666">[uuid]</text>
<polygon fill="none" stroke="#000000" points="1251.5,-1106.5 1251.5,-1136.5 1500.5,-1136.5 1500.5,-1106.5 1251.5,-1106.5"/>
<text text-anchor="start" x="1258.5" y="-1117.9" font-family="Arial" font-size="14.00" fill="#000000">video_id </text>
<text text-anchor="start" x="1314.5168" y="-1117.9" font-family="Arial" font-size="14.00" fill="#666666">[uuid]</text>
<polygon fill="none" stroke="#000000" points="1251.5,-1076.5 1251.5,-1106.5 1500.5,-1106.5 1500.5,-1076.5 1251.5,-1076.5"/>
<text text-anchor="start" x="1258.5" y="-1087.9" font-family="Arial" font-size="14.00" fill="#000000">reaction </text>
<text text-anchor="start" x="1312.1788" y="-1087.9" font-family="Arial" font-size="14.00" fill="#666666">[reaction_types]</text>
<polygon fill="none" stroke="#000000" points="1251.5,-1046.5 1251.5,-1076.5 1500.5,-1076.5 1500.5,-1046.5 1251.5,-1046.5"/>
<text text-anchor="start" x="1258.1438" y="-1057.9" font-family="Arial" font-size="14.00" fill="#000000">created_at </text>
<text text-anchor="start" x="1328.1718" y="-1057.9" font-family="Arial" font-size="14.00" fill="#666666">[timestamp with time zone]</text>
</g>
<!-- public.feelings&#45;&gt;public.users -->
<g id="edge7" class="edge">
<title>public.feelings:user_id&#45;&gt;public.users:id</title>
<path fill="none" stroke="#000000" d="M1510.7522,-1150.6232C1562.83,-1141.0223 1535.7251,-1054.8299 1500.5,-1004 1474.5447,-966.5465 1430.5111,-1005.4148 1404.5,-968 1401.8421,-964.1769 1407.1563,-297.5 1402.5,-297.5"/>
<polygon fill="#000000" stroke="#000000" points="1510.4636,-1150.6478 1500.1165,-1147.0164 1505.4818,-1151.0739 1500.5,-1151.5 1500.5,-1151.5 1500.5,-1151.5 1505.4818,-1151.0739 1500.8835,-1155.9836 1510.4636,-1150.6478 1510.4636,-1150.6478"/>
<text text-anchor="start" x="1507.8345" y="-1161.5" font-family="Arial" font-size="10.00" fill="#000000">FOREIGN KEY (user_id) REFERENCES users(id)</text>
</g>
<!-- public.feelings&#45;&gt;public.videos -->
<g id="edge8" class="edge">
<title>public.feelings:video_id&#45;&gt;public.videos:id</title>
<path fill="none" stroke="#000000" d="M1241.49,-1120.6151C1195.0466,-1111.6131 1227.8573,-1036.2958 1180.5,-1004 1102.2657,-950.6473 1047.7616,-1022.7518 970.5,-968 931.704,-940.5071 966.0498,-874.5 918.5,-874.5"/>
<polygon fill="#000000" stroke="#000000" points="1241.5388,-1120.6193 1251.1037,-1125.9825 1246.5194,-1121.0597 1251.5,-1121.5 1251.5,-1121.5 1251.5,-1121.5 1246.5194,-1121.0597 1251.8963,-1117.0175 1241.5388,-1120.6193 1241.5388,-1120.6193"/>
<text text-anchor="start" x="1012.3855" y="-1131.5" font-family="Arial" font-size="10.00" fill="#000000">FOREIGN KEY (video_id) REFERENCES videos(id)</text>
</g>
<!-- public.channel_subscriptions -->
<g id="node8" class="node">
<title>public.channel_subscriptions</title>
<polygon fill="#efefef" stroke="transparent" points="1457.5,-724.5 1457.5,-759.5 1798.5,-759.5 1798.5,-724.5 1457.5,-724.5"/>
<polygon fill="none" stroke="#000000" points="1457.5,-724.5 1457.5,-759.5 1798.5,-759.5 1798.5,-724.5 1457.5,-724.5"/>
<text text-anchor="start" x="1464.3459" y="-737.3" font-family="Arial Bold" font-size="18.00" fill="#000000">public.channel_subscriptions</text>
<text text-anchor="start" x="1694.4003" y="-737.3" font-family="Arial" font-size="14.00" fill="#000000"> </text>
<text text-anchor="start" x="1698.2909" y="-737.3" font-family="Arial" font-size="14.00" fill="#666666">[BASE TABLE]</text>
<polygon fill="none" stroke="#000000" points="1457.5,-694.5 1457.5,-724.5 1798.5,-724.5 1798.5,-694.5 1457.5,-694.5"/>
<text text-anchor="start" x="1464.5" y="-705.9" font-family="Arial" font-size="14.00" fill="#000000">subscriber_id </text>
<text text-anchor="start" x="1551.6206" y="-705.9" font-family="Arial" font-size="14.00" fill="#666666">[uuid]</text>
<polygon fill="none" stroke="#000000" points="1457.5,-664.5 1457.5,-694.5 1798.5,-694.5 1798.5,-664.5 1457.5,-664.5"/>
<text text-anchor="start" x="1464.5" y="-675.9" font-family="Arial" font-size="14.00" fill="#000000">channel_id </text>
<text text-anchor="start" x="1536.082" y="-675.9" font-family="Arial" font-size="14.00" fill="#666666">[uuid]</text>
<polygon fill="none" stroke="#000000" points="1457.5,-634.5 1457.5,-664.5 1798.5,-664.5 1798.5,-634.5 1457.5,-634.5"/>
<text text-anchor="start" x="1464.5" y="-645.9" font-family="Arial" font-size="14.00" fill="#000000">created_at </text>
<text text-anchor="start" x="1534.528" y="-645.9" font-family="Arial" font-size="14.00" fill="#666666">[timestamp with time zone]</text>
</g>
<!-- public.channel_subscriptions&#45;&gt;public.users -->
<g id="edge9" class="edge">
<title>public.channel_subscriptions:channel_id&#45;&gt;public.users:id</title>
<path fill="none" stroke="#000000" d="M1447.0717,-678.9786C1298.1368,-663.2623 1570.3433,-297.5 1402.5,-297.5"/>
<polygon fill="#000000" stroke="#000000" points="1447.5125,-679.0006 1457.2752,-683.9944 1452.5062,-679.2503 1457.5,-679.5 1457.5,-679.5 1457.5,-679.5 1452.5062,-679.2503 1457.7248,-675.0056 1447.5125,-679.0006 1447.5125,-679.0006"/>
<text text-anchor="start" x="1275.051" y="-663.5" font-family="Arial" font-size="10.00" fill="#000000">FOREIGN KEY (channel_id) REFERENCES users(id)</text>
</g>
<!-- public.channel_subscriptions&#45;&gt;public.users -->
<g id="edge10" class="edge">
<title>public.channel_subscriptions:subscriber_id&#45;&gt;public.users:id</title>
<path fill="none" stroke="#000000" d="M1447.6659,-707.6631C1374.9289,-677.9412 1491.2596,-297.5 1402.5,-297.5"/>
<polygon fill="#000000" stroke="#000000" points="1447.67,-707.6638 1456.6737,-713.9235 1452.585,-708.5819 1457.5,-709.5 1457.5,-709.5 1457.5,-709.5 1452.585,-708.5819 1458.3263,-705.0765 1447.67,-707.6638 1447.67,-707.6638"/>
<text text-anchor="start" x="1464.5015" y="-719.5" font-family="Arial" font-size="10.00" fill="#000000">FOREIGN KEY (subscriber_id) REFERENCES users(id)</text>
</g>
</g>
</svg>
