<svg xmlns="http://www.w3.org/2000/svg" xmlns:xlink="http://www.w3.org/1999/xlink" width="1849pt" height="1253pt" viewBox="0 0 1849 1253"><g id="graph0" class="graph" transform="scale(1 1) rotate(0) translate(4 1249)"><title>my_app_db</title><polygon fill="#fff" stroke="transparent" points="-4 4 -4 -1249 1845 -1249 1845 4 -4 4"/><g id="node1" class="node"><title>public.schema_migrations</title><polygon fill="#efefef" stroke="transparent" points="43.5 -1121.5 43.5 -1156.5 362.5 -1156.5 362.5 -1121.5 43.5 -1121.5"/><polygon fill="none" stroke="#000" points="43.5 -1121.5 43.5 -1156.5 362.5 -1156.5 362.5 -1121.5 43.5 -1121.5"/><text x="50.36" y="-1134.3" fill="#000" font-family="Arial Bold" font-size="18" text-anchor="start">public.schema_migrations</text><text x="262.277" y="-1134.3" fill="#666" font-family="Arial" font-size="14" text-anchor="start">[BASE TABLE]</text><polygon fill="none" stroke="#000" points="43.5 -1091.5 43.5 -1121.5 362.5 -1121.5 362.5 -1091.5 43.5 -1091.5"/><text x="50.5" y="-1102.9" fill="#000" font-family="Arial" font-size="14" text-anchor="start">version</text><text x="99.506" y="-1102.9" fill="#666" font-family="Arial" font-size="14" text-anchor="start">[varchar(255)]</text></g><g id="node2" class="node"><title>public.users</title><polygon fill="#efefef" stroke="transparent" points="1149.5 -312.5 1149.5 -347.5 1402.5 -347.5 1402.5 -312.5 1149.5 -312.5"/><polygon fill="none" stroke="#000" points="1149.5 -312.5 1149.5 -347.5 1402.5 -347.5 1402.5 -312.5 1149.5 -312.5"/><text x="1179.366" y="-325.3" fill="#000" font-family="Arial Bold" font-size="18" text-anchor="start">public.users</text><text x="1279.271" y="-325.3" fill="#666" font-family="Arial" font-size="14" text-anchor="start">[BASE TABLE]</text><polygon fill="none" stroke="#000" points="1149.5 -282.5 1149.5 -312.5 1402.5 -312.5 1402.5 -282.5 1149.5 -282.5"/><text x="1156.5" y="-293.9" fill="#000" font-family="Arial" font-size="14" text-anchor="start">id</text><text x="1171.28" y="-293.9" fill="#666" font-family="Arial" font-size="14" text-anchor="start">[uuid]</text><polygon fill="none" stroke="#000" points="1149.5 -252.5 1149.5 -282.5 1402.5 -282.5 1402.5 -252.5 1149.5 -252.5"/><text x="1156.5" y="-263.9" fill="#000" font-family="Arial" font-size="14" text-anchor="start">email</text><text x="1193.83" y="-263.9" fill="#666" font-family="Arial" font-size="14" text-anchor="start">[citext]</text><polygon fill="none" stroke="#000" points="1149.5 -222.5 1149.5 -252.5 1402.5 -252.5 1402.5 -222.5 1149.5 -222.5"/><text x="1156.5" y="-233.9" fill="#000" font-family="Arial" font-size="14" text-anchor="start">phone</text><text x="1199.304" y="-233.9" fill="#666" font-family="Arial" font-size="14" text-anchor="start">[varchar]</text><polygon fill="none" stroke="#000" points="1149.5 -192.5 1149.5 -222.5 1402.5 -222.5 1402.5 -192.5 1149.5 -192.5"/><text x="1156.5" y="-203.9" fill="#000" font-family="Arial" font-size="14" text-anchor="start">name</text><text x="1195.399" y="-203.9" fill="#666" font-family="Arial" font-size="14" text-anchor="start">[varchar]</text><polygon fill="none" stroke="#000" points="1149.5 -162.5 1149.5 -192.5 1402.5 -192.5 1402.5 -162.5 1149.5 -162.5"/><text x="1156.5" y="-173.9" fill="#000" font-family="Arial" font-size="14" text-anchor="start">channel_name</text><text x="1252.201" y="-173.9" fill="#666" font-family="Arial" font-size="14" text-anchor="start">[varchar]</text><polygon fill="none" stroke="#000" points="1149.5 -132.5 1149.5 -162.5 1402.5 -162.5 1402.5 -132.5 1149.5 -132.5"/><text x="1156.5" y="-143.9" fill="#000" font-family="Arial" font-size="14" text-anchor="start">description</text><text x="1228.068" y="-143.9" fill="#666" font-family="Arial" font-size="14" text-anchor="start">[text]</text><polygon fill="none" stroke="#000" points="1149.5 -102.5 1149.5 -132.5 1402.5 -132.5 1402.5 -102.5 1149.5 -102.5"/><text x="1156.5" y="-113.9" fill="#000" font-family="Arial" font-size="14" text-anchor="start">subscriber_count</text><text x="1266.97" y="-113.9" fill="#666" font-family="Arial" font-size="14" text-anchor="start">[integer]</text><polygon fill="none" stroke="#000" points="1149.5 -72.5 1149.5 -102.5 1402.5 -102.5 1402.5 -72.5 1149.5 -72.5"/><text x="1156.5" y="-83.9" fill="#000" font-family="Arial" font-size="14" text-anchor="start">created_at</text><text x="1226.528" y="-83.9" fill="#666" font-family="Arial" font-size="14" text-anchor="start">[timestamp with time zone]</text><polygon fill="none" stroke="#000" points="1149.5 -42.5 1149.5 -72.5 1402.5 -72.5 1402.5 -42.5 1149.5 -42.5"/><text x="1156.191" y="-53.9" fill="#000" font-family="Arial" font-size="14" text-anchor="start">updated_at</text><text x="1230.124" y="-53.9" fill="#666" font-family="Arial" font-size="14" text-anchor="start">[timestamp with time zone]</text></g><g id="node3" class="node"><title>public.videos</title><polygon fill="#efefef" stroke="transparent" points="665.5 -889.5 665.5 -924.5 918.5 -924.5 918.5 -889.5 665.5 -889.5"/><polygon fill="none" stroke="#000" points="665.5 -889.5 665.5 -924.5 918.5 -924.5 918.5 -889.5 665.5 -889.5"/><text x="691.362" y="-902.3" fill="#000" font-family="Arial Bold" font-size="18" text-anchor="start">public.videos</text><text x="799.275" y="-902.3" fill="#666" font-family="Arial" font-size="14" text-anchor="start">[BASE TABLE]</text><polygon fill="none" stroke="#000" points="665.5 -859.5 665.5 -889.5 918.5 -889.5 918.5 -859.5 665.5 -859.5"/><text x="672.5" y="-870.9" fill="#000" font-family="Arial" font-size="14" text-anchor="start">id</text><text x="687.28" y="-870.9" fill="#666" font-family="Arial" font-size="14" text-anchor="start">[uuid]</text><polygon fill="none" stroke="#000" points="665.5 -829.5 665.5 -859.5 918.5 -859.5 918.5 -829.5 665.5 -829.5"/><text x="672.5" y="-840.9" fill="#000" font-family="Arial" font-size="14" text-anchor="start">title</text><text x="698.168" y="-840.9" fill="#666" font-family="Arial" font-size="14" text-anchor="start">[varchar]</text><polygon fill="none" stroke="#000" points="665.5 -799.5 665.5 -829.5 918.5 -829.5 918.5 -799.5 665.5 -799.5"/><text x="672.5" y="-810.9" fill="#000" font-family="Arial" font-size="14" text-anchor="start">description</text><text x="744.068" y="-810.9" fill="#666" font-family="Arial" font-size="14" text-anchor="start">[text]</text><polygon fill="none" stroke="#000" points="665.5 -769.5 665.5 -799.5 918.5 -799.5 918.5 -769.5 665.5 -769.5"/><text x="672.5" y="-780.9" fill="#000" font-family="Arial" font-size="14" text-anchor="start">category</text><text x="730.072" y="-780.9" fill="#666" font-family="Arial" font-size="14" text-anchor="start">[category_types]</text><polygon fill="none" stroke="#000" points="665.5 -739.5 665.5 -769.5 918.5 -769.5 918.5 -739.5 665.5 -739.5"/><text x="672.5" y="-750.9" fill="#000" font-family="Arial" font-size="14" text-anchor="start">views_count</text><text x="753.407" y="-750.9" fill="#666" font-family="Arial" font-size="14" text-anchor="start">[integer]</text><polygon fill="none" stroke="#000" points="665.5 -709.5 665.5 -739.5 918.5 -739.5 918.5 -709.5 665.5 -709.5"/><text x="672.5" y="-720.9" fill="#000" font-family="Arial" font-size="14" text-anchor="start">likes_count</text><text x="746.407" y="-720.9" fill="#666" font-family="Arial" font-size="14" text-anchor="start">[integer]</text><polygon fill="none" stroke="#000" points="665.5 -679.5 665.5 -709.5 918.5 -709.5 918.5 -679.5 665.5 -679.5"/><text x="672.5" y="-690.9" fill="#000" font-family="Arial" font-size="14" text-anchor="start">dislikes_count</text><text x="764.297" y="-690.9" fill="#666" font-family="Arial" font-size="14" text-anchor="start">[integer]</text><polygon fill="none" stroke="#000" points="665.5 -649.5 665.5 -679.5 918.5 -679.5 918.5 -649.5 665.5 -649.5"/><text x="672.5" y="-660.9" fill="#000" font-family="Arial" font-size="14" text-anchor="start">thumbnail</text><text x="737.068" y="-660.9" fill="#666" font-family="Arial" font-size="14" text-anchor="start">[varchar]</text><polygon fill="none" stroke="#000" points="665.5 -619.5 665.5 -649.5 918.5 -649.5 918.5 -619.5 665.5 -619.5"/><text x="672.5" y="-630.9" fill="#000" font-family="Arial" font-size="14" text-anchor="start">stream_url</text><text x="742.5" y="-630.9" fill="#666" font-family="Arial" font-size="14" text-anchor="start">[varchar]</text><polygon fill="none" stroke="#000" points="665.5 -589.5 665.5 -619.5 918.5 -619.5 918.5 -589.5 665.5 -589.5"/><text x="672.5" y="-600.9" fill="#000" font-family="Arial" font-size="14" text-anchor="start">channel_id</text><text x="744.082" y="-600.9" fill="#666" font-family="Arial" font-size="14" text-anchor="start">[uuid]</text><polygon fill="none" stroke="#000" points="665.5 -559.5 665.5 -589.5 918.5 -589.5 918.5 -559.5 665.5 -559.5"/><text x="672.5" y="-570.9" fill="#000" font-family="Arial" font-size="14" text-anchor="start">duration</text><text x="726.961" y="-570.9" fill="#666" font-family="Arial" font-size="14" text-anchor="start">[double precision]</text><polygon fill="none" stroke="#000" points="665.5 -529.5 665.5 -559.5 918.5 -559.5 918.5 -529.5 665.5 -529.5"/><text x="672.5" y="-540.9" fill="#000" font-family="Arial" font-size="14" text-anchor="start">is_private</text><text x="736.285" y="-540.9" fill="#666" font-family="Arial" font-size="14" text-anchor="start">[boolean]</text><polygon fill="none" stroke="#000" points="665.5 -499.5 665.5 -529.5 918.5 -529.5 918.5 -499.5 665.5 -499.5"/><text x="672.5" y="-510.9" fill="#000" font-family="Arial" font-size="14" text-anchor="start">created_at</text><text x="742.528" y="-510.9" fill="#666" font-family="Arial" font-size="14" text-anchor="start">[timestamp with time zone]</text><polygon fill="none" stroke="#000" points="665.5 -469.5 665.5 -499.5 918.5 -499.5 918.5 -469.5 665.5 -469.5"/><text x="672.192" y="-480.9" fill="#000" font-family="Arial" font-size="14" text-anchor="start">updated_at</text><text x="746.124" y="-480.9" fill="#666" font-family="Arial" font-size="14" text-anchor="start">[timestamp with time zone]</text></g><g id="edge1" class="edge"><title>public.videos:channel_id-&gt;public.users:id</title><path fill="none" stroke="#000" d="M928.6366,-603.8459C993.9835,-594.6733 925.2187,-491.1381 970.5,-427 1027.132,-346.7844 1051.3077,-297.5 1149.5,-297.5"/><polygon fill="#000" stroke="#000" points="928.479 -603.856 918.21 -600.009 923.49 -604.178 918.5 -604.5 918.5 -604.5 918.5 -604.5 923.49 -604.178 918.79 -608.991 928.479 -603.856 928.479 -603.856"/><text x="925.051" y="-614.5" fill="#000" font-family="Arial" font-size="10" text-anchor="start">FOREIGN KEY (channel_id) REFERENCES users(id)</text></g><g id="node4" class="node"><title>public.watch_history</title><polygon fill="#efefef" stroke="transparent" points="466.5 -1166.5 466.5 -1201.5 739.5 -1201.5 739.5 -1166.5 466.5 -1166.5"/><polygon fill="none" stroke="#000" points="466.5 -1166.5 466.5 -1201.5 739.5 -1201.5 739.5 -1166.5 466.5 -1166.5"/><text x="473.361" y="-1179.3" fill="#000" font-family="Arial Bold" font-size="18" text-anchor="start">public.watch_history</text><text x="639.276" y="-1179.3" fill="#666" font-family="Arial" font-size="14" text-anchor="start">[BASE TABLE]</text><polygon fill="none" stroke="#000" points="466.5 -1136.5 466.5 -1166.5 739.5 -1166.5 739.5 -1136.5 466.5 -1136.5"/><text x="473.5" y="-1147.9" fill="#000" font-family="Arial" font-size="14" text-anchor="start">video_id</text><text x="529.517" y="-1147.9" fill="#666" font-family="Arial" font-size="14" text-anchor="start">[uuid]</text><polygon fill="none" stroke="#000" points="466.5 -1106.5 466.5 -1136.5 739.5 -1136.5 739.5 -1106.5 466.5 -1106.5"/><text x="473.5" y="-1117.9" fill="#000" font-family="Arial" font-size="14" text-anchor="start">user_id</text><text x="523.288" y="-1117.9" fill="#666" font-family="Arial" font-size="14" text-anchor="start">[uuid]</text><polygon fill="none" stroke="#000" points="466.5 -1076.5 466.5 -1106.5 739.5 -1106.5 739.5 -1076.5 466.5 -1076.5"/><text x="473.5" y="-1087.9" fill="#000" font-family="Arial" font-size="14" text-anchor="start">last_watched_at</text><text x="582.427" y="-1087.9" fill="#666" font-family="Arial" font-size="14" text-anchor="start">[time without time zone]</text><polygon fill="none" stroke="#000" points="466.5 -1046.5 466.5 -1076.5 739.5 -1076.5 739.5 -1046.5 466.5 -1046.5"/><text x="473.5" y="-1057.9" fill="#000" font-family="Arial" font-size="14" text-anchor="start">created_at</text><text x="543.528" y="-1057.9" fill="#666" font-family="Arial" font-size="14" text-anchor="start">[timestamp with time zone]</text></g><g id="edge2" class="edge"><title>public.watch_history:user_id-&gt;public.users:id</title><path fill="none" stroke="#000" d="M459.3646,-1113.9464C431.844,-1048.7357 458.1322,-579.6493 612.5,-427 699.7849,-340.6869 1026.7458,-297.5 1149.5,-297.5"/><polygon fill="#000" stroke="#000" points="459.633 -1114.23 463.229 -1124.59 463.067 -1117.865 466.5 -1121.5 466.5 -1121.5 466.5 -1121.5 463.067 -1117.865 469.771 -1118.41 459.633 -1114.23 459.633 -1114.23"/><text x="236.834" y="-1131.5" fill="#000" font-family="Arial" font-size="10" text-anchor="start">FOREIGN KEY (user_id) REFERENCES users(id)</text></g><g id="edge3" class="edge"><title>public.watch_history:video_id-&gt;public.videos:id</title><path fill="none" stroke="#000" d="M749.7288,-1150.6386C801.555,-1141.2034 772.2979,-1056.4289 739.5,-1004 720.103,-972.993 684.897,-999.007 665.5,-968 643.4612,-932.77 623.9444,-874.5 665.5,-874.5"/><polygon fill="#000" stroke="#000" points="749.465 -1150.661 739.122 -1147.016 744.482 -1151.08 739.5 -1151.5 739.5 -1151.5 739.5 -1151.5 744.482 -1151.08 739.878 -1155.984 749.465 -1150.661 749.465 -1150.661"/><text x="684.885" y="-1135.5" fill="#000" font-family="Arial" font-size="10" text-anchor="start">FOREIGN KEY (video_id) REFERENCES videos(id)</text></g><g id="node5" class="node"><title>public.play_list_names</title><polygon fill="#efefef" stroke="transparent" points="1022.5 -754.5 1022.5 -789.5 1314.5 -789.5 1314.5 -754.5 1022.5 -754.5"/><polygon fill="none" stroke="#000" points="1022.5 -754.5 1022.5 -789.5 1314.5 -789.5 1314.5 -754.5 1022.5 -754.5"/><text x="1029.358" y="-767.3" fill="#000" font-family="Arial Bold" font-size="18" text-anchor="start">public.play_list_names</text><text x="1214.278" y="-767.3" fill="#666" font-family="Arial" font-size="14" text-anchor="start">[BASE TABLE]</text><polygon fill="none" stroke="#000" points="1022.5 -724.5 1022.5 -754.5 1314.5 -754.5 1314.5 -724.5 1022.5 -724.5"/><text x="1029.5" y="-735.9" fill="#000" font-family="Arial" font-size="14" text-anchor="start">id</text><text x="1044.28" y="-735.9" fill="#666" font-family="Arial" font-size="14" text-anchor="start">[bigint]</text><polygon fill="none" stroke="#000" points="1022.5 -694.5 1022.5 -724.5 1314.5 -724.5 1314.5 -694.5 1022.5 -694.5"/><text x="1029.5" y="-705.9" fill="#000" font-family="Arial" font-size="14" text-anchor="start">name</text><text x="1068.399" y="-705.9" fill="#666" font-family="Arial" font-size="14" text-anchor="start">[varchar]</text><polygon fill="none" stroke="#000" points="1022.5 -664.5 1022.5 -694.5 1314.5 -694.5 1314.5 -664.5 1022.5 -664.5"/><text x="1029.5" y="-675.9" fill="#000" font-family="Arial" font-size="14" text-anchor="start">user_id</text><text x="1079.288" y="-675.9" fill="#666" font-family="Arial" font-size="14" text-anchor="start">[uuid]</text><polygon fill="none" stroke="#000" points="1022.5 -634.5 1022.5 -664.5 1314.5 -664.5 1314.5 -634.5 1022.5 -634.5"/><text x="1029.5" y="-645.9" fill="#000" font-family="Arial" font-size="14" text-anchor="start">video_count</text><text x="1108.866" y="-645.9" fill="#666" font-family="Arial" font-size="14" text-anchor="start">[bigint]</text><polygon fill="none" stroke="#000" points="1022.5 -604.5 1022.5 -634.5 1314.5 -634.5 1314.5 -604.5 1022.5 -604.5"/><text x="1029.5" y="-615.9" fill="#000" font-family="Arial" font-size="14" text-anchor="start">created_at</text><text x="1099.528" y="-615.9" fill="#666" font-family="Arial" font-size="14" text-anchor="start">[timestamp with time zone]</text></g><g id="edge4" class="edge"><title>public.play_list_names:user_id-&gt;public.users:id</title><path fill="none" stroke="#000" d="M1324.7648,-678.3952C1361.9451,-669.3602 1332.6019,-606.8296 1314.5,-562 1274.9569,-464.0708 1189.0431,-488.9292 1149.5,-391 1133.9408,-352.4672 1107.9444,-297.5 1149.5,-297.5"/><polygon fill="#000" stroke="#000" points="1324.443 -678.43 1314.018 -675.026 1319.471 -678.965 1314.5 -679.5 1314.5 -679.5 1314.5 -679.5 1319.471 -678.965 1314.982 -683.974 1324.443 -678.43 1324.443 -678.43"/><text x="1321.834" y="-689.5" fill="#000" font-family="Arial" font-size="10" text-anchor="start">FOREIGN KEY (user_id) REFERENCES users(id)</text></g><g id="node6" class="node"><title>public.play_lists</title><polygon fill="#efefef" stroke="transparent" points="880.5 -1166.5 880.5 -1201.5 1129.5 -1201.5 1129.5 -1166.5 880.5 -1166.5"/><polygon fill="none" stroke="#000" points="880.5 -1166.5 880.5 -1201.5 1129.5 -1201.5 1129.5 -1166.5 880.5 -1166.5"/><text x="893.367" y="-1179.3" fill="#000" font-family="Arial Bold" font-size="18" text-anchor="start">public.play_lists</text><text x="1023.27" y="-1179.3" fill="#666" font-family="Arial" font-size="14" text-anchor="start">[BASE TABLE]</text><polygon fill="none" stroke="#000" points="880.5 -1136.5 880.5 -1166.5 1129.5 -1166.5 1129.5 -1136.5 880.5 -1136.5"/><text x="887.5" y="-1147.9" fill="#000" font-family="Arial" font-size="14" text-anchor="start">id</text><text x="902.28" y="-1147.9" fill="#666" font-family="Arial" font-size="14" text-anchor="start">[uuid]</text><polygon fill="none" stroke="#000" points="880.5 -1106.5 880.5 -1136.5 1129.5 -1136.5 1129.5 -1106.5 880.5 -1106.5"/><text x="887.5" y="-1117.9" fill="#000" font-family="Arial" font-size="14" text-anchor="start">play_list_names_id</text><text x="1010.412" y="-1117.9" fill="#666" font-family="Arial" font-size="14" text-anchor="start">[bigint]</text><polygon fill="none" stroke="#000" points="880.5 -1076.5 880.5 -1106.5 1129.5 -1106.5 1129.5 -1076.5 880.5 -1076.5"/><text x="887.5" y="-1087.9" fill="#000" font-family="Arial" font-size="14" text-anchor="start">video_id</text><text x="943.517" y="-1087.9" fill="#666" font-family="Arial" font-size="14" text-anchor="start">[uuid]</text><polygon fill="none" stroke="#000" points="880.5 -1046.5 880.5 -1076.5 1129.5 -1076.5 1129.5 -1046.5 880.5 -1046.5"/><text x="887.144" y="-1057.9" fill="#000" font-family="Arial" font-size="14" text-anchor="start">created_at</text><text x="957.172" y="-1057.9" fill="#666" font-family="Arial" font-size="14" text-anchor="start">[timestamp with time zone]</text></g><g id="edge5" class="edge"><title>public.play_lists:video_id-&gt;public.videos:id</title><path fill="none" stroke="#000" d="M870.5084,-1089.9689C846.305,-1081.1486 866.6945,-1036.0961 880.5,-1004 889.6925,-982.6287 909.3075,-989.3713 918.5,-968 934.9198,-929.826 960.0556,-874.5 918.5,-874.5"/><polygon fill="#000" stroke="#000" points="870.615 -1089.985 879.818 -1095.948 875.558 -1090.743 880.5 -1091.5 880.5 -1091.5 880.5 -1091.5 875.558 -1090.743 881.182 -1087.052 870.615 -1089.985 870.615 -1089.985"/><text x="641.385" y="-1101.5" fill="#000" font-family="Arial" font-size="10" text-anchor="start">FOREIGN KEY (video_id) REFERENCES videos(id)</text></g><g id="edge6" class="edge"><title>public.play_lists:play_list_names_id-&gt;public.play_list_names:id</title><path fill="none" stroke="#000" d="M1139.6861,-1120.4223C1176.2384,-1111.6036 1142.8405,-1050.4694 1129.5,-1004 1104.7618,-917.8284 1047.2382,-919.1716 1022.5,-833 1011.0334,-793.0578 980.9444,-739.5 1022.5,-739.5"/><polygon fill="#000" stroke="#000" points="1139.445 -1120.448 1129.026 -1117.025 1134.472 -1120.974 1129.5 -1121.5 1129.5 -1121.5 1129.5 -1121.5 1134.472 -1120.974 1129.974 -1125.975 1139.445 -1120.448 1139.445 -1120.448"/><text x="913.322" y="-1105.5" fill="#000" font-family="Arial" font-size="10" text-anchor="start">FOREIGN KEY (play_list_names_id) REFERENCES play_list_names(id) ON DELETE CASCADE</text></g><g id="node7" class="node"><title>public.feelings</title><polygon fill="#efefef" stroke="transparent" points="1251.5 -1166.5 1251.5 -1201.5 1500.5 -1201.5 1500.5 -1166.5 1251.5 -1166.5"/><polygon fill="none" stroke="#000" points="1251.5 -1166.5 1251.5 -1201.5 1500.5 -1201.5 1500.5 -1166.5 1251.5 -1166.5"/><text x="1270.361" y="-1179.3" fill="#000" font-family="Arial Bold" font-size="18" text-anchor="start">public.feelings</text><text x="1388.276" y="-1179.3" fill="#666" font-family="Arial" font-size="14" text-anchor="start">[BASE TABLE]</text><polygon fill="none" stroke="#000" points="1251.5 -1136.5 1251.5 -1166.5 1500.5 -1166.5 1500.5 -1136.5 1251.5 -1136.5"/><text x="1258.5" y="-1147.9" fill="#000" font-family="Arial" font-size="14" text-anchor="start">user_id</text><text x="1308.288" y="-1147.9" fill="#666" font-family="Arial" font-size="14" text-anchor="start">[uuid]</text><polygon fill="none" stroke="#000" points="1251.5 -1106.5 1251.5 -1136.5 1500.5 -1136.5 1500.5 -1106.5 1251.5 -1106.5"/><text x="1258.5" y="-1117.9" fill="#000" font-family="Arial" font-size="14" text-anchor="start">video_id</text><text x="1314.517" y="-1117.9" fill="#666" font-family="Arial" font-size="14" text-anchor="start">[uuid]</text><polygon fill="none" stroke="#000" points="1251.5 -1076.5 1251.5 -1106.5 1500.5 -1106.5 1500.5 -1076.5 1251.5 -1076.5"/><text x="1258.5" y="-1087.9" fill="#000" font-family="Arial" font-size="14" text-anchor="start">reaction</text><text x="1312.179" y="-1087.9" fill="#666" font-family="Arial" font-size="14" text-anchor="start">[reaction_types]</text><polygon fill="none" stroke="#000" points="1251.5 -1046.5 1251.5 -1076.5 1500.5 -1076.5 1500.5 -1046.5 1251.5 -1046.5"/><text x="1258.144" y="-1057.9" fill="#000" font-family="Arial" font-size="14" text-anchor="start">created_at</text><text x="1328.172" y="-1057.9" fill="#666" font-family="Arial" font-size="14" text-anchor="start">[timestamp with time zone]</text></g><g id="edge7" class="edge"><title>public.feelings:user_id-&gt;public.users:id</title><path fill="none" stroke="#000" d="M1510.7522,-1150.6232C1562.83,-1141.0223 1535.7251,-1054.8299 1500.5,-1004 1474.5447,-966.5465 1430.5111,-1005.4148 1404.5,-968 1401.8421,-964.1769 1407.1563,-297.5 1402.5,-297.5"/><polygon fill="#000" stroke="#000" points="1510.464 -1150.648 1500.117 -1147.016 1505.482 -1151.074 1500.5 -1151.5 1500.5 -1151.5 1500.5 -1151.5 1505.482 -1151.074 1500.883 -1155.984 1510.464 -1150.648 1510.464 -1150.648"/><text x="1507.834" y="-1161.5" fill="#000" font-family="Arial" font-size="10" text-anchor="start">FOREIGN KEY (user_id) REFERENCES users(id)</text></g><g id="edge8" class="edge"><title>public.feelings:video_id-&gt;public.videos:id</title><path fill="none" stroke="#000" d="M1241.49,-1120.6151C1195.0466,-1111.6131 1227.8573,-1036.2958 1180.5,-1004 1102.2657,-950.6473 1047.7616,-1022.7518 970.5,-968 931.704,-940.5071 966.0498,-874.5 918.5,-874.5"/><polygon fill="#000" stroke="#000" points="1241.539 -1120.619 1251.104 -1125.983 1246.519 -1121.06 1251.5 -1121.5 1251.5 -1121.5 1251.5 -1121.5 1246.519 -1121.06 1251.896 -1117.017 1241.539 -1120.619 1241.539 -1120.619"/><text x="1012.385" y="-1131.5" fill="#000" font-family="Arial" font-size="10" text-anchor="start">FOREIGN KEY (video_id) REFERENCES videos(id)</text></g><g id="node8" class="node"><title>public.channel_subscriptions</title><polygon fill="#efefef" stroke="transparent" points="1457.5 -724.5 1457.5 -759.5 1798.5 -759.5 1798.5 -724.5 1457.5 -724.5"/><polygon fill="none" stroke="#000" points="1457.5 -724.5 1457.5 -759.5 1798.5 -759.5 1798.5 -724.5 1457.5 -724.5"/><text x="1464.346" y="-737.3" fill="#000" font-family="Arial Bold" font-size="18" text-anchor="start">public.channel_subscriptions</text><text x="1698.291" y="-737.3" fill="#666" font-family="Arial" font-size="14" text-anchor="start">[BASE TABLE]</text><polygon fill="none" stroke="#000" points="1457.5 -694.5 1457.5 -724.5 1798.5 -724.5 1798.5 -694.5 1457.5 -694.5"/><text x="1464.5" y="-705.9" fill="#000" font-family="Arial" font-size="14" text-anchor="start">subscriber_id</text><text x="1551.621" y="-705.9" fill="#666" font-family="Arial" font-size="14" text-anchor="start">[uuid]</text><polygon fill="none" stroke="#000" points="1457.5 -664.5 1457.5 -694.5 1798.5 -694.5 1798.5 -664.5 1457.5 -664.5"/><text x="1464.5" y="-675.9" fill="#000" font-family="Arial" font-size="14" text-anchor="start">channel_id</text><text x="1536.082" y="-675.9" fill="#666" font-family="Arial" font-size="14" text-anchor="start">[uuid]</text><polygon fill="none" stroke="#000" points="1457.5 -634.5 1457.5 -664.5 1798.5 -664.5 1798.5 -634.5 1457.5 -634.5"/><text x="1464.5" y="-645.9" fill="#000" font-family="Arial" font-size="14" text-anchor="start">created_at</text><text x="1534.528" y="-645.9" fill="#666" font-family="Arial" font-size="14" text-anchor="start">[timestamp with time zone]</text></g><g id="edge9" class="edge"><title>public.channel_subscriptions:channel_id-&gt;public.users:id</title><path fill="none" stroke="#000" d="M1447.0717,-678.9786C1298.1368,-663.2623 1570.3433,-297.5 1402.5,-297.5"/><polygon fill="#000" stroke="#000" points="1447.513 -679.001 1457.275 -683.994 1452.506 -679.25 1457.5 -679.5 1457.5 -679.5 1457.5 -679.5 1452.506 -679.25 1457.725 -675.006 1447.513 -679.001 1447.513 -679.001"/><text x="1275.051" y="-663.5" fill="#000" font-family="Arial" font-size="10" text-anchor="start">FOREIGN KEY (channel_id) REFERENCES users(id)</text></g><g id="edge10" class="edge"><title>public.channel_subscriptions:subscriber_id-&gt;public.users:id</title><path fill="none" stroke="#000" d="M1447.6659,-707.6631C1374.9289,-677.9412 1491.2596,-297.5 1402.5,-297.5"/><polygon fill="#000" stroke="#000" points="1447.67 -707.664 1456.674 -713.923 1452.585 -708.582 1457.5 -709.5 1457.5 -709.5 1457.5 -709.5 1452.585 -708.582 1458.326 -705.077 1447.67 -707.664 1447.67 -707.664"/><text x="1464.502" y="-719.5" fill="#000" font-family="Arial" font-size="10" text-anchor="start">FOREIGN KEY (subscriber_id) REFERENCES users(id)</text></g></g></svg>