<svg xmlns="http://www.w3.org/2000/svg" xmlns:xlink="http://www.w3.org/1999/xlink" width="419pt" height="220" viewBox="0 0 419 165"><g id="graph0" class="graph" transform="scale(1 1) rotate(0) translate(4 161)"><title>public.schema_migrations</title><polygon fill="#fff" stroke="transparent" points="-4 4 -4 -161 415 -161 415 4 -4 4"/><g id="node1" class="node"><title>public.schema_migrations</title><polygon fill="#efefef" stroke="transparent" points="46.5 -75.5 46.5 -110.5 365.5 -110.5 365.5 -75.5 46.5 -75.5"/><polygon fill="none" stroke="#000" points="46.5 -75.5 46.5 -110.5 365.5 -110.5 365.5 -75.5 46.5 -75.5"/><text x="53.36" y="-88.3" fill="#000" font-family="Arial Bold" font-size="18" text-anchor="start">public.schema_migrations</text><text x="265.277" y="-88.3" fill="#666" font-family="Arial" font-size="14" text-anchor="start">[BASE TABLE]</text><polygon fill="none" stroke="#000" points="46.5 -45.5 46.5 -75.5 365.5 -75.5 365.5 -45.5 46.5 -45.5"/><text x="53.5" y="-56.9" fill="#000" font-family="Arial" font-size="14" text-anchor="start">version</text><text x="102.506" y="-56.9" fill="#666" font-family="Arial" font-size="14" text-anchor="start">[varchar(255)]</text><polygon fill="none" stroke="#000" stroke-width="3" points="44.5 -44.5 44.5 -112.5 366.5 -112.5 366.5 -44.5 44.5 -44.5"/></g></g></svg>