<svg xmlns="http://www.w3.org/2000/svg" xmlns:xlink="http://www.w3.org/1999/xlink" width="1073pt" height="1259pt" viewBox="0 0 1073 1259"><g id="graph0" class="graph" transform="scale(1 1) rotate(0) translate(4 1255)"><title>public.videos</title><polygon fill="#fff" stroke="transparent" points="-4 4 -4 -1255 1069 -1255 1069 4 -4 4"/><g id="node1" class="node"><title>public.videos</title><polygon fill="#efefef" stroke="transparent" points="418.5 -892.5 418.5 -927.5 671.5 -927.5 671.5 -892.5 418.5 -892.5"/><polygon fill="none" stroke="#000" points="418.5 -892.5 418.5 -927.5 671.5 -927.5 671.5 -892.5 418.5 -892.5"/><text x="444.362" y="-905.3" fill="#000" font-family="Arial Bold" font-size="18" text-anchor="start">public.videos</text><text x="552.275" y="-905.3" fill="#666" font-family="Arial" font-size="14" text-anchor="start">[BASE TABLE]</text><polygon fill="none" stroke="#000" points="418.5 -862.5 418.5 -892.5 671.5 -892.5 671.5 -862.5 418.5 -862.5"/><text x="425.5" y="-873.9" fill="#000" font-family="Arial" font-size="14" text-anchor="start">id</text><text x="440.28" y="-873.9" fill="#666" font-family="Arial" font-size="14" text-anchor="start">[uuid]</text><polygon fill="none" stroke="#000" points="418.5 -832.5 418.5 -862.5 671.5 -862.5 671.5 -832.5 418.5 -832.5"/><text x="425.5" y="-843.9" fill="#000" font-family="Arial" font-size="14" text-anchor="start">title</text><text x="451.168" y="-843.9" fill="#666" font-family="Arial" font-size="14" text-anchor="start">[varchar]</text><polygon fill="none" stroke="#000" points="418.5 -802.5 418.5 -832.5 671.5 -832.5 671.5 -802.5 418.5 -802.5"/><text x="425.5" y="-813.9" fill="#000" font-family="Arial" font-size="14" text-anchor="start">description</text><text x="497.068" y="-813.9" fill="#666" font-family="Arial" font-size="14" text-anchor="start">[text]</text><polygon fill="none" stroke="#000" points="418.5 -772.5 418.5 -802.5 671.5 -802.5 671.5 -772.5 418.5 -772.5"/><text x="425.5" y="-783.9" fill="#000" font-family="Arial" font-size="14" text-anchor="start">category</text><text x="483.072" y="-783.9" fill="#666" font-family="Arial" font-size="14" text-anchor="start">[category_types]</text><polygon fill="none" stroke="#000" points="418.5 -742.5 418.5 -772.5 671.5 -772.5 671.5 -742.5 418.5 -742.5"/><text x="425.5" y="-753.9" fill="#000" font-family="Arial" font-size="14" text-anchor="start">views_count</text><text x="506.407" y="-753.9" fill="#666" font-family="Arial" font-size="14" text-anchor="start">[integer]</text><polygon fill="none" stroke="#000" points="418.5 -712.5 418.5 -742.5 671.5 -742.5 671.5 -712.5 418.5 -712.5"/><text x="425.5" y="-723.9" fill="#000" font-family="Arial" font-size="14" text-anchor="start">likes_count</text><text x="499.407" y="-723.9" fill="#666" font-family="Arial" font-size="14" text-anchor="start">[integer]</text><polygon fill="none" stroke="#000" points="418.5 -682.5 418.5 -712.5 671.5 -712.5 671.5 -682.5 418.5 -682.5"/><text x="425.5" y="-693.9" fill="#000" font-family="Arial" font-size="14" text-anchor="start">dislikes_count</text><text x="517.297" y="-693.9" fill="#666" font-family="Arial" font-size="14" text-anchor="start">[integer]</text><polygon fill="none" stroke="#000" points="418.5 -652.5 418.5 -682.5 671.5 -682.5 671.5 -652.5 418.5 -652.5"/><text x="425.5" y="-663.9" fill="#000" font-family="Arial" font-size="14" text-anchor="start">thumbnail</text><text x="490.068" y="-663.9" fill="#666" font-family="Arial" font-size="14" text-anchor="start">[varchar]</text><polygon fill="none" stroke="#000" points="418.5 -622.5 418.5 -652.5 671.5 -652.5 671.5 -622.5 418.5 -622.5"/><text x="425.5" y="-633.9" fill="#000" font-family="Arial" font-size="14" text-anchor="start">stream_url</text><text x="495.5" y="-633.9" fill="#666" font-family="Arial" font-size="14" text-anchor="start">[varchar]</text><polygon fill="none" stroke="#000" points="418.5 -592.5 418.5 -622.5 671.5 -622.5 671.5 -592.5 418.5 -592.5"/><text x="425.5" y="-603.9" fill="#000" font-family="Arial" font-size="14" text-anchor="start">channel_id</text><text x="497.082" y="-603.9" fill="#666" font-family="Arial" font-size="14" text-anchor="start">[uuid]</text><polygon fill="none" stroke="#000" points="418.5 -562.5 418.5 -592.5 671.5 -592.5 671.5 -562.5 418.5 -562.5"/><text x="425.5" y="-573.9" fill="#000" font-family="Arial" font-size="14" text-anchor="start">duration</text><text x="479.961" y="-573.9" fill="#666" font-family="Arial" font-size="14" text-anchor="start">[double precision]</text><polygon fill="none" stroke="#000" points="418.5 -532.5 418.5 -562.5 671.5 -562.5 671.5 -532.5 418.5 -532.5"/><text x="425.5" y="-543.9" fill="#000" font-family="Arial" font-size="14" text-anchor="start">is_private</text><text x="489.285" y="-543.9" fill="#666" font-family="Arial" font-size="14" text-anchor="start">[boolean]</text><polygon fill="none" stroke="#000" points="418.5 -502.5 418.5 -532.5 671.5 -532.5 671.5 -502.5 418.5 -502.5"/><text x="425.5" y="-513.9" fill="#000" font-family="Arial" font-size="14" text-anchor="start">created_at</text><text x="495.528" y="-513.9" fill="#666" font-family="Arial" font-size="14" text-anchor="start">[timestamp with time zone]</text><polygon fill="none" stroke="#000" points="418.5 -472.5 418.5 -502.5 671.5 -502.5 671.5 -472.5 418.5 -472.5"/><text x="425.192" y="-483.9" fill="#000" font-family="Arial" font-size="14" text-anchor="start">updated_at</text><text x="499.124" y="-483.9" fill="#666" font-family="Arial" font-size="14" text-anchor="start">[timestamp with time zone]</text><polygon fill="none" stroke="#000" stroke-width="3" points="416.5 -471.5 416.5 -929.5 672.5 -929.5 672.5 -471.5 416.5 -471.5"/></g><g id="node5" class="node"><title>public.users</title><polygon fill="#efefef" stroke="transparent" points="418.5 -312.5 418.5 -347.5 671.5 -347.5 671.5 -312.5 418.5 -312.5"/><polygon fill="none" stroke="#000" points="418.5 -312.5 418.5 -347.5 671.5 -347.5 671.5 -312.5 418.5 -312.5"/><text x="448.366" y="-325.3" fill="#000" font-family="Arial Bold" font-size="18" text-anchor="start">public.users</text><text x="548.271" y="-325.3" fill="#666" font-family="Arial" font-size="14" text-anchor="start">[BASE TABLE]</text><polygon fill="none" stroke="#000" points="418.5 -282.5 418.5 -312.5 671.5 -312.5 671.5 -282.5 418.5 -282.5"/><text x="425.5" y="-293.9" fill="#000" font-family="Arial" font-size="14" text-anchor="start">id</text><text x="440.28" y="-293.9" fill="#666" font-family="Arial" font-size="14" text-anchor="start">[uuid]</text><polygon fill="none" stroke="#000" points="418.5 -252.5 418.5 -282.5 671.5 -282.5 671.5 -252.5 418.5 -252.5"/><text x="425.5" y="-263.9" fill="#000" font-family="Arial" font-size="14" text-anchor="start">email</text><text x="462.83" y="-263.9" fill="#666" font-family="Arial" font-size="14" text-anchor="start">[citext]</text><polygon fill="none" stroke="#000" points="418.5 -222.5 418.5 -252.5 671.5 -252.5 671.5 -222.5 418.5 -222.5"/><text x="425.5" y="-233.9" fill="#000" font-family="Arial" font-size="14" text-anchor="start">phone</text><text x="468.304" y="-233.9" fill="#666" font-family="Arial" font-size="14" text-anchor="start">[varchar]</text><polygon fill="none" stroke="#000" points="418.5 -192.5 418.5 -222.5 671.5 -222.5 671.5 -192.5 418.5 -192.5"/><text x="425.5" y="-203.9" fill="#000" font-family="Arial" font-size="14" text-anchor="start">name</text><text x="464.399" y="-203.9" fill="#666" font-family="Arial" font-size="14" text-anchor="start">[varchar]</text><polygon fill="none" stroke="#000" points="418.5 -162.5 418.5 -192.5 671.5 -192.5 671.5 -162.5 418.5 -162.5"/><text x="425.5" y="-173.9" fill="#000" font-family="Arial" font-size="14" text-anchor="start">channel_name</text><text x="521.201" y="-173.9" fill="#666" font-family="Arial" font-size="14" text-anchor="start">[varchar]</text><polygon fill="none" stroke="#000" points="418.5 -132.5 418.5 -162.5 671.5 -162.5 671.5 -132.5 418.5 -132.5"/><text x="425.5" y="-143.9" fill="#000" font-family="Arial" font-size="14" text-anchor="start">description</text><text x="497.068" y="-143.9" fill="#666" font-family="Arial" font-size="14" text-anchor="start">[text]</text><polygon fill="none" stroke="#000" points="418.5 -102.5 418.5 -132.5 671.5 -132.5 671.5 -102.5 418.5 -102.5"/><text x="425.5" y="-113.9" fill="#000" font-family="Arial" font-size="14" text-anchor="start">subscriber_count</text><text x="535.97" y="-113.9" fill="#666" font-family="Arial" font-size="14" text-anchor="start">[integer]</text><polygon fill="none" stroke="#000" points="418.5 -72.5 418.5 -102.5 671.5 -102.5 671.5 -72.5 418.5 -72.5"/><text x="425.5" y="-83.9" fill="#000" font-family="Arial" font-size="14" text-anchor="start">created_at</text><text x="495.528" y="-83.9" fill="#666" font-family="Arial" font-size="14" text-anchor="start">[timestamp with time zone]</text><polygon fill="none" stroke="#000" points="418.5 -42.5 418.5 -72.5 671.5 -72.5 671.5 -42.5 418.5 -42.5"/><text x="425.192" y="-53.9" fill="#000" font-family="Arial" font-size="14" text-anchor="start">updated_at</text><text x="499.124" y="-53.9" fill="#666" font-family="Arial" font-size="14" text-anchor="start">[timestamp with time zone]</text></g><g id="edge4" class="edge"><title>public.videos:channel_id-&gt;public.users:id</title><path fill="none" stroke="#000" d="M408.2717,-606.9106C280.811,-591.9577 284.2205,-297.5 418.5,-297.5"/><polygon fill="#000" stroke="#000" points="408.517 -606.925 418.241 -611.992 413.508 -607.212 418.5 -607.5 418.5 -607.5 418.5 -607.5 413.508 -607.212 418.759 -603.008 408.517 -606.925 408.517 -606.925"/><text x="173.051" y="-617.5" fill="#000" font-family="Arial" font-size="10" text-anchor="start">FOREIGN KEY (channel_id) REFERENCES users(id)</text></g><g id="node2" class="node"><title>public.watch_history</title><polygon fill="#efefef" stroke="transparent" points="43.5 -1172.5 43.5 -1207.5 316.5 -1207.5 316.5 -1172.5 43.5 -1172.5"/><polygon fill="none" stroke="#000" points="43.5 -1172.5 43.5 -1207.5 316.5 -1207.5 316.5 -1172.5 43.5 -1172.5"/><text x="50.361" y="-1185.3" fill="#000" font-family="Arial Bold" font-size="18" text-anchor="start">public.watch_history</text><text x="216.276" y="-1185.3" fill="#666" font-family="Arial" font-size="14" text-anchor="start">[BASE TABLE]</text><polygon fill="none" stroke="#000" points="43.5 -1142.5 43.5 -1172.5 316.5 -1172.5 316.5 -1142.5 43.5 -1142.5"/><text x="50.5" y="-1153.9" fill="#000" font-family="Arial" font-size="14" text-anchor="start">video_id</text><text x="106.517" y="-1153.9" fill="#666" font-family="Arial" font-size="14" text-anchor="start">[uuid]</text><polygon fill="none" stroke="#000" points="43.5 -1112.5 43.5 -1142.5 316.5 -1142.5 316.5 -1112.5 43.5 -1112.5"/><text x="50.5" y="-1123.9" fill="#000" font-family="Arial" font-size="14" text-anchor="start">user_id</text><text x="100.288" y="-1123.9" fill="#666" font-family="Arial" font-size="14" text-anchor="start">[uuid]</text><polygon fill="none" stroke="#000" points="43.5 -1082.5 43.5 -1112.5 316.5 -1112.5 316.5 -1082.5 43.5 -1082.5"/><text x="50.5" y="-1093.9" fill="#000" font-family="Arial" font-size="14" text-anchor="start">last_watched_at</text><text x="159.427" y="-1093.9" fill="#666" font-family="Arial" font-size="14" text-anchor="start">[time without time zone]</text><polygon fill="none" stroke="#000" points="43.5 -1052.5 43.5 -1082.5 316.5 -1082.5 316.5 -1052.5 43.5 -1052.5"/><text x="50.5" y="-1063.9" fill="#000" font-family="Arial" font-size="14" text-anchor="start">created_at</text><text x="120.528" y="-1063.9" fill="#666" font-family="Arial" font-size="14" text-anchor="start">[timestamp with time zone]</text></g><g id="edge1" class="edge"><title>public.watch_history:video_id-&gt;public.videos:id</title><path fill="none" stroke="#000" d="M326.5692,-1156.8276C381.6006,-1148.8629 344.9597,-1071.7186 367.5,-1010 389.1466,-950.7285 355.3995,-877.5 418.5,-877.5"/><polygon fill="#000" stroke="#000" points="326.478 -1156.834 316.2 -1153.01 321.489 -1157.167 316.5 -1157.5 316.5 -1157.5 316.5 -1157.5 321.489 -1157.167 316.8 -1161.99 326.478 -1156.834 326.478 -1156.834"/><text x="323.385" y="-1167.5" fill="#000" font-family="Arial" font-size="10" text-anchor="start">FOREIGN KEY (video_id) REFERENCES videos(id)</text></g><g id="node3" class="node"><title>public.play_lists</title><polygon fill="#efefef" stroke="transparent" points="420.5 -1172.5 420.5 -1207.5 669.5 -1207.5 669.5 -1172.5 420.5 -1172.5"/><polygon fill="none" stroke="#000" points="420.5 -1172.5 420.5 -1207.5 669.5 -1207.5 669.5 -1172.5 420.5 -1172.5"/><text x="433.367" y="-1185.3" fill="#000" font-family="Arial Bold" font-size="18" text-anchor="start">public.play_lists</text><text x="563.27" y="-1185.3" fill="#666" font-family="Arial" font-size="14" text-anchor="start">[BASE TABLE]</text><polygon fill="none" stroke="#000" points="420.5 -1142.5 420.5 -1172.5 669.5 -1172.5 669.5 -1142.5 420.5 -1142.5"/><text x="427.5" y="-1153.9" fill="#000" font-family="Arial" font-size="14" text-anchor="start">id</text><text x="442.28" y="-1153.9" fill="#666" font-family="Arial" font-size="14" text-anchor="start">[uuid]</text><polygon fill="none" stroke="#000" points="420.5 -1112.5 420.5 -1142.5 669.5 -1142.5 669.5 -1112.5 420.5 -1112.5"/><text x="427.5" y="-1123.9" fill="#000" font-family="Arial" font-size="14" text-anchor="start">play_list_names_id</text><text x="550.412" y="-1123.9" fill="#666" font-family="Arial" font-size="14" text-anchor="start">[bigint]</text><polygon fill="none" stroke="#000" points="420.5 -1082.5 420.5 -1112.5 669.5 -1112.5 669.5 -1082.5 420.5 -1082.5"/><text x="427.5" y="-1093.9" fill="#000" font-family="Arial" font-size="14" text-anchor="start">video_id</text><text x="483.517" y="-1093.9" fill="#666" font-family="Arial" font-size="14" text-anchor="start">[uuid]</text><polygon fill="none" stroke="#000" points="420.5 -1052.5 420.5 -1082.5 669.5 -1082.5 669.5 -1052.5 420.5 -1052.5"/><text x="427.144" y="-1063.9" fill="#000" font-family="Arial" font-size="14" text-anchor="start">created_at</text><text x="497.172" y="-1063.9" fill="#666" font-family="Arial" font-size="14" text-anchor="start">[timestamp with time zone]</text></g><g id="edge2" class="edge"><title>public.play_lists:video_id-&gt;public.videos:id</title><path fill="none" stroke="#000" d="M410.8839,-1094.39C371.5794,-1067.6501 373.0467,-877.5 418.5,-877.5"/><polygon fill="#000" stroke="#000" points="410.985 -1094.423 419.115 -1101.782 415.743 -1095.961 420.5 -1097.5 420.5 -1097.5 420.5 -1097.5 415.743 -1095.961 421.885 -1093.218 410.985 -1094.423 410.985 -1094.423"/><text x="365.885" y="-1081.5" fill="#000" font-family="Arial" font-size="10" text-anchor="start">FOREIGN KEY (video_id) REFERENCES videos(id)</text></g><g id="node4" class="node"><title>public.feelings</title><polygon fill="#efefef" stroke="transparent" points="773.5 -1172.5 773.5 -1207.5 1022.5 -1207.5 1022.5 -1172.5 773.5 -1172.5"/><polygon fill="none" stroke="#000" points="773.5 -1172.5 773.5 -1207.5 1022.5 -1207.5 1022.5 -1172.5 773.5 -1172.5"/><text x="792.361" y="-1185.3" fill="#000" font-family="Arial Bold" font-size="18" text-anchor="start">public.feelings</text><text x="910.276" y="-1185.3" fill="#666" font-family="Arial" font-size="14" text-anchor="start">[BASE TABLE]</text><polygon fill="none" stroke="#000" points="773.5 -1142.5 773.5 -1172.5 1022.5 -1172.5 1022.5 -1142.5 773.5 -1142.5"/><text x="780.5" y="-1153.9" fill="#000" font-family="Arial" font-size="14" text-anchor="start">user_id</text><text x="830.288" y="-1153.9" fill="#666" font-family="Arial" font-size="14" text-anchor="start">[uuid]</text><polygon fill="none" stroke="#000" points="773.5 -1112.5 773.5 -1142.5 1022.5 -1142.5 1022.5 -1112.5 773.5 -1112.5"/><text x="780.5" y="-1123.9" fill="#000" font-family="Arial" font-size="14" text-anchor="start">video_id</text><text x="836.517" y="-1123.9" fill="#666" font-family="Arial" font-size="14" text-anchor="start">[uuid]</text><polygon fill="none" stroke="#000" points="773.5 -1082.5 773.5 -1112.5 1022.5 -1112.5 1022.5 -1082.5 773.5 -1082.5"/><text x="780.5" y="-1093.9" fill="#000" font-family="Arial" font-size="14" text-anchor="start">reaction</text><text x="834.179" y="-1093.9" fill="#666" font-family="Arial" font-size="14" text-anchor="start">[reaction_types]</text><polygon fill="none" stroke="#000" points="773.5 -1052.5 773.5 -1082.5 1022.5 -1082.5 1022.5 -1052.5 773.5 -1052.5"/><text x="780.144" y="-1063.9" fill="#000" font-family="Arial" font-size="14" text-anchor="start">created_at</text><text x="850.172" y="-1063.9" fill="#666" font-family="Arial" font-size="14" text-anchor="start">[timestamp with time zone]</text></g><g id="edge3" class="edge"><title>public.feelings:video_id-&gt;public.videos:id</title><path fill="none" stroke="#000" d="M763.7249,-1125.0257C715.3403,-1099.0614 727.9859,-877.5 671.5,-877.5"/><polygon fill="#000" stroke="#000" points="763.806 -1125.046 772.396 -1131.862 768.653 -1126.273 773.5 -1127.5 773.5 -1127.5 773.5 -1127.5 768.653 -1126.273 774.604 -1123.138 763.806 -1125.046 763.806 -1125.046"/><text x="534.385" y="-1137.5" fill="#000" font-family="Arial" font-size="10" text-anchor="start">FOREIGN KEY (video_id) REFERENCES videos(id)</text></g></g></svg>