<svg xmlns="http://www.w3.org/2000/svg" xmlns:xlink="http://www.w3.org/1999/xlink" width="962pt" height="989pt" viewBox="0 0 962 989"><g id="graph0" class="graph" transform="scale(1 1) rotate(0) translate(4 985)"><title>public.play_list_names</title><polygon fill="#fff" stroke="transparent" points="-4 4 -4 -985 958 -985 958 4 -4 4"/><g id="node1" class="node"><title>public.play_list_names</title><polygon fill="#efefef" stroke="transparent" points="237 -622.5 237 -657.5 529 -657.5 529 -622.5 237 -622.5"/><polygon fill="none" stroke="#000" points="237 -622.5 237 -657.5 529 -657.5 529 -622.5 237 -622.5"/><text x="243.858" y="-635.3" fill="#000" font-family="Arial Bold" font-size="18" text-anchor="start">public.play_list_names</text><text x="428.779" y="-635.3" fill="#666" font-family="Arial" font-size="14" text-anchor="start">[BASE TABLE]</text><polygon fill="none" stroke="#000" points="237 -592.5 237 -622.5 529 -622.5 529 -592.5 237 -592.5"/><text x="244" y="-603.9" fill="#000" font-family="Arial" font-size="14" text-anchor="start">id</text><text x="258.78" y="-603.9" fill="#666" font-family="Arial" font-size="14" text-anchor="start">[bigint]</text><polygon fill="none" stroke="#000" points="237 -562.5 237 -592.5 529 -592.5 529 -562.5 237 -562.5"/><text x="244" y="-573.9" fill="#000" font-family="Arial" font-size="14" text-anchor="start">name</text><text x="282.899" y="-573.9" fill="#666" font-family="Arial" font-size="14" text-anchor="start">[varchar]</text><polygon fill="none" stroke="#000" points="237 -532.5 237 -562.5 529 -562.5 529 -532.5 237 -532.5"/><text x="244" y="-543.9" fill="#000" font-family="Arial" font-size="14" text-anchor="start">user_id</text><text x="293.788" y="-543.9" fill="#666" font-family="Arial" font-size="14" text-anchor="start">[uuid]</text><polygon fill="none" stroke="#000" points="237 -502.5 237 -532.5 529 -532.5 529 -502.5 237 -502.5"/><text x="244" y="-513.9" fill="#000" font-family="Arial" font-size="14" text-anchor="start">video_count</text><text x="323.366" y="-513.9" fill="#666" font-family="Arial" font-size="14" text-anchor="start">[bigint]</text><polygon fill="none" stroke="#000" points="237 -472.5 237 -502.5 529 -502.5 529 -472.5 237 -472.5"/><text x="244" y="-483.9" fill="#000" font-family="Arial" font-size="14" text-anchor="start">created_at</text><text x="314.028" y="-483.9" fill="#666" font-family="Arial" font-size="14" text-anchor="start">[timestamp with time zone]</text><polygon fill="none" stroke="#000" stroke-width="3" points="235.5 -471.5 235.5 -659.5 530.5 -659.5 530.5 -471.5 235.5 -471.5"/></g><g id="node3" class="node"><title>public.users</title><polygon fill="#efefef" stroke="transparent" points="256 -312.5 256 -347.5 509 -347.5 509 -312.5 256 -312.5"/><polygon fill="none" stroke="#000" points="256 -312.5 256 -347.5 509 -347.5 509 -312.5 256 -312.5"/><text x="285.866" y="-325.3" fill="#000" font-family="Arial Bold" font-size="18" text-anchor="start">public.users</text><text x="385.771" y="-325.3" fill="#666" font-family="Arial" font-size="14" text-anchor="start">[BASE TABLE]</text><polygon fill="none" stroke="#000" points="256 -282.5 256 -312.5 509 -312.5 509 -282.5 256 -282.5"/><text x="263" y="-293.9" fill="#000" font-family="Arial" font-size="14" text-anchor="start">id</text><text x="277.78" y="-293.9" fill="#666" font-family="Arial" font-size="14" text-anchor="start">[uuid]</text><polygon fill="none" stroke="#000" points="256 -252.5 256 -282.5 509 -282.5 509 -252.5 256 -252.5"/><text x="263" y="-263.9" fill="#000" font-family="Arial" font-size="14" text-anchor="start">email</text><text x="300.33" y="-263.9" fill="#666" font-family="Arial" font-size="14" text-anchor="start">[citext]</text><polygon fill="none" stroke="#000" points="256 -222.5 256 -252.5 509 -252.5 509 -222.5 256 -222.5"/><text x="263" y="-233.9" fill="#000" font-family="Arial" font-size="14" text-anchor="start">phone</text><text x="305.804" y="-233.9" fill="#666" font-family="Arial" font-size="14" text-anchor="start">[varchar]</text><polygon fill="none" stroke="#000" points="256 -192.5 256 -222.5 509 -222.5 509 -192.5 256 -192.5"/><text x="263" y="-203.9" fill="#000" font-family="Arial" font-size="14" text-anchor="start">name</text><text x="301.899" y="-203.9" fill="#666" font-family="Arial" font-size="14" text-anchor="start">[varchar]</text><polygon fill="none" stroke="#000" points="256 -162.5 256 -192.5 509 -192.5 509 -162.5 256 -162.5"/><text x="263" y="-173.9" fill="#000" font-family="Arial" font-size="14" text-anchor="start">channel_name</text><text x="358.701" y="-173.9" fill="#666" font-family="Arial" font-size="14" text-anchor="start">[varchar]</text><polygon fill="none" stroke="#000" points="256 -132.5 256 -162.5 509 -162.5 509 -132.5 256 -132.5"/><text x="263" y="-143.9" fill="#000" font-family="Arial" font-size="14" text-anchor="start">description</text><text x="334.568" y="-143.9" fill="#666" font-family="Arial" font-size="14" text-anchor="start">[text]</text><polygon fill="none" stroke="#000" points="256 -102.5 256 -132.5 509 -132.5 509 -102.5 256 -102.5"/><text x="263" y="-113.9" fill="#000" font-family="Arial" font-size="14" text-anchor="start">subscriber_count</text><text x="373.47" y="-113.9" fill="#666" font-family="Arial" font-size="14" text-anchor="start">[integer]</text><polygon fill="none" stroke="#000" points="256 -72.5 256 -102.5 509 -102.5 509 -72.5 256 -72.5"/><text x="263" y="-83.9" fill="#000" font-family="Arial" font-size="14" text-anchor="start">created_at</text><text x="333.028" y="-83.9" fill="#666" font-family="Arial" font-size="14" text-anchor="start">[timestamp with time zone]</text><polygon fill="none" stroke="#000" points="256 -42.5 256 -72.5 509 -72.5 509 -42.5 256 -42.5"/><text x="262.692" y="-53.9" fill="#000" font-family="Arial" font-size="14" text-anchor="start">updated_at</text><text x="336.624" y="-53.9" fill="#666" font-family="Arial" font-size="14" text-anchor="start">[timestamp with time zone]</text></g><g id="edge2" class="edge"><title>public.play_list_names:user_id-&gt;public.users:id</title><path fill="none" stroke="#000" d="M227.0062,-546.4137C186.0203,-536.7187 204.1152,-464.524 237,-427 317.3711,-335.2906 428.6289,-482.7094 509,-391 536.3887,-359.7474 550.5556,-297.5 509,-297.5"/><polygon fill="#000" stroke="#000" points="227.059 -546.419 236.514 -551.974 232.029 -546.96 237 -547.5 237 -547.5 237 -547.5 232.029 -546.96 237.486 -543.026 227.059 -546.419 227.059 -546.419"/><text x="7.335" y="-557.5" fill="#000" font-family="Arial" font-size="10" text-anchor="start">FOREIGN KEY (user_id) REFERENCES users(id)</text></g><g id="node2" class="node"><title>public.play_lists</title><polygon fill="#efefef" stroke="transparent" points="258 -902.5 258 -937.5 507 -937.5 507 -902.5 258 -902.5"/><polygon fill="none" stroke="#000" points="258 -902.5 258 -937.5 507 -937.5 507 -902.5 258 -902.5"/><text x="270.867" y="-915.3" fill="#000" font-family="Arial Bold" font-size="18" text-anchor="start">public.play_lists</text><text x="400.77" y="-915.3" fill="#666" font-family="Arial" font-size="14" text-anchor="start">[BASE TABLE]</text><polygon fill="none" stroke="#000" points="258 -872.5 258 -902.5 507 -902.5 507 -872.5 258 -872.5"/><text x="265" y="-883.9" fill="#000" font-family="Arial" font-size="14" text-anchor="start">id</text><text x="279.78" y="-883.9" fill="#666" font-family="Arial" font-size="14" text-anchor="start">[uuid]</text><polygon fill="none" stroke="#000" points="258 -842.5 258 -872.5 507 -872.5 507 -842.5 258 -842.5"/><text x="265" y="-853.9" fill="#000" font-family="Arial" font-size="14" text-anchor="start">play_list_names_id</text><text x="387.912" y="-853.9" fill="#666" font-family="Arial" font-size="14" text-anchor="start">[bigint]</text><polygon fill="none" stroke="#000" points="258 -812.5 258 -842.5 507 -842.5 507 -812.5 258 -812.5"/><text x="265" y="-823.9" fill="#000" font-family="Arial" font-size="14" text-anchor="start">video_id</text><text x="321.017" y="-823.9" fill="#666" font-family="Arial" font-size="14" text-anchor="start">[uuid]</text><polygon fill="none" stroke="#000" points="258 -782.5 258 -812.5 507 -812.5 507 -782.5 258 -782.5"/><text x="264.644" y="-793.9" fill="#000" font-family="Arial" font-size="14" text-anchor="start">created_at</text><text x="334.672" y="-793.9" fill="#666" font-family="Arial" font-size="14" text-anchor="start">[timestamp with time zone]</text></g><g id="edge1" class="edge"><title>public.play_lists:play_list_names_id-&gt;public.play_list_names:id</title><path fill="none" stroke="#000" d="M516.9953,-856.3808C556.634,-846.6943 538.9813,-776.5285 507,-740 427.2535,-648.9149 316.7465,-795.0851 237,-704 208.748,-671.7311 194.1111,-607.5 237,-607.5"/><polygon fill="#000" stroke="#000" points="516.938 -856.387 506.499 -853.028 511.969 -856.944 507 -857.5 507 -857.5 507 -857.5 511.969 -856.944 507.501 -861.972 516.938 -856.387 516.938 -856.387"/><text x="514.322" y="-867.5" fill="#000" font-family="Arial" font-size="10" text-anchor="start">FOREIGN KEY (play_list_names_id) REFERENCES play_list_names(id) ON DELETE CASCADE</text></g></g></svg>